<svg xmlns="http://www.w3.org/2000/svg" width="23.86" height="38.551" viewBox="0 0 23.86 38.551">
  <g id="Group_8" data-name="Group 8" transform="translate(283.436 -196.744)">
    <path id="Path_31" data-name="Path 31" d="M-259.576,198.9a2.163,2.163,0,0,0-2.162-2.16h-19.537a2.163,2.163,0,0,0-2.161,2.16v34.232a2.163,2.163,0,0,0,2.161,2.16h19.537a2.163,2.163,0,0,0,2.162-2.16Zm-.736,34.232a1.426,1.426,0,0,1-1.425,1.424h-19.537a1.426,1.426,0,0,1-1.425-1.424v-3.821h22.387Zm0-4.786H-282.7V202.917h22.387Zm0-26.4H-282.7V198.9a1.426,1.426,0,0,1,1.425-1.424h19.537a1.426,1.426,0,0,1,1.425,1.424Z" transform="translate(0 0)" fill="#8d8d8d"/>
    <path id="Path_32" data-name="Path 32" d="M-206.574,219.825H-212a.274.274,0,0,0-.273.275.273.273,0,0,0,.273.273h5.431a.273.273,0,0,0,.273-.273A.274.274,0,0,0-206.574,219.825Z" transform="translate(-62.217 -20.181)" fill="#8d8d8d"/>
    <path id="Path_33" data-name="Path 33" d="M-223.258,219.932a.293.293,0,0,0-.382.009l0,0a.278.278,0,0,0-.075.191.284.284,0,0,0,.081.2.269.269,0,0,0,.189.073.29.29,0,0,0,.2-.081.28.28,0,0,0,.074-.189A.292.292,0,0,0-223.258,219.932Zm-.115.275-.012-.012,0,0a.094.094,0,0,0,.021-.058.1.1,0,0,0-.028-.066.1.1,0,0,0-.057-.02.1.1,0,0,0-.063.027.093.093,0,0,0-.021.06.093.093,0,0,0,.025.062.1.1,0,0,0,.116,0l.012.013a.093.093,0,0,1-.068.027.1.1,0,0,1-.079-.038.091.091,0,0,1-.025-.064.1.1,0,0,1,.036-.077.094.094,0,0,1,.066-.029.11.11,0,0,1,.076.036.1.1,0,0,1,.029.071A.1.1,0,0,1-223.374,220.207Z" transform="translate(-52.214 -20.216)" fill="#8d8d8d"/>
    <g id="Group_7" data-name="Group 7" transform="translate(-272.827 231.079)">
      <circle id="Ellipse_1" data-name="Ellipse 1" cx="0.942" cy="0.942" r="0.942" transform="translate(0)" fill="#8d8d8d"/>
    </g>
  </g>
</svg>
