<svg xmlns="http://www.w3.org/2000/svg" width="27.722" height="27.758" viewBox="0 0 27.722 27.758">
  <path id="Path_74" data-name="Path 74" d="M1248.82,856.839v-1.021c-.085-.157-.162-.321-.239-.486a3.812,3.812,0,0,0-.6-1c-1.157-1.231-2.416-2.5-4.083-4.1a2.621,2.621,0,0,0-3.865.062q-.766.765-1.537,1.539l-.863.864-.086-.06a31.05,31.05,0,0,1-7.64-7.649l-.06-.085.653-.649c.6-.6,1.187-1.178,1.771-1.764a2.584,2.584,0,0,0,.128-3.741c-1.417-1.5-2.858-2.941-4.286-4.285a2.562,2.562,0,0,0-3.739.108q-.246.246-.487.5c-.318.325-.646.662-.989.972a5.7,5.7,0,0,0-1.764,5.107,14.1,14.1,0,0,0,1.319,4.718,29.392,29.392,0,0,0,8.353,10.521,22.057,22.057,0,0,0,8.978,4.791c.289.068.581.131.872.193l.432.093h1.939l.139-.036c.209-.055.418-.108.628-.161a4.919,4.919,0,0,0,2.466-1.379c.175-.187.359-.364.545-.542a9.937,9.937,0,0,0,.749-.773c.321-.385.617-.806.9-1.213C1248.576,857.181,1248.7,857.009,1248.82,856.839Zm-1.93.278c-.159.16-.321.317-.483.473-.3.293-.62.6-.9.918a4.158,4.158,0,0,1-3.377,1.449,7.9,7.9,0,0,1-.848-.049,12.738,12.738,0,0,1-4.549-1.436,29.128,29.128,0,0,1-13.005-13.362,10.859,10.859,0,0,1-1.169-4.621,4.2,4.2,0,0,1,1.411-3.412c.321-.282.626-.6.921-.9.143-.148.286-.3.432-.441a1.171,1.171,0,0,1,1.948-.019c.5.493,1,.992,1.494,1.491.611.614,1.243,1.25,1.875,1.864.66.643.994,1.05.986,1.494s-.389.89-1,1.442c-.481.434-.941.909-1.386,1.368l-.352.362a1.529,1.529,0,0,0-.2,2.121,32.119,32.119,0,0,0,7.961,7.97,1.555,1.555,0,0,0,2.167-.211c.405-.4.8-.8,1.2-1.2q.558-.56,1.12-1.115a1.083,1.083,0,0,1,1.627-.065c1.5,1.46,2.88,2.84,4.212,4.218A1.063,1.063,0,0,1,1246.89,857.117Z" transform="translate(-1221.098 -833.699)" fill="#fff"/>
</svg>
