<svg xmlns="http://www.w3.org/2000/svg" width="46.28" height="40.155" viewBox="0 0 46.28 40.155">
  <path id="Path_61" data-name="Path 61" d="M60.239,103a20.045,20.045,0,0,0-20.018,20.028v2.526l-5.736-8.639a.213.213,0,0,0-.138-.093.216.216,0,0,0-.164.031.211.211,0,0,0-.091.137.215.215,0,0,0,.031.164L40.2,126.3c.007.01.241.017.249.025l8-7.094a.22.22,0,1,0-.3-.324l-7.493,6.772v-2.648a19.588,19.588,0,1,1,30,16.59v-5.234a2.51,2.51,0,0,0-.706-1.746l-.326-.339-.71-.312-4.414-1.6-.087-1.15V127.24l.1-.085c.115-.1.209-.177.294-.256a5.946,5.946,0,0,0,1.873-4.322v-1.455l.026-.056a5.857,5.857,0,0,0,.542-2.462l-.779-5.18a.248.248,0,0,0-.248-.248l-7.167-.5a4.794,4.794,0,0,0-4.788,4.788V118.6a5.858,5.858,0,0,0,.542,2.462l.026.056v1.26a6.191,6.191,0,0,0,2.17,4.735l.1.085v2.029l-.055,1.119-4.531,1.667c-.93.295-1.638,1.6-1.638,1.6l-.02,5.987c0,.021,0,.383.008.637A19.587,19.587,0,0,1,46.4,136.88a.215.215,0,0,0-.153-.065.218.218,0,0,0-.155.066.213.213,0,0,0,0,.309A20.022,20.022,0,1,0,60.239,103Zm-4.908,19.382v-1.317a.249.249,0,0,0-.025-.108,5.374,5.374,0,0,1-.543-2.354v-1.135a4.3,4.3,0,0,1,4.293-4.293l6.92.5.779,4.932a5.372,5.372,0,0,1-.543,2.354.249.249,0,0,0-.025.108v1.511a5.376,5.376,0,0,1-1.717,3.961,5.552,5.552,0,0,1-.429.364l-.014.011a5.328,5.328,0,0,1-3.257,1.093q-.185,0-.372-.012A5.541,5.541,0,0,1,55.332,122.382Zm8.585,5.23v3.059l-.584,1.132-2.573,1.706-2.548-1.536L57.6,130.9v-3.313l.418.226a5.672,5.672,0,0,0,2.346.677c.133.009.267.013.4.013a5.83,5.83,0,0,0,2.738-.671Zm-9.158,14.231a.405.405,0,0,0,0-.062V137.4a.256.256,0,1,0-.5,0v4.293a19.292,19.292,0,0,1-2.91-1.2v-6.113a2.029,2.029,0,0,1,1.331-1.9l4.324-1.567.885,1.442c.136.2,2.613,1.709,2.613,1.709V139.6a.248.248,0,1,0,.5,0v-5.534s2.477-1.5,2.613-1.709l.863-1.367,4.346,1.491a2.029,2.029,0,0,1,1.331,1.9v5.536a19.5,19.5,0,0,1-2.834,1.377v-3.915a.252.252,0,1,0-.5,0v4.1a19.67,19.67,0,0,1-12.071.363Z" transform="translate(-34.037 -102.95)" fill="#8d8d8d" stroke="#8d8d8d" stroke-width="0.1"/>
</svg>
