<svg xmlns="http://www.w3.org/2000/svg" width="52.063" height="38" viewBox="0 0 52.063 38">
  <g id="Group_13" data-name="Group 13" transform="translate(-516.772 487.136)">
    <path id="Path_53" data-name="Path 53" d="M568.473-449.136a.362.362,0,0,0,.362-.362v-6.409a2.859,2.859,0,0,0-2.065-2.738l-3.2-.914a.74.74,0,0,1-.534-.708v-1.284l.178-.123a5.418,5.418,0,0,0,.688-.564,5.29,5.29,0,0,0,1.619-3.827v-1.571l.353-.706a4.527,4.527,0,0,0,.475-2.014l-1.033-3.373a.362.362,0,0,0-.362-.362l-6.422-.62a4.509,4.509,0,0,0-4.5,4.5v.046a3.694,3.694,0,0,0,.388,1.643l.44.881v1.363a5.628,5.628,0,0,0,2.314,4.553l.171.124v1.33c0,.518-.355.657-.94.824l-1.69.483-4.937-1.8.024-.312a.362.362,0,0,0-.1-.277l-1.557-1.636v-2.905l.15-.124c.168-.139.3-.258.429-.374a8.678,8.678,0,0,0,2.734-6.309v-2.123l.038-.082a8.549,8.549,0,0,0,.791-3.594l-1.136-7.56a.362.362,0,0,0-.362-.362l-10.461-.723a7,7,0,0,0-6.988,6.989v1.657a8.55,8.55,0,0,0,.791,3.593l.038.082v1.839a9.036,9.036,0,0,0,3.168,6.91l.146.124v2.962l-1.557,1.636a.362.362,0,0,0-.1.277l.024.313-5.061,1.84a3.652,3.652,0,0,0-.86.451l-.2.143-1.761-.88.811-.353a5.6,5.6,0,0,0,2.763-2.208.363.363,0,0,0,0-.323c-.6-1.2-.668-3.3-.724-4.981-.018-.543-.035-1.055-.067-1.51a6.33,6.33,0,0,0-6.159-6.135,6.33,6.33,0,0,0-6.159,6.135c-.032.456-.049.968-.067,1.51-.056,1.685-.125,3.782-.724,4.981a.363.363,0,0,0,0,.323,5.6,5.6,0,0,0,2.766,2.206l.811.353-2.87,1.435a2.832,2.832,0,0,0-1.574,2.546v5.724a.362.362,0,0,0,.362.362.362.362,0,0,0,.362-.362v-5.724a2.112,2.112,0,0,1,1.174-1.9l2.848-1.424,1.111,1.056a2.835,2.835,0,0,0,1.961.784,2.835,2.835,0,0,0,1.961-.784l1.111-1.055,1.51.755-.241.385a3.665,3.665,0,0,0-.56,1.944v5.963a.362.362,0,0,0,.362.362.362.362,0,0,0,.362-.362v-5.963a2.961,2.961,0,0,1,1.943-2.774l5.331-1.938,2.272,3.408a1.185,1.185,0,0,0,.873.524,1.188,1.188,0,0,0,.959-.343l1.982-1.982v9.068a.362.362,0,0,0,.362.362.362.362,0,0,0,.362-.362v-9.068l1.982,1.982a1.183,1.183,0,0,0,.959.343,1.186,1.186,0,0,0,.873-.524l2.272-3.408,5.331,1.939a2.961,2.961,0,0,1,1.943,2.774v5.963a.362.362,0,0,0,.362.362.362.362,0,0,0,.362-.362v-5.963a3.664,3.664,0,0,0-1.031-2.548l-.476-.5.852-.243a3.894,3.894,0,0,0,.652-.234l.265-.13,2.308,2.308v7.306a.362.362,0,0,0,.362.362.362.362,0,0,0,.362-.362V-456.8l2.3-2.3.268.136a1.435,1.435,0,0,0,.255.1l3.2.914a2.133,2.133,0,0,1,1.54,2.042v6.409A.362.362,0,0,0,568.473-449.136Zm-49.388-17.906c.016-.508.033-1.034.065-1.483a6.164,6.164,0,0,1,1.682-3.871,5.2,5.2,0,0,1,3.756-1.592,5.2,5.2,0,0,1,3.756,1.592,6.166,6.166,0,0,1,1.682,3.871c.031.444.049.972.066,1.483l.055,1.625-.81-1.248a6.514,6.514,0,0,0-3.607-2.628,9.339,9.339,0,0,0-2.81-.447.359.359,0,0,0-.249.11l-1.4,1.45a.362.362,0,0,0,.009.511.362.362,0,0,0,.511-.009l1.293-1.341.187.009c1.026.05,4.48.445,5.834,3.425l.051.112-.019.122a4.579,4.579,0,0,1-4.552,3.894,4.614,4.614,0,0,1-4.609-4.609.362.362,0,0,0-.362-.362.36.36,0,0,0-.059.006l-.5.084Zm2.657,7.22-.553-.2a5.987,5.987,0,0,1-2.667-1.724l-.152-.185.086-.224a8.063,8.063,0,0,0,.418-1.764l.208-1.5.582,1.4a5.348,5.348,0,0,0,1.9,2.342l.178.123Zm4.31,1.808a2.117,2.117,0,0,1-1.463.585,2.118,2.118,0,0,1-1.463-.585l-.948-.9.148-.277a1.2,1.2,0,0,0,.14-.562v-1.388l.536.168a5.372,5.372,0,0,0,3.175,0l.536-.166v1.386a1.2,1.2,0,0,0,.14.562l.148.278Zm1.384-1.806v-1.729l.179-.123a5.3,5.3,0,0,0,1.9-2.343l.581-1.4.209,1.5a8.058,8.058,0,0,0,.418,1.76l.086.224-.152.186a6.008,6.008,0,0,1-2.666,1.725Zm7.456-13.157V-474.9a.363.363,0,0,0-.036-.157,7.844,7.844,0,0,1-.792-3.436v-1.657a6.273,6.273,0,0,1,6.265-6.265l10.1.723,1.136,7.2a7.84,7.84,0,0,1-.793,3.435.364.364,0,0,0-.036.157v2.206a7.847,7.847,0,0,1-2.505,5.781,8.1,8.1,0,0,1-.627.531l-.021.016a7.777,7.777,0,0,1-4.754,1.6q-.27,0-.543-.018A8.088,8.088,0,0,1,534.891-472.976Zm5.069,15.88a.463.463,0,0,1-.33.138l-.049,0a.464.464,0,0,1-.342-.208l-2.591-3.886,1.245-1.309,4.357,2.978Zm2.854-2.78-4.609-3.15v-2.357l.61.33a8.276,8.276,0,0,0,3.424.989c.194.013.39.019.583.019a8.507,8.507,0,0,0,4-.979l.605-.318v2.317Zm3.574,2.71a.465.465,0,0,1-.338.206.462.462,0,0,1-.053,0,.462.462,0,0,1-.326-.135l-2.293-2.293,4.357-2.978,1.245,1.309Zm13.8-.3-2.211-2.211.049-.221a1.718,1.718,0,0,0,.038-.371v-.9l.542.178a5.03,5.03,0,0,0,1.418.251l.166,0a5.348,5.348,0,0,0,1.586-.24l.536-.166v.873a1.445,1.445,0,0,0,.044.351l.057.227Zm0-3.992-.147,0a4.753,4.753,0,0,1-4.466-4.815v-1.448a.36.36,0,0,0-.038-.161l-.479-.958a2.967,2.967,0,0,1-.312-1.32v-.046a3.785,3.785,0,0,1,3.78-3.78l6.061.62,1.033,3.011a3.8,3.8,0,0,1-.4,1.691l-.391.782a.363.363,0,0,0-.038.162v1.657a4.572,4.572,0,0,1-1.4,3.308h0A4.567,4.567,0,0,1,560.194-461.456Z" fill="#8d8d8d"/>
    <path id="Path_54" data-name="Path 54" d="M982.418-169.056v-4.97a.362.362,0,0,0-.362-.362.362.362,0,0,0-.362.362v4.97a.362.362,0,0,0,.362.362A.362.362,0,0,0,982.418-169.056Z" transform="translate(-416.897 -280.441)" fill="#8d8d8d"/>
    <path id="Path_55" data-name="Path 55" d="M549.572-160.166v-3.946a.362.362,0,0,0-.362-.362.362.362,0,0,0-.362.362v3.946a.362.362,0,0,0,.362.362A.362.362,0,0,0,549.572-160.166Z" transform="translate(-28.763 -289.331)" fill="#8d8d8d"/>
    <path id="Path_56" data-name="Path 56" d="M677.518-158.349a.362.362,0,0,0-.362.362v3.314a.362.362,0,0,0,.362.362.362.362,0,0,0,.362-.362v-3.314A.362.362,0,0,0,677.518-158.349Z" transform="translate(-143.816 -294.824)" fill="#8d8d8d"/>
    <path id="Path_57" data-name="Path 57" d="M854.3-154.674v-3.314a.362.362,0,0,0-.362-.362.362.362,0,0,0-.362.362v3.314a.362.362,0,0,0,.362.362A.362.362,0,0,0,854.3-154.674Z" transform="translate(-302.014 -294.824)" fill="#8d8d8d"/>
  </g>
</svg>
