<?xml version="1.0" encoding="utf-8"?>
<!-- Generator: Adobe Illustrator 15.1.0, SVG Export Plug-In . SVG Version: 6.00 Build 0)  -->
<!DOCTYPE svg PUBLIC "-//W3C//DTD SVG 1.1//EN" "http://www.w3.org/Graphics/SVG/1.1/DTD/svg11.dtd" [
	<!ENTITY ns_extend "http://ns.adobe.com/Extensibility/1.0/">
	<!ENTITY ns_ai "http://ns.adobe.com/AdobeIllustrator/10.0/">
	<!ENTITY ns_graphs "http://ns.adobe.com/Graphs/1.0/">
	<!ENTITY ns_vars "http://ns.adobe.com/Variables/1.0/">
	<!ENTITY ns_imrep "http://ns.adobe.com/ImageReplacement/1.0/">
	<!ENTITY ns_sfw "http://ns.adobe.com/SaveForWeb/1.0/">
	<!ENTITY ns_custom "http://ns.adobe.com/GenericCustomNamespace/1.0/">
	<!ENTITY ns_adobe_xpath "http://ns.adobe.com/XPath/1.0/">
]>
<svg version="1.1" id="Layer_1" xmlns:x="&ns_extend;" xmlns:i="&ns_ai;" xmlns:graph="&ns_graphs;"
	 xmlns="http://www.w3.org/2000/svg" xmlns:xlink="http://www.w3.org/1999/xlink" x="0px" y="0px" width="237px" height="44px"
	 viewBox="110 252 237 44" enable-background="new 110 252 237 44" xml:space="preserve">
<metadata>
	<sfw  xmlns="&ns_sfw;">
		<slices></slices>
		<sliceSourceBounds  width="232.636" height="39.559" x="110.754" y="307.941" bottomLeftOrigin="true"></sliceSourceBounds>
	</sfw>
</metadata>
<g>
	<path fill="#FFFFFF" d="M138.737,277.831c-6.276,7.462-15.316,12.705-19.814,10.215c0.146,0.274,0.318,0.525,0.515,0.755
		c0.614,0.445,1.245,0.847,1.89,1.211c4.179,1.27,12.456-2.753,18.681-10.155c6.224-7.403,8.305-15.701,6.339-19.599
		c-0.469-0.571-0.979-1.127-1.521-1.654c-0.259-0.155-0.537-0.278-0.832-0.378C146.668,261.278,145.011,270.37,138.737,277.831"/>
	<path fill="#FFFFFF" d="M121.436,273.942c-2.9-8.954,0.607-16.424,3.483-19.454c-0.397-0.119-0.779-0.155-1.142-0.107
		c-0.387,0.155-0.77,0.318-1.142,0.489c-2.718,2.159-6.485,10.645-3.378,20.238c3.107,9.598,12.001,16.946,15.469,17.102
		c0.405-0.08,0.807-0.17,1.212-0.274c0.318-0.172,0.609-0.425,0.862-0.754C132.692,290.413,124.333,282.897,121.436,273.942"/>
	<path fill="#FFFFFF" d="M149.497,279.881c-0.51-2.471-6.301-8.219-14.505-13.314c-8.201-5.095-16.07-7.829-18.508-7.187
		c-0.282,0.303-0.554,0.621-0.817,0.947c0,0.158,0.04,0.337,0.098,0.524c-0.33,0.591-0.86,1.528-1.178,2.063
		c0.438-0.468,1.272-0.875,1.776-0.875c3.697-0.171,10.677,1.946,17.565,6.224c6.89,4.279,11.755,9.517,13.239,12.908
		c0.252,0.894-0.499,1.613-0.499,1.613l1.648-1.349l0.032-0.236c0.26-0.029,0.485-0.08,0.664-0.166
		C149.186,280.652,149.348,280.269,149.497,279.881"/>
	<path fill="#FFFFFF" d="M114.586,262.914c-0.104,0.113-0.197,0.229-0.245,0.341C114.269,263.429,114.388,263.25,114.586,262.914"/>
	<path fill="#FFFFFF" d="M140.384,257.248c8.97,5.396,12.054,16.727,6.889,25.305l0.707,0.426
		c5.633-9.359,2.612-21.511-6.746-27.143c-9.358-5.632-21.51-2.615-27.146,6.743l0.708,0.425
		C119.96,254.428,131.417,251.851,140.384,257.248"/>
	<path fill="#FFFFFF" d="M120.835,289.722c3.209,1.933,6.747,2.847,10.237,2.837h0.039c6.675-0.032,13.174-3.442,16.869-9.579
		l-0.707-0.427c-5.163,8.579-16.354,10.863-25.321,5.466c-8.967-5.398-12.319-16.434-7.156-25.015l-0.708-0.425
		c-1.926,3.201-2.84,6.728-2.833,10.209v0.079C111.291,279.539,114.702,286.031,120.835,289.722"/>
	<path fill="#FFFFFF" d="M143.763,257.644c-0.209-0.176-0.418-0.346-0.633-0.511c-0.472-0.364-0.955-0.706-1.45-1.021
		c-4.681-2.285-13.838,1.012-20.303,8.704c-6.468,7.692-7.993,17.095-4.935,21.313c0.395,0.434,0.815,0.85,1.254,1.254
		c0.2,0.18,0.403,0.361,0.609,0.535c0.37,0.31,0.746,0.603,1.132,0.884c-0.197-0.23-0.369-0.48-0.515-0.755
		c-2.059-3.861,1.207-12.318,7.479-19.783c6.275-7.46,13.437-11.4,17.593-10.037c0.295,0.099,0.572,0.223,0.832,0.378
		C144.484,258.274,144.131,257.951,143.763,257.644"/>
	<path fill="#FFFFFF" d="M143.213,269.065c-3.067-9.478-11.301-15.707-15.521-15.779c-0.545,0.092-1.091,0.21-1.633,0.352
		c-0.372,0.099-0.745,0.206-1.119,0.327c-0.394,0.129-0.78,0.266-1.163,0.416c0.364-0.048,0.744-0.011,1.142,0.107
		c3.406,0.995,10.504,7.183,13.401,16.139c2.897,8.957,0.658,17.751-1.519,20.555c-0.253,0.33-0.544,0.583-0.863,0.754
		c0.397-0.102,0.792-0.213,1.187-0.345c0.373-0.119,0.738-0.25,1.098-0.389c0.523-0.203,1.032-0.426,1.529-0.67
		C143.127,287.996,146.283,278.544,143.213,269.065"/>
	<path fill="#FFFFFF" d="M113.844,263c-0.109,0.188-0.215,0.381-0.315,0.571c-1.012,2.996,3.436,11.503,12.311,17.017
		c8.878,5.511,18.97,6.033,21.208,3.801c0.127-0.175,0.252-0.355,0.372-0.537c0.142-0.209,0.279-0.42,0.417-0.638
		c0.44-0.708,0.832-1.439,1.176-2.181c-4.038,1.591-12.757-1.709-19.648-5.989c-6.889-4.279-14.131-11.538-13.699-14.718
		c-0.513,0.635-0.995,1.307-1.436,2.018C114.097,262.563,113.969,262.781,113.844,263"/>
	<path fill="#FFFFFF" d="M165.941,272.833v-0.053c0-5.271,4.028-9.4,9.504-9.4c3.691,0,6.069,1.547,7.667,3.745l-3.77,2.918
		c-1.033-1.267-2.22-2.119-3.949-2.119c-2.531,0-4.314,2.17-4.314,4.805v0.051c0,2.71,1.783,4.829,4.314,4.829
		c1.884,0,2.996-0.878,4.079-2.197l3.769,2.686c-1.704,2.351-4.002,4.079-7.977,4.079
		C170.102,282.178,165.941,278.226,165.941,272.833"/>
	<polygon fill="#FFFFFF" points="188.007,263.743 193.302,263.743 197.614,270.739 201.927,263.743 207.219,263.743 
		207.219,281.819 202.234,281.819 202.234,271.435 197.614,278.513 197.511,278.513 192.915,271.462 192.915,281.819 
		188.007,281.819 	"/>
	<polygon fill="#FFFFFF" points="212.995,263.743 218.286,263.743 222.598,270.739 226.912,263.743 232.206,263.743 
		232.206,281.819 227.222,281.819 227.222,271.435 222.598,278.513 222.495,278.513 217.898,271.462 217.898,281.819 
		212.995,281.819 	"/>
	<rect x="238.13" y="263.743" fill="#FFFFFF" width="5.008" height="18.076"/>
	<path fill="#FFFFFF" d="M249.976,263.742h6.273c5.681,0,9.606,3.899,9.606,8.986v0.051c0,5.086-3.925,9.039-9.606,9.039h-6.273
		V263.742z M252.014,265.627v14.307h4.235c4.57,0,7.489-3.099,7.489-7.101v-0.053c0-4.003-2.918-7.153-7.489-7.153H252.014z"/>
	<polygon fill="#FFFFFF" points="272.759,263.743 285.825,263.743 285.825,265.602 274.799,265.602 274.799,271.773 
		284.661,271.773 284.661,273.633 274.799,273.633 274.799,279.96 285.955,279.96 285.955,281.819 272.759,281.819 	"/>
	<polygon fill="#FFFFFF" points="291.084,263.743 293.356,263.743 299.787,279.315 306.239,263.743 308.438,263.743 
		300.662,281.947 298.856,281.947 	"/>
	<polygon fill="#FFFFFF" points="324.791,263.743 315.735,281.819 317.57,281.819 326.626,263.743 	"/>
	<path fill="#FFFFFF" d="M330.307,279.417l2.393-2.855c1.363,1.234,2.701,1.955,4.298,1.955c1.851,0,3.01-0.901,3.01-2.496v-0.051
		c0-1.543-1.313-2.444-3.19-2.444c-1.133,0-2.162,0.308-3.011,0.668l-2.288-1.519l0.514-8.875h11.063v3.473h-7.668l-0.206,3.113
		c0.721-0.181,1.364-0.31,2.368-0.31c3.499,0,6.303,1.699,6.303,5.763v0.052c0,3.809-2.702,6.226-6.844,6.226
		C334.166,282.118,332.056,281.089,330.307,279.417"/>
</g>
</svg>
