<?xml version="1.0" encoding="utf-8"?>
<!-- Generator: Adobe Illustrator 25.3.1, SVG Export Plug-In . SVG Version: 6.00 Build 0)  -->
<!DOCTYPE svg PUBLIC "-//W3C//DTD SVG 1.1//EN" "http://www.w3.org/Graphics/SVG/1.1/DTD/svg11.dtd" [
	<!ENTITY ns_extend "http://ns.adobe.com/Extensibility/1.0/">
	<!ENTITY ns_ai "http://ns.adobe.com/AdobeIllustrator/10.0/">
	<!ENTITY ns_graphs "http://ns.adobe.com/Graphs/1.0/">
	<!ENTITY ns_vars "http://ns.adobe.com/Variables/1.0/">
	<!ENTITY ns_imrep "http://ns.adobe.com/ImageReplacement/1.0/">
	<!ENTITY ns_sfw "http://ns.adobe.com/SaveForWeb/1.0/">
	<!ENTITY ns_custom "http://ns.adobe.com/GenericCustomNamespace/1.0/">
	<!ENTITY ns_adobe_xpath "http://ns.adobe.com/XPath/1.0/">
]>
<svg version="1.1" id="Layer_1" xmlns:x="&ns_extend;" xmlns:i="&ns_ai;" xmlns:graph="&ns_graphs;"
	 xmlns="http://www.w3.org/2000/svg" xmlns:xlink="http://www.w3.org/1999/xlink" x="0px" y="0px" viewBox="0 0 365 96"
	 style="enable-background:new 0 0 365 96;" xml:space="preserve">
<style type="text/css">
	.Drop_x0020_Shadow{fill:none;}
	.Outer_x0020_Glow_x0020_5_x0020_pt{fill:none;}
	.Blue_x0020_Neon{fill:none;stroke:#8AACDA;stroke-width:7;stroke-linecap:round;stroke-linejoin:round;}
	.Chrome_x0020_Highlight{fill:url(#SVGID_1_);stroke:#FFFFFF;stroke-width:0.3629;stroke-miterlimit:1;}
	.Jive_GS{fill:#FFDD00;}
	.Alyssa_GS{fill:#A6D0E4;}
	.st0{fill:#FFFFFF;}
</style>
<metadata>
	<sfw  xmlns="&ns_sfw;">
		<slices></slices>
		<sliceSourceBounds  bottomLeftOrigin="true" height="54.7" width="321.5" x="255.4" y="-736.4"></sliceSourceBounds>
	</sfw>
</metadata>
<linearGradient id="SVGID_1_" gradientUnits="userSpaceOnUse" x1="-238" y1="-660" x2="-238" y2="-661">
	<stop  offset="0" style="stop-color:#656565"/>
	<stop  offset="0.618" style="stop-color:#1B1B1B"/>
	<stop  offset="0.6292" style="stop-color:#545454"/>
	<stop  offset="0.9831" style="stop-color:#3E3E3E"/>
</linearGradient>
<g>
	<path class="st0" d="M55.3,56.1C46.7,66.4,34.2,73.6,28,70.2c0.2,0.4,0.4,0.7,0.7,1c0.8,0.6,1.7,1.2,2.6,1.7
		c5.8,1.8,17.2-3.8,25.8-14c8.6-10.2,11.5-21.7,8.8-27.1c-0.6-0.8-1.4-1.6-2.1-2.3c-0.4-0.2-0.7-0.4-1.2-0.5
		C66.3,33.2,64,45.8,55.3,56.1"/>
	<path class="st0" d="M31.4,50.7c-4-12.4,0.8-22.7,4.8-26.9c-0.5-0.2-1.1-0.2-1.6-0.1c-0.5,0.2-1.1,0.4-1.6,0.7
		c-3.8,3-9,14.7-4.7,28C32.7,65.6,45,75.7,49.8,76c0.6-0.1,1.1-0.2,1.7-0.4c0.4-0.2,0.8-0.6,1.2-1C47,73.5,35.4,63.1,31.4,50.7"/>
	<path class="st0" d="M70.2,58.9c-0.7-3.4-8.7-11.4-20-18.4c-11.3-7-22.2-10.8-25.6-9.9c-0.4,0.4-0.8,0.9-1.1,1.3
		c0,0.2,0.1,0.5,0.1,0.7c-0.5,0.8-1.2,2.1-1.6,2.9c0.6-0.6,1.8-1.2,2.5-1.2c5.1-0.2,14.8,2.7,24.3,8.6C58.2,48.8,64.9,56,67,60.7
		c0.3,1.2-0.7,2.2-0.7,2.2l2.3-1.9l0-0.3c0.4,0,0.7-0.1,0.9-0.2C69.8,60,70,59.5,70.2,58.9"/>
	<path class="st0" d="M22,35.5c-0.1,0.2-0.3,0.3-0.3,0.5C21.5,36.2,21.7,35.9,22,35.5"/>
	<path class="st0" d="M57.6,27.6c12.4,7.5,16.7,23.1,9.5,35l1,0.6c7.8-12.9,3.6-29.7-9.3-37.5c-12.9-7.8-29.7-3.6-37.5,9.3l1,0.6
		C29.4,23.7,45.2,20.2,57.6,27.6"/>
	<path class="st0" d="M30.6,72.5c4.4,2.7,9.3,3.9,14.1,3.9h0.1c9.2,0,18.2-4.8,23.3-13.2l-1-0.6c-7.1,11.9-22.6,15-35,7.6
		c-12.4-7.5-17-22.7-9.9-34.6l-1-0.6c-2.7,4.4-3.9,9.3-3.9,14.1v0.1C17.4,58.4,22.1,67.4,30.6,72.5"/>
	<path class="st0" d="M62.3,28.2c-0.3-0.2-0.6-0.5-0.9-0.7c-0.7-0.5-1.3-1-2-1.4c-6.5-3.2-19.1,1.4-28.1,12
		c-8.9,10.6-11,23.6-6.8,29.5c0.5,0.6,1.1,1.2,1.7,1.7c0.3,0.2,0.6,0.5,0.8,0.7c0.5,0.4,1,0.8,1.6,1.2c-0.3-0.3-0.5-0.7-0.7-1
		c-2.8-5.3,1.7-17,10.3-27.3C47,32.6,56.9,27.1,62.6,29c0.4,0.1,0.8,0.3,1.2,0.5C63.3,29.1,62.8,28.6,62.3,28.2"/>
	<path class="st0" d="M61.5,44c-4.2-13.1-15.6-21.7-21.5-21.8c-0.8,0.1-1.5,0.3-2.3,0.5c-0.5,0.1-1,0.3-1.5,0.5
		c-0.5,0.2-1.1,0.4-1.6,0.6c0.5-0.1,1,0,1.6,0.1c4.7,1.4,14.5,9.9,18.5,22.3c4,12.4,0.9,24.5-2.1,28.4c-0.3,0.5-0.8,0.8-1.2,1
		c0.5-0.1,1.1-0.3,1.6-0.5c0.5-0.2,1-0.3,1.5-0.5c0.7-0.3,1.4-0.6,2.1-0.9C61.4,70.1,65.8,57.1,61.5,44"/>
	<path class="st0" d="M20.9,35.6c-0.2,0.3-0.3,0.5-0.4,0.8c-1.4,4.1,4.7,15.9,17,23.5c12.3,7.6,26.2,8.3,29.3,5.3
		c0.2-0.2,0.3-0.5,0.5-0.7c0.2-0.3,0.4-0.6,0.6-0.9c0.6-1,1.2-2,1.6-3c-5.6,2.2-17.6-2.4-27.2-8.3c-9.5-5.9-19.5-15.9-18.9-20.3
		c-0.7,0.9-1.4,1.8-2,2.8C21.3,35,21.1,35.3,20.9,35.6"/>
	<path class="st0" d="M92.9,49.2L92.9,49.2c0-7.4,5.6-13.1,13.1-13.1c5.1,0,8.4,2.1,10.6,5.2l-5.2,4c-1.4-1.8-3.1-2.9-5.5-2.9
		c-3.5,0-6,3-6,6.6v0.1c0,3.7,2.5,6.7,6,6.7c2.6,0,4.1-1.2,5.6-3l5.2,3.7c-2.4,3.2-5.5,5.6-11,5.6C98.7,62.1,92.9,56.6,92.9,49.2"/>
	<polygon class="st0" points="123.4,36.6 130.8,36.6 136.7,46.3 142.7,36.6 150,36.6 150,61.6 143.1,61.6 143.1,47.2 136.7,57 
		136.6,57 130.2,47.3 130.2,61.6 123.4,61.6 	"/>
	<polygon class="st0" points="158,36.6 165.3,36.6 171.3,46.3 177.2,36.6 184.5,36.6 184.5,61.6 177.6,61.6 177.6,47.2 171.3,57 
		171.1,57 164.8,47.3 164.8,61.6 158,61.6 	"/>
	<rect x="192.7" y="36.6" class="st0" width="6.9" height="25"/>
	<path class="st0" d="M209.1,36.6h8.7c7.9,0,13.3,5.4,13.3,12.4v0.1c0,7-5.4,12.5-13.3,12.5h-8.7V36.6z M211.9,39.2V59h5.9
		c6.3,0,10.4-4.3,10.4-9.8v-0.1c0-5.5-4-9.9-10.4-9.9H211.9z"/>
	<polygon class="st0" points="240.6,36.6 258.6,36.6 258.6,39.2 243.4,39.2 243.4,47.7 257,47.7 257,50.3 243.4,50.3 243.4,59 
		258.8,59 258.8,61.6 240.6,61.6 	"/>
	<polygon class="st0" points="265.9,36.6 269.1,36.6 277.9,58.1 286.9,36.6 289.9,36.6 279.2,61.8 276.7,61.8 	"/>
	<polygon class="st0" points="312.5,36.6 300,61.6 302.5,61.6 315,36.6 	"/>
	<path class="st0" d="M320.1,58.3l3.3-3.9c1.9,1.7,3.7,2.7,5.9,2.7c2.6,0,4.2-1.2,4.2-3.4v-0.1c0-2.1-1.8-3.4-4.4-3.4
		c-1.6,0-3,0.4-4.2,0.9l-3.2-2.1l0.7-12.3h15.3v4.8h-10.6l-0.3,4.3c1-0.2,1.9-0.4,3.3-0.4c4.8,0,8.7,2.3,8.7,8v0.1
		c0,5.3-3.7,8.6-9.5,8.6C325.5,62,322.5,60.6,320.1,58.3"/>
</g>
</svg>
