<svg xmlns="http://www.w3.org/2000/svg" width="31.609" height="44.12" viewBox="0 0 31.609 44.12">
  <path id="Path_60" data-name="Path 60" d="M1642.4-466.5h0a24.267,24.267,0,0,0-8.13-1.5,14.475,14.475,0,0,0-6.85,1.555,14.079,14.079,0,0,1-6.534,1.285,38.276,38.276,0,0,1-8.533-1.108v-2.071h-.4l-.018-.028v.028h-.418v44.092h.835v-17.522a39.664,39.664,0,0,0,8.533,1.041,16.313,16.313,0,0,0,7.616-1.555,12.2,12.2,0,0,1,5.768-1.286,22.15,22.15,0,0,1,7.273,1.337,1.148,1.148,0,0,0,1.075-.116,1.149,1.149,0,0,0,.509-.956v-22.124A1.149,1.149,0,0,0,1642.4-466.5Zm-.109,23.2a.316.316,0,0,1-.142.264.316.316,0,0,1-.3.031,23.08,23.08,0,0,0-7.58-1.4,13.021,13.021,0,0,0-6.159,1.383,15.505,15.505,0,0,1-7.225,1.457,38.971,38.971,0,0,1-8.533-1.063v-22.784a38.94,38.94,0,0,0,8.533,1.084,14.877,14.877,0,0,0,6.925-1.383,13.655,13.655,0,0,1,6.459-1.457,23.339,23.339,0,0,1,7.821,1.443.318.318,0,0,1,.2.3Z" transform="translate(-1611.521 468.369)" fill="#8d8d8d"/>
</svg>
