<svg xmlns="http://www.w3.org/2000/svg" width="44.327" height="33.794" viewBox="0 0 44.327 33.794">
  <g id="Group_16" data-name="Group 16" transform="translate(86.172 -202.545)">
    <path id="Path_34" data-name="Path 34" d="M-46.957,203.148a2.04,2.04,0,0,0-1.487-.553h-.007c-7.328.018-14.778.015-21.982.012l-8.5,0h-.291c-1.722,0-3.5,0-5.252.021a1.6,1.6,0,0,0-1.378.825,3.926,3.926,0,0,0-.211.393l-.057.116v24.9c.026.056.051.112.076.168a2.891,2.891,0,0,0,.236.455,1.852,1.852,0,0,0,1.643.791H-71.1l-.693,5.476h-.851l-.241,0a.561.561,0,0,0-.385.122.2.2,0,0,0-.053.153c0,.072.006.262.411.264,1.1.005,2.232,0,3.474,0,.4,0,.4-.148.406-.254a.225.225,0,0,0-.051-.18.544.544,0,0,0-.364-.1c-.286,0-.57,0-.87,0h-.915l.684-5.476h.567c.11,0,.206,0,.3,0h.132a1.656,1.656,0,0,0,.246-.009c.18-.028.271-.12.27-.274,0-.077,0-.221-.268-.253a3.709,3.709,0,0,0-.429-.016h-.046c-2.878,0-13.443,0-14.361,0-1.191-.007-1.411-.735-1.437-1.169-.032-.543-.025-1.073-.018-1.635,0-.236.006-.474.006-.717v-.44h3.515q6.2,0,12.406,0a2.111,2.111,0,0,0,.432-.04c.149-.032.193-.083.2-.229.006-.183-.054-.228-.189-.259a2.379,2.379,0,0,0-.512-.041c-4.27,0-15.858,0-15.858,0v-5.574q0-7.465,0-14.93a1.6,1.6,0,0,1,.379-1.171,1.639,1.639,0,0,1,1.182-.366h0l35.368,0a1.809,1.809,0,0,1,1.344.357,1.764,1.764,0,0,1,.363,1.335l-.007,14.094c0,.036,0,.072,0,.107,0,.118,0,1.868.009,1.968.036.339.219.335.28.335.2,0,.26-.192.274-.35,0-.053,0-1.753,0-1.819,0-.03,0-.06,0-.09q0-1.994,0-3.988c0-3.414-.007-6.944.014-10.417A2.122,2.122,0,0,0-46.957,203.148Z" transform="translate(0 0)" fill="#8d8d8d" stroke="#8d8d8d" stroke-width="0.1"/>
    <path id="Path_35" data-name="Path 35" d="M218.031,375.739s0,0,0-.006V364.4l-.014-.031c-.036-.08-.072-.159-.107-.239a1.663,1.663,0,0,0-1.532-1.122c-.77-.021-1.556-.031-2.371-.031-.76,0-1.544.009-2.363.027A1.678,1.678,0,0,0,210,364.53a11.733,11.733,0,0,0-.052,1.407c0,.085,0,.169,0,.254,0,2.83-.008,5.866,0,8.893a1.81,1.81,0,0,0,1.995,2h.3c1.342.005,2.729-.015,4.091-.015C217.145,377.073,218.031,376.481,218.031,375.739Zm-7.447-11.231a1.858,1.858,0,0,1,.693-.825,1.156,1.156,0,0,1,.717-.153h.092c.871,0,1.756,0,2.612,0l1.082,0a1.812,1.812,0,0,1,1.363.383,1.78,1.78,0,0,1,.362,1.348c0,.052,0,.1-.007.173,0,.033,0,.07-.006.114l-.02.419h-6.933v-.441c0-.079-.006-.163-.012-.252A1.854,1.854,0,0,1,210.584,364.508Zm6.9,2.08v6.932h-6.936v-6.932Zm-1.261,9.957c-.718.006-1.406.009-2.072.009-.821,0-1.607,0-2.374-.013a1.208,1.208,0,0,1-1.248-1.264c-.007-.169-.005-.331,0-.5,0-.075,0-.152,0-.231V374.1h6.969v.441c0,.081,0,.161.005.242a3.873,3.873,0,0,1-.015.632A1.207,1.207,0,0,1,216.218,376.545Z" transform="translate(-259.929 -140.802)" fill="#8d8d8d" stroke="#8d8d8d" stroke-width="0.1"/>
    <path id="Path_36" data-name="Path 36" d="M88.29,315.74c0-1.277-.645-1.985-1.806-1.993-1.717-.012-3.453-.019-5.232-.019-1.7,0-3.44.006-5.243.017a1.734,1.734,0,0,0-1.823,1.857c-.013,5.416-.013,10.927,0,16.38a1.772,1.772,0,0,0,1.9,1.872c3.362.005,6.772,0,10.26,0a2.453,2.453,0,0,0,.588-.053,1.772,1.772,0,0,0,1.356-1.942c0-1.911,0-3.855,0-5.735q0-1.184,0-2.367t0-2.372C88.294,319.532,88.3,317.62,88.29,315.74Zm-.546,16.126a1.282,1.282,0,0,1-1.454,1.449H84.833l-5.506,0H76.343a1.339,1.339,0,0,1-1.6-1.615c0-.084.005-.168.01-.262,0-.043,0-.088.007-.137l.018-.421H87.744v.625C87.744,331.629,87.744,331.748,87.743,331.866Zm-12.961-1.583V317.307H87.709v12.976Zm12.925-13.952-.045.39H74.743v-.441c0-.074,0-.144,0-.211,0-.142,0-.276,0-.413a1.266,1.266,0,0,1,1.42-1.378q1.529,0,3.059,0c2.2,0,4.472.008,6.706-.015a1.525,1.525,0,0,1,1.779,2.064Z" transform="translate(-140.731 -97.567)" fill="#8d8d8d" stroke="#8d8d8d" stroke-width="0.1"/>
  </g>
</svg>
