<?xml version="1.0" encoding="utf-8"?>
<!-- Generator: Adobe Illustrator 25.4.1, SVG Export Plug-In . SVG Version: 6.00 Build 0)  -->
<svg version="1.1" id="Layer_1" xmlns="http://www.w3.org/2000/svg" xmlns:xlink="http://www.w3.org/1999/xlink" x="0px" y="0px"
	 viewBox="0 0 297.44 269.23" style="enable-background:new 0 0 297.44 269.23;" xml:space="preserve">
<style type="text/css">
	.st0{fill:#E01F26;}
</style>
<g>
	<g>
		<path class="st0" d="M260.89,22.63H36.54c-9.85,0-17.85,8-17.85,17.84v193.77c0,9.85,8.01,17.86,17.85,17.86h224.35
			c9.85,0,17.86-8.01,17.86-17.86V40.47C278.75,30.63,270.74,22.63,260.89,22.63z M107.54,244.63l1.08-3.24
			c5.74-17.26,21.85-28.86,40.09-28.86c18.23,0,34.34,11.6,40.09,28.86l1.08,3.24H107.54z M195.46,246.99l-0.32-1.6
			c-4.45-22-23.98-37.98-46.43-37.98c-22.45,0-41.98,15.97-46.43,37.98l-0.32,1.6h-54.3l-8.58-19.15l0.18-0.8
			c0.66-2.89,3.23-4.91,6.25-4.91h18.3l0.5-1.92c2.07-7.96,5.21-15.54,9.34-22.51l1.01-1.7l-12.99-13.06
			c-1.19-1.17-1.85-2.77-1.85-4.49c0-1.73,0.67-3.35,1.88-4.56l19.05-19.03c2.47-2.43,6.61-2.45,9.06-0.04l13.03,13.01l1.71-1.01
			c7.06-4.17,14.63-7.31,22.51-9.34l1.92-0.49v-18.32c0-3.58,2.77-6.39,6.31-6.39h26.9c3.54,0,6.31,2.81,6.31,6.39v18.29l1.91,0.49
			c7.93,2.07,15.5,5.22,22.52,9.38l1.7,1l13.02-12.98c2.47-2.46,6.63-2.45,9.09,0.01l19.04,19.04c1.22,1.22,1.88,2.83,1.88,4.55
			c0,1.73-0.67,3.35-1.89,4.56l-12.96,12.95l1,1.71c4.11,7,7.26,14.58,9.36,22.54l0.5,1.91h18.26c3.11,0,5.77,2.17,6.32,5.15
			l0.12,0.64l-6.81,19.06H195.46z M273.63,234.24c0,7.03-5.71,12.75-12.74,12.75h-3.9l6.17-17.3l0.29-1.48l0-0.06
			c-0.15-6.14-5.33-11.13-11.54-11.13H237.6l-0.54-1.74c-1.83-5.95-4.19-11.62-7.01-16.86l-0.87-1.61l10.18-10.17
			c2.17-2.18,3.37-5.08,3.37-8.17c0-3.09-1.2-5.99-3.37-8.16l-19.05-19.05c-4.33-4.33-11.96-4.34-16.31-0.02l-10.24,10.18
			l-1.61-0.87c-5.34-2.87-11.01-5.22-16.84-7l-1.75-0.53v-14.35c0-6.35-5.12-11.51-11.42-11.51h-26.9c-6.3,0-11.42,5.16-11.42,11.51
			v14.36l-1.75,0.53c-5.82,1.76-11.49,4.11-16.84,6.99l-1.61,0.86l-10.21-10.2c-4.36-4.31-11.97-4.31-16.29,0.02l-19.08,19.05
			c-2.17,2.19-3.37,5.08-3.37,8.16c0,3.09,1.19,5.98,3.35,8.13l10.19,10.23l-0.85,1.61c-2.87,5.37-5.23,11.05-7,16.86l-0.53,1.75
			H45.5c-6.11,0-11.16,4.74-11.5,10.78l-0.01,0.18l7.95,19.02h-5.4c-7.02,0-12.74-5.72-12.74-12.75V40.47
			c0-7.02,5.72-12.73,12.74-12.73h224.35c7.02,0,12.74,5.71,12.74,12.73V234.24z"/>
		<g>
			<path class="st0" d="M226.71,42.78c-2.78,0-5.04,2.27-5.04,5.06c0,2.79,2.26,5.07,5.04,5.07c2.8,0,5.07-2.27,5.07-5.07
				C231.79,45.05,229.51,42.78,226.71,42.78z"/>
		</g>
		<g>
			<path class="st0" d="M207.94,42.78c-2.78,0-5.04,2.27-5.04,5.06c0,2.79,2.26,5.07,5.04,5.07c2.8,0,5.07-2.27,5.07-5.07
				C213.01,45.05,210.74,42.78,207.94,42.78z"/>
		</g>
		<g>
			<path class="st0" d="M247.36,42.78c-2.78,0-5.04,2.27-5.04,5.06c0,2.79,2.26,5.07,5.04,5.07c2.8,0,5.07-2.27,5.07-5.07
				C252.43,45.05,250.16,42.78,247.36,42.78z"/>
		</g>
	</g>
</g>
</svg>
