<svg xmlns="http://www.w3.org/2000/svg" width="50.601" height="29.1" viewBox="0 0 50.601 29.1">
  <g id="Group_12" data-name="Group 12" transform="translate(-16.95 -114)">
    <path id="Path_49" data-name="Path 49" d="M352.266,194.714a.318.318,0,0,0,.321-.321v-2.858a2.334,2.334,0,0,0-.857-1.815,34.1,34.1,0,0,0-5.508-3.6l-.414-.218v-3.738l.216-.225a2.21,2.21,0,0,0,.626-1.534v-4.176a4.081,4.081,0,0,0-4.076-4.076h-.9a4.1,4.1,0,0,0-4.076,4.087v4.176a2.21,2.21,0,0,0,.626,1.535l.216.225v2.838a.321.321,0,0,0,.642,0v-3.035a.325.325,0,0,0-.142-.263,1.546,1.546,0,0,1-.7-1.3v-4.176a3.438,3.438,0,0,1,3.434-3.434h.9a3.438,3.438,0,0,1,3.434,3.434v4.176a1.55,1.55,0,0,1-.707,1.3.3.3,0,0,0-.135.258V186a.523.523,0,0,0,.284.455,32.936,32.936,0,0,1,5.878,3.764,1.717,1.717,0,0,1,.617,1.32v2.537h-8.463a.321.321,0,1,0,0,.642Z" transform="translate(-285.087 -51.664)" fill="#8d8d8d" stroke="#8d8d8d" stroke-width="0.1"/>
    <path id="Path_50" data-name="Path 50" d="M31.987,176.326a4.081,4.081,0,0,0-4.076-4.076h-.9a4.081,4.081,0,0,0-4.076,4.076V180.5a2.21,2.21,0,0,0,.626,1.535l.216.225V186l-.417.217a32.819,32.819,0,0,0-5.5,3.6A2.359,2.359,0,0,0,17,191.635v2.847a.318.318,0,0,0,.321.321h8.917a.321.321,0,0,0,0-.642h-8.6v-2.537a1.711,1.711,0,0,1,.608-1.313,31.8,31.8,0,0,1,5.9-3.776.5.5,0,0,0,.273-.45v-4.021a.325.325,0,0,0-.142-.263,1.546,1.546,0,0,1-.7-1.3v-4.176a3.438,3.438,0,0,1,3.434-3.434h.9a3.438,3.438,0,0,1,3.434,3.434V180.5a1.55,1.55,0,0,1-.707,1.3.3.3,0,0,0-.135.258v3.124a.321.321,0,1,0,.642,0v-2.926l.216-.225a2.21,2.21,0,0,0,.626-1.535Z" transform="translate(0 -51.753)" fill="#8d8d8d" stroke="#8d8d8d" stroke-width="0.1"/>
    <path id="Path_51" data-name="Path 51" d="M123.9,142.729a.318.318,0,0,0,.321.321h26.253a.318.318,0,0,0,.321-.321v-3.7a2.922,2.922,0,0,0-1.068-2.269,43.19,43.19,0,0,0-7.284-4.739l-.422-.216V126.84l.245-.23a2.72,2.72,0,0,0,.851-1.982v-5.395a5.19,5.19,0,0,0-5.184-5.184h-1.163a5.19,5.19,0,0,0-5.184,5.184v5.395a2.75,2.75,0,0,0,.849,1.991l.236.229V131.8l-.422.216a42.851,42.851,0,0,0-7.282,4.738,2.923,2.923,0,0,0-1.069,2.27Zm.654-3.7a2.276,2.276,0,0,1,.84-1.776,41.89,41.89,0,0,1,7.613-4.89.578.578,0,0,0,.32-.5v-5.206a.325.325,0,0,0-.142-.263,2.118,2.118,0,0,1-.943-1.753v-5.395a4.547,4.547,0,0,1,4.542-4.542h1.163a4.547,4.547,0,0,1,4.542,4.542v5.395a2.085,2.085,0,0,1-.952,1.759.3.3,0,0,0-.133.257v5.206a.562.562,0,0,0,.318.5,43.651,43.651,0,0,1,7.605,4.893,2.276,2.276,0,0,1,.839,1.775v3.379h-25.61Z" transform="translate(-95.059)" fill="#8d8d8d" stroke="#8d8d8d" stroke-width="0.1"/>
  </g>
</svg>
