<?xml version="1.0" encoding="utf-8"?>
<!-- Generator: Adobe Illustrator 25.4.1, SVG Export Plug-In . SVG Version: 6.00 Build 0)  -->
<svg version="1.1" id="Layer_1" xmlns="http://www.w3.org/2000/svg" xmlns:xlink="http://www.w3.org/1999/xlink" x="0px" y="0px"
	 viewBox="0 0 1600 900" style="enable-background:new 0 0 1600 900;" xml:space="preserve">
<style type="text/css">
	.st0{fill:#191919;}
	.st1{font-family:'ProximaNovaA-Semibold';}
	.st2{font-size:30px;}
	.st3{font-family:'ProximaNovaA-Regular';}
	.st4{font-size:20px;}
	.st5{fill:#FFFFFF;stroke:#D6D6D6;stroke-miterlimit:10;}
	.st6{fill:#E23237;}
	.st7{fill:#B52E31;}
	.st8{fill:#FFFFFF;}
	.st9{fill:#563D7C;}
	.st10{fill:#131313;}
	.st11{fill:#1572B6;}
	.st12{fill:#33A9DC;}
	.st13{fill:#EBEBEB;}
	.st14{fill:#E44D26;}
	.st15{fill:#F16529;}
	.st16{fill:#8E714E;}
	.st17{fill:#442D22;}
	.st18{fill:#A6A385;}
	.st19{fill:#499D4A;}
	.st20{fill:#58AA50;}
	.st21{fill:#00618A;}
	.st22{fill:#E48E00;}
	.st23{fill:#008CC1;}
	.st24{fill:#66B245;}
	.st25{fill:#E30613;}
	.st26{fill:#53C1DE;}
	.st27{fill:#41B883;}
	.st28{fill:#35495E;}
	.st29{fill:url(#SVGID_1_);}
	.st30{fill:url(#SVGID_00000003077395886461910770000001960546333506970242_);}
	.st31{fill:url(#SVGID_00000014599136955617735670000007844151786780609979_);}
	.st32{fill:#231F1F;}
	.st33{fill:#5294CF;}
	.st34{fill:#1F5B98;}
	.st35{fill:#2D72B8;}
	.st36{fill:#1A476F;}
	.st37{fill:#151F34;}
	.st38{fill:#348540;}
	.st39{fill:#7DBC42;}
	.st40{fill:#003663;}
	.st41{fill:#F04E23;}
	.st42{fill:#005F0F;}
	.st43{fill:#AEA99F;}
	.st44{fill:none;stroke:#BFBFBF;stroke-miterlimit:10;}
	.st45{fill:url(#SVGID_00000023989326691769156260000004393833527994107525_);}
	.st46{fill:url(#SVGID_00000171679766409395359460000001821967496987947426_);}
	.st47{fill:#D0D74B;}
	.st48{fill:#060606;}
	.st49{fill:#FEFEFE;}
	.st50{fill:#2C5F92;}
	.st51{fill:#FDFDFD;}
</style>
<text transform="matrix(1 0 0 1 322.8635 174.8825)" class="st0 st1 st2">Database</text>
<text transform="matrix(1 0 0 1 1112.9485 174.8823)" class="st0 st1 st2">Frontend</text>
<text transform="matrix(1 0 0 1 144.9232 410.1851)" class="st0 st3 st4">MySQL</text>
<text transform="matrix(1 0 0 1 362.1703 410.1851)" class="st0 st3 st4">MS SQL</text>
<text transform="matrix(1 0 0 1 574.1376 410.1851)" class="st0 st3 st4">MongoDB</text>
<text transform="matrix(1 0 0 1 146.9835 615.1484)" class="st0 st3 st4">Oracle</text>
<text transform="matrix(1 0 0 1 346.2804 615.1484)" class="st0 st3 st4">DynamoDB</text>
<text transform="matrix(1 0 0 1 136.2535 821.1113)" class="st0 st3 st4">GraphDB</text>
<text transform="matrix(1 0 0 1 336.0309 821.1113)" class="st0 st3 st4">CockroachDB</text>
<text transform="matrix(1 0 0 1 593.5278 615.1484)" class="st0 st3 st4">neo4j</text>
<text transform="matrix(1 0 0 1 939.5852 410.1851)" class="st0 st3 st4">Angular</text>
<text transform="matrix(1 0 0 1 1165.1833 410.1851)" class="st0 st3 st4">React.js</text>
<text transform="matrix(1 0 0 1 1396.1909 410.1851)" class="st0 st3 st4">Vue.js</text>
<text transform="matrix(1 0 0 1 927.0754 615.1484)" class="st0 st3 st4">Thymeleaf</text>
<text transform="matrix(1 0 0 1 931.6555 821.1113)" class="st0 st3 st4">Bootstrap</text>
<text transform="matrix(1 0 0 1 1183.3826 615.1484)" class="st0 st3 st4">JSP</text>
<text transform="matrix(1 0 0 1 1375.8213 615.1484)" class="st0 st3 st4">HTML/CSS</text>
<g>
	<path class="st5" d="M1029.71,384.17H919.62c-8.56,0-15.5-6.94-15.5-15.5V258.58c0-8.56,6.94-15.5,15.5-15.5h110.09
		c8.56,0,15.5,6.94,15.5,15.5v110.09C1045.21,377.23,1038.27,384.17,1029.71,384.17z"/>
	<g>
		<path class="st6" d="M946.51,293.66l27.79-9.9l28.53,9.72l-4.62,36.76l-23.91,13.24l-23.54-13.07L946.51,293.66z"/>
		<path class="st7" d="M1002.83,293.49l-28.53-9.72v59.73l23.91-13.22L1002.83,293.49L1002.83,293.49z"/>
		<path class="st8" d="M974.34,290.74l-17.31,38.52l6.47-0.11l3.48-8.69h15.53l3.81,8.8l6.18,0.11L974.34,290.74L974.34,290.74z
			 M974.38,303.08l5.85,12.23h-11L974.38,303.08L974.38,303.08z"/>
	</g>
</g>
<g>
	<path class="st5" d="M1029.71,794.09H919.62c-8.56,0-15.5-6.94-15.5-15.5V668.5c0-8.56,6.94-15.5,15.5-15.5h110.09
		c8.56,0,15.5,6.94,15.5,15.5v110.09C1045.21,787.15,1038.27,794.09,1029.71,794.09z"/>
	<g>
		<g>
			<path class="st9" d="M945.7,745.04c0,4.13,3.34,7.47,7.47,7.47h43c4.13,0,7.47-3.34,7.47-7.47v-43c0-4.13-3.35-7.47-7.47-7.47
				h-43c-4.13,0-7.47,3.34-7.47,7.47V745.04L945.7,745.04z"/>
			<path class="st8" d="M969.73,720.2V712h7.22c0.69,0,1.35,0.06,1.99,0.17c0.64,0.11,1.2,0.32,1.69,0.61s0.89,0.7,1.18,1.23
				c0.29,0.52,0.44,1.2,0.44,2.01c0,1.47-0.44,2.54-1.33,3.19c-0.89,0.66-2.01,0.98-3.39,0.98H969.73L969.73,720.2z M962.01,706.01
				v35.08h17c1.57,0,3.1-0.2,4.59-0.59c1.49-0.39,2.82-1,3.98-1.82c1.16-0.82,2.09-1.87,2.78-3.17c0.69-1.29,1.03-2.83,1.03-4.59
				c0-2.19-0.53-4.07-1.6-5.62c-1.06-1.56-2.68-2.64-4.84-3.27c1.57-0.75,2.76-1.72,3.56-2.9s1.2-2.65,1.2-4.42
				c0-1.64-0.27-3.01-0.81-4.13c-0.54-1.11-1.3-2.01-2.29-2.68c-0.98-0.67-2.16-1.15-3.54-1.45c-1.38-0.29-2.9-0.44-4.57-0.44
				L962.01,706.01L962.01,706.01z M969.73,735.09v-9.63h8.4c1.67,0,3.01,0.38,4.03,1.15c1.02,0.77,1.52,2.06,1.52,3.86
				c0,0.92-0.16,1.67-0.47,2.26c-0.31,0.59-0.73,1.06-1.25,1.4c-0.52,0.34-1.13,0.59-1.82,0.74c-0.69,0.15-1.41,0.22-2.16,0.22
				L969.73,735.09L969.73,735.09z"/>
		</g>
	</g>
</g>
<g>
	<path class="st5" d="M1478.15,589.17h-110.09c-8.56,0-15.5-6.94-15.5-15.5V463.58c0-8.56,6.94-15.5,15.5-15.5h110.09
		c8.56,0,15.5,6.94,15.5,15.5v110.09C1493.65,582.23,1486.71,589.17,1478.15,589.17z"/>
	<g>
		<g>
			<path class="st10" d="M1456.09,496.63h-2.97l3.09,3.35v1.59h-6.36v-1.87h3.09l-3.09-3.35v-1.6h6.24L1456.09,496.63z
				 M1448.59,496.63h-2.97l3.09,3.35v1.59h-6.36v-1.87h3.09l-3.09-3.35v-1.6h6.24V496.63z M1441.15,496.7h-3.2v2.93h3.2v1.95h-5.48
				v-6.82h5.48V496.7z"/>
			<path class="st11" d="M1431.3,541.22l-3.26-36.53h35.79l-3.26,36.53l-14.66,4.06L1431.3,541.22z"/>
			<path class="st12" d="M1445.94,542.17l11.84-3.28l2.79-31.22h-14.63V542.17z"/>
			<path class="st8" d="M1445.94,520.91h5.93l0.41-4.59h-6.34v-4.48h11.24l-0.11,1.2l-1.1,12.35h-10.03V520.91z"/>
			<path class="st13" d="M1445.97,532.55h-0.02l-4.99-1.35l-0.32-3.57h-4.49l0.63,7.04l9.18,2.55h0.03v-4.67H1445.97z"/>
			<path class="st8" d="M1451.49,525.2l-0.54,6l-5,1.35v4.67l9.19-2.55l0.07-0.76l0.78-8.71L1451.49,525.2L1451.49,525.2z"/>
			<path class="st13" d="M1445.96,511.84v4.48h-10.82l-0.09-1.01l-0.2-2.27l-0.11-1.2H1445.96z M1445.94,520.91v4.48h-4.93
				l-0.09-1.01l-0.2-2.27l-0.11-1.2H1445.94L1445.94,520.91z"/>
		</g>
		<g>
			<g>
				<path class="st14" d="M1413.68,504.69l-3.26,36.53l-14.66,4.06l-14.62-4.06l-3.26-36.53H1413.68L1413.68,504.69z"/>
				<path class="st15" d="M1395.78,542.17l11.84-3.28l2.79-31.22h-14.63V542.17z"/>
				<path class="st13" d="M1389.44,516.64h6.34v-4.48h-11.24l0.11,1.2l1.1,12.35h10.03v-4.48h-5.93L1389.44,516.64z M1390.45,527.94
					h-4.5l0.63,7.04l9.18,2.55l0.02-0.01v-4.66l-0.02,0.01l-4.99-1.35L1390.45,527.94L1390.45,527.94z"/>
				<path d="M1381.22,494.76h2.28v2.25h2.08v-2.25h2.28v6.81h-2.28v-2.28h-2.08v2.28h-2.28V494.76L1381.22,494.76z M1390.85,497.02
					h-2v-2.26h6.29v2.26h-2.01v4.55h-2.28V497.02L1390.85,497.02L1390.85,497.02z M1396.13,494.76h2.37l1.46,2.39l1.46-2.39h2.37
					v6.81h-2.27v-3.38l-1.57,2.42h-0.04l-1.57-2.42v3.38h-2.23V494.76L1396.13,494.76z M1404.93,494.76h2.28v4.56h3.2v2.25h-5.48
					V494.76L1404.93,494.76z"/>
				<path class="st8" d="M1395.77,525.7h5.52l-0.52,5.81l-5,1.35v4.66l9.19-2.55l0.07-0.76l1.05-11.8l0.11-1.2h-10.41V525.7
					L1395.77,525.7z M1395.77,516.62v0.01h10.82l0.09-1.01l0.2-2.27l0.11-1.2h-11.22V516.62L1395.77,516.62z"/>
			</g>
		</g>
	</g>
</g>
<g>
	<path class="st5" d="M673.42,384.17H563.33c-8.56,0-15.5-6.94-15.5-15.5V258.58c0-8.56,6.94-15.5,15.5-15.5h110.09
		c8.56,0,15.5,6.94,15.5,15.5v110.09C688.92,377.23,681.98,384.17,673.42,384.17z"/>
	<g>
		<g>
			<g>
				<path class="st16" d="M662.18,311.13c-0.09,0.02-0.18,0.22-0.18,0.33c-0.02,0.73-0.04,2.67-0.04,3.99
					c0,0.04,0.05,0.11,0.11,0.11c0.27,0.02,0.93,0.04,1.5,0.04c0.79,0,1.24-0.11,1.5-0.22c0.66-0.33,0.97-1.04,0.97-1.83
					c0-1.77-1.24-2.45-3.09-2.45C662.82,311.08,662.45,311.08,662.18,311.13L662.18,311.13L662.18,311.13z M666.9,319.31
					c0-1.81-1.34-2.82-3.75-2.82c-0.11,0-0.88-0.02-1.06,0.02c-0.05,0.02-0.13,0.05-0.13,0.11c0,1.3-0.02,3.37,0.04,4.17
					c0.04,0.35,0.29,0.84,0.6,0.99c0.33,0.18,1.08,0.22,1.59,0.22C665.63,321.99,666.9,321.19,666.9,319.31L666.9,319.31
					L666.9,319.31z M658.45,310.13c0.18,0,0.73,0.05,2.14,0.05c1.34,0,2.4-0.04,3.69-0.04c1.59,0,3.79,0.57,3.79,2.94
					c0,1.17-0.82,2.1-1.9,2.56c-0.05,0.02-0.05,0.05,0,0.07c1.54,0.38,2.89,1.34,2.89,3.13c0,1.76-1.1,2.87-2.69,3.57
					c-0.97,0.42-2.18,0.57-3.4,0.57c-0.93,0-3.44-0.11-4.83-0.07c-0.15-0.05,0.13-0.71,0.26-0.82c0.33-0.02,0.59-0.04,0.93-0.15
					c0.49-0.13,0.55-0.27,0.62-1.02c0.04-0.64,0.04-2.91,0.04-4.52c0-2.21,0.02-3.71,0-4.44c-0.02-0.57-0.22-0.75-0.62-0.86
					c-0.31-0.05-0.82-0.13-1.24-0.18C658.03,310.82,658.34,310.2,658.45,310.13L658.45,310.13L658.45,310.13z M647.89,321.5
					c0.44,0.35,1.3,0.49,2.07,0.49c0.99,0,1.98-0.18,2.93-1.04c0.97-0.88,1.65-2.23,1.65-4.39c0-2.07-0.79-3.75-2.4-4.74
					c-0.91-0.57-2.09-0.8-3.44-0.8c-0.4,0-0.79,0.02-1.02,0.13c-0.05,0.04-0.18,0.2-0.18,0.29c-0.04,0.37-0.04,3.18-0.04,4.83
					c0,1.7,0,4.08,0.04,4.35C647.49,320.9,647.62,321.32,647.89,321.5L647.89,321.5L647.89,321.5z M643.74,310.13
					c0.35,0,1.68,0.05,2.32,0.05c1.15,0,1.98-0.05,4.15-0.05c1.83,0,3.37,0.49,4.46,1.43c1.34,1.15,2.03,2.74,2.03,4.68
					c0,2.76-1.26,4.35-2.52,5.27c-1.26,0.93-2.91,1.48-5.25,1.48c-1.24,0-3.38-0.04-5.16-0.05h-0.02c-0.09-0.16,0.15-0.8,0.29-0.82
					c0.48-0.05,0.6-0.07,0.84-0.16c0.38-0.15,0.46-0.35,0.51-1.02c0.05-1.26,0.04-2.78,0.04-4.5c0-1.23,0.02-3.62-0.02-4.39
					c-0.05-0.64-0.33-0.8-0.88-0.91c-0.27-0.05-0.64-0.13-1.15-0.18C643.32,310.8,643.65,310.24,643.74,310.13L643.74,310.13
					L643.74,310.13z"/>
				<path class="st17" d="M621.61,322.21c-0.46-0.05-0.79-0.13-1.19-0.31c-0.05-0.04-0.15-0.22-0.15-0.29
					c-0.04-0.64-0.04-2.47-0.04-3.69c0-0.99-0.16-1.85-0.59-2.45c-0.49-0.7-1.21-1.1-2.12-1.1c-0.8,0-1.88,0.55-2.78,1.32
					c-0.02,0.02-0.16,0.15-0.15-0.05c0-0.2,0.04-0.6,0.05-0.88c0.02-0.26-0.13-0.38-0.13-0.38c-0.59,0.29-2.23,0.68-2.83,0.73
					c-0.44,0.09-0.55,0.51-0.09,0.66h0.02c0.49,0.15,0.82,0.31,1.08,0.48c0.18,0.15,0.16,0.35,0.16,0.51
					c0.02,1.37,0.02,3.47-0.04,4.63c-0.02,0.46-0.15,0.62-0.48,0.69l0.04-0.02c-0.26,0.05-0.46,0.11-0.77,0.15
					c-0.11,0.11-0.11,0.7,0,0.82c0.2,0,1.26-0.05,2.14-0.05c1.21,0,1.83,0.05,2.14,0.05c0.13-0.15,0.16-0.7,0.09-0.82
					c-0.35-0.02-0.6-0.05-0.84-0.13c-0.33-0.07-0.42-0.24-0.44-0.62c-0.04-0.97-0.04-3.02-0.04-4.41c0-0.38,0.11-0.57,0.22-0.68
					c0.42-0.37,1.1-0.62,1.7-0.62c0.59,0,0.97,0.18,1.26,0.42c0.4,0.33,0.53,0.8,0.59,1.15c0.09,0.79,0.05,2.34,0.05,3.69
					c0,0.73-0.05,0.91-0.33,1.01c-0.13,0.05-0.46,0.13-0.84,0.16c-0.13,0.13-0.09,0.7,0,0.82c0.53,0,1.15-0.05,2.07-0.05
					c1.13,0,1.87,0.05,2.16,0.05C621.65,322.89,621.69,322.36,621.61,322.21L621.61,322.21L621.61,322.21z M626.68,315.23
					c-0.97,0-1.57,0.75-1.57,1.92c0,1.19,0.53,2.56,2.03,2.56c0.26,0,0.73-0.11,0.95-0.37c0.35-0.33,0.59-0.99,0.59-1.68
					C628.67,316.14,627.92,315.23,626.68,315.23L626.68,315.23L626.68,315.23z M626.55,323.31c-0.37,0-0.62,0.11-0.79,0.2
					c-0.77,0.49-1.12,0.97-1.12,1.54c0,0.53,0.2,0.95,0.64,1.32c0.53,0.46,1.26,0.68,2.19,0.68c1.87,0,2.69-1.01,2.69-1.99
					c0-0.7-0.35-1.15-1.06-1.41C628.6,323.42,627.67,323.31,626.55,323.31L626.55,323.31L626.55,323.31z M626.68,328.07
					c-1.12,0-1.92-0.24-2.62-0.77c-0.68-0.51-0.97-1.28-0.97-1.81c0-0.15,0.04-0.55,0.37-0.91c0.2-0.22,0.64-0.64,1.68-1.35
					c0.04-0.02,0.05-0.04,0.05-0.07s-0.04-0.07-0.07-0.09c-0.86-0.33-1.12-0.86-1.19-1.15v-0.04c-0.02-0.11-0.05-0.22,0.11-0.33
					c0.13-0.09,0.31-0.2,0.51-0.33c0.31-0.18,0.64-0.38,0.84-0.55c0.04-0.04,0.04-0.07,0.04-0.11s-0.04-0.07-0.07-0.09
					c-1.28-0.42-1.92-1.37-1.92-2.8c0-0.93,0.42-1.77,1.17-2.3c0.51-0.4,1.79-0.9,2.63-0.9h0.05c0.86,0.02,1.34,0.2,2.01,0.44
					c0.37,0.13,0.71,0.18,1.19,0.18c0.71,0,1.02-0.22,1.28-0.48c0.02,0.04,0.05,0.13,0.07,0.37c0.02,0.24-0.05,0.59-0.24,0.84
					c-0.15,0.2-0.48,0.35-0.8,0.35h-0.09c-0.33-0.04-0.48-0.07-0.48-0.07l-0.07,0.04c-0.02,0.04,0,0.07,0.02,0.13l0.02,0.04
					c0.04,0.16,0.11,0.66,0.11,0.79c0,1.5-0.6,2.16-1.24,2.65c-0.62,0.46-1.34,0.75-2.14,0.82c-0.02,0-0.09,0-0.26,0.02
					c-0.09,0-0.22,0.02-0.24,0.02h-0.02c-0.15,0.04-0.51,0.22-0.51,0.53c0,0.27,0.16,0.6,0.95,0.66c0.16,0.02,0.33,0.02,0.51,0.04
					c1.04,0.07,2.34,0.16,2.94,0.37c0.84,0.31,1.37,1.06,1.37,1.96c0,1.35-0.97,2.62-2.58,3.4
					C628.33,327.88,627.54,328.07,626.68,328.07L626.68,328.07L626.68,328.07z M637.1,315.32c-0.38,0-0.73,0.09-0.99,0.27
					c-0.71,0.44-1.08,1.32-1.08,2.6c0,2.4,1.21,4.08,2.93,4.08c0.51,0,0.91-0.15,1.26-0.44c0.53-0.44,0.8-1.32,0.8-2.54
					C640.03,316.91,638.84,315.32,637.1,315.32L637.1,315.32L637.1,315.32z M637.43,323.15c-3.11,0-4.22-2.29-4.22-4.43
					c0-1.5,0.6-2.65,1.81-3.47c0.86-0.53,1.88-0.82,2.8-0.82c2.38,0,4.04,1.7,4.04,4.15c0,1.66-0.66,2.98-1.92,3.79
					C639.34,322.76,638.29,323.15,637.43,323.15L637.43,323.15L637.43,323.15z M604.84,315.32c-0.38,0-0.73,0.09-0.99,0.27
					c-0.71,0.44-1.08,1.32-1.08,2.6c0,2.4,1.21,4.08,2.93,4.08c0.51,0,0.91-0.15,1.26-0.44c0.53-0.44,0.8-1.32,0.8-2.54
					C607.77,316.91,606.6,315.32,604.84,315.32L604.84,315.32L604.84,315.32z M605.17,323.15c-3.11,0-4.22-2.29-4.22-4.43
					c0-1.5,0.6-2.65,1.81-3.47c0.86-0.53,1.88-0.82,2.8-0.82c2.38,0,4.04,1.7,4.04,4.15c0,1.66-0.66,2.98-1.92,3.79
					C607.09,322.76,606.05,323.15,605.17,323.15L605.17,323.15L605.17,323.15z M584.27,322.96c-0.04-0.05-0.07-0.22-0.05-0.42
					c0-0.15,0.04-0.24,0.05-0.27c0.38-0.05,0.59-0.11,0.8-0.16c0.37-0.09,0.51-0.29,0.53-0.75c0.05-1.1,0.05-3.18,0.04-4.63v-0.04
					c0-0.16,0-0.37-0.2-0.51c-0.29-0.18-0.64-0.35-1.1-0.48c-0.16-0.05-0.27-0.15-0.26-0.26c0-0.11,0.11-0.24,0.35-0.27
					c0.6-0.05,2.18-0.44,2.8-0.71c0.04,0.04,0.09,0.15,0.09,0.29l-0.02,0.2c-0.02,0.2-0.04,0.44-0.04,0.68
					c0,0.07,0.07,0.13,0.15,0.13c0.04,0,0.07-0.02,0.11-0.04c1.17-0.91,2.23-1.24,2.78-1.24c0.9,0,1.59,0.42,2.12,1.3
					c0.04,0.05,0.07,0.07,0.13,0.07c0.04,0,0.09-0.02,0.11-0.05c1.08-0.82,2.16-1.32,2.87-1.32c1.7,0,2.71,1.26,2.71,3.4
					c0,0.6,0,1.39-0.02,2.1c0,0.64-0.02,1.23-0.02,1.65c0,0.09,0.13,0.38,0.33,0.44c0.26,0.13,0.6,0.18,1.06,0.26h0.02
					c0.04,0.13-0.04,0.6-0.11,0.7c-0.11,0-0.27,0-0.46-0.02c-0.35-0.02-0.84-0.04-1.39-0.04c-1.13,0-1.72,0.02-2.29,0.05
					c-0.04-0.15-0.05-0.59,0-0.7c0.33-0.05,0.49-0.11,0.7-0.16c0.37-0.11,0.46-0.27,0.48-0.75c0-0.35,0.07-3.31-0.04-4.02
					c-0.11-0.73-0.66-1.59-1.87-1.59c-0.46,0-1.17,0.18-1.87,0.71c-0.04,0.04-0.07,0.13-0.07,0.18v0.02
					c0.07,0.38,0.07,0.82,0.07,1.5v1.19c0,0.82-0.02,1.59,0,2.18c0,0.4,0.24,0.49,0.44,0.57c0.11,0.02,0.18,0.04,0.27,0.05
					c0.16,0.04,0.33,0.07,0.59,0.13c0.04,0.07,0.04,0.31-0.02,0.51c-0.02,0.11-0.05,0.16-0.07,0.18c-0.62-0.02-1.26-0.04-2.19-0.04
					c-0.27,0-0.75,0.02-1.15,0.02c-0.33,0-0.64,0.02-0.82,0.02c-0.02-0.04-0.05-0.16-0.05-0.37c0-0.16,0.04-0.29,0.07-0.33
					c0.09-0.02,0.16-0.04,0.26-0.04c0.22-0.04,0.4-0.07,0.59-0.11c0.31-0.09,0.42-0.26,0.44-0.66c0.05-0.91,0.11-3.53-0.02-4.19
					c-0.22-1.06-0.82-1.59-1.79-1.59c-0.57,0-1.28,0.27-1.87,0.71c-0.09,0.07-0.16,0.26-0.16,0.42v1.08c0,1.32,0,2.96,0.02,3.68
					c0.02,0.22,0.09,0.48,0.51,0.57c0.09,0.02,0.24,0.05,0.42,0.07l0.33,0.05c0.04,0.11,0.02,0.55-0.05,0.7
					c-0.18,0-0.4-0.02-0.66-0.02c-0.38-0.02-0.88-0.04-1.43-0.04c-0.64,0-1.1,0.02-1.46,0.04
					C584.69,322.96,584.49,322.96,584.27,322.96L584.27,322.96L584.27,322.96z"/>
				<g>
					<path class="st8" d="M574.65,327.35l-0.75-0.26c0,0,0.09-3.82-1.28-4.1c-0.91-1.06,0.15-44.99,3.44-0.15
						c0,0-1.13,0.57-1.34,1.54C574.5,325.34,574.65,327.35,574.65,327.35L574.65,327.35L574.65,327.35z"/>
					<path class="st18" d="M574.65,327.35l-0.75-0.26c0,0,0.09-3.82-1.28-4.1c-0.91-1.06,0.15-44.99,3.44-0.15
						c0,0-1.13,0.57-1.34,1.54C574.5,325.34,574.65,327.35,574.65,327.35L574.65,327.35L574.65,327.35z"/>
					<path class="st8" d="M575.05,323.66c0,0,6.57-4.32,5.03-13.3c-1.48-6.53-4.97-8.67-5.36-9.49c-0.42-0.59-0.82-1.61-0.82-1.61
						l0.27,18.16C574.17,317.44,573.61,322.98,575.05,323.66"/>
					<path class="st19" d="M575.05,323.66c0,0,6.57-4.32,5.03-13.3c-1.48-6.53-4.97-8.67-5.36-9.49c-0.42-0.59-0.82-1.61-0.82-1.61
						l0.27,18.16C574.17,317.44,573.61,322.98,575.05,323.66"/>
					<path class="st8" d="M573.51,323.9c0,0-6.16-4.21-5.8-11.61c0.35-7.41,4.7-11.05,5.54-11.7c0.55-0.59,0.57-0.8,0.6-1.39
						c0.38,0.82,0.31,12.31,0.37,13.66C574.39,318.06,573.93,322.91,573.51,323.9L573.51,323.9L573.51,323.9z"/>
					<path class="st20" d="M573.51,323.9c0,0-6.16-4.21-5.8-11.61c0.35-7.41,4.7-11.05,5.54-11.7c0.55-0.59,0.57-0.8,0.6-1.39
						c0.38,0.82,0.31,12.31,0.37,13.66C574.39,318.06,573.93,322.91,573.51,323.9L573.51,323.9L573.51,323.9z"/>
				</g>
			</g>
		</g>
	</g>
</g>
<g>
	<path class="st5" d="M232.03,384.17H121.94c-8.56,0-15.5-6.94-15.5-15.5V258.58c0-8.56,6.94-15.5,15.5-15.5h110.09
		c8.56,0,15.5,6.94,15.5,15.5v110.09C247.53,377.23,240.59,384.17,232.03,384.17z"/>
	<g>
		<g>
			<path class="st21" d="M138.67,329.87h2.51v-9.97l3.92,8.68c0.45,1.05,1.08,1.44,2.33,1.44s1.86-0.36,2.3-1.44l3.92-8.68v9.97
				h2.51v-9.94c0-0.96-0.39-1.44-1.2-1.68c-1.92-0.6-3.2-0.09-3.77,1.23l-3.86,8.56l-3.71-8.59c-0.57-1.29-1.86-1.83-3.77-1.23
				c-0.81,0.24-1.2,0.72-1.2,1.68V329.87z M158.28,321.76h2.51v5.51c-0.03,0.3,0.09,0.99,1.47,1.02c0.72,0,5.45,0,5.48,0v-6.55h2.54
				c0,0,0,8.92,0,8.95c0,2.18-2.72,2.66-3.98,2.72h-7.96v-1.71h7.99c1.62-0.18,1.44-0.99,1.44-1.26v-0.66h-5.39
				c-2.48-0.03-4.1-1.11-4.1-2.36C158.28,327.33,158.34,321.82,158.28,321.76L158.28,321.76z"/>
			<path class="st22" d="M172.22,329.87h7.24c0.84,0,1.68-0.18,2.33-0.48c1.11-0.51,1.62-1.17,1.62-2.07v-1.86
				c0-0.72-0.6-1.41-1.8-1.86c-0.63-0.24-1.41-0.36-2.15-0.36h-3.05c-1.02,0-1.5-0.3-1.62-0.99c-0.03-0.09-0.03-0.15-0.03-0.24
				v-1.14c0-0.06,0-0.12,0.03-0.21c0.12-0.51,0.39-0.66,1.29-0.75c0.06,0,0.18-0.03,0.24-0.03h7.21v-1.68h-7.09
				c-1.02,0-1.56,0.06-2.04,0.21c-1.5,0.48-2.15,1.23-2.15,2.51v1.47c0,1.14,1.29,2.1,3.44,2.33c0.24,0.03,0.48,0.03,0.72,0.03h2.63
				c0.09,0,0.18,0,0.27,0.03c0.81,0.06,1.14,0.21,1.38,0.51c0.15,0.15,0.18,0.3,0.18,0.45v1.47c0,0.18-0.12,0.42-0.36,0.6
				c-0.21,0.18-0.57,0.33-1.08,0.36c-0.09,0-0.18,0.03-0.27,0.03h-6.97L172.22,329.87L172.22,329.87z M199.19,326.94
				c0,1.74,1.29,2.69,3.89,2.9c0.24,0.03,0.48,0.03,0.72,0.03h6.58v-1.68h-6.61c-1.47,0-2.04-0.36-2.04-1.26v-8.71h-2.51
				L199.19,326.94L199.19,326.94z M185.06,327.03v-5.99c0-1.53,1.08-2.45,3.17-2.75c0.24-0.03,0.45-0.06,0.69-0.06h4.79
				c0.24,0,0.48,0.03,0.72,0.06c2.13,0.3,3.17,1.23,3.17,2.75v5.99c0,1.23-0.45,1.89-1.5,2.33l2.48,2.24h-2.93l-2.01-1.83
				l-2.04,0.12h-2.69c-0.45,0-0.96-0.06-1.5-0.21C185.84,329.28,185.06,328.44,185.06,327.03L185.06,327.03z M187.79,326.88
				c0,0.09,0.03,0.15,0.06,0.27c0.15,0.69,0.81,1.08,1.8,1.08h2.3l-2.1-1.92h2.93l1.83,1.65c0.33-0.18,0.57-0.45,0.63-0.81
				c0.03-0.09,0.03-0.15,0.03-0.24v-5.72c0-0.06,0-0.15-0.03-0.24c-0.15-0.66-0.81-1.02-1.77-1.02h-3.8c-1.14,0-1.86,0.48-1.86,1.26
				L187.79,326.88L187.79,326.88z"/>
			<g>
				<path class="st21" d="M212.6,315.45c-1.56-0.03-2.72,0.09-3.74,0.54c-0.3,0.12-0.75,0.12-0.81,0.48
					c0.15,0.18,0.18,0.42,0.3,0.63c0.24,0.39,0.66,0.93,1.02,1.2c0.39,0.3,0.81,0.63,1.23,0.87c0.75,0.45,1.62,0.72,2.33,1.2
					c0.42,0.27,0.87,0.63,1.29,0.93c0.21,0.15,0.36,0.39,0.63,0.48v-0.03c-0.15-0.18-0.18-0.42-0.3-0.63l-0.57-0.57
					c-0.57-0.75-1.29-1.41-2.04-1.95c-0.6-0.42-1.95-1.02-2.21-1.74l-0.03-0.03c0.42-0.06,0.93-0.21,1.32-0.3
					c0.66-0.18,1.26-0.12,1.95-0.3l0.93-0.27v-0.18c-0.36-0.36-0.6-0.84-0.96-1.14c-0.99-0.84-2.07-1.68-3.17-2.39
					c-0.63-0.39-1.38-0.63-2.04-0.96c-0.21-0.12-0.6-0.18-0.75-0.36c-0.33-0.45-0.54-0.99-0.81-1.5c-0.57-1.08-1.11-2.24-1.59-3.35
					c-0.33-0.78-0.54-1.53-0.96-2.21c-2.01-3.29-4.16-5.27-7.51-7.24c-0.72-0.42-1.56-0.57-2.48-0.81l-1.47-0.09
					c-0.3-0.12-0.6-0.48-0.87-0.66c-1.11-0.69-3.95-2.21-4.76-0.24c-0.51,1.26,0.78,2.48,1.23,3.14c0.33,0.45,0.75,0.96,0.96,1.47
					c0.15,0.33,0.18,0.66,0.3,1.02c0.33,0.87,0.6,1.8,1.02,2.6c0.21,0.39,0.45,0.84,0.72,1.2c0.15,0.21,0.45,0.33,0.48,0.66
					c-0.27,0.39-0.3,0.99-0.45,1.47c-0.69,2.18-0.42,4.88,0.57,6.49c0.3,0.51,1.02,1.56,2.04,1.14c0.87-0.36,0.69-1.47,0.93-2.42
					c0.06-0.21,0.03-0.39,0.12-0.54v0.03l0.81,1.59c0.6,0.96,1.62,1.95,2.51,2.6c0.45,0.36,0.84,0.96,1.41,1.14v-0.03h-0.03
					c-0.12-0.18-0.3-0.24-0.45-0.39c-0.36-0.33-0.72-0.75-1.02-1.14c-0.81-1.08-1.53-2.27-2.15-3.53c-0.3-0.6-0.57-1.26-0.84-1.86
					c-0.09-0.24-0.09-0.6-0.3-0.72c-0.3,0.45-0.72,0.81-0.93,1.32c-0.36,0.84-0.39,1.86-0.54,2.9c-0.09,0.03-0.03,0-0.09,0.03
					c-0.63-0.15-0.84-0.78-1.05-1.32c-0.57-1.38-0.69-3.59-0.18-5.15c0.12-0.42,0.72-1.71,0.48-2.07c-0.12-0.39-0.48-0.6-0.72-0.9
					c-0.27-0.36-0.54-0.84-0.72-1.23c-0.48-1.08-0.69-2.27-1.2-3.35c-0.24-0.51-0.63-1.05-0.96-1.5c-0.36-0.51-0.78-0.9-1.05-1.5
					c-0.09-0.21-0.24-0.57-0.09-0.81c0.03-0.12,0.12-0.24,0.27-0.27c0.27-0.21,0.96,0.06,1.23,0.18c0.72,0.3,1.29,0.57,1.89,0.96
					c0.3,0.18,0.57,0.57,0.93,0.66h0.39c0.63,0.15,1.32,0.03,1.89,0.21c1.02,0.3,1.95,0.81,2.78,1.32c2.54,1.62,4.61,3.89,6.05,6.61
					c0.24,0.45,0.33,0.87,0.54,1.32c0.42,0.93,0.93,1.92,1.32,2.81c0.42,0.93,0.81,1.86,1.38,2.6c0.3,0.39,1.47,0.63,1.98,0.84
					c0.36,0.15,0.99,0.33,1.32,0.54c0.66,0.39,1.32,0.9,1.95,1.32C211.61,314.58,212.57,315.06,212.6,315.45L212.6,315.45z"/>
				<path class="st21" d="M192.88,298.63c-0.33,0-0.54,0.03-0.81,0.09v0.03h0.03c0.15,0.33,0.42,0.51,0.63,0.81l0.45,0.93l0.03-0.03
					c0.27-0.18,0.39-0.51,0.39-0.96c-0.12-0.12-0.12-0.27-0.21-0.39C193.29,298.9,193.05,298.78,192.88,298.63L192.88,298.63z"/>
			</g>
			<path class="st22" d="M211.58,328.14c0,1.11,0.87,1.86,1.86,1.86c0.99,0,1.86-0.75,1.86-1.86s-0.87-1.86-1.86-1.86
				C212.45,326.28,211.58,327.03,211.58,328.14z M214.87,328.14c0,0.84-0.66,1.47-1.44,1.47c-0.81,0-1.44-0.63-1.44-1.47
				c0-0.84,0.63-1.47,1.44-1.47C214.22,326.67,214.87,327.3,214.87,328.14z M213.95,329.22h0.42l-0.6-0.93
				c0.33-0.03,0.57-0.18,0.57-0.57c0-0.42-0.27-0.6-0.81-0.6h-0.84v2.13h0.36v-0.93h0.33L213.95,329.22L213.95,329.22z
				 M213.05,327.99v-0.6h0.42c0.21,0,0.48,0.03,0.48,0.3c0,0.3-0.24,0.33-0.51,0.33L213.05,327.99L213.05,327.99z"/>
		</g>
	</g>
</g>
<g>
	<path class="st5" d="M673.42,589.17H563.33c-8.56,0-15.5-6.94-15.5-15.5V463.58c0-8.56,6.94-15.5,15.5-15.5h110.09
		c8.56,0,15.5,6.94,15.5,15.5v110.09C688.92,582.23,681.98,589.17,673.42,589.17z"/>
	<g>
		<path class="st23" d="M639.51,516.19c0,12.28-9.95,22.23-22.23,22.23c-12.28,0-22.23-9.95-22.23-22.23
			c0-12.28,9.95-22.23,22.23-22.23C629.56,493.95,639.51,503.91,639.51,516.19"/>
		<path class="st8" d="M604.9,508.9c0,0.98-0.8,1.78-1.78,1.78c-0.98,0-1.78-0.8-1.78-1.78c0-0.98,0.8-1.78,1.78-1.78
			c0.98,0,1.77,0.79,1.78,1.77C604.9,508.89,604.9,508.89,604.9,508.9 M605.2,513.78c0,0.98-0.8,1.78-1.78,1.78s-1.78-0.8-1.78-1.78
			c0-0.98,0.8-1.78,1.78-1.78c0.98,0,1.77,0.79,1.78,1.77C605.2,513.77,605.2,513.77,605.2,513.78 M606.29,518.95
			c0,0.98-0.8,1.78-1.78,1.78s-1.78-0.8-1.78-1.78c0-0.98,0.8-1.78,1.78-1.78C605.49,517.16,606.29,517.95,606.29,518.95
			 M608.73,523.58c0,0.98-0.8,1.78-1.78,1.78c-0.98,0-1.78-0.8-1.78-1.78c0-0.98,0.8-1.78,1.78-1.78
			C607.93,521.79,608.73,522.59,608.73,523.58 M627.76,530.05c0,0.98-0.8,1.78-1.78,1.78c-0.98,0-1.78-0.8-1.78-1.78
			c0-0.98,0.8-1.78,1.78-1.78C626.96,528.27,627.76,529.07,627.76,530.05 M630.99,526.23c0,0.98-0.8,1.78-1.78,1.78
			c-0.98,0-1.78-0.8-1.78-1.78c0-0.98,0.8-1.78,1.78-1.78C630.19,524.45,630.99,525.25,630.99,526.23 M621.62,499.19
			c0,0.98-0.8,1.78-1.78,1.78c-0.98,0-1.78-0.8-1.78-1.78c0-0.98,0.8-1.78,1.78-1.78C620.82,497.42,621.62,498.21,621.62,499.19
			 M616.94,497.56c0,0.98-0.8,1.78-1.78,1.78s-1.78-0.8-1.78-1.78c0-0.98,0.8-1.78,1.78-1.78
			C616.15,495.78,616.94,496.58,616.94,497.56"/>
		<path class="st24" d="M629.54,499.04c6.54,0,11.85,5.3,11.85,11.85c0,6.54-5.3,11.85-11.85,11.85c-6.54,0-11.85-5.3-11.85-11.85
			C617.7,504.35,623,499.04,629.54,499.04"/>
		<path class="st8" d="M629.54,523.05c-6.71,0-12.16-5.46-12.16-12.16c0-6.71,5.46-12.16,12.16-12.16c6.71,0,12.16,5.46,12.16,12.16
			C641.71,517.6,636.25,523.05,629.54,523.05L629.54,523.05z M629.54,499.36c-6.36,0-11.53,5.17-11.53,11.53
			c0,6.36,5.17,11.53,11.53,11.53c6.36,0,11.53-5.17,11.53-11.53C641.07,504.53,635.9,499.36,629.54,499.36L629.54,499.36z"/>
		<path class="st24" d="M613.31,525.35c5.35,0,9.69,4.34,9.69,9.69c0,5.35-4.34,9.69-9.69,9.69c-5.35,0-9.69-4.34-9.69-9.69
			C603.62,529.69,607.96,525.35,613.31,525.35"/>
		<path class="st8" d="M613.31,545.06c-5.52,0-10.01-4.49-10.01-10.01c0-5.52,4.49-10.01,10.01-10.01c5.52,0,10.01,4.49,10.01,10.01
			C623.32,540.57,618.83,545.06,613.31,545.06z M613.31,525.67c-5.17,0-9.38,4.21-9.38,9.38c0,5.17,4.21,9.38,9.38,9.38
			c5.17,0,9.38-4.21,9.38-9.38S618.48,525.67,613.31,525.67L613.31,525.67z"/>
		<path class="st24" d="M605.33,492.51c3.57,0,6.46,2.89,6.46,6.46c0,3.57-2.89,6.46-6.46,6.46s-6.46-2.89-6.46-6.46
			S601.76,492.51,605.33,492.51"/>
		<path class="st8" d="M605.33,505.76c-3.74,0-6.78-3.04-6.78-6.78c0-3.74,3.04-6.78,6.78-6.78s6.78,3.04,6.78,6.78
			C612.11,502.72,609.07,505.76,605.33,505.76z M605.33,492.83c-3.39,0-6.14,2.76-6.14,6.14s2.76,6.15,6.14,6.15
			c3.39,0,6.15-2.76,6.15-6.15C611.48,495.59,608.72,492.83,605.33,492.83L605.33,492.83z"/>
	</g>
</g>
<text transform="matrix(1 0 0 1 565.9282 820.1484)" class="st0 st3 st4">PostgreSQL</text>
<g>
	<path class="st5" d="M673.42,794.17H563.33c-8.56,0-15.5-6.94-15.5-15.5V668.58c0-8.56,6.94-15.5,15.5-15.5h110.09
		c8.56,0,15.5,6.94,15.5,15.5v110.09C688.92,787.23,681.98,794.17,673.42,794.17z"/>
</g>
<g>
	<path class="st5" d="M232.03,589.17H121.94c-8.56,0-15.5-6.94-15.5-15.5V463.58c0-8.56,6.94-15.5,15.5-15.5h110.09
		c8.56,0,15.5,6.94,15.5,15.5v110.09C247.53,582.23,240.59,589.17,232.03,589.17z"/>
	<g>
		<path class="st25" d="M170.62,520.36h6.08l-3.23-5.15l-5.9,9.37h-2.67l7.13-11.22c0.31-0.43,0.81-0.74,1.43-0.74
			c0.56,0,1.05,0.25,1.37,0.68l7.2,11.23h-2.66l-1.24-2.11h-6.14L170.62,520.36z M198.48,522.41v-9.74h-2.3v10.67
			c0,0.31,0.12,0.56,0.31,0.81c0.25,0.25,0.5,0.37,0.81,0.37h10.36l1.37-2.11H198.48z M160.88,520.68c2.23,0,3.97-1.8,3.97-3.97
			c0-2.23-1.8-3.97-3.97-3.97h-9.93v11.85h2.3v-9.81h7.51c1.06,0.01,1.92,0.86,1.92,1.92c-0.01,1.06-0.86,1.92-1.92,1.92h-6.39
			l6.76,5.9h3.29l-4.59-3.85L160.88,520.68z M136.86,524.52c-3.29,0-5.9-2.67-5.9-5.9c0-3.29,2.67-5.9,5.9-5.9h6.89
			c3.29,0,5.9,2.67,5.9,5.9c0,3.29-2.67,5.9-5.9,5.9H136.86z M143.63,522.41c2.12-0.01,3.84-1.73,3.85-3.85
			c-0.01-2.12-1.73-3.84-3.85-3.85h-6.58c-2.12,0.01-3.84,1.73-3.85,3.85c0.01,2.12,1.73,3.84,3.85,3.85H143.63z M186.82,524.52
			c-3.29,0-5.9-2.67-5.9-5.9c0-3.29,2.67-5.9,5.9-5.9h8.19l-1.37,2.11h-6.7c-2.12,0.01-3.84,1.73-3.85,3.85
			c0.01,2.12,1.73,3.84,3.85,3.85h8.19l-1.37,2.11h-6.95L186.82,524.52z M214.68,522.41c-1.73,0-3.23-1.18-3.66-2.79h9.74l1.37-2.11
			h-11.05c0.43-1.61,1.92-2.79,3.66-2.79h6.7l1.37-2.11h-8.19c-3.29,0-5.9,2.67-5.9,5.9c0,3.29,2.67,5.9,5.9,5.9h7.01l1.37-2.11
			h-8.32L214.68,522.41z"/>
	</g>
</g>
<g>
	<path class="st5" d="M1254.91,384.17h-110.09c-8.56,0-15.5-6.94-15.5-15.5V258.58c0-8.56,6.94-15.5,15.5-15.5h110.09
		c8.56,0,15.5,6.94,15.5,15.5v110.09C1270.41,377.23,1263.47,384.17,1254.91,384.17z"/>
	<g>
		<path class="st8" d="M1166,313.52c0,5.12,4.99,9.89,12.87,12.58c-1.57,7.92-0.28,14.3,4.03,16.78c4.43,2.56,11.03,0.79,17.3-4.69
			c6.11,5.26,12.28,7.32,16.59,4.83c4.43-2.56,5.77-9.38,4.16-17.54c8.2-2.71,12.79-6.78,12.79-11.97c0-5-5-9.32-12.77-11.99
			c1.74-8.5,0.27-14.73-4.22-17.32c-4.33-2.5-10.57-0.32-16.77,5.07c-6.45-5.72-12.63-7.47-17.12-4.88c-4.32,2.5-5.56,9-3.98,17.06
			C1171.26,304.12,1166,308.54,1166,313.52z"/>
		<path class="st26" d="M1219.31,304.18c-0.64-0.22-1.29-0.42-1.94-0.61c0.11-0.44,0.21-0.88,0.3-1.32
			c1.47-7.12,0.51-12.85-2.77-14.73c-3.14-1.81-8.27,0.08-13.45,4.59c-0.51,0.45-1.01,0.9-1.5,1.37c-0.33-0.31-0.66-0.62-1-0.92
			c-5.43-4.82-10.88-6.86-14.15-4.96c-3.13,1.81-4.06,7.2-2.74,13.95c0.13,0.67,0.28,1.33,0.44,1.99c-0.77,0.22-1.51,0.45-2.23,0.7
			c-6.37,2.22-10.44,5.7-10.44,9.31c0,3.73,4.37,7.47,11,9.73c0.54,0.18,1.08,0.35,1.63,0.51c-0.18,0.71-0.34,1.43-0.47,2.15
			c-1.26,6.63-0.28,11.89,2.85,13.69c3.23,1.86,8.65-0.05,13.93-4.67c0.42-0.36,0.84-0.75,1.26-1.16c0.53,0.51,1.07,1,1.63,1.48
			c5.11,4.4,10.16,6.18,13.29,4.37c3.23-1.87,4.27-7.52,2.91-14.4c-0.1-0.53-0.22-1.06-0.36-1.61c0.38-0.11,0.75-0.23,1.12-0.35
			c6.9-2.28,11.38-5.98,11.38-9.76C1230.01,309.92,1225.81,306.42,1219.31,304.18L1219.31,304.18z"/>
		<path class="st8" d="M1217.82,320.86c-0.33,0.11-0.67,0.21-1.01,0.32c-0.76-2.41-1.79-4.97-3.05-7.62
			c1.2-2.58,2.19-5.11,2.93-7.51c0.62,0.18,1.21,0.37,1.79,0.56c5.57,1.92,8.96,4.75,8.96,6.93
			C1227.44,315.87,1223.77,318.89,1217.82,320.86L1217.82,320.86z M1215.34,325.76c0.6,3.04,0.69,5.79,0.29,7.94
			c-0.36,1.93-1.08,3.22-1.97,3.73c-1.9,1.1-5.95-0.33-10.32-4.09c-0.5-0.43-1.01-0.89-1.51-1.38c1.69-1.85,3.39-4.01,5.04-6.4
			c2.91-0.26,5.66-0.68,8.15-1.26C1215.14,324.8,1215.25,325.28,1215.34,325.76L1215.34,325.76z M1190.36,337.24
			c-1.85,0.65-3.33,0.67-4.22,0.16c-1.9-1.09-2.69-5.32-1.61-10.99c0.13-0.67,0.27-1.34,0.44-2c2.46,0.54,5.19,0.94,8.11,1.17
			c1.66,2.34,3.41,4.49,5.16,6.38c-0.37,0.36-0.76,0.71-1.15,1.06C1194.76,335.06,1192.42,336.51,1190.36,337.24L1190.36,337.24z
			 M1181.68,320.85c-2.93-1-5.36-2.31-7.02-3.73c-1.49-1.28-2.25-2.55-2.25-3.58c0-2.19,3.27-4.98,8.71-6.88
			c0.68-0.24,1.37-0.45,2.07-0.65c0.75,2.45,1.74,5.01,2.93,7.6c-1.21,2.63-2.21,5.23-2.97,7.71
			C1182.67,321.17,1182.17,321.01,1181.68,320.85z M1184.59,301.05c-1.13-5.78-0.38-10.14,1.51-11.23c2.01-1.16,6.46,0.5,11.15,4.66
			c0.3,0.27,0.6,0.54,0.9,0.83c-1.75,1.88-3.47,4.01-5.12,6.34c-2.83,0.26-5.54,0.68-8.03,1.25
			C1184.85,302.29,1184.71,301.67,1184.59,301.05L1184.59,301.05z M1210.54,307.45c-0.59-1.02-1.2-2.02-1.83-3.01
			c1.92,0.24,3.76,0.56,5.48,0.96c-0.52,1.66-1.16,3.4-1.93,5.18C1211.71,309.53,1211.14,308.49,1210.54,307.45L1210.54,307.45z
			 M1199.96,297.15c1.19,1.28,2.37,2.72,3.54,4.27c-2.37-0.11-4.74-0.11-7.11,0C1197.56,299.88,1198.75,298.45,1199.96,297.15
			L1199.96,297.15z M1189.31,307.47c-0.59,1.02-1.16,2.06-1.7,3.11c-0.75-1.77-1.39-3.52-1.91-5.21c1.72-0.38,3.55-0.7,5.45-0.94
			C1190.51,305.44,1189.9,306.45,1189.31,307.47z M1191.21,322.83c-1.97-0.22-3.83-0.52-5.54-0.89c0.53-1.71,1.19-3.5,1.95-5.31
			c0.54,1.05,1.11,2.09,1.71,3.11C1189.92,320.78,1190.55,321.81,1191.21,322.83z M1200.03,330.12c-1.22-1.31-2.43-2.77-3.62-4.33
			c1.15,0.05,2.33,0.07,3.52,0.07c1.23,0,2.44-0.03,3.63-0.08C1202.39,327.37,1201.21,328.82,1200.03,330.12z M1212.29,316.53
			c0.8,1.83,1.48,3.61,2.02,5.29c-1.74,0.4-3.63,0.72-5.61,0.96c0.64-1.01,1.25-2.03,1.85-3.06
			C1211.16,318.67,1211.74,317.61,1212.29,316.53L1212.29,316.53z M1208.32,318.44c-0.91,1.58-1.87,3.14-2.89,4.66
			c-1.78,0.13-3.63,0.19-5.51,0.19c-1.87,0-3.69-0.06-5.45-0.17c-1.04-1.52-2.02-3.07-2.94-4.66c-0.92-1.58-1.77-3.2-2.57-4.85
			c0.79-1.65,1.65-3.27,2.56-4.85v0c0.91-1.58,1.89-3.13,2.92-4.64c1.79-0.14,3.62-0.21,5.48-0.21c1.86,0,3.7,0.07,5.49,0.21
			c1.02,1.51,1.99,3.05,2.9,4.63c0.92,1.58,1.78,3.19,2.59,4.83C1210.11,315.22,1209.24,316.85,1208.32,318.44L1208.32,318.44z
			 M1213.63,289.74c2.01,1.16,2.8,5.85,1.53,11.99c-0.08,0.4-0.17,0.8-0.27,1.2c-2.5-0.58-5.21-1-8.04-1.27
			c-1.65-2.35-3.37-4.49-5.08-6.35c0.45-0.43,0.91-0.86,1.38-1.27C1207.58,290.18,1211.73,288.65,1213.63,289.74L1213.63,289.74z"/>
		<path class="st26" d="M1199.93,308.17c2.97,0,5.37,2.4,5.37,5.37c0,2.97-2.4,5.37-5.37,5.37c-2.97,0-5.37-2.4-5.37-5.37
			C1194.56,310.58,1196.96,308.17,1199.93,308.17"/>
	</g>
</g>
<g>
	<path class="st5" d="M1478.15,384.17h-110.09c-8.56,0-15.5-6.94-15.5-15.5V258.58c0-8.56,6.94-15.5,15.5-15.5h110.09
		c8.56,0,15.5,6.94,15.5,15.5v110.09C1493.65,377.23,1486.71,384.17,1478.15,384.17z"/>
	<g>
		<g>
			<path class="st27" d="M1440.99,288.26h11.66l-29.45,50.75l-29.65-50.75h11.93l17.72,30.55L1440.99,288.26z"/>
			<path class="st28" d="M1429.96,288.25h11.09l-17.87,30.62l-17.73-30.62h10.92l6.81,11.79L1429.96,288.25z"/>
		</g>
	</g>
</g>
<g>
	<path class="st5" d="M452.17,384.17H342.08c-8.56,0-15.5-6.94-15.5-15.5V258.58c0-8.56,6.94-15.5,15.5-15.5h110.09
		c8.56,0,15.5,6.94,15.5,15.5v110.09C467.67,377.23,460.73,384.17,452.17,384.17z"/>
	<g>
		<g transform="matrix(.569 0 0 .569 199.451 -82.735)">
			
				<linearGradient id="SVGID_1_" gradientUnits="userSpaceOnUse" x1="-22005.2676" y1="-28991.291" x2="-21980.6777" y2="-29005.8203" gradientTransform="matrix(0.1187 0 0 0.1187 2952.9199 4150.8408)">
				<stop  offset="0" style="stop-color:#909CA9"/>
				<stop  offset="1" style="stop-color:#EDEDEE"/>
			</linearGradient>
			<path class="st29" d="M370.28,677.73l-14.19,4.63l-12.35,5.45l-3.45,0.91c-0.88,0.84-1.8,1.68-2.8,2.54
				c-1.09,0.94-2.11,1.8-2.9,2.42c-0.87,0.69-2.16,1.97-2.81,2.79c-0.98,1.22-1.75,2.52-2.08,3.52c-0.59,1.8-0.3,3.63,0.84,5.31
				c1.46,2.15,4.37,4.33,7.76,5.82c1.73,0.76,4.63,1.74,6.82,2.28c3.64,0.92,10.67,1.92,14.54,2.07c0.78,0.03,1.83,0.03,1.88,0
				c0.09-0.05,0.69-1.2,1.38-2.63c2.38-4.86,4.1-9.42,5.03-13.31c0.56-2.36,1-5.5,1.29-9.22c0.08-1.04,0.11-4.53,0.04-5.71
				c-0.1-1.93-0.27-3.5-0.54-5.03c-0.04-0.23-0.05-0.43-0.03-0.44c0.04-0.03,0.17-0.08,1.92-0.58L370.28,677.73L370.28,677.73
				L370.28,677.73L370.28,677.73z M367.04,679.63c0.13,0,0.47,3.29,0.56,5.37c0.02,0.44,0.01,0.73-0.01,0.73
				c-0.09,0-1.81-1.02-3.05-1.79c-1.07-0.68-3.11-2.03-3.43-2.28c-0.11-0.08-0.1-0.09,0.78-0.39
				C363.38,680.77,366.92,679.63,367.04,679.63z M359.81,682.01c0.1,0,0.34,0.14,0.93,0.5c2.21,1.38,5.21,3.06,6.5,3.61
				c0.4,0.17,0.44,0.11-0.47,0.73c-1.95,1.33-4.39,2.64-7.37,3.96c-0.53,0.24-0.97,0.42-0.98,0.42c-0.02,0,0.04-0.27,0.13-0.59
				c0.72-2.67,1.13-5.37,1.15-7.54c0.01-1.07,0.01-1.07,0.11-1.1C359.79,682.01,359.8,682.01,359.81,682.01L359.81,682.01z
				 M358.32,682.58c0.06,0.06,0.02,2.47-0.06,3.12c-0.19,1.57-0.49,3.02-0.99,4.67c-0.12,0.4-0.23,0.73-0.25,0.75
				c-0.04,0.05-1.51-1.38-2-1.94c-0.84-0.97-1.49-1.93-1.97-2.87c-0.25-0.48-0.63-1.43-0.6-1.46
				C352.63,684.72,358.28,682.54,358.32,682.58L358.32,682.58z M351.31,685.34c0.01,0,0.02,0,0.03,0.01
				c0.02,0.02,0.1,0.19,0.16,0.39c0.34,0.93,1.12,2.31,1.78,3.19c0.73,0.97,1.68,2,2.48,2.67c0.26,0.21,0.49,0.42,0.53,0.45
				c0.06,0.06,0.09,0.05-1.66,0.72c-2.03,0.77-4.24,1.54-6.77,2.36c-0.6,0.19-1.21,0.39-1.81,0.59c-0.1,0.03-0.06-0.02,0.21-0.46
				c1.25-1.96,3.16-5.81,4.24-8.54c0.18-0.47,0.36-0.94,0.4-1.05c0.04-0.15,0.1-0.2,0.24-0.28
				C351.2,685.36,351.27,685.34,351.31,685.34L351.31,685.34z M349.16,686.23c0.03,0.02-0.51,1.17-1.05,2.22
				c-1.04,2.03-2.18,4.02-3.7,6.45c-0.26,0.42-0.5,0.8-0.54,0.85c-0.05,0.08-0.08,0.05-0.25-0.28c-0.36-0.72-0.67-1.64-0.83-2.49
				c-0.16-0.84-0.13-2.3,0.05-3.2c0.14-0.66,0.13-0.65,0.45-0.82C344.68,688.26,349.12,686.18,349.16,686.23L349.16,686.23z
				 M367.66,686.98v0.45c0,2.39-0.26,5.67-0.63,8.07c-0.06,0.42-0.12,0.76-0.13,0.77c0,0-0.31-0.09-0.68-0.19
				c-1.61-0.5-3.36-1.24-4.93-2.11c-1.04-0.57-2.55-1.5-2.51-1.54c0.01-0.01,0.46-0.25,0.99-0.53c2.1-1.09,4.12-2.27,5.87-3.44
				c0.65-0.44,1.64-1.15,1.86-1.34L367.66,686.98L367.66,686.98z M341.06,690.15c0.04,0,0.03,0.09-0.03,0.47
				c-0.04,0.28-0.1,0.79-0.12,1.15c-0.09,1.57,0.17,2.72,0.94,4.31c0.21,0.44,0.39,0.8,0.38,0.82c-0.08,0.06-7.18,2.15-9.41,2.76
				c-0.66,0.18-1.24,0.34-1.29,0.35c-0.07,0.02-0.09,0.01-0.05-0.17c0.25-1.58,1.45-3.64,3.12-5.37c1.12-1.16,2.01-1.83,3.53-2.7
				c1.09-0.62,2.78-1.56,2.91-1.6C341.04,690.15,341.05,690.15,341.06,690.15L341.06,690.15z M357.8,693.14
				c0.01-0.01,0.27,0.13,0.58,0.31c2.3,1.33,5.49,2.56,8.22,3.2l0.25,0.05l-0.34,0.19c-1.43,0.79-6.11,2.75-10.91,4.54
				c-0.7,0.26-1.38,0.51-1.51,0.57c-0.13,0.05-0.25,0.09-0.25,0.08c0-0.01,0.19-0.39,0.44-0.85c1.34-2.51,2.69-5.57,3.38-7.69
				C357.73,693.34,357.78,693.16,357.8,693.14L357.8,693.14z M356.09,693.7c0.01,0.01-0.08,0.24-0.18,0.49
				c-0.93,2.26-2.16,4.73-3.72,7.5c-0.4,0.71-0.73,1.28-0.74,1.28c-0.01,0-0.33-0.19-0.72-0.43c-2.27-1.39-4.29-3.11-5.61-4.77
				l-0.19-0.24l0.98-0.27c3.5-0.95,6.47-1.98,9.42-3.25C355.74,693.84,356.08,693.7,356.09,693.7z M366.69,697.4
				C366.69,697.4,366.7,697.41,366.69,697.4c0.01,0.25-0.54,2.46-0.99,4.05c-0.38,1.34-0.7,2.39-1.29,4.25
				c-0.26,0.82-0.48,1.49-0.49,1.49c-0.01,0-0.08-0.01-0.14-0.03c-3.19-0.58-6.04-1.38-8.72-2.46c-0.75-0.3-1.82-0.78-1.89-0.84
				c-0.02-0.02,0.62-0.32,1.44-0.68c4.88-2.13,9.94-4.56,11.68-5.6C366.49,697.47,366.66,697.4,366.69,697.4L366.69,697.4z
				 M342.22,698.24c0.02,0.02-1.34,1.98-3.25,4.66c-0.66,0.93-1.44,2.03-1.73,2.43c-0.29,0.41-0.73,1.05-0.98,1.44l-0.45,0.7
				l-0.48-0.41c-0.57-0.47-1.56-1.48-1.99-2.04c-0.92-1.15-1.54-2.36-1.79-3.46c-0.12-0.51-0.12-0.77-0.01-0.8
				c0.16-0.04,3.02-0.72,5.71-1.34c1.49-0.34,3.22-0.75,3.84-0.9C341.71,698.36,342.21,698.24,342.22,698.24L342.22,698.24z
				 M343.59,698.77l0.34,0.39c1.54,1.73,3.12,3,5.03,4.12c0.34,0.19,0.6,0.36,0.58,0.38c-0.07,0.05-6.63,2.38-9.66,3.43
				c-1.71,0.6-3.11,1.08-3.12,1.08c-0.01,0-0.11-0.06-0.21-0.14l-0.19-0.14l0.31-0.45c1.01-1.46,2.27-3.06,5.03-6.38L343.59,698.77
				L343.59,698.77z M352.15,704.89c0.01-0.01,0.48,0.16,1.06,0.38c1.39,0.53,2.5,0.86,3.98,1.23c1.82,0.46,4.46,0.91,6.02,1.04
				c0.24,0.02,0.36,0.04,0.32,0.08c-0.08,0.04-1.65,0.57-2.81,0.93c-1.85,0.58-7.48,2.24-12.07,3.56c-0.85,0.25-1.58,0.45-1.62,0.46
				c-0.11,0.02-0.46-0.08-0.46-0.12c0-0.02,0.26-0.35,0.57-0.72c1.54-1.84,3.08-3.9,4.35-5.86
				C351.85,705.34,352.15,704.9,352.15,704.89L352.15,704.89z M350.27,704.94c0.01,0.01-0.75,1.23-2.08,3.34
				c-0.57,0.89-1.2,1.9-1.43,2.25c-0.21,0.34-0.54,0.88-0.72,1.18l-0.31,0.55l-0.16-0.04c-0.39-0.11-3.1-1.06-3.82-1.35
				c-0.89-0.35-1.81-0.78-2.5-1.15c-0.86-0.46-1.93-1.15-1.84-1.17c0.02-0.01,1.49-0.41,3.26-0.89c4.7-1.28,7.3-2.02,9.01-2.55
				C349.99,705.01,350.25,704.93,350.27,704.94L350.27,704.94z M363.62,708.08h0.01c0.04,0.11-1.69,4.93-2.33,6.46
				c-0.14,0.34-0.19,0.43-0.27,0.42c-0.18-0.01-2.7-0.36-4.24-0.59c-2.67-0.41-7.15-1.19-8.28-1.45l-0.26-0.05l1.6-0.36
				c3.43-0.77,5.08-1.19,6.76-1.71c2.11-0.64,4.2-1.45,6.32-2.43C363.27,708.2,363.54,708.09,363.62,708.08L363.62,708.08z"/>
			
				<linearGradient id="SVGID_00000143618472978226138120000017045094866872514478_" gradientUnits="userSpaceOnUse" x1="-22004.2988" y1="-29472.5742" x2="-21984.5117" y2="-29472.5742" gradientTransform="matrix(0.1187 0 0 0.1187 2952.9199 4150.8408)">
				<stop  offset="0" style="stop-color:#939FAB"/>
				<stop  offset="1" style="stop-color:#DCDEE1"/>
			</linearGradient>
			<path style="fill:url(#SVGID_00000143618472978226138120000017045094866872514478_);" d="M355.65,644.65
				c-0.24-0.03-4.04,1.34-6.5,2.34c-3.31,1.35-5.89,2.64-7.48,3.75c-0.59,0.42-1.33,1.16-1.45,1.45c-0.04,0.11-0.06,0.24-0.06,0.36
				l1.44,1.36l3.42,1.09l8.14,1.46l9.31,1.6l0.1-0.8c-0.03,0-0.05-0.01-0.09-0.01l-1.22-0.19l-0.25-0.44
				c-1.27-2.23-2.66-5-3.48-6.86c-0.63-1.45-1.23-3.12-1.57-4.32C355.79,644.7,355.77,644.66,355.65,644.65L355.65,644.65
				L355.65,644.65L355.65,644.65z M355.48,645.2h0.01c0.01,0.01,0.05,0.31,0.1,0.66c0.18,1.5,0.51,2.95,1.04,4.52
				c0.4,1.18,0.4,1.12-0.06,0.98c-1.09-0.3-6-1.15-9.55-1.64c-0.57-0.08-1.05-0.15-1.05-0.16c-0.04-0.04,2.56-1.41,3.71-1.94
				C351.14,646.94,355.18,645.25,355.48,645.2L355.48,645.2z M345.14,650l0.42,0.14c2.27,0.77,7.99,1.87,11.14,2.12
				c0.35,0.03,0.65,0.06,0.66,0.06c0.01,0.01-0.29,0.17-0.68,0.35c-1.52,0.76-3.2,1.69-4.35,2.41c-0.34,0.21-0.65,0.39-0.7,0.39
				c-0.04,0-0.27-0.04-0.5-0.08l-0.43-0.06l-1.07-1.05c-1.89-1.83-3.37-3.25-3.94-3.79L345.14,650z M344.71,650.34l1.51,1.89
				c0.83,1.04,1.66,2.06,1.85,2.28c0.18,0.23,0.33,0.41,0.32,0.42c-0.04,0.03-2.19-0.39-3.33-0.64c-1.17-0.27-1.65-0.4-2.37-0.62
				l-0.59-0.19v-0.15c0.01-0.72,0.92-1.79,2.47-2.89L344.71,650.34L344.71,650.34z M357.56,652.91c0.04,0,0.1,0.1,0.23,0.39
				c0.36,0.8,1.5,2.97,1.78,3.39c0.09,0.14,0.24,0.15-1.28-0.1c-3.64-0.59-4.81-0.78-4.81-0.8c0-0.01,0.11-0.09,0.25-0.16
				c1.13-0.62,2.26-1.42,3.27-2.26c0.25-0.2,0.47-0.4,0.51-0.43C357.53,652.91,357.55,652.9,357.56,652.91L357.56,652.91z"/>
			
				<radialGradient id="SVGID_00000176044245887470391290000015466789179521816487_" cx="326.9839" cy="-3404.8396" r="26.2698" gradientTransform="matrix(-0.114 -0.0171 0.0346 -0.228 516.2587 -100.5773)" gradientUnits="userSpaceOnUse">
				<stop  offset="0" style="stop-color:#EE352C"/>
				<stop  offset="1" style="stop-color:#A91D22"/>
			</radialGradient>
			<path style="fill:url(#SVGID_00000176044245887470391290000015466789179521816487_);" d="M340.3,652.04c0,0-0.24,0.38-0.01,0.93
				c0.14,0.34,0.55,0.76,1.01,1.19c0,0,4.77,4.66,5.35,5.32c2.64,3.05,3.79,6.05,3.89,10.19c0.06,2.66-0.44,5-1.69,7.71
				c-2.23,4.87-6.94,10.24-14.2,16.21l1.06-0.35c0.69-0.51,1.62-1.06,3.81-2.26c5.05-2.77,10.74-5.31,17.71-7.93
				c10.04-3.78,26.55-8.2,35.94-9.63l0.98-0.15l-0.15-0.24c-0.86-1.33-1.45-2.16-2.16-3.04c-2.06-2.55-4.56-4.62-7.62-6.34
				c-4.2-2.35-9.64-4.18-16.53-5.55c-1.3-0.26-4.15-0.75-6.47-1.1c-4.91-0.76-8.09-1.29-11.58-1.89c-1.25-0.21-3.13-0.54-4.38-0.8
				c-0.64-0.14-1.88-0.43-2.84-0.76C341.65,653.25,340.54,652.95,340.3,652.04L340.3,652.04z M343.07,654.72
				c0.01-0.01,0.18,0.05,0.41,0.13c0.41,0.14,0.93,0.3,1.56,0.47c0.47,0.13,0.94,0.25,1.42,0.38c0.64,0.16,1.18,0.31,1.19,0.31
				c0.08,0.08,1.16,3.54,1.52,4.87c0.14,0.5,0.25,0.93,0.24,0.93c-0.01,0.01-0.13-0.17-0.27-0.42c-1.26-2.21-3.24-4.45-5.53-6.25
				C343.29,654.93,343.07,654.73,343.07,654.72L343.07,654.72z M348.35,656.18c0.05,0,0.29,0.03,0.58,0.1
				c1.82,0.41,5.1,1.03,7.19,1.38c0.35,0.05,0.63,0.12,0.63,0.14c0,0.02-0.13,0.1-0.29,0.18c-0.35,0.18-1.78,1.03-2.25,1.35
				c-1.19,0.79-2.26,1.65-3.04,2.42c-0.31,0.31-0.58,0.57-0.58,0.57s-0.06-0.18-0.12-0.41c-0.39-1.49-1.19-3.7-1.92-5.26
				c-0.12-0.25-0.21-0.47-0.21-0.49C348.33,656.19,348.33,656.18,348.35,656.18L348.35,656.18z M357.63,657.95
				c0.06,0.02,0.17,0.39,0.39,1.19c0.4,1.56,0.58,3.29,0.51,4.91c-0.02,0.45-0.04,0.87-0.06,0.92l-0.03,0.11l-0.56-0.18
				c-1.15-0.36-3.01-0.91-4.61-1.36c-0.91-0.25-1.65-0.47-1.65-0.49c0-0.06,1.33-1.39,1.9-1.9
				C354.6,660.19,357.54,657.92,357.63,657.95L357.63,657.95z M358.37,658.06c0.03-0.03,4.44,0.73,6.45,1.12
				c1.49,0.29,3.66,0.74,3.79,0.79c0.06,0.02-0.16,0.15-0.88,0.47c-2.83,1.28-4.93,2.42-7.03,3.82c-0.55,0.36-1.01,0.66-1.02,0.66
				s-0.02-0.31-0.02-0.69c0-2.04-0.41-4.1-1.16-5.84C358.43,658.23,358.36,658.07,358.37,658.06z M369.78,660.31
				c0.03,0.03-0.11,0.9-0.24,1.42c-0.39,1.6-1.43,3.97-2.7,6.2c-0.23,0.4-0.43,0.72-0.45,0.73c-0.02,0.01-0.31-0.15-0.64-0.34
				c-1.24-0.73-2.66-1.42-4.2-2.06c-0.43-0.18-0.8-0.33-0.82-0.35c-0.08-0.06,3.38-2.35,5.2-3.44
				C367.37,661.58,369.73,660.27,369.78,660.31L369.78,660.31z M370.59,660.44c0.1,0,2.05,0.54,3.07,0.84
				c2.52,0.75,5.42,1.81,7.3,2.67l0.78,0.35l-0.55,0.13c-4.61,1.06-8.56,2.28-12.37,3.83c-0.31,0.13-0.59,0.24-0.61,0.24
				c-0.02,0,0.09-0.25,0.23-0.55c1.15-2.43,1.89-4.98,2.07-7.14C370.53,660.6,370.56,660.44,370.59,660.44L370.59,660.44z
				 M351.16,664.9c0.03-0.03,1.52,0.32,2.33,0.55c1.22,0.34,3.82,1.21,3.82,1.28c0,0.01-0.29,0.26-0.63,0.56
				c-1.41,1.17-2.76,2.4-4.38,3.97c-0.48,0.46-0.89,0.84-0.91,0.84c-0.02,0-0.03-0.06-0.02-0.15c0.25-1.8,0.19-4.12-0.15-6.47
				C351.18,665.17,351.14,664.91,351.16,664.9z M382.49,664.93c0.02,0.02-0.69,1.14-1.14,1.77c-0.64,0.92-1.59,2.15-3.72,4.83
				c-1.13,1.42-2.39,3.01-2.81,3.55c-0.43,0.54-0.78,0.99-0.79,0.99c-0.01,0-0.15-0.19-0.3-0.43c-1.2-1.8-2.64-3.38-4.34-4.79
				c-0.32-0.27-0.68-0.56-0.79-0.64s-0.21-0.17-0.21-0.18c0-0.03,1.82-0.82,3.21-1.37c2.42-0.99,5.73-2.17,8.21-2.93
				C381.08,665.31,382.47,664.91,382.49,664.93L382.49,664.93z M383.31,665.15c0.04-0.01,0.3,0.12,0.61,0.3
				c2.61,1.49,5.16,3.41,7.18,5.38c0.57,0.56,1.97,2.02,1.95,2.03c0,0-0.49,0.04-1.07,0.09c-4.52,0.34-10.3,1.3-15.85,2.64
				c-0.38,0.09-0.71,0.16-0.73,0.16c-0.02,0,0.4-0.42,0.92-0.92c3.26-3.14,4.75-5.13,6.51-8.67
				C383.08,665.63,383.29,665.18,383.31,665.15C383.3,665.15,383.3,665.15,383.31,665.15L383.31,665.15z M359.43,667.59
				c0.15,0.03,1.54,0.69,2.6,1.21c0.97,0.48,2.41,1.26,2.49,1.32c0.01,0.01-0.5,0.28-1.14,0.59c-2.02,1.01-3.74,1.96-5.55,3.06
				c-0.51,0.31-0.94,0.57-0.95,0.57c-0.04,0-0.03-0.04,0.26-0.57c0.97-1.76,1.74-3.86,2.18-5.91
				C359.35,667.7,359.39,667.59,359.43,667.59L359.43,667.59z M358.03,667.85c0.03,0.03-0.33,1.35-0.56,2.07
				c-0.44,1.36-1.18,3.07-1.9,4.35c-0.17,0.3-0.43,0.74-0.57,0.99l-0.27,0.43l-0.6-0.58c-0.7-0.68-1.27-1.09-1.99-1.47
				c-0.29-0.15-0.51-0.28-0.51-0.3c0-0.09,1.83-1.75,3.24-2.95C355.88,669.53,358,667.82,358.03,667.85L358.03,667.85z
				 M366.56,671.36l0.53,0.34c1.2,0.78,2.62,1.82,3.7,2.74c0.61,0.5,1.79,1.57,2.03,1.82l0.13,0.14l-0.87,0.25
				c-4.91,1.36-8.71,2.57-13.14,4.2c-0.49,0.18-0.91,0.33-0.94,0.33c-0.06,0-0.12,0.05,0.99-0.97c2.83-2.61,5.34-5.48,7.21-8.28
				L366.56,671.36L366.56,671.36z M364.32,671.92c0.02,0.02-1.45,2.09-2.33,3.26c-1.05,1.39-2.92,3.73-4.2,5.26
				c-0.54,0.63-1,1.16-1.02,1.17c-0.03,0.01-0.04-0.15-0.04-0.4c0-1.3-0.33-2.68-0.91-3.86c-0.25-0.49-0.29-0.61-0.24-0.66
				c0.2-0.18,3.33-1.96,5.3-3.02C362.2,672.95,364.28,671.9,364.32,671.92L364.32,671.92z M350.76,675.24
				c0.03,0,0.28,0.13,0.56,0.28c0.69,0.38,1.3,0.79,1.84,1.24c0.02,0.02-0.26,0.25-0.62,0.51c-1.02,0.73-2.56,1.9-3.46,2.62
				c-0.94,0.75-0.98,0.77-0.87,0.61c0.71-1.08,1.06-1.69,1.44-2.48c0.33-0.7,0.66-1.52,0.9-2.24
				C350.63,675.48,350.74,675.24,350.76,675.24L350.76,675.24z M354.37,678.07c0.05-0.01,0.12,0.09,0.41,0.51
				c0.61,0.91,1.08,2.13,1.2,3.12l0.02,0.21l-1.47,0.57c-2.63,1.02-5.05,2.03-6.69,2.78c-0.46,0.21-1.27,0.6-1.79,0.86
				c-0.53,0.27-0.95,0.47-0.95,0.46s0.33-0.26,0.74-0.56c3.21-2.33,5.99-4.88,8.07-7.43c0.23-0.27,0.43-0.51,0.45-0.53
				L354.37,678.07L354.37,678.07z M352.71,678.48c0.04,0.04-1.18,1.43-2.02,2.27c-2.07,2.11-4.12,3.77-6.66,5.37
				c-0.32,0.2-0.61,0.39-0.64,0.41c-0.08,0.04,0.02-0.06,1.14-1.28c0.71-0.76,1.24-1.41,1.86-2.2c0.41-0.53,0.48-0.6,1.07-1.02
				C349.03,680.91,352.67,678.44,352.71,678.48z"/>
		</g>
		<path class="st32" d="M373.71,328.59c-0.11,0-0.23,0.01-0.34,0.01c-2.27,0.12-3.81,1.12-4.7,3.08c-0.77,1.77-0.68,4.08,0.01,5.86
			c0.8,1.74,2.1,2.65,4.27,3c0.46,0.08,0.77,0.33,1.66,1.37l1.09,1.28h1.98l-1.32-1.33c-0.73-0.73-1.32-1.36-1.32-1.42
			c0-0.06,0.28-0.18,0.62-0.28c1.11-0.34,2.04-1.2,2.68-2.52c0.52-1.06,0.6-1.39,0.67-2.7
			C379.22,331.01,377.16,328.56,373.71,328.59L373.71,328.59L373.71,328.59z M375.45,338.85c-0.97,0.47-2.37,0.56-3.28,0.23
			c-0.95-0.35-1.86-1.33-2.27-2.44c-0.46-1.22-0.39-3.46,0.13-4.47c0.84-1.61,1.96-2.35,3.58-2.35c2.41,0,3.79,1.48,3.97,4.26
			C377.72,336.38,376.94,338.12,375.45,338.85L375.45,338.85z M409.73,331.94c-0.83,0-1.47,0.34-1.9,1l-0.34,0.53v-1.37h-1.44v8.19
			h1.44v-2.62c0-2.4,0.03-2.68,0.36-3.33c0.46-0.9,1.25-1.35,2.02-1.13l0.51,0.15v-1.42L409.73,331.94L409.73,331.94L409.73,331.94z
			 M401.27,331.87c-0.28,0-0.58,0.04-0.88,0.1c-1.93,0.5-3.01,2.35-2.95,4.25c0,1.59,0.31,2.38,1.08,3.22
			c1.57,1.29,2.99,1.39,4.91,0.7c0.33-0.14,0.68-0.3,0.68-0.3v-1.29l-0.68,0.35c-1.55,0.68-2.72,0.68-3.66-0.12
			c-0.6-0.61-0.86-1.34-0.98-2.17h5.81v-1.1C404.6,333.25,403.24,331.83,401.27,331.87L401.27,331.87L401.27,331.87z M398.92,335.46
			c0,0,0.21-1.41,1.01-1.96c0.38-0.27,0.82-0.4,1.25-0.4c0.43,0,0.86,0.14,1.22,0.41c0.73,0.56,0.85,1.94,0.85,1.94h-4.33
			L398.92,335.46L398.92,335.46L398.92,335.46z M364.19,333.98c-1.56-0.95-2.25-1.63-2.17-2.43c0.24-2.23,2.99-1.92,4.52-1.08
			l0.01-1.5c0,0-0.84-0.36-2.05-0.38c-1.85-0.03-3.05,0.58-3.61,1.81c-0.82,1.82-0.09,3.2,2.54,4.73c1.48,0.86,2.13,1.61,2.13,2.42
			c0,1.68-2.03,2.27-4.13,1.22c-0.43-0.21-0.8-0.39-0.82-0.39c-0.08,0.48-0.04,1.62-0.04,1.62s0.64,0.27,1.61,0.46
			c2.39,0.48,4.57-0.65,4.78-2.47C367.16,336.28,366.54,335.38,364.19,333.98L364.19,333.98L364.19,333.98z M422.48,331.85
			c-0.28,0-0.58,0.04-0.89,0.1c-1.93,0.5-3.01,2.35-2.94,4.25c0,1.59,0.31,2.37,1.07,3.21c1.57,1.29,2.99,1.39,4.92,0.7
			c0.33-0.14,0.68-0.3,0.68-0.3v-1.29l-0.68,0.36c-1.56,0.67-2.72,0.67-3.66-0.12c-0.6-0.61-0.86-1.33-0.98-2.17h5.8v-1.1
			C425.81,333.24,424.45,331.81,422.48,331.85L422.48,331.85L422.48,331.85z M420.13,335.44c0,0,0.22-1.4,1.01-1.97
			c0.38-0.27,0.82-0.4,1.25-0.4c0.43,0,0.86,0.14,1.22,0.41c0.73,0.56,0.85,1.95,0.85,1.95L420.13,335.44L420.13,335.44
			L420.13,335.44z M393.73,334c-1.56-0.94-2.25-1.63-2.17-2.43c0.24-2.23,2.99-1.92,4.52-1.08l0.01-1.5c0,0-0.84-0.36-2.05-0.38
			c-1.85-0.03-3.05,0.58-3.61,1.81c-0.82,1.82-0.08,3.2,2.54,4.73c1.48,0.86,2.13,1.6,2.13,2.41c0,1.68-2.03,2.28-4.12,1.22
			c-0.43-0.21-0.79-0.39-0.82-0.39c-0.08,0.48-0.04,1.62-0.04,1.62s0.64,0.26,1.6,0.46c2.4,0.48,4.58-0.64,4.78-2.47
			C396.69,336.3,396.07,335.4,393.73,334L393.73,334L393.73,334z M430.95,331.92c-0.83,0-1.48,0.34-1.9,1l-0.34,0.52v-1.36h-1.44
			v8.19h1.44v-2.62c0-2.39,0.03-2.68,0.36-3.33c0.46-0.9,1.25-1.35,2.02-1.13l0.51,0.15v-1.42L430.95,331.92L430.95,331.92z
			 M382.27,333.95v-5.22h-1.45v11.56h6.11v-1.37h-4.66L382.27,333.95L382.27,333.95z M415.86,335.58l-1.2,3.11l-1.15-3.13
			l-1.17-3.47h-1.49c0.96,2.73,2.01,5.51,3.07,8.2c0.46,0.01,0.92,0,1.38,0l1.62-4.06l1.65-4.14h-1.42
			C417.14,332.09,416.51,333.74,415.86,335.58L415.86,335.58L415.86,335.58z M385.62,325.58c0.23,0,0.43-0.07,0.59-0.24
			c0.16-0.16,0.24-0.35,0.24-0.58c0-0.23-0.08-0.43-0.24-0.58c-0.16-0.15-0.35-0.23-0.58-0.23c-0.24,0-0.43,0.08-0.59,0.23
			c-0.16,0.16-0.23,0.35-0.23,0.58c0,0.24,0.08,0.43,0.23,0.58C385.19,325.51,385.39,325.58,385.62,325.58L385.62,325.58
			L385.62,325.58z M385.11,324.25c0.14-0.14,0.31-0.2,0.53-0.2c0.2,0,0.37,0.06,0.51,0.2c0.14,0.14,0.21,0.31,0.21,0.51
			c0,0.21-0.08,0.38-0.21,0.52c-0.14,0.14-0.31,0.21-0.51,0.21c-0.21,0-0.38-0.06-0.51-0.21c-0.14-0.14-0.21-0.32-0.21-0.52
			C384.9,324.56,384.97,324.39,385.11,324.25z M385.45,324.84h0.09c0.07,0,0.13,0.06,0.19,0.19l0.11,0.25h0.18l-0.14-0.28
			c-0.06-0.11-0.11-0.18-0.18-0.2c0.08-0.02,0.15-0.05,0.2-0.1c0.05-0.05,0.06-0.11,0.06-0.19c0-0.09-0.03-0.15-0.08-0.2
			c-0.06-0.05-0.17-0.08-0.3-0.08h-0.3v1.05h0.15v-0.44L385.45,324.84L385.45,324.84z M385.45,324.36h0.13
			c0.09,0,0.16,0.02,0.2,0.05c0.04,0.03,0.05,0.06,0.05,0.13c0,0.12-0.08,0.18-0.21,0.18h-0.16L385.45,324.36L385.45,324.36
			L385.45,324.36z M361.46,324.75c0-0.36-0.01-0.64-0.02-0.8h0.01c0.04,0.19,0.08,0.33,0.12,0.42l1.39,3.11h0.23l1.39-3.14
			c0.04-0.09,0.08-0.21,0.12-0.39h0.01c-0.03,0.31-0.04,0.58-0.04,0.8v2.75h0.48v-4.09h-0.6l-1.28,2.84
			c-0.05,0.11-0.11,0.28-0.2,0.5h-0.02c-0.03-0.11-0.09-0.28-0.19-0.48l-1.25-2.87H361v4.09h0.46L361.46,324.75L361.46,324.75
			L361.46,324.75z M366.21,324.76h0.41v2.55h-0.41V324.76z M366.42,323.82c0.09,0,0.16-0.03,0.21-0.09
			c0.06-0.06,0.09-0.13,0.09-0.21c0-0.08-0.03-0.16-0.09-0.21c-0.06-0.06-0.13-0.09-0.22-0.09c-0.08,0-0.16,0.03-0.21,0.09
			c-0.06,0.06-0.09,0.13-0.09,0.21c0,0.09,0.03,0.16,0.09,0.21C366.27,323.79,366.33,323.82,366.42,323.82L366.42,323.82
			L366.42,323.82z M369.56,327.36v-0.45c-0.23,0.17-0.47,0.25-0.72,0.25c-0.3,0-0.54-0.1-0.72-0.3c-0.18-0.2-0.27-0.47-0.27-0.8
			c0-0.35,0.09-0.64,0.29-0.85c0.19-0.21,0.43-0.31,0.73-0.31c0.24,0,0.48,0.08,0.69,0.23v-0.48c-0.2-0.1-0.42-0.15-0.67-0.15
			c-0.47,0-0.83,0.15-1.1,0.44c-0.27,0.29-0.41,0.68-0.41,1.16c0,0.42,0.12,0.78,0.37,1.05c0.26,0.28,0.6,0.42,1.01,0.42
			C369.08,327.56,369.34,327.49,369.56,327.36L369.56,327.36z M370.74,326c0-0.34,0.08-0.61,0.21-0.79
			c0.13-0.17,0.29-0.25,0.48-0.25c0.16,0,0.27,0.03,0.35,0.09v-0.49c-0.06-0.03-0.16-0.04-0.28-0.04c-0.17,0-0.32,0.06-0.45,0.16
			c-0.14,0.11-0.25,0.28-0.32,0.49h-0.01v-0.6h-0.47v2.92h0.47L370.74,326L370.74,326z M373.42,327.56c0.44,0,0.79-0.14,1.06-0.42
			c0.26-0.28,0.39-0.65,0.39-1.12c0-0.48-0.12-0.84-0.36-1.11c-0.24-0.27-0.58-0.4-1.02-0.4s-0.79,0.13-1.06,0.38
			c-0.28,0.28-0.43,0.67-0.43,1.18c0,0.44,0.12,0.8,0.37,1.08C372.64,327.42,372.99,327.56,373.42,327.56L373.42,327.56
			L373.42,327.56z M372.76,325.18c0.18-0.19,0.41-0.28,0.7-0.28c0.3,0,0.53,0.09,0.69,0.28c0.17,0.2,0.25,0.48,0.25,0.85
			c0,0.36-0.08,0.64-0.23,0.82c-0.16,0.2-0.39,0.3-0.7,0.3c-0.3,0-0.53-0.1-0.71-0.3c-0.18-0.2-0.26-0.47-0.26-0.82
			C372.48,325.68,372.57,325.39,372.76,325.18L372.76,325.18z M376.92,327.3c0.18-0.16,0.27-0.35,0.27-0.6
			c0-0.21-0.08-0.39-0.21-0.53c-0.11-0.11-0.29-0.21-0.54-0.32c-0.23-0.09-0.36-0.18-0.44-0.24c-0.08-0.08-0.12-0.17-0.12-0.3
			c0-0.12,0.05-0.21,0.14-0.29c0.09-0.07,0.21-0.11,0.38-0.11c0.25,0,0.47,0.07,0.66,0.21v-0.47c-0.19-0.09-0.39-0.14-0.63-0.14
			c-0.3,0-0.55,0.08-0.74,0.24c-0.2,0.16-0.29,0.36-0.29,0.61c0,0.21,0.06,0.39,0.19,0.52c0.1,0.11,0.28,0.23,0.52,0.33
			c0.23,0.1,0.39,0.2,0.48,0.27c0.08,0.08,0.12,0.17,0.12,0.28c0,0.27-0.19,0.41-0.55,0.41c-0.28,0-0.53-0.09-0.76-0.28v0.5
			c0.2,0.12,0.45,0.18,0.72,0.18C376.46,327.56,376.73,327.47,376.92,327.3L376.92,327.3L376.92,327.3z M379.15,324.5
			c-0.44,0-0.79,0.13-1.06,0.38c-0.28,0.28-0.43,0.67-0.43,1.18c0,0.44,0.12,0.8,0.37,1.08c0.26,0.28,0.61,0.42,1.05,0.42
			c0.45,0,0.79-0.14,1.06-0.42c0.26-0.28,0.39-0.65,0.39-1.12c0-0.48-0.12-0.84-0.36-1.11C379.92,324.63,379.58,324.5,379.15,324.5
			L379.15,324.5L379.15,324.5z M380.06,326.03c0,0.36-0.08,0.64-0.23,0.82c-0.16,0.2-0.39,0.3-0.7,0.3c-0.3,0-0.53-0.1-0.71-0.3
			c-0.18-0.2-0.26-0.47-0.26-0.82c0-0.38,0.09-0.66,0.28-0.86c0.18-0.19,0.41-0.28,0.7-0.28c0.29,0,0.52,0.09,0.69,0.28
			C379.97,325.38,380.05,325.66,380.06,326.03L380.06,326.03L380.06,326.03z M381.32,327.49h0.47v-2.53h0.68v-0.39h-0.68v-0.45
			c0-0.41,0.16-0.62,0.49-0.62c0.11,0,0.22,0.03,0.31,0.08v-0.42c-0.08-0.04-0.2-0.05-0.34-0.05c-0.25,0-0.46,0.08-0.63,0.23
			c-0.2,0.19-0.3,0.43-0.3,0.76v0.48h-0.49v0.39h0.49L381.32,327.49L381.32,327.49z M383.24,326.69c0,0.57,0.25,0.86,0.77,0.86
			c0.19,0,0.33-0.03,0.44-0.1v-0.4c-0.09,0.06-0.19,0.09-0.3,0.09c-0.16,0-0.27-0.04-0.34-0.12c-0.07-0.08-0.1-0.23-0.1-0.42v-1.65
			h0.74v-0.39h-0.74v-0.86c-0.16,0.06-0.32,0.1-0.47,0.15v0.71h-0.5v0.39h0.5L383.24,326.69L383.24,326.69z M433.44,332.07
			c-0.16-0.15-0.35-0.23-0.58-0.23c-0.24,0-0.43,0.08-0.59,0.24c-0.16,0.16-0.23,0.35-0.23,0.58c0,0.23,0.08,0.43,0.23,0.58
			c0.16,0.15,0.35,0.23,0.59,0.23c0.23,0,0.43-0.08,0.59-0.23c0.16-0.16,0.24-0.35,0.24-0.58
			C433.68,332.42,433.59,332.22,433.44,332.07L433.44,332.07z M433.36,333.18c-0.14,0.14-0.31,0.2-0.51,0.2
			c-0.2,0-0.37-0.06-0.51-0.2c-0.14-0.14-0.21-0.32-0.21-0.53c0-0.2,0.06-0.37,0.21-0.51c0.14-0.14,0.31-0.2,0.52-0.2
			c0.2,0,0.37,0.06,0.51,0.2c0.14,0.14,0.21,0.31,0.21,0.51C433.57,332.87,433.51,333.04,433.36,333.18z M432.94,332.7
			c0.08-0.02,0.15-0.06,0.2-0.1c0.05-0.05,0.06-0.11,0.06-0.19c0-0.08-0.03-0.15-0.08-0.2c-0.06-0.05-0.17-0.08-0.3-0.08h-0.3v1.05
			h0.15v-0.44h0.09c0.06,0,0.13,0.06,0.19,0.19l0.11,0.25h0.18l-0.14-0.28C433.05,332.77,432.99,332.72,432.94,332.7L432.94,332.7
			L432.94,332.7z M432.84,332.61h-0.16v-0.35h0.13c0.09,0,0.16,0.02,0.2,0.05c0.04,0.03,0.05,0.06,0.05,0.13
			C433.05,332.55,432.98,332.61,432.84,332.61L432.84,332.61L432.84,332.61z M406.74,324.45h0.13v-1.05h0.35v-0.13h-0.82v0.13h0.35
			L406.74,324.45L406.74,324.45z M407.53,323.66c0-0.1,0-0.19-0.01-0.23c0.01,0.06,0.03,0.09,0.04,0.12l0.4,0.9h0.06l0.4-0.91
			c0.01-0.03,0.02-0.06,0.04-0.11c-0.01,0.09-0.01,0.17-0.01,0.23v0.79h0.14v-1.18h-0.17l-0.36,0.81c-0.01,0.03-0.04,0.09-0.06,0.15
			H408c-0.01-0.04-0.03-0.08-0.05-0.14l-0.36-0.82h-0.19v1.18h0.13L407.53,323.66L407.53,323.66L407.53,323.66z"/>
	</g>
</g>
<g>
	<path class="st5" d="M452.17,589.17H342.08c-8.56,0-15.5-6.94-15.5-15.5V463.58c0-8.56,6.94-15.5,15.5-15.5h110.09
		c8.56,0,15.5,6.94,15.5,15.5v110.09C467.67,582.23,460.73,589.17,452.17,589.17z"/>
	<g>
		<path class="st33" d="M405.09,549.47h0.75l12.24-6.12l0.2-0.29v-48.86l-0.2-0.29l-12.24-6.12h-0.76L405.09,549.47"/>
		<path class="st34" d="M389.16,549.47h-0.76l-12.23-6.12l-0.25-0.43l-0.13-48.48l0.37-0.54l12.23-6.12h0.77L389.16,549.47"/>
		<path class="st35" d="M388.42,487.79h17.41v61.68h-17.41V487.79z"/>
		<path class="st36" d="M424.49,517.24l-0.41-0.09l-5.91-0.55l-0.09,0.04l-12.25-0.49h-17.41l-12.25,0.49v-9.34l-0.01,0.01
			l0.01-0.03l12.25-2.84h17.41l12.25,2.84l4.5,2.39v-1.54l1.9-0.21l-0.2-0.38l-6.03-4.31l-0.18,0.06l-12.25-3.8h-17.41l-12.25,3.8
			v-9.39l-6.41,7.51v6.56l0.05-0.04l1.85,0.2v1.57l-1.9,1.02v6.52l0.05-0.01l1.85,0.03v2.74l-1.6,0.02l-0.3-0.03v6.53l1.9,1.02v1.59
			l-1.82,0.2l-0.08-0.06v6.56l6.41,7.51v-9.39l12.25,3.8h17.41l12.29-3.81l0.16,0.07l5.95-4.25l0.26-0.42l-1.9-0.21v-1.56l-0.25-0.1
			l-4.07,2.19l-0.15,0.31l-12.29,2.82v0h-17.41v0l-12.25-2.83v-9.38l12.25,0.49v0.01h17.41l12.25-0.5l0.28,0.13l5.73-0.49l0.4-0.2
			l-1.9-0.03v-2.74L424.49,517.24"/>
		<path class="st35" d="M418.09,533.96v9.39l6.41-7.51v-6.51l-6.37,4.62L418.09,533.96 M418.09,530l0.04-0.01l6.37-3.43v-6.55
			l-6.41,0.59V530 M418.12,507.29l-0.04-0.01v9.36l6.41,0.6v-6.55L418.12,507.29 M418.12,503.33l6.37,4.6v-6.51l-6.41-7.51v9.39
			l0.04,0.01V503.33"/>
	</g>
</g>
<g>
	<path class="st5" d="M452.17,794.09H342.08c-8.56,0-15.5-6.94-15.5-15.5V668.5c0-8.56,6.94-15.5,15.5-15.5h110.09
		c8.56,0,15.5,6.94,15.5,15.5v110.09C467.67,787.15,460.73,794.09,452.17,794.09z"/>
	<g>
		<path class="st37" d="M403.57,711.02c-2.11,0.49-4.27,0.74-6.43,0.73c-2.17,0-4.32-0.24-6.43-0.73c1.72-2.74,3.9-5.16,6.43-7.17
			C399.67,705.87,401.84,708.29,403.57,711.02z M422.97,695.26c-2.64-0.7-5.36-1.05-8.08-1.04c-6.32-0.01-12.49,1.86-17.74,5.37
			c-5.25-3.51-11.43-5.38-17.74-5.37c-2.75-0.01-5.48,0.34-8.14,1.04c-1.11,0.28-2.21,0.62-3.28,1.03c-0.04,0.05-0.04,0.12,0,0.16
			c0.46,0.98,0.97,1.95,1.52,2.88c0.04,0.03,0.1,0.03,0.15,0c1.09-0.39,2.19-0.72,3.32-0.99c7.26-1.65,14.88-0.42,21.25,3.45
			c-2.75,2.33-5.1,5.11-6.93,8.21c-0.37,0.59-0.68,1.19-1.01,1.83c-0.33,0.64-0.4,0.82-0.6,1.26c-0.2,0.44-0.57,1.32-0.81,1.98
			c-4.45,11.97-1.36,25.45,7.86,34.28c0.48,0.46,0.97,0.9,1.48,1.34c0.51,0.44,0.81,0.68,1.23,0.99c0.42,0.31,1.08,0.81,1.63,1.17
			c0.04,0.03,0.1,0.03,0.15,0c0.55-0.38,1.1-0.77,1.63-1.17c0.53-0.4,0.82-0.64,1.23-0.99c0.4-0.35,1.01-0.88,1.48-1.34
			c6.3-6.04,9.87-14.39,9.86-23.12c0.01-3.81-0.67-7.59-2-11.16c-0.26-0.68-0.53-1.34-0.82-2c-0.29-0.66-0.4-0.86-0.6-1.26
			c-0.2-0.4-0.64-1.21-1.01-1.83c-1.83-3.11-4.18-5.88-6.93-8.21c6.38-3.84,14.01-5.05,21.26-3.37c1.12,0.26,2.23,0.6,3.32,0.99
			c0.04,0.03,0.1,0.03,0.15,0c0.54-0.93,1.04-1.88,1.5-2.86c0.04-0.05,0.04-0.12,0-0.16C425.2,695.93,424.09,695.56,422.97,695.26z"
			/>
		<path class="st38" d="M407.97,726.24c0.01,7.29-2.78,14.3-7.79,19.6c-0.87-2.78-1.32-5.67-1.32-8.58
			c-0.01-7.29,2.78-14.31,7.79-19.6C407.52,720.43,407.97,723.33,407.97,726.24"/>
		<path class="st39" d="M395.47,737.25c0,2.91-0.44,5.8-1.32,8.58c-7.12-7.52-9.59-18.31-6.47-28.18
			C392.69,722.95,395.48,729.96,395.47,737.25"/>
	</g>
</g>
<g>
	<path class="st5" d="M232.03,794.09H121.94c-8.56,0-15.5-6.94-15.5-15.5V668.5c0-8.56,6.94-15.5,15.5-15.5h110.09
		c8.56,0,15.5,6.94,15.5,15.5v110.09C247.53,787.15,240.59,794.09,232.03,794.09z"/>
	<g>
		<g>
			<path class="st40" d="M217.66,741.35c-0.09-0.06-0.17-0.13-0.28-0.21c0.06-0.07,0.11-0.12,0.16-0.17
				c1.77-1.49,2.31-3.43,1.54-5.54c-0.68-1.89-2.3-2.93-4.59-2.95c-1.22-0.01-2.45,0-3.68,0c-1.06,0-1.49,0.42-1.49,1.48
				c0,5.07,0,10.13,0,15.2c0,1.02,0.39,1.43,1.39,1.44c1.43,0.01,2.86,0.03,4.29-0.01c2.29-0.06,4.02-1.27,4.64-3.17
				C220.45,745.01,219.72,742.81,217.66,741.35z M211.16,734.1c1.58,0.09,3.16-0.01,4.65,0.31c1.92,0.4,2.49,3.33,1.01,4.84
				c-0.4,0.41-0.95,0.82-1.49,0.89c-1.36,0.2-2.75,0.21-4.18,0.31C211.16,738.26,211.16,736.26,211.16,734.1z M217.64,747.49
				c-0.43,0.82-1.18,1.31-2.06,1.36c-1.47,0.09-2.95,0.03-4.46,0.03c0-2.28,0-4.52,0-6.89c1.46,0.07,2.94-0.07,4.32,0.25
				C218.13,742.86,218.63,745.58,217.64,747.49z"/>
			<path class="st40" d="M205.45,736.38c-1.05-2.59-3.11-3.77-5.83-3.89c-1.17-0.05-2.34-0.02-3.51-0.02
				c-1.09,0-1.51,0.43-1.51,1.52c0,2.52,0,5.05,0,7.57s0,5.05,0,7.57c0,1.04,0.4,1.45,1.44,1.46c1.17,0.01,2.34,0.02,3.51,0
				c3.8-0.09,6.32-2.65,6.36-6.44c0.02-1.8,0.05-3.6-0.02-5.4C205.86,737.97,205.74,737.12,205.45,736.38z M204.1,744.8
				c-0.1,2.33-1.81,3.96-4.12,4.1c-1,0.06-2,0.02-3.01,0.06c-0.42,0.02-0.54-0.12-0.54-0.54c0.02-2.3,0.01-4.61,0.01-6.91
				c0-2.27,0.01-4.53-0.01-6.8c0-0.4,0.1-0.57,0.53-0.55c1.06,0.05,2.12,0,3.17,0.09c2.21,0.18,3.87,1.81,3.97,4.02
				C204.19,740.45,204.19,742.63,204.1,744.8z"/>
			<path class="st40" d="M144.06,740.93c-1.13-0.02-2.26-0.01-3.4,0c-0.18,0-0.44,0.01-0.52,0.12c-0.2,0.28-0.44,0.62-0.44,0.93
				c0.01,0.43,0.4,0.64,0.83,0.65c1,0.01,2,0,3.08,0c0,2,0.01,3.91-0.02,5.82c0,0.14-0.25,0.37-0.41,0.4c-1,0.17-2.01,0.42-3.02,0.4
				c-2.54-0.03-4.14-1.43-4.29-3.95c-0.15-2.46-0.14-4.94,0-7.4c0.13-2.28,1.52-3.66,3.61-3.94c1.37-0.19,2.6,0.22,3.8,0.81
				c0.61,0.3,1.09,0.18,1.31-0.27c0.24-0.48,0.05-0.96-0.53-1.28c-1.62-0.89-3.36-1.16-5.17-0.86c-2.65,0.44-4.57,2.27-4.75,4.93
				c-0.19,2.82-0.18,5.68,0,8.51c0.13,2.17,1.37,3.82,3.44,4.6c2.4,0.9,4.78,0.54,7.1-0.41c0.45-0.19,0.65-0.59,0.65-1.08
				c0-2.25,0.01-4.49,0-6.74C145.32,741.4,144.83,740.94,144.06,740.93z"/>
			<path class="st40" d="M174.5,737.49c-1.44-0.22-2.85,0.03-4.23,0.4c-1.13,0.31-1.35,0.61-1.35,1.76
				c-0.01,3.19-0.02,6.38-0.04,9.57c-0.01,2.06-0.04,4.12-0.05,6.18c0,0.71,0.45,1.13,1.06,1.04c0.47-0.07,0.75-0.45,0.75-1.08
				c0.01-1.52,0-3.04,0-4.56c0-0.2,0-0.39,0-0.66c0.26,0.1,0.43,0.17,0.6,0.23c0.87,0.35,1.76,0.55,2.71,0.51
				c2.27-0.11,4.08-1.57,4.29-3.82c0.18-1.93,0.17-3.9,0-5.83C178.06,739.16,176.57,737.81,174.5,737.49z M176.61,746.62
				c-0.04,1.49-1.02,2.48-2.52,2.62c-1.08,0.1-2.1-0.06-3.04-0.66c-0.29-0.19-0.42-0.41-0.41-0.77c0.02-1.32,0.01-2.64,0.01-3.95
				c0-1.32-0.01-2.64,0.01-3.95c0-0.18,0.18-0.49,0.32-0.51c1.08-0.15,2.17-0.38,3.24-0.32c1.45,0.08,2.35,1.14,2.39,2.6
				C176.65,743.32,176.65,744.97,176.61,746.62z"/>
			<path class="st40" d="M190.99,740.68c-0.49-1.8-2.08-3.04-4-3.19c-1.21-0.09-2.35,0.14-3.51,0.69c0-0.29,0-0.49,0-0.69
				c0-1.41,0-2.82,0-4.23c0-0.63-0.37-1.05-0.9-1.06c-0.53-0.01-0.88,0.4-0.9,1.05c0,0.11,0,0.22,0,0.33c0,5.31,0,10.62,0,15.93
				c0,0.19,0,0.37,0.02,0.56c0.06,0.49,0.35,0.77,0.84,0.81c0.51,0.04,0.79-0.26,0.93-0.72c0.05-0.17,0.03-0.37,0.03-0.55
				c0-2.88,0.03-5.76-0.02-8.63c-0.01-0.74,0.25-1.15,0.85-1.44c0.13-0.06,0.26-0.14,0.4-0.2c2.09-0.85,4.95-0.35,4.75,3.1
				c-0.09,1.5-0.03,3.01-0.04,4.51c-0.01,0.98-0.03,1.97-0.02,2.95c0,0.25,0.06,0.53,0.2,0.73c0.23,0.33,0.6,0.45,0.99,0.29
				c0.43-0.17,0.6-0.5,0.6-0.97c-0.01-2.67,0-5.35-0.02-8.02C191.17,741.52,191.1,741.09,190.99,740.68z"/>
			<path class="st40" d="M162.52,737.73c-1.75-0.38-3.43-0.16-5.02,0.68c-0.11,0.06-0.23,0.13-0.33,0.2
				c-0.39,0.29-0.52,0.78-0.27,1.12c0.28,0.38,0.67,0.52,1.13,0.31c0.19-0.09,0.36-0.19,0.54-0.28c0.99-0.49,2.03-0.72,3.13-0.58
				c1.13,0.14,1.98,0.8,2.08,1.71c0.08,0.71,0.02,1.44,0.02,2.25c-0.95,0-1.86-0.04-2.77,0.01c-0.85,0.05-1.71,0.1-2.53,0.31
				c-1.11,0.28-1.85,1.06-2.2,2.17c-0.85,2.7,0.66,4.98,3.48,5.25c1.63,0.16,3.22-0.05,4.78-0.54c0.67-0.21,0.97-0.6,0.97-1.31
				c0.01-2.53,0.02-5.05,0-7.58C165.5,739.54,164.38,738.14,162.52,737.73z M163.74,748.59c0,0.12-0.16,0.3-0.27,0.33
				c-1.39,0.39-2.79,0.59-4.21,0.17c-1.05-0.31-1.49-0.96-1.49-2.13c-0.01-1.11,0.44-1.78,1.44-2.11c0.28-0.09,0.57-0.19,0.86-0.2
				c1.2-0.02,2.4-0.01,3.69-0.01C163.75,746,163.76,747.3,163.74,748.59z"/>
			<path class="st40" d="M153.92,737.58c-0.53-0.09-1.07-0.16-1.6-0.17c-1.83-0.03-3.37,1.19-3.45,3.01
				c-0.15,3.21-0.12,6.42-0.15,9.63c0,0.53,0.47,0.87,0.99,0.82c0.48-0.05,0.79-0.44,0.79-1.04c0.01-1.5,0-3.01,0-4.51
				c0-1.49-0.01-2.97,0-4.46c0.01-1.29,0.69-1.91,1.97-1.82c0.37,0.03,0.74,0.1,1.1,0.17c0.57,0.11,1.05-0.13,1.15-0.59
				C154.84,738.12,154.54,737.69,153.92,737.58z"/>
		</g>
		<g>
			<path class="st41" d="M186.3,708.12c-2.68-0.01-4.89,2.17-4.93,4.85c-0.04,2.71,2.29,5.03,5.04,5.03c2.71,0,4.88-2.2,4.9-4.97
				C191.32,710.28,189.13,708.13,186.3,708.12z"/>
			<path class="st41" d="M179.31,695.18c0.01-2.56-2.01-4.56-4.59-4.56c-2.53,0-4.6,2.06-4.6,4.58c0,2.57,2.04,4.58,4.65,4.58
				C177.31,699.78,179.3,697.76,179.31,695.18z"/>
			<path class="st41" d="M167.01,720.57c-2.38,0-4.35,1.98-4.34,4.35c0.01,2.42,1.92,4.34,4.33,4.35c2.4,0,4.39-1.92,4.41-4.29
				C171.43,722.61,169.4,720.57,167.01,720.57z"/>
			<path class="st41" d="M176.44,716.1c-1.53-0.01-2.9,1.3-2.91,2.78c-0.01,1.64,1.26,2.96,2.86,2.99c1.61,0.02,2.9-1.17,2.94-2.7
				C179.36,717.52,178.03,716.11,176.44,716.1z"/>
			<path class="st41" d="M182.64,703.96c0.03-1.06-0.84-1.98-1.89-2c-1.09-0.02-1.97,0.82-1.98,1.9c-0.01,1.05,0.91,2,1.93,1.99
				C181.7,705.84,182.61,704.96,182.64,703.96z"/>
		</g>
	</g>
</g>
<path class="st8" d="M1329.78,772.83c0.1,0.42,0.18,0.85,0.3,1.26c1.04,3.41,3.31,5.45,6.83,6.08c0.11,0.02,0.21,0.07,0.31,0.11
	c-2.47,0-4.95,0-7.45,0C1329.78,777.79,1329.78,775.31,1329.78,772.83z"/>
<g>
	<path class="st5" d="M1029.71,589.17H919.62c-8.56,0-15.5-6.94-15.5-15.5V463.58c0-8.56,6.94-15.5,15.5-15.5h110.09
		c8.56,0,15.5,6.94,15.5,15.5v110.09C1045.21,582.23,1038.27,589.17,1029.71,589.17z"/>
	<g>
		<path class="st42" d="M946.24,543.5c0-16.56,0-33.12,0-49.68c0.05-0.21,0.09-0.41,0.15-0.61c0.49-1.81,2.07-2.99,4-2.99
			c15.74,0,31.49,0,47.23,0c0.47,0,0.95-0.01,1.42,0c0.61,0.01,1.2,0.13,1.74,0.42c1.51,0.8,2.25,2.07,2.25,3.77
			c0,16.17,0,32.34,0,48.51c0,0.09,0,0.19,0,0.28c-0.05,1.84-1.36,3.42-3.15,3.82c-0.15,0.03-0.3,0.07-0.45,0.11
			c-16.52,0-33.05,0-49.57,0c-0.05-0.02-0.1-0.05-0.15-0.05c-1.71-0.3-2.81-1.29-3.32-2.95C946.33,543.91,946.29,543.7,946.24,543.5
			z M994.54,498.19c-0.02-0.01-0.03-0.02-0.05-0.03c-0.42,0.49-0.83,0.99-1.25,1.48c-4.44,5.18-9.42,9.81-14.75,14.06
			c-3.78,3.01-7.76,5.75-11.73,8.49c-1.68,1.16-3.28,2.42-4.67,3.93c-0.7,0.76-1.12,1.63-1.24,2.64c-0.14,1.12,0.08,2.15,0.96,2.94
			c2.65,2.36,5.69,2.88,9.01,1.81c2.76-0.89,4.96-2.65,6.89-4.77c1.75-1.93,3.21-4.08,4.62-6.25c2.35-3.61,4.3-7.44,6.13-11.33
			c2.02-4.27,4.01-8.55,6.02-12.82C994.5,498.29,994.52,498.24,994.54,498.19z M959.72,528.91c0.03-0.01,0.07-0.02,0.1-0.03
			c0-0.05,0-0.09,0-0.14c0.09-1.24,0.5-2.34,1.36-3.27c1.38-1.49,2.94-2.77,4.59-3.94c2.75-1.94,5.52-3.84,8.24-5.82
			c5.57-4.05,10.75-8.55,15.48-13.56c0.29-0.31,0.57-0.62,0.85-0.92c-0.64,0.44-1.24,0.91-1.85,1.38
			c-6.36,4.88-13.26,8.79-20.78,11.56c-1.73,0.64-3.44,1.33-5.01,2.31c-1.92,1.2-3.34,2.79-3.92,5.02c-0.5,1.91-0.36,3.81,0.24,5.67
			C959.22,527.76,959.49,528.33,959.72,528.91z"/>
		<path class="st8" d="M999.43,547.11c0.15-0.04,0.3-0.08,0.45-0.11c1.8-0.4,3.11-1.98,3.15-3.82c0-0.09,0-0.19,0-0.28
			c0-16.17,0-32.34,0-48.51c0-1.7-0.74-2.97-2.25-3.77c-0.54-0.29-1.13-0.41-1.74-0.42c-0.47-0.01-0.95,0-1.42,0
			c-15.74,0-31.49,0-47.23,0c-1.93,0-3.52,1.18-4,2.99c-0.05,0.2-0.1,0.41-0.15,0.61c0-1.22,0-2.45,0-3.67c18.95,0,37.9,0,56.85,0
			c0,18.99,0,37.98,0,56.97C1001.88,547.11,1000.65,547.11,999.43,547.11z"/>
		<path class="st8" d="M994.54,498.19c-0.02,0.05-0.04,0.1-0.06,0.15c-2,4.27-4,8.55-6.02,12.82c-1.84,3.89-3.78,7.72-6.13,11.33
			c-1.42,2.18-2.87,4.32-4.62,6.25c-1.93,2.12-4.13,3.88-6.89,4.77c-3.32,1.07-6.36,0.56-9.01-1.81c-0.88-0.79-1.1-1.81-0.96-2.94
			c0.12-1.01,0.55-1.88,1.24-2.64c1.39-1.51,2.99-2.77,4.67-3.93c3.97-2.75,7.95-5.48,11.73-8.49c5.33-4.25,10.31-8.88,14.75-14.06
			c0.42-0.49,0.84-0.99,1.25-1.48C994.51,498.16,994.53,498.17,994.54,498.19z"/>
		<path class="st43" d="M959.72,528.91c-0.23-0.58-0.5-1.15-0.7-1.74c-0.6-1.86-0.74-3.76-0.24-5.67c0.58-2.23,2-3.83,3.92-5.02
			c1.57-0.98,3.28-1.67,5.01-2.31c7.53-2.78,14.42-6.69,20.78-11.56c0.61-0.47,1.22-0.94,1.85-1.38c-0.28,0.31-0.57,0.62-0.85,0.92
			c-4.73,5.01-9.91,9.51-15.48,13.56c-2.72,1.98-5.5,3.88-8.24,5.82c-1.65,1.17-3.21,2.45-4.59,3.94c-0.86,0.93-1.27,2.03-1.36,3.27
			c0,0.05,0,0.09,0,0.14C959.79,528.89,959.75,528.9,959.72,528.91z"/>
	</g>
</g>
<line class="st44" x1="0" y1="131.13" x2="1600" y2="131.13"/>
<line class="st44" x1="0" y1="199.6" x2="1600" y2="199.6"/>
<line class="st44" x1="800" y1="130.63" x2="800" y2="899.5"/>
<g>
	<path class="st5" d="M1254.91,589.17h-110.09c-8.56,0-15.5-6.94-15.5-15.5V463.58c0-8.56,6.94-15.5,15.5-15.5h110.09
		c8.56,0,15.5,6.94,15.5,15.5v110.09C1270.41,582.23,1263.47,589.17,1254.91,589.17z"/>
	<g>
		
			<linearGradient id="SVGID_00000084516834186229503580000014107441274871669146_" gradientUnits="userSpaceOnUse" x1="1203.1736" y1="517.4389" x2="1181.1733" y2="492.1975">
			<stop  offset="0.1252" style="stop-color:#F2A52D"/>
			<stop  offset="0.9793" style="stop-color:#EB5827"/>
		</linearGradient>
		<path style="fill:url(#SVGID_00000084516834186229503580000014107441274871669146_);" d="M1187.41,499.18
			c0,0,25.49-4.91,26.27-4.52c0.79,0.39,1.77,17.34-11.59,22.1c-13.36,4.76-27.01,3.29-27.01,3.29s3.54-11.69,6.92-17.04
			C1182.01,503.01,1187.36,505.03,1187.41,499.18z"/>
		
			<radialGradient id="SVGID_00000000942914936283605340000010192738671725458317_" cx="1203.6143" cy="527.8505" r="59.5081" gradientUnits="userSpaceOnUse">
			<stop  offset="0.1432" style="stop-color:#5FC8F3"/>
			<stop  offset="0.8423" style="stop-color:#386EAB"/>
		</radialGradient>
		<path style="fill:url(#SVGID_00000000942914936283605340000010192738671725458317_);" d="M1216.48,494.07
			c0,0,9.87-1.84,10.53-1.77c0.66,0.07,2.5,6.85,1.69,18.12c-0.81,11.27-7.86,20.46-14.07,26.67c-6.63,6.63-23.06,14.36-41.62,7
			c0,0-1.25-10.75,1.33-21.29c0,0,23.65,0.59,32.71-5C1215.63,512.51,1216.71,505.71,1216.48,494.07z"/>
		<path class="st47" d="M1226.08,490.76l-0.04-0.59c-4.95,0.35-36.2,7.06-40.3,7.95c-0.5-0.58-1.24-0.95-2.07-0.95
			c-1.51,0-2.73,1.22-2.73,2.73c0,0.49,0.13,0.95,0.36,1.35c-12.44,18.69-10.36,42.27-10.34,42.51l0.59-0.06
			c-0.02-0.24-2.08-23.46,10.12-41.95c0.5,0.54,1.21,0.88,2,0.88c1.51,0,2.73-1.22,2.73-2.73c0-0.45-0.11-0.87-0.3-1.25
			C1190.85,497.62,1221.31,491.09,1226.08,490.76z"/>
	</g>
</g>
<g>
	<path class="st48" d="M639.42,698.22c0.97,0.58,1.86,1.29,2.74,2c0.95,0.34,1.38,1.22,1.97,1.92c0.67,0.8,1.03,1.79,1.13,2.84
		c0,0.21,0.09,0.4,0.12,0.61c0.04,1.11,0.11,2.23,0,3.34c-0.03,0.21-0.13,0.4-0.12,0.61c-0.01,0.2-0.03,0.4-0.07,0.6
		c-0.08,0.23-0.08,0.47-0.09,0.7c-0.18,1.09-0.39,2.17-0.66,3.24c-0.18,0.77-0.39,1.54-0.61,2.3c-0.15,0.44-0.24,0.9-0.41,1.33
		c-0.35,1.05-0.73,2.1-1.12,3.13c-0.36,0.86-0.72,1.72-1.07,2.58c-0.16,0.37-0.3,0.74-0.48,1.1c-0.38,0.7-0.72,1.42-1.07,2.14
		c-0.16,0.29-0.31,0.59-0.44,0.89c-0.37,0.77-0.87,1.47-1.27,2.35c1.42,0.06,2.77,0.12,4.11-0.23c0.22-0.05,0.45-0.07,0.68-0.11
		c2.06-0.33,3.12,0.66,2.92,2.73c-0.21,0.7-0.43,1.4-0.88,2.01c-0.33,0.51-0.71,0.99-1.16,1.41c-0.35,0.34-0.69,0.7-1.12,0.96
		c-0.21,0.15-0.43,0.27-0.66,0.39c-0.72,0.49-1.57,0.61-2.38,0.87c-0.72,0.19-1.45,0.27-2.19,0.35c-0.32,0.02-0.65-0.03-0.96,0.09
		c-0.64,0.15-1.26-0.03-1.88-0.1c-0.49-0.06-0.69,0.12-0.75,0.59c-0.05,0.43,0.01,0.86-0.09,1.28c-0.06,0.2-0.1,0.4-0.09,0.6
		c-0.1,1.01-0.2,2.03-0.36,3.03c-0.07,0.24-0.11,0.48-0.11,0.73c-0.11,0.52-0.15,1.05-0.2,1.58c-0.09,0.26-0.11,0.54-0.16,0.81
		c-0.12,0.37-0.09,0.77-0.22,1.14c-0.24,0.92-0.52,1.83-0.99,2.67c-0.25,0.39-0.55,0.75-0.81,1.14c-0.35,0.45-0.87,0.72-1.27,1.12
		c-0.21,0.14-0.42,0.28-0.64,0.41c-1.04,0.57-2.13,1-3.29,1.24c-0.33,0.1-0.67,0.12-1,0.22c-0.15,0.04-0.31,0.06-0.46,0.07
		c-0.2,0-0.39,0.08-0.59,0.12c-0.71,0.07-1.41,0.06-2.12,0.01c-0.41-0.16-0.89-0.05-1.29-0.28c-0.2-0.06-0.4-0.14-0.6-0.23
		c-0.13-0.06-0.27-0.1-0.4-0.15c-1.88-0.81-3.08-2.23-3.69-4.17c-0.11-0.48-0.21-0.96-0.34-1.44c-0.27-2.4-0.6-4.79-0.5-7.21
		c-0.08-0.55,0.2-1.14-0.16-1.66c-1.28,0.46-2.57,0.83-3.94,0.66c-1.01-0.12-2.01-0.27-3.01-0.48c-0.62-0.19-1.29-0.24-1.87-0.6
		c-0.38-0.2-0.78-0.37-1.09-0.69c-0.15-0.15-0.3-0.17-0.46-0.02c-0.08,0.07-0.16,0.13-0.24,0.19c-0.49,0.37-1,0.7-1.57,0.91
		c-0.21,0.07-0.44,0.07-0.66,0.1c-1.69,0.15-3.01-0.62-4.09-1.8c-1.03-1.13-1.89-2.39-2.53-3.78c-0.18-0.39-0.37-0.78-0.58-1.16
		c-0.19-0.38-0.35-0.77-0.51-1.16c-0.15-0.31-0.28-0.64-0.41-0.96c-0.08-0.19-0.16-0.39-0.23-0.58c-0.07-0.2-0.17-0.39-0.26-0.59
		c-0.36-0.99-0.73-1.98-1.06-2.98c-0.16-0.59-0.41-1.16-0.54-1.76c-0.19-0.59-0.37-1.18-0.54-1.78c-0.35-1.22-0.68-2.44-0.96-3.68
		c-0.02-0.16-0.06-0.31-0.11-0.45c-0.2-0.52-0.18-1.09-0.36-1.61c-0.18-0.62-0.26-1.25-0.4-1.87c-0.19-0.66-0.22-1.36-0.36-2.03
		c-0.01-0.17-0.07-0.32-0.11-0.48c-0.07-0.34-0.04-0.68-0.08-1.02c-0.24-1.06-0.16-2.13-0.09-3.2c0.06-0.25,0.13-0.49,0.11-0.75
		c0.04-1.26,0.29-2.48,0.66-3.68c0.09-0.26,0.18-0.51,0.29-0.77c0.21-0.51,0.42-1.01,0.67-1.5c0.27-0.71,0.73-1.3,1.23-1.87
		c0.38-0.37,0.75-0.74,1.12-1.11c0.48-0.42,1.02-0.74,1.56-1.07c0.35-0.25,0.74-0.39,1.16-0.48c0.44-0.16,0.88-0.32,1.32-0.47
		c0.81-0.16,1.63-0.33,2.44-0.49c0.13,0.02,0.24,0,0.33-0.1c1.46,0,2.92,0,4.38,0c0.14,0.13,0.31,0.14,0.49,0.11
		c0.25-0.06,0.5-0.12,0.73,0.04c0.14,0.13,0.31,0.14,0.49,0.11c0.95,0.17,1.91,0.33,2.86,0.5c0.38,0.27,0.85,0.24,1.26,0.39
		c1.34,0.77,2.37-0.23,3.5-0.61c0.62-0.18,1.25-0.36,1.87-0.54c0.9-0.07,1.81-0.13,2.71-0.2c1.37-0.01,2.73,0.17,4.08,0.35
		c0.08,0.13,0.21,0.14,0.35,0.11c0.42,0.05,0.8-0.2,1.21-0.15c0.09,0.03,0.15,0.01,0.17-0.09c1.16-0.23,2.33-0.45,3.49-0.68
		c0.18,0.03,0.35,0.02,0.49-0.11c0.95-0.02,1.9,0.02,2.84-0.15c0.51,0.19,1.04,0.11,1.56,0.11c1.18,0,2.31,0.39,3.48,0.5
		c0.42,0.13,0.83,0.26,1.25,0.4c0.91,0.39,1.82,0.78,2.73,1.17C639.25,698,639.34,698.1,639.42,698.22z"/>
	<path class="st49" d="M615.89,737.3c-2.43,2.24-7.05,2.11-9.19,0.71c-0.59-0.39-1.03-0.88-0.99-1.58c0.05-0.75,0.6-1.2,1.29-1.41
		c0.86-0.27,1.71-0.58,2.59-0.72c1.33-0.22,2.07-1.11,2.79-2.15c-0.98-0.01-1.85-0.25-2.66-0.64c-0.44-0.21-0.68-0.13-0.97,0.2
		c-1.52,1.74-3.01,3.49-4.58,5.18c-1.88,2.02-4.09,1.71-5.89-0.23c-1.85-2-2.89-4.48-3.85-6.97c-1.67-4.32-2.79-8.8-3.7-13.32
		c-0.52-2.57-0.84-5.18-0.48-7.82c0.34-2.5,0.86-4.91,2.6-6.89c1.28-1.46,2.9-2.3,4.73-2.76c1.41-0.36,2.87-0.51,4.35-0.49
		c2.82,0.05,5.54,0.58,8.21,1.45c0.75,0.25,1.34,0.33,2.04-0.18c1.52-1.09,3.34-1.27,5.13-1.4c1.62-0.12,3.22,0.1,4.81,0.41
		c0.55,0.11,1.03-0.14,1.53-0.27c2.36-0.61,4.76-0.91,7.19-0.77c3.92,0.23,7.44,1.43,10.41,4.16c2,1.83,2.48,4.1,2.39,6.58
		c-0.15,4.2-1.3,8.2-2.79,12.1c-1.32,3.46-2.94,6.78-4.98,9.88c-0.37,0.56-0.27,0.73,0.35,0.85c1.51,0.3,3,0.15,4.5-0.1
		c0.54-0.09,1.08-0.23,1.64-0.24c0.62-0.01,1.15,0.19,1.41,0.71c0.28,0.57,0.14,1.19-0.28,1.68c-0.76,0.9-1.68,1.61-2.73,2.12
		c-2.37,1.14-4.87,1.54-7.48,1.16c-0.5-0.07-0.86-0.04-0.92,0.63c-0.17,1.96-0.45,3.9-0.71,5.85c-0.21,1.5-0.38,3-0.71,4.47
		c-0.7,3.17-2.86,4.8-5.88,5.51c-1.84,0.43-3.63,0.53-5.37-0.41c-1.86-1-2.62-2.7-3.03-4.61c-0.49-2.29-0.47-4.63-0.49-6.96
		c-0.01-0.99-0.07-1.97-0.11-2.96C616.09,737.81,616.38,737.47,615.89,737.3z"/>
	<path class="st50" d="M633.44,730.73c-1.99,0.6-2.39,2.1-2.46,3.95c-0.07,1.94-0.37,3.87-0.61,5.8c-0.25,1.95-0.53,3.9-0.86,5.84
		c-0.6,3.51-2.07,4.44-5.13,5.18c-0.94,0.23-1.89,0.31-2.85,0.07c-1.86-0.46-2.69-1.9-3.16-3.55c-0.51-1.83-0.45-3.75-0.54-5.64
		c-0.13-2.71-0.1-5.42-0.03-8.14c0.05-2-1.33-3.33-3.56-3.52c0.43-1.68,1.18-3.24,1.83-4.83c1.05-2.58,1.12-5.23,0.78-7.95
		c-0.13-1.08-0.27-2.15-0.58-3.19c-0.62-2.12-2.36-3.26-4.57-3.11c-1.71,0.12-3.29,0.66-4.91,1.48c0.42-3.85,1.26-7.41,3.95-10.28
		c1.72-1.83,3.89-2.72,6.33-2.87c3.68-0.23,7.12,0.62,10.14,2.79c3.03,2.17,5.19,5.05,6.55,8.58c-1.12,0.18-2.2-0.06-3.28,0.19
		c-2.62,0.59-3.84,2.32-3.62,4.98c0.18,2.18,0.91,4.18,1.89,6.07C630.2,725.34,631.41,728.24,633.44,730.73z"/>
	<path class="st50" d="M607.77,730.25c-1.4,1.6-2.87,3.11-4.15,4.78c-0.01,0.02-0.04,0.03-0.06,0.05c-1.76,2.01-2.9,1.97-4.61-0.23
		c-1.67-2.15-2.59-4.69-3.49-7.23c-1.39-3.91-2.36-7.93-3.17-11.99c-0.59-2.98-0.79-5.98-0.02-8.95c0.83-3.19,2.88-5.56,6.49-6.28
		c3.55-0.71,6.98-0.09,10.38,0.87c0.61,0.17,0.42,0.41,0.14,0.72c-1.66,1.87-2.67,4.06-3.32,6.45c-0.75,2.78-1.07,5.6-0.79,8.48
		c0.18,1.8,0,3.6-0.21,5.39C604.6,725.4,605.39,728.08,607.77,730.25z"/>
	<path class="st50" d="M625.32,699.72c3.59-0.63,7.01-0.63,10.33,0.68c2.25,0.89,4.18,2.26,5.58,4.25c0.81,1.14,0.83,2.54,0.73,3.88
		c-0.52,6.54-2.8,12.52-5.91,18.22c-0.41,0.75-0.85,1.48-1.29,2.22c-0.08,0.13-0.11,0.39-0.37,0.23c-0.23-0.14-0.08-0.3,0-0.44
		c1.25-2.31,1.31-4.75,0.93-7.28c-0.33-2.17-0.29-4.35,0.14-6.5c0.57-2.8-0.31-5.22-1.75-7.52
		C632.03,704.76,629.94,702.1,625.32,699.72z"/>
	<path class="st50" d="M615.45,720.26c0,2.55-0.65,4.63-1.57,6.63c-0.46,1-0.85,2.04-1.16,3.09c-0.13,0.43-0.27,0.46-0.68,0.42
		c-3.28-0.3-5.88-3.71-5.47-7.31c0.28-2.44,0.46-4.9,0.17-7.36c-0.06-0.48,0.15-0.76,0.52-0.97c1.63-0.9,3.3-1.62,5.23-1.44
		c1.33,0.12,2.02,0.94,2.29,2.14C615.16,717.14,615.36,718.85,615.45,720.26z"/>
	<path class="st50" d="M633.19,727.53c-1.07-2.08-2.11-4.02-3.09-5.99c-0.8-1.6-1.38-3.28-1.62-5.07c-0.25-1.93,0.78-3.26,2.72-3.39
		c0.63-0.04,1.26-0.03,1.89-0.05c0.81-0.02,0.9,0.31,0.83,0.98c-0.19,1.68-0.59,3.35-0.46,5.05c0.09,1.31,0.23,2.62,0.39,3.92
		C634.03,724.5,633.81,725.96,633.19,727.53z"/>
	<path class="st50" d="M607.52,736.52c0.89-0.22,1.58-0.43,2.29-0.56c1.56-0.28,2.72-1.12,3.62-2.4c0.13-0.19,0.28-0.36,0.43-0.53
		c0.68-0.72,1.05-0.78,1.66-0.28c0.6,0.5,0.79,1.45,0.39,2.03c-1.29,1.89-3.94,2.92-6.2,2.45
		C609.01,737.09,608.29,737.02,607.52,736.52z"/>
	<path class="st50" d="M641.42,732.71c-1.4,1.4-3.13,1.96-5.01,2.16c-0.9,0.1-1.81,0.26-2.72,0.02c-0.36-0.09-0.91,0.04-0.99-0.43
		c-0.12-0.67-0.09-1.43,0.56-1.85c0.5-0.33,1.03-0.53,1.71-0.13c1.45,0.85,3.08,0.6,4.66,0.49
		C640.24,732.93,640.83,732.8,641.42,732.71z"/>
	<path class="st51" d="M612.59,716.12c-0.15-0.01-0.31,0.01-0.45-0.03c-0.57-0.15-1.26-0.97-1.1-1.36c0.28-0.65,0.89-0.54,1.43-0.53
		c0.12,0,0.25,0.04,0.37,0.06c0.54,0.13,1.25,0.28,1.14,0.94C613.89,715.81,613.28,716.16,612.59,716.12z"/>
	<path class="st51" d="M631.33,713.83c0.37-0.01,0.8-0.09,1.03,0.27c0.13,0.21,0.04,0.49-0.15,0.7c-0.38,0.43-0.84,0.79-1.43,0.67
		c-0.49-0.1-1.09-0.35-1.08-0.9c0.01-0.52,0.63-0.64,1.1-0.74C630.97,713.8,631.15,713.83,631.33,713.83z"/>
</g>
</svg>
