<?xml version="1.0" encoding="utf-8"?>
<!-- Generator: Adobe Illustrator 23.0.4, SVG Export Plug-In . SVG Version: 6.00 Build 0)  -->
<svg version="1.1" id="Layer_1" xmlns="http://www.w3.org/2000/svg" xmlns:xlink="http://www.w3.org/1999/xlink" x="0px" y="0px"
	 viewBox="0 0 212 65" style="enable-background:new 0 0 212 65;" xml:space="preserve">
<style type="text/css">
	.st0{fill:#747474;}
	.st1{fill:#7D7D7D;}
	.st2{fill:#7C7C7C;}
	.st3{fill:#BBBBBB;}
	.st4{fill:#626262;}
</style>
<g>
	<path class="st0" d="M29.15,25.21h0.12l-0.07-0.06l4.42-4.42l0.01-0.08c-3.72-3.28-8.88-4.42-13.63-2.99
		c-4.75,1.43-8.44,5.21-9.74,10c0.08-0.03,0.16-0.06,0.24-0.08c1.64-1.08,3.59-1.7,5.65-1.72c0.69,0,1.36,0.06,2.03,0.19
		c0.03-0.02,0.07-0.03,0.09-0.02c2.84-3.13,7.63-3.49,10.91-0.83H29.15L29.15,25.21z"/>
	<path class="st1" d="M38.02,27.66c-0.74-2.7-2.24-5.13-4.34-7l-4.49,4.49c1.89,1.55,2.97,3.88,2.93,6.33v0.79
		c5.32,0,5.32,7.99,0,7.99h-7.98l-0.01,0.01v6.34h-0.03l0.05,0.05h7.98c4.58,0.04,8.64-2.93,10-7.31
		C43.48,34.98,41.81,30.23,38.02,27.66L38.02,27.66z"/>
	<path class="st2" d="M16.14,46.61h7.98v-6.39h-7.98c-0.56,0-1.13-0.12-1.64-0.36l-4.62,4.62l-0.01,0.05
		C11.68,45.88,13.88,46.62,16.14,46.61L16.14,46.61z"/>
	<path class="st3" d="M16.14,25.87c-4.43,0.03-8.36,2.87-9.78,7.07c-1.42,4.21,0,8.84,3.51,11.55l4.63-4.63
		c-2.55-1.15-3.16-4.49-1.18-6.46c1.97-1.97,5.31-1.37,6.46,1.18l4.63-4.63C22.45,27.37,19.38,25.86,16.14,25.87L16.14,25.87z"/>
	<path class="st4" d="M63.85,42.15c-2.78,0.03-5.45-1.06-7.41-3.04c-2.01-1.9-3.14-4.55-3.1-7.31c-0.03-2.77,1.09-5.42,3.1-7.31
		c1.94-2,4.62-3.12,7.41-3.1c2.65-0.03,5.21,0.99,7.1,2.86l-2,2.03c-1.37-1.32-3.2-2.05-5.1-2.02c-2-0.03-3.91,0.79-5.28,2.24
		c-1.41,1.4-2.2,3.33-2.16,5.33c-0.02,1.97,0.76,3.87,2.16,5.26c2.89,2.88,7.55,2.93,10.5,0.12c0.88-0.96,1.42-2.19,1.54-3.49h-6.73
		v-2.87h9.53c0.09,0.58,0.13,1.17,0.11,1.75c0.12,2.45-0.77,4.84-2.46,6.62C69.18,41.18,66.56,42.24,63.85,42.15L63.85,42.15z
		 M85.99,40.24c-2.66,2.54-6.85,2.54-9.5,0c-1.29-1.25-1.99-2.98-1.94-4.77c-0.05-1.79,0.66-3.52,1.94-4.77
		c2.65-2.54,6.84-2.54,9.5,0c1.29,1.24,1.99,2.97,1.94,4.77c0.05,1.79-0.66,3.52-1.95,4.77H85.99L85.99,40.24z M78.59,38.37
		c1.43,1.53,3.87,1.53,5.3,0c0.75-0.78,1.15-1.82,1.12-2.89c0.03-1.08-0.37-2.13-1.12-2.91c-1.45-1.51-3.88-1.51-5.33,0
		c-0.75,0.78-1.16,1.83-1.12,2.91c-0.03,1.08,0.38,2.12,1.13,2.89H78.59L78.59,38.37z M100.59,40.24c-2.66,2.54-6.85,2.54-9.5,0
		c-1.29-1.25-1.99-2.98-1.94-4.77c-0.05-1.79,0.65-3.52,1.94-4.77c2.66-2.55,6.85-2.55,9.5,0c1.28,1.24,1.99,2.97,1.94,4.77
		C102.58,37.26,101.88,38.99,100.59,40.24L100.59,40.24z M93.18,38.37c1.44,1.53,3.87,1.53,5.31,0c0.75-0.78,1.15-1.82,1.12-2.89
		c0.03-1.08-0.37-2.13-1.12-2.91c-1.46-1.51-3.88-1.51-5.33,0c-0.75,0.78-1.16,1.83-1.12,2.91c-0.03,1.08,0.38,2.12,1.13,2.89H93.18
		L93.18,38.37z M110.19,48.13c-1.34,0.05-2.66-0.37-3.73-1.19c-0.95-0.72-1.71-1.67-2.18-2.76l2.56-1.06
		c0.28,0.65,0.71,1.23,1.27,1.67c0.59,0.48,1.34,0.73,2.1,0.71c0.98,0.06,1.93-0.31,2.61-1.01c0.68-0.81,1.01-1.86,0.93-2.91v-0.96
		h-0.1c-0.86,1.03-2.17,1.59-3.51,1.51c-1.71,0.01-3.33-0.7-4.49-1.95c-1.26-1.24-1.95-2.94-1.92-4.7
		c-0.03-1.78,0.66-3.49,1.92-4.74c1.15-1.25,2.78-1.96,4.49-1.96c0.71,0,1.41,0.16,2.06,0.46c0.55,0.25,1.06,0.61,1.45,1.06h0.11
		v-1.06h2.78v11.94c0.15,1.91-0.5,3.8-1.78,5.22C113.53,47.57,111.88,48.2,110.19,48.13L110.19,48.13z M110.39,39.52
		c0.97,0.02,1.9-0.39,2.53-1.12c0.69-0.79,1.06-1.82,1.02-2.87c0.04-1.07-0.32-2.11-1.02-2.93c-0.64-0.74-1.57-1.14-2.53-1.12
		c-1-0.02-1.95,0.39-2.63,1.12c-0.74,0.78-1.15,1.83-1.12,2.9c-0.02,1.07,0.39,2.1,1.12,2.87
		C108.44,39.12,109.39,39.54,110.39,39.52L110.39,39.52z M121.49,41.74h-2.93v-19.6h2.93V41.74L121.49,41.74z M129.51,42.15
		c-1.77,0.05-3.48-0.65-4.72-1.92c-1.26-1.26-1.94-2.98-1.9-4.76c-0.06-1.79,0.6-3.52,1.83-4.8c1.17-1.23,2.8-1.91,4.49-1.87
		c0.77-0.01,1.54,0.14,2.24,0.44c0.64,0.26,1.23,0.64,1.72,1.12c0.43,0.41,0.8,0.86,1.12,1.35c0.26,0.42,0.48,0.86,0.66,1.31
		l0.3,0.77l-8.97,3.69c0.55,1.28,1.84,2.08,3.23,2.02c1.34,0,2.59-0.7,3.29-1.85l2.24,1.51c-0.57,0.82-1.31,1.51-2.15,2.04
		C131.88,41.84,130.71,42.17,129.51,42.15L129.51,42.15z M125.77,35.27l5.96-2.48c-0.18-0.44-0.51-0.8-0.93-1.02
		c-0.47-0.26-1-0.4-1.54-0.39c-0.91,0.02-1.78,0.4-2.41,1.06C126.09,33.18,125.69,34.21,125.77,35.27L125.77,35.27z"/>
	<path class="st4" d="M150.59,42.15c-2.52,0.04-4.94-0.94-6.71-2.73c-1.78-1.78-2.75-4.21-2.69-6.73c-0.06-2.51,0.91-4.94,2.69-6.73
		c1.77-1.78,4.19-2.77,6.71-2.72c2.55-0.08,5,1.01,6.65,2.96l-1.62,1.57c-1.21-1.52-3.08-2.38-5.02-2.3c-1.87-0.04-3.67,0.68-4.99,2
		c-1.37,1.38-2.11,3.28-2.03,5.22c-0.08,1.95,0.65,3.84,2.03,5.23c1.32,1.32,3.12,2.04,4.99,2c2.17,0.02,4.24-0.94,5.61-2.62
		l1.61,1.61c-0.84,1.01-1.9,1.82-3.1,2.37C153.42,41.86,152.01,42.17,150.59,42.15L150.59,42.15z"/>
	<polygon class="st4" points="159.84,41.74 162.16,41.74 162.16,23.63 159.84,23.63 159.84,41.74 	"/>
	<path class="st4" d="M165.95,30.84c2.53-2.52,6.62-2.52,9.15,0c1.2,1.27,1.85,2.96,1.79,4.71c0.05,1.75-0.59,3.44-1.79,4.71
		c-2.53,2.52-6.62,2.52-9.15,0c-1.2-1.27-1.84-2.96-1.79-4.71C164.1,33.8,164.75,32.11,165.95,30.84L165.95,30.84z M167.68,38.8
		c1.54,1.63,4.14,1.63,5.68,0c0.82-0.88,1.26-2.05,1.2-3.25c0.05-1.2-0.38-2.37-1.2-3.25c-1.54-1.63-4.14-1.63-5.68,0
		c-0.82,0.88-1.25,2.05-1.2,3.25c-0.05,1.2,0.38,2.37,1.21,3.24L167.68,38.8L167.68,38.8z"/>
	<path class="st4" d="M189.76,41.74h-2.24v-1.72h-0.07c-0.4,0.65-0.96,1.19-1.64,1.55c-0.7,0.4-1.5,0.62-2.3,0.62
		c-1.33,0.09-2.62-0.43-3.52-1.41c-0.85-1.08-1.27-2.42-1.2-3.79v-7.63h2.32v7.2c0,2.31,1.02,3.46,3.06,3.46
		c0.92,0.03,1.8-0.39,2.36-1.12c0.6-0.77,0.92-1.71,0.9-2.68v-6.86h2.32V41.74L189.76,41.74z"/>
	<path class="st4" d="M197.64,42.15c-1.59,0.01-3.11-0.69-4.15-1.9c-1.16-1.28-1.79-2.97-1.74-4.7c-0.05-1.74,0.58-3.42,1.74-4.7
		c1.04-1.2,2.55-1.9,4.15-1.89c0.88-0.01,1.76,0.19,2.54,0.61c0.69,0.34,1.27,0.86,1.68,1.51h0.1l-0.1-1.72v-5.73h2.32v18.11h-2.24
		v-1.72h-0.1c-0.41,0.65-0.99,1.17-1.68,1.51C199.38,41.95,198.52,42.16,197.64,42.15L197.64,42.15z M198.03,40.03
		c1.06,0.02,2.07-0.43,2.79-1.21c0.79-0.9,1.19-2.07,1.12-3.26c0.07-1.19-0.33-2.37-1.12-3.27c-1.51-1.65-4.11-1.65-5.61,0
		c-0.79,0.89-1.2,2.06-1.12,3.25c-0.07,1.19,0.33,2.36,1.12,3.25C195.92,39.59,196.95,40.04,198.03,40.03L198.03,40.03z"/>
</g>
</svg>
