<svg xmlns="http://www.w3.org/2000/svg" width="46.27" height="46.27" viewBox="0 0 46.27 46.27">
  <g id="Group_14" data-name="Group 14" transform="translate(-1115.905 468.901)">
    <path id="Path_58" data-name="Path 58" d="M1160.468-449.994h-1.385a3.366,3.366,0,0,1-3.114-2.153c-.137-.36-.287-.718-.444-1.065a3.365,3.365,0,0,1,.666-3.731l.987-.988a1.71,1.71,0,0,0,0-2.413l-3.564-3.564a1.721,1.721,0,0,0-2.412,0l-.985.984a3.363,3.363,0,0,1-3.733.667c-.337-.153-.7-.3-1.067-.444a3.327,3.327,0,0,1-2.149-3.109v-1.387a1.708,1.708,0,0,0-1.706-1.706h-5.042a1.709,1.709,0,0,0-1.707,1.706v1.385a3.366,3.366,0,0,1-2.153,3.114c-.359.137-.718.287-1.066.445a3.361,3.361,0,0,1-3.731-.666l-.988-.987a1.709,1.709,0,0,0-2.413,0l-3.563,3.56a1.7,1.7,0,0,0-.5,1.207,1.718,1.718,0,0,0,.5,1.207l.984.985a3.367,3.367,0,0,1,.667,3.733c-.153.338-.3.7-.444,1.067a3.326,3.326,0,0,1-3.109,2.151h-1.387a1.708,1.708,0,0,0-1.706,1.706v5.042a1.708,1.708,0,0,0,1.706,1.706H1119a3.366,3.366,0,0,1,3.114,2.153c.137.359.287.718.445,1.065a3.365,3.365,0,0,1-.666,3.731l-.987.988a1.709,1.709,0,0,0,0,2.413l3.562,3.562a1.7,1.7,0,0,0,1.207.5,1.719,1.719,0,0,0,1.207-.5l.985-.984a3.369,3.369,0,0,1,3.733-.668c.347.158.706.308,1.067.444a3.327,3.327,0,0,1,2.149,3.109v1.387a1.709,1.709,0,0,0,1.707,1.706h5.042a1.708,1.708,0,0,0,1.706-1.706v-1.385a3.366,3.366,0,0,1,2.153-3.114c.359-.137.717-.286,1.066-.445a3.361,3.361,0,0,1,3.731.666l.988.987a1.709,1.709,0,0,0,2.413,0l3.562-3.562a1.7,1.7,0,0,0,.5-1.207,1.719,1.719,0,0,0-.5-1.207l-.984-.985a3.367,3.367,0,0,1-.668-3.732c.158-.346.308-.706.445-1.067a3.327,3.327,0,0,1,3.109-2.149h1.387a1.708,1.708,0,0,0,1.706-1.706v-5.042A1.708,1.708,0,0,0,1160.468-449.994Zm.814,6.748a.815.815,0,0,1-.814.814h-1.389a4.214,4.214,0,0,0-3.94,2.723c-.131.345-.273.686-.423,1.016a4.266,4.266,0,0,0,.847,4.73l.986.987a.821.821,0,0,1,.239.577.81.81,0,0,1-.239.576l-3.562,3.562a.816.816,0,0,1-1.152,0l-.99-.989a4.258,4.258,0,0,0-4.728-.845c-.331.151-.673.293-1.015.423a4.264,4.264,0,0,0-2.727,3.946v1.387a.816.816,0,0,1-.814.814h-5.042a.816.816,0,0,1-.815-.814v-1.389a4.214,4.214,0,0,0-2.723-3.94c-.344-.13-.686-.273-1.016-.423a4.211,4.211,0,0,0-1.737-.373,4.265,4.265,0,0,0-2.993,1.22l-.987.986a.821.821,0,0,1-.576.239.811.811,0,0,1-.577-.239l-3.562-3.562a.816.816,0,0,1,0-1.152l.989-.99a4.264,4.264,0,0,0,.845-4.728c-.15-.331-.293-.672-.423-1.015a4.264,4.264,0,0,0-3.946-2.727h-1.387a.815.815,0,0,1-.814-.814v-5.042a.815.815,0,0,1,.814-.814H1119a4.213,4.213,0,0,0,3.94-2.725c.135-.353.277-.7.424-1.018a4.265,4.265,0,0,0-.847-4.729l-.986-.987a.82.82,0,0,1-.239-.576.81.81,0,0,1,.239-.576l3.562-3.56a.816.816,0,0,1,1.152,0l.989.989a4.259,4.259,0,0,0,4.728.845c.331-.151.673-.293,1.015-.423a4.264,4.264,0,0,0,2.728-3.946v-1.387a.816.816,0,0,1,.815-.814h5.042a.815.815,0,0,1,.814.814v1.389a4.214,4.214,0,0,0,2.722,3.94c.355.136.7.278,1.017.423a4.261,4.261,0,0,0,4.73-.847l.985-.984a.825.825,0,0,1,1.155,0l3.562,3.562a.816.816,0,0,1,0,1.152l-.989.99a4.263,4.263,0,0,0-.845,4.728c.15.331.293.672.423,1.015a4.264,4.264,0,0,0,3.946,2.727h1.387a.815.815,0,0,1,.814.814Z" fill="#8d8d8d"/>
    <path id="Path_59" data-name="Path 59" d="M1225.031-360.785a11.823,11.823,0,0,0,2.994-7.871,11.828,11.828,0,0,0-3.223-8.121h0l-.005-.005a11.841,11.841,0,0,0-8.234-3.737h0l-.231-.006c-.06,0-.12,0-.18,0s-.12,0-.18,0l-.231.006h0a11.841,11.841,0,0,0-8.234,3.737s0,0-.005.005h0a11.825,11.825,0,0,0-3.224,8.121,11.823,11.823,0,0,0,2.994,7.871s0,.008.005.011.018.015.026.025a11.847,11.847,0,0,0,8.438,3.957h0l.23.006c.06,0,.12,0,.18,0s.12,0,.18,0l.23-.006h0a11.847,11.847,0,0,0,8.445-3.966c.005-.007.014-.009.019-.016S1225.028-360.781,1225.031-360.785Zm-19.926-7.461h4.915a15.137,15.137,0,0,0,.989,5,15.1,15.1,0,0,0-3.321,1.691A11,11,0,0,1,1205.105-368.246Zm2.806-7.77a15.058,15.058,0,0,0,3.235,1.589,15.124,15.124,0,0,0-1.126,5.362h-4.915A11.007,11.007,0,0,1,1207.911-376.016Zm19.284,6.951h-4.915a15.121,15.121,0,0,0-1.126-5.362,15.055,15.055,0,0,0,3.235-1.589A11.007,11.007,0,0,1,1227.2-369.065Zm-11.455-5.338a14.318,14.318,0,0,1-3.469-.525,14.328,14.328,0,0,1,3.469-4.519Zm0,.819v4.519h-4.9a14.3,14.3,0,0,1,1.092-5.108A15.139,15.139,0,0,0,1215.741-373.584Zm.819,0a15.121,15.121,0,0,0,3.811-.589,14.3,14.3,0,0,1,1.092,5.108h-4.9Zm0-.819v-5.044a14.326,14.326,0,0,1,3.469,4.519A14.319,14.319,0,0,1,1216.56-374.4Zm4.262-.774a15.122,15.122,0,0,0-3.23-4.437,11.024,11.024,0,0,1,6.217,3A14.247,14.247,0,0,1,1220.822-375.177Zm-9.343,0a14.234,14.234,0,0,1-2.987-1.44,11.022,11.022,0,0,1,6.217-3A15.119,15.119,0,0,0,1211.479-375.177Zm-.64,6.931h4.9v4.11a15.1,15.1,0,0,0-3.956.631A14.3,14.3,0,0,1,1210.839-368.246Zm4.9,4.929v5.453a14.317,14.317,0,0,1-3.638-4.88A14.281,14.281,0,0,1,1215.741-363.317Zm.819,5.453v-5.453a14.278,14.278,0,0,1,3.638.573A14.317,14.317,0,0,1,1216.56-357.864Zm0-6.272v-4.11h4.9a14.292,14.292,0,0,1-.947,4.742A15.076,15.076,0,0,0,1216.56-364.136Zm5.721-4.11h4.915a11,11,0,0,1-2.582,6.694,15.1,15.1,0,0,0-3.321-1.691A15.121,15.121,0,0,0,1222.281-368.246Zm-14.037,7.307a14.276,14.276,0,0,1,3.078-1.548,15.108,15.108,0,0,0,3.387,4.79A11.032,11.032,0,0,1,1208.244-360.939Zm9.348,3.242a15.1,15.1,0,0,0,3.387-4.79,14.282,14.282,0,0,1,3.078,1.548A11.032,11.032,0,0,1,1217.592-357.7Z" transform="translate(-77.111 -77.111)" fill="#8d8d8d"/>
  </g>
</svg>
