<?xml version="1.0" encoding="utf-8"?>
<!-- Generator: Adobe Illustrator 25.4.1, SVG Export Plug-In . SVG Version: 6.00 Build 0)  -->
<svg version="1.1" id="Layer_1" xmlns="http://www.w3.org/2000/svg" xmlns:xlink="http://www.w3.org/1999/xlink" x="0px" y="0px"
	 viewBox="0 0 820.96 518.73" style="enable-background:new 0 0 820.96 518.73;" xml:space="preserve">
<style type="text/css">
	.st0{fill:#801517;}
	.st1{fill:#FFFFFF;}
</style>
<g>
	<polygon class="st0" points="64.61,57.54 75.31,65.42 92.2,57.54 127.11,57.54 147.38,73.31 158.08,73.31 180.61,90.76 
		190.18,50.89 191.73,49.51 205.39,60.35 225.24,55.29 237.91,54.72 251.28,64.44 263.67,50.22 285.49,67.53 297.46,49.51 
		309.42,60.35 321.39,49.51 338.14,63.03 383.47,49.51 390.93,56.27 403.89,49.51 415.15,61.2 424.3,49.51 449.64,71.34 
		461.32,49.51 477.94,60.64 518.62,56.55 524.53,59.09 615.62,134.69 626.32,134.69 634.48,143.42 677.28,134.97 820.96,265.33 
		820.96,518.73 414.87,518.73 36.45,196.07 24.06,188.75 27.44,163.59 30.82,144.45 43.21,137.43 40.58,133.19 24.06,105.03 
		24.06,67.86 38.33,55.85 	"/>
	<g>
		<path class="st1" d="M12.95,79.94c0-17.79,13.21-31.43,31.43-31.43c10.97,0,20.64,5.44,25.9,13.99l-11.92,6.91
			c-2.68-4.66-7.86-7.43-13.99-7.43c-10.71,0-17.61,7.17-17.61,17.96S33.68,97.9,44.38,97.9c6.13,0,11.4-2.76,13.99-7.43l11.92,6.91
			c-5.18,8.55-14.85,13.99-25.9,13.99C26.16,111.37,12.95,97.73,12.95,79.94z"/>
		<path class="st1" d="M73.32,79.94c0-17.79,14.07-31.43,31.43-31.43s31.43,13.64,31.43,31.43s-14.07,31.43-31.43,31.43
			S73.32,97.73,73.32,79.94z M122.36,79.94c0-10.79-7.77-17.96-17.61-17.96s-17.61,7.17-17.61,17.96s7.77,17.96,17.61,17.96
			S122.36,90.74,122.36,79.94z"/>
		<path class="st1" d="M191.45,49.72v60.44h-10.36l-23.31-32.81v32.81h-13.82V49.72h10.36l23.31,32.81V49.72H191.45z"/>
		<path class="st1" d="M197.94,96.44l11.92-6.91c2.16,5.01,5.87,8.38,12.69,8.38c6.56,0,8.2-2.59,8.2-4.92
			c0-3.71-3.45-5.18-12.52-7.69c-8.98-2.5-17.79-6.82-17.79-18.39c0-11.66,9.84-18.39,20.29-18.39c9.93,0,17.7,4.75,22.1,13.64
			l-11.66,6.82c-2.07-4.32-4.92-6.99-10.45-6.99c-4.32,0-6.48,2.16-6.48,4.58c0,2.76,1.47,4.66,10.88,7.51
			c9.15,2.76,19.43,5.96,19.43,18.74c0,11.66-9.33,18.56-22.45,18.56C209.42,111.37,201.3,105.33,197.94,96.44z"/>
		<path class="st1" d="M251.05,90.65V49.72h13.82v39.72c0,4.58,2.16,8.46,9.5,8.46c7.34,0,9.5-3.88,9.5-8.46V49.72h13.82v40.93
			c0,12.95-10.02,20.72-23.31,20.72C261.06,111.37,251.05,103.6,251.05,90.65z"/>
		<path class="st1" d="M343.01,96.87v13.3h-35.4V49.72h13.82v47.14H343.01z"/>
		<path class="st1" d="M383.6,63.02h-15.54v47.14h-13.82V63.02H338.7v-13.3h44.9V63.02z"/>
		<path class="st1" d="M403.47,49.72v60.44h-13.82V49.72H403.47z"/>
		<path class="st1" d="M461.32,49.72v60.44h-10.36l-23.31-32.81v32.81h-13.82V49.72h10.36l23.31,32.81V49.72H461.32z"/>
		<path class="st1" d="M531.53,81.67c0,18.48-12.87,29.7-29.79,29.7c-19,0-32.64-13.99-32.64-31.34c0-17.53,13.9-31.52,31.69-31.52
			c11.57,0,21.33,5.7,26.42,13.82l-11.74,6.74c-2.5-3.97-7.94-7.08-14.77-7.08c-10.19,0-17.79,7.51-17.79,18.13
			c0,10.27,7.25,17.79,19,17.79c8.03,0,13.3-3.54,15.45-9.33h-16.15V76.49h30.31V81.67z"/>
		<path class="st1" d="M56.39,197.42l-5.35-5.79c-4.23,2.94-9.41,4.75-15.63,4.75c-12.43,0-21.59-6.82-21.59-18.22
			c0-6.91,3.45-13.38,9.67-17.36c-1.55-2.68-2.5-5.7-2.5-9.58c0-10.19,7.86-17.7,19.43-17.7c8.72,0,16.15,4.32,19.86,13.21
			l-11.83,6.82c-1.55-4.06-3.97-6.56-7.86-6.56c-3.45,0-5.79,2.16-5.79,5.09c0,3.37,2.07,5.61,4.75,8.55l11.14,12.35
			c1.21-2.76,2.16-5.96,2.85-9.5l11.57,6.56c-1.12,4.23-2.94,8.72-5.53,12.69l7.6,8.46L56.39,197.42z M42.57,182.39l-11.05-11.92
			L31,169.96c-2.25,1.81-3.2,4.32-3.2,6.74c0,4.06,2.59,7.08,8.72,7.08C38.77,183.77,40.76,183.34,42.57,182.39z"/>
		<path class="st1" d="M149.22,164.95c0,17.1-12.69,30.22-29.36,30.22H95.68v-60.44h24.18
			C136.53,134.73,149.22,147.86,149.22,164.95z M135.92,164.95c0-10.36-6.56-16.92-16.06-16.92H109.5v33.85h10.36
			C129.36,181.88,135.92,175.31,135.92,164.95z"/>
		<path class="st1" d="M194.99,181.88v13.3H157v-60.44h37.56v13.3h-23.75v10.02h21.59v13.12h-21.59v10.71H194.99z"/>
		<path class="st1" d="M197.59,134.73h15.11l13.38,44.47l13.38-44.47h15.11l-19.69,60.44h-17.61L197.59,134.73z"/>
		<path class="st1" d="M297.76,181.88v13.3h-37.99v-60.44h37.56v13.3h-23.75v10.02h21.59v13.12h-21.59v10.71H297.76z"/>
		<path class="st1" d="M340.94,181.88v13.3h-35.4v-60.44h13.81v47.14H340.94z"/>
		<path class="st1" d="M340.94,164.95c0-17.79,14.07-31.43,31.43-31.43c17.35,0,31.43,13.64,31.43,31.43s-14.08,31.43-31.43,31.43
			C355.02,196.38,340.94,182.74,340.94,164.95z M389.99,164.95c0-10.79-7.77-17.96-17.61-17.96c-9.84,0-17.62,7.17-17.62,17.96
			c0,10.79,7.77,17.96,17.62,17.96C382.22,182.91,389.99,175.75,389.99,164.95z"/>
		<path class="st1" d="M455.62,155.45c0,11.48-9.24,20.72-21.16,20.72h-9.07v19h-13.82v-60.44h22.88
			C446.38,134.73,455.62,143.97,455.62,155.45z M441.8,155.45c0-4.4-3.11-7.77-7.34-7.77h-9.07v15.54h9.07
			C438.7,163.23,441.8,159.86,441.8,155.45z"/>
		<path class="st1" d="M522.98,195.17h-13.82v-35.14l-15.63,25.64h-1.55l-15.63-25.64v35.14h-13.81v-60.44h13.81l16.41,26.85
			l16.41-26.85h13.82V195.17z"/>
		<path class="st1" d="M571.34,181.88v13.3h-37.99v-60.44h37.56v13.3h-23.74v10.02h21.59v13.12h-21.59v10.71H571.34z"/>
		<path class="st1" d="M626.61,134.73v60.44h-10.36l-23.31-32.81v32.81h-13.82v-60.44h10.36l23.31,32.81v-32.81H626.61z"/>
		<path class="st1" d="M677.56,148.03h-15.54v47.14H648.2v-47.14h-15.54v-13.3h44.9V148.03z"/>
	</g>
</g>
</svg>
