<?xml version="1.0" encoding="utf-8"?>
<!-- Generator: Adobe Illustrator 25.4.1, SVG Export Plug-In . SVG Version: 6.00 Build 0)  -->
<svg version="1.1" id="Layer_1" xmlns="http://www.w3.org/2000/svg" xmlns:xlink="http://www.w3.org/1999/xlink" x="0px" y="0px"
	 viewBox="0 0 613 600" style="enable-background:new 0 0 613 600;" xml:space="preserve">
<style type="text/css">
	.st0{fill:#FFFFFF;}
</style>
<g>
	<g>
		<g>
			<path class="st0" d="M348.72,26.85c8.5,9.68,11.3,23.51,8.86,35.99c-2.62,14.02-10.4,26.41-19.53,37.08
				c-7.33,8.59-15.74,16.19-24.51,23.24c-10.22,8.23-20.26,17.09-26.68,28.67c-5.43,9.41-6.69,20.98-2.98,31.2
				c6.06,17.54,20.17,30.57,27.85,47.12c-8.5-7.51-16.82-15.28-24.6-23.51c-8.14-8.68-15.83-17.91-20.89-28.76
				c-3.44-7.6-4.97-16.46-2.35-24.51c2.62-8.23,8.5-14.83,14.38-20.98c16.37-16.37,36.54-28.4,52.54-45.04
				c8.86-9.13,16.19-20.08,18.72-32.65C351.62,45.48,350.62,35.99,348.72,26.85L348.72,26.85z"/>
			<path class="st0" d="M335.34,129.86c17.55-12.93,38.07-21.16,58.87-27.13c-16.46,10.49-33.64,20.08-47.84,33.55
				c-5.15,4.97-10.04,10.67-12.3,17.64c-1.72,5.16-0.99,10.85,1.09,15.74c3.8,8.68,10.22,15.74,15.1,23.69
				c4.16,6.78,4.88,15.46,1.72,22.79c-4.79,10.76-14.2,18.63-23.97,24.87c-1.27,0.72-2.35,2.08-3.89,2.26
				c6.51-5.88,11.58-14.2,11.39-23.15c-0.18-6.69-3.89-12.57-8.23-17.36c-8.95-10.67-16.46-24.24-14.92-38.62
				C313.91,149.76,324.21,138.18,335.34,129.86L335.34,129.86z"/>
			<path class="st0" d="M397.56,234.41c3.8-4.61,9.86-5.79,15.37-6.51c9.59-1.27,19.8,1.18,27.04,7.78
				c5.97,5.34,9.32,13.66,8.05,21.71c-1.36,9.31-7.6,17.09-14.65,22.97c-12.75,10.22-28.49,16.19-44.22,20.17
				c0.9-1,1.9-1.9,3.08-2.62c11.94-6.42,23.78-13.93,32.56-24.42c5.34-6.51,9.5-15.01,7.78-23.6c-1.81-9.95-11.48-17.18-21.34-17.73
				C406.51,231.7,402.08,233.5,397.56,234.41L397.56,234.41z"/>
			<path class="st0" d="M215.78,242.64c16.64-7.14,34.73-11.76,52.91-11.49c-10.58,3.07-21.43,5.7-31.38,10.4
				c-2.35,1.27-5.06,2.44-6.42,4.88c-0.72,1.9,1.27,3.17,2.71,3.8c6.15,2.53,12.93,2.89,19.53,3.53
				c23.15,1.54,46.39,0.63,69.46-0.81c22.79-1.45,45.4-4.52,67.92-8.14c-4.97,2.35-10.04,4.7-14.65,7.69
				c-2.35,1.63-5.25,2.08-7.87,2.71c-27.67,6.15-56.07,8.05-84.29,8.5c-10.94,0.09-21.8-0.09-32.65-0.81
				c-12.12-0.81-24.33-1.72-36.18-4.88c-3.44-0.99-7.05-2.08-9.77-4.52c-1.36-1.08-1.36-3.26-0.18-4.52
				C207.91,245.9,212.07,244.45,215.78,242.64L215.78,242.64z"/>
			<path class="st0" d="M237.12,281.26c4.7-3.71,10.31-5.79,15.92-7.78c-1.81,2.17-4.34,4.25-4.52,7.24
				c-0.09,1.9,1.45,3.35,2.98,4.25c2.98,1.54,6.33,2.08,9.68,2.53c17.36,1.81,34.91,2.8,52.45,1.63
				c16.01-0.81,31.93-3.44,47.75-6.24c4.34,4.07,9.5,6.87,14.92,9.32c-19.08,5.61-38.71,8.86-58.42,10.4
				c-18.63,1.27-37.53,1.18-56.07-1.81c-7.33-1.36-14.83-2.89-21.52-6.33c-2.71-1.45-5.79-3.35-6.6-6.51
				C233.14,285.24,235.13,282.79,237.12,281.26L237.12,281.26z"/>
			<path class="st0" d="M247.61,320.69c4.16-3.35,9.31-5.06,14.38-6.51c-1.63,1.54-4.52,3.44-3.26,6.06
				c2.44,3.17,6.96,3.53,10.58,4.34c15.28,1.9,30.75,3.17,46.03,1.99c11.57-0.72,22.97-2.8,34.28-4.79
				c6.51,3.8,13.29,7.05,20.26,9.95c-10.67,4.79-22.16,7.87-33.64,10.04c-19.35,3.44-39.34,3.89-58.78,0.81
				c-8.59-1.54-17.36-3.53-25.14-7.78c-2.98-1.72-6.15-3.71-7.42-7.05C243.91,325.12,245.53,322.32,247.61,320.69L247.61,320.69z"/>
			<path class="st0" d="M197.42,346.28c8.32-2.8,16.91-5.06,25.68-5.34c3.53-0.09,7.14,0.09,10.22,1.9
				c-10.49,0.63-20.98,3.26-30.39,8.05c-2.08,1.18-4.43,2.53-5.25,4.97c0,2.8,3.17,3.71,5.25,4.61c13.11,4.88,27.13,6.42,40.88,7.87
				c40.97,3.44,82.21,2.53,123.18-1.18c15.46-1.72,31.02-3.44,46.03-7.69c4.79-1.63,10.22-3.26,13.38-7.51
				c1.9-2.53,0.63-5.7-1.26-7.87c3.07,1.72,7.42,3.89,6.78,8.05c-1.18,4.34-5.61,6.6-9.23,8.68c-11.57,5.88-24.33,8.86-36.99,11.48
				c-36.81,7.24-74.52,8.86-111.96,7.78c-28.22-1-56.43-3.71-84.29-8.5c-4.97-1.18-10.58-2.17-14.2-6.06
				c-2.35-2.71-0.27-6.51,1.99-8.5C182.95,351.8,190.28,348.9,197.42,346.28L197.42,346.28z"/>
			<path class="st0" d="M422.79,377.21c9.14-3.17,18.9-6.51,25.68-13.75c-1.17,7.87-7.96,13.29-14.65,16.82
				c-12.84,6.69-27.22,9.77-41.51,12.3c-30.21,4.79-60.87,5.97-91.52,5.43c-20.89-0.63-41.96-1.45-62.49-5.79
				c-4.88-1.36-10.13-2.26-14.38-5.15c18.27,3.08,36.81,4.34,55.35,5.06c30.48,0.9,61.05-0.27,91.34-4.07
				C388.15,385.62,405.79,382.64,422.79,377.21L422.79,377.21z"/>
			<path class="st0" d="M184.49,511.33c0.09-29.66-0.09-59.33,0.09-89.08c6.15,0.18,12.3,0,18.45,0.18
				c-0.09,33.19,0,66.47-0.09,99.75c-0.18,9.31-0.36,19.08-4.88,27.4c-4.97,8.86-13.84,15.1-23.24,18.72
				c-2.98-3.26-5.7-6.69-8.68-9.95l0,0c7.6-4.43,15.19-10.76,17-19.9C184.85,529.51,184.31,520.37,184.49,511.33L184.49,511.33z"/>
			<path class="st0" d="M220.12,457.97c12.21-5.25,25.77-7.96,39.07-6.51c6.87,0.81,14.02,3.35,18.45,8.86
				c3.71,4.7,5.06,10.76,4.97,16.64c0,20.26,0,40.43,0,60.68c-4.52,0-9.04,0-13.66,0c-0.45-2.99-0.9-6.06-1.27-9.13
				c-5.15,4.07-10.67,7.96-17.09,9.59c-7.33,1.9-15.37,1.72-22.52-1.08c-5.52-2.26-9.86-7.23-11.4-13.02
				c-2.26-8.41-1.08-18.27,4.88-25.05c5.34-6.24,13.39-9.31,21.34-10.76c7.33-1.45,14.83-1.45,22.34-1.45
				c-0.18-5.7,0.9-11.94-2.35-17c-2.62-3.89-7.42-5.43-11.85-5.7c-9.68-0.81-19.26,1.63-28.4,4.79
				C221.75,465.21,220.93,461.59,220.12,457.97 M242.55,499.94c-3.98,1.26-7.69,4.16-8.77,8.32c-1.27,4.61-0.9,10.04,2.08,13.93
				c2.89,3.8,8.14,4.7,12.66,4.16c6.33-0.72,11.85-4.34,16.73-8.23c0-6.78-0.09-13.48,0-20.26
				C257.65,497.85,249.87,497.4,242.55,499.94L242.55,499.94z"/>
			<path class="st0" d="M379.11,457.97c12.3-5.25,25.86-8.05,39.25-6.51c6.69,0.81,13.57,3.26,18,8.5
				c4.16,4.97,5.43,11.58,5.34,17.91c-0.09,19.99,0.09,39.88-0.18,59.87c-4.52-0.18-9.04,0.09-13.57-0.18
				c-0.45-3.08-0.81-6.06-1.36-9.04c-6.33,5.43-13.93,9.86-22.52,10.58c-7.87,0.72-16.73-0.27-22.88-5.88
				c-6.42-5.97-7.51-15.64-5.88-23.88c1.54-7.6,7.24-13.84,14.11-17.18c10.76-5.24,23.06-5.52,34.82-5.43
				c-0.18-5.52,0.81-11.39-1.99-16.37c-2.17-3.98-6.78-5.79-11.12-6.24c-10.04-1.08-20.08,1.45-29.48,4.7
				C380.83,465.21,379.93,461.59,379.11,457.97 M401.27,500.03c-3.8,1.27-7.33,4.16-8.5,8.14c-1.27,4.61-0.9,10.04,1.99,14.02
				c2.99,3.89,8.32,4.7,12.93,4.16c6.24-0.9,11.94-4.34,16.64-8.5c-0.18-6.6-0.09-13.29-0.09-19.99
				C416.55,497.85,408.68,497.4,401.27,500.03L401.27,500.03z"/>
			<path class="st0" d="M292.92,452.55c6.33,0,12.66,0,18.99,0c3.71,11.94,7.32,23.78,11.03,35.72c2.17,7.33,4.88,14.56,6.42,22.07
				c0.81,3.35,1.54,6.78,2.53,10.04c7.78-21.98,13.75-44.68,16.82-67.83c6.15,0,12.3,0,18.45,0c-5.33,29.3-13.75,58.15-26.41,85.1
				c-7.24,0-14.47,0-21.71,0C310.38,509.25,301.6,480.94,292.92,452.55L292.92,452.55z"/>
			<g>
				<path class="st0" d="M445.3,450.9h-2.22v-0.8h5.41v0.8h-2.23v6.51h-0.95V450.9z"/>
				<path class="st0" d="M455.47,454.2c-0.05-1.02-0.12-2.26-0.12-3.16h-0.02c-0.26,0.85-0.55,1.77-0.92,2.78l-1.29,3.55h-0.72
					l-1.19-3.48c-0.35-1.04-0.63-1.97-0.84-2.84h-0.02c-0.02,0.91-0.08,2.13-0.14,3.23l-0.2,3.13h-0.9l0.51-7.31h1.2l1.25,3.54
					c0.3,0.9,0.54,1.7,0.74,2.46h0.02c0.2-0.74,0.46-1.54,0.78-2.46l1.3-3.54h1.2l0.46,7.31h-0.93L455.47,454.2z"/>
			</g>
		</g>
		<g>
			<path class="st0" d="M31.42,315.3c3.98-2.97,7.07-6.86,9.26-11.67c2.18-4.81,3.67-10.19,4.44-16.13
				c0.77-5.94,1.16-11.89,1.16-17.83v-64.94c0-24.33,5.02-40.75,15.05-49.24c10.03-8.49,24.69-10.33,43.98-5.52v16.13
				c-6.43-1.7-12.22-2.4-17.36-2.12c-5.15,0.29-9.45,1.84-12.92,4.67c-3.47,2.83-6.11,7.22-7.91,13.16
				c-1.8,5.94-2.7,13.73-2.7,23.35v64.52c0,5.66-0.13,11.53-0.39,17.62c-0.26,6.09-1.22,11.82-2.89,17.19
				c-1.68,5.38-4.31,10.12-7.91,14.22c-3.6,4.11-8.62,7.15-15.05,9.13c6.43,1.98,11.44,5.03,15.05,9.13c3.6,4.11,6.3,8.85,8.1,14.22
				c1.8,5.38,2.83,11.04,3.09,16.98c0.25,5.94,0.39,11.75,0.39,17.4v63.25c0,9.9,0.9,17.68,2.7,23.35c1.8,5.66,4.37,9.83,7.72,12.52
				c3.34,2.69,7.52,4.1,12.54,4.24c5.02,0.14,10.86-0.5,17.55-1.91v16.98c-19.55,4.52-34.28,2.61-44.17-5.73
				c-9.9-8.35-14.85-24.69-14.85-49.03v-63.25c0-5.94-0.39-11.89-1.16-17.83c-0.77-5.94-2.25-11.31-4.44-16.13
				c-2.19-4.81-5.27-8.7-9.26-11.67c-3.99-2.97-9.2-4.46-15.62-4.46v-16.13C22.22,319.76,27.43,318.27,31.42,315.3z"/>
		</g>
		<g>
			<path class="st0" d="M584.2,338.42c-3.98,2.97-7.07,6.86-9.26,11.67c-2.18,4.81-3.67,10.19-4.44,16.13
				c-0.77,5.94-1.16,11.89-1.16,17.83v64.94c0,24.33-5.02,40.75-15.05,49.24c-10.03,8.49-24.69,10.33-43.98,5.52v-16.13
				c6.43,1.7,12.22,2.4,17.36,2.12c5.15-0.29,9.45-1.84,12.92-4.67c3.47-2.83,6.11-7.22,7.91-13.16c1.8-5.94,2.7-13.73,2.7-23.35
				v-64.52c0-5.66,0.13-11.53,0.39-17.62c0.26-6.09,1.22-11.82,2.89-17.19c1.68-5.38,4.31-10.12,7.91-14.22
				c3.6-4.11,8.62-7.15,15.05-9.13c-6.43-1.98-11.44-5.03-15.05-9.13c-3.6-4.11-6.3-8.85-8.1-14.22c-1.8-5.38-2.83-11.04-3.09-16.98
				c-0.25-5.94-0.39-11.75-0.39-17.4v-63.25c0-9.9-0.9-17.68-2.7-23.35c-1.8-5.66-4.37-9.83-7.72-12.52
				c-3.34-2.69-7.52-4.1-12.54-4.24c-5.02-0.14-10.86,0.5-17.55,1.91v-16.98c19.55-4.52,34.28-2.61,44.17,5.73
				c9.9,8.35,14.85,24.69,14.85,49.03v63.25c0,5.94,0.39,11.89,1.16,17.83c0.77,5.94,2.25,11.31,4.44,16.13
				c2.19,4.81,5.27,8.7,9.26,11.67c3.99,2.97,9.2,4.46,15.62,4.46v16.13C593.4,333.96,588.19,335.45,584.2,338.42z"/>
		</g>
	</g>
</g>
</svg>
