<?xml version="1.0" encoding="utf-8"?>
<!-- Generator: Adobe Illustrator 25.4.1, SVG Export Plug-In . SVG Version: 6.00 Build 0)  -->
<svg version="1.1" id="Layer_1" xmlns="http://www.w3.org/2000/svg" xmlns:xlink="http://www.w3.org/1999/xlink" x="0px" y="0px"
	 viewBox="0 0 297.44 269.23" style="enable-background:new 0 0 297.44 269.23;" xml:space="preserve">
<style type="text/css">
	.st0{fill:#E01F26;}
</style>
<g>
	<path class="st0" d="M204.62,16.98H93.48c-10.64,0-19.29,8.65-19.29,19.29v208.26c0,10.65,8.65,19.31,19.29,19.31h111.13
		c10.64,0,19.29-8.66,19.29-19.31V36.26C223.91,25.63,215.26,16.98,204.62,16.98z M93.48,22.7h111.13c7.49,0,13.58,6.09,13.58,13.57
		v208.26c0,7.49-6.09,13.59-13.58,13.59H93.48c-7.49,0-13.58-6.1-13.58-13.59V36.26C79.9,28.78,86,22.7,93.48,22.7z"/>
	<polygon class="st0" points="131.18,154.32 101.24,139.31 131.18,124.3 131.18,118.38 94.9,137.07 94.9,141.56 131.18,160.25 	"/>
	<polygon class="st0" points="163.04,106.69 157.15,106.69 135.52,163.08 141.26,163.08 	"/>
	<polygon class="st0" points="203.52,136.91 167.23,118.38 167.23,124.3 197.4,139.31 167.23,154.32 167.23,160.25 203.52,141.63 	
		"/>
	
		<ellipse transform="matrix(0.7071 -0.7071 0.7071 0.7071 -125.7096 175.547)" class="st0" cx="149.05" cy="239.52" rx="5.63" ry="5.63"/>
</g>
</svg>
