<?xml version="1.0" encoding="utf-8"?>
<!-- Generator: Adobe Illustrator 25.4.1, SVG Export Plug-In . SVG Version: 6.00 Build 0)  -->
<svg version="1.1" id="Layer_1" xmlns="http://www.w3.org/2000/svg" xmlns:xlink="http://www.w3.org/1999/xlink" x="0px" y="0px"
	 viewBox="0 0 297.44 269.23" style="enable-background:new 0 0 297.44 269.23;" xml:space="preserve">
<style type="text/css">
	.st0{fill:#E01F26;}
</style>
<g>
	<path class="st0" d="M176.07,174.97c-0.8-2.97-1.6-5.94-2.39-8.91c-0.47-1.74-0.93-3.48-1.4-5.21c-0.62-2.31-1.23-4.61-1.85-6.91
		c-0.77-2.88-3.12-4.25-5.98-3.52c-1.09,0.28-2.19,0.58-3.28,0.87c-0.86,0.23-1.73,0.46-2.59,0.69c-0.64,0.17-1.22,0.51-1.68,0.97
		c-0.37,0.37-0.73,0.74-1.1,1.11c-0.82,0.83-1.67,1.7-2.61,2.53c-0.65,0.53-0.59,1.04-0.42,1.38c0.15,0.29,0.53,0.74,1.47,0.43
		c0.19-0.04,0.39-0.08,0.54-0.13l10.52-2.83c0.09-0.02,0.17-0.04,0.23-0.06c0.02,0.06,0.04,0.14,0.06,0.22l1.61,6.02
		c1.31,4.84,2.61,9.69,3.9,14.53c0.02,0.06,0.04,0.16,0.07,0.25c-0.09,0.03-0.2,0.05-0.27,0.08c-4.2,1.12-8.41,2.24-12.64,3.37
		c-1.54,0.41-1.79,0.74-1.75,2.35c0.11,3.93-0.12,7.52-0.7,10.95c-1.1,6.55-3.28,12.71-6.48,18.31c-0.49,0.86-1.02,1.74-1.57,2.6
		c-0.46,0.73-0.37,1.46,0.26,1.99c0.09,0.08,0.18,0.17,0.26,0.26l9.22,9.22c0.12,0.12,0.25,0.25,0.35,0.36
		c-0.09,0.1-0.21,0.22-0.33,0.34l-14.76,14.75l-0.1,0.1c-0.06,0.06-0.12,0.12-0.17,0.17c-0.09-0.08-0.17-0.17-0.25-0.25l-0.14-0.15
		c-3.01-3.02-6.03-6.04-9.06-9.05c-0.12-0.12-0.23-0.23-0.31-0.32c-0.85-0.89-1.25-0.84-2.3-0.17l-0.28,0.18
		c-5.74,3.59-12.08,6.08-18.83,7.41c-3.01,0.59-6.27,0.93-10.28,1.05c-0.7,0.03-1.4,0.02-2.14-0.03c-1.72-0.13-2.05,0.12-2.51,1.83
		l-3.25,12.12c-0.07,0.24-0.14,0.51-0.2,0.68c-0.16-0.03-0.41-0.1-0.67-0.17l-12.77-3.43c-2.46-0.66-4.92-1.32-7.38-1.98
		c-0.06-0.02-0.11-0.03-0.15-0.04c0.01-0.05,0.02-0.1,0.04-0.17c0.05-0.2,0.1-0.39,0.16-0.62l0.81-3.03
		c0.8-2.98,1.59-5.96,2.38-8.94l0.11-0.4c0.34-1.26,0.27-1.66-0.93-2.28c-0.13-0.07-0.29-0.15-0.46-0.25
		c-3.94-2.16-7.37-4.55-10.47-7.31c-4.33-3.85-7.97-8.22-10.82-12.99c-0.38-0.63-0.73-1.27-1.08-1.91
		c-0.21-0.37-0.41-0.75-0.62-1.12c-0.49-0.88-0.9-1.05-1.88-0.83c-0.08,0.02-0.16,0.04-0.24,0.07l-0.11,0.03
		c-4.33,1.17-8.67,2.33-13,3.5c-0.03,0.01-0.08,0.02-0.14,0.04c-0.01-0.04-0.03-0.09-0.04-0.14c-0.33-1.2-0.65-2.41-0.97-3.61
		l-0.3-1.13c-1.42-5.3-2.84-10.6-4.26-15.9c-0.03-0.1-0.05-0.18-0.06-0.24c0.06-0.02,0.13-0.04,0.23-0.07
		c2.06-0.56,4.12-1.11,6.18-1.67l2.85-0.76c1.35-0.36,2.71-0.73,4.06-1.09c1.13-0.31,1.45-0.77,1.35-1.97
		c-0.04-0.45-0.07-0.9-0.07-1.36c-0.02-2.97,0.18-5.97,0.61-8.92c0.94-6.53,3.03-12.78,6.21-18.56c0.51-0.93,1.2-2.14,1.97-3.31
		c0.7-1.06,0.06-1.75-0.25-2.01c-0.08-0.06-0.15-0.14-0.22-0.22l-0.13-0.14c-3.14-3.13-6.27-6.27-9.41-9.41
		c-0.03-0.03-0.09-0.09-0.15-0.15c0.05-0.05,0.1-0.1,0.12-0.12c5.01-5.02,10.03-10.04,15.05-15.05c0.03-0.03,0.08-0.08,0.14-0.14
		c0.06,0.05,0.11,0.1,0.14,0.14l0.52,0.52c3.02,3.02,6.04,6.04,9.06,9.05c0.86,0.86,1.26,0.91,2.26,0.28
		c4.28-2.72,8.9-4.84,13.75-6.3c3.53-1.07,7.22-1.78,11.26-2.17c2.38-0.23,4.76-0.21,7.06-0.18c1.33,0.02,1.65-0.22,1.99-1.48
		c1.13-4.23,2.25-8.46,3.38-12.69c0.04-0.16,0.1-0.38,0.15-0.53c0.15,0.03,0.35,0.09,0.5,0.13c6.61,1.78,13.22,3.55,19.87,5.33
		c0.25,0.07,0.51,0.14,0.67,0.19c-0.03,0.18-0.11,0.45-0.17,0.68c-0.55,2.07-1.11,4.14-1.67,6.2l-1.16,4.31l-0.05,0.17
		c-0.09,0.29-0.24,0.73-0.05,1.19l0.07,0.18l0.16,0.12c0.29,0.23,0.62,0.3,0.97,0.2l0.2-0.09c1.21-0.78,2.42-1.57,3.63-2.35
		c0.55-0.36,0.74-0.89,0.84-1.26l2.3-8.67c0.16-0.57,0.18-1.17,0.07-1.75c-0.4-1.95-1.57-3.2-3.49-3.72l-14.25-3.83
		c-2.45-0.66-4.9-1.32-7.35-1.96c-1.96-0.51-3.67,0.01-4.96,1.51c-0.55,0.64-0.8,1.38-0.99,2.09c-0.94,3.56-1.89,7.12-2.84,10.68
		c-0.02,0.08-0.06,0.21-0.09,0.31c-0.07,0-0.15,0-0.22,0c-0.05,0-0.09,0-0.13,0c-1.98,0-3.98,0.11-5.94,0.32
		c-3.82,0.39-7.62,1.16-11.28,2.28c-4.24,1.29-8.34,3.04-12.2,5.22c-0.12,0.07-0.27,0.15-0.37,0.2c-0.09-0.08-0.22-0.21-0.34-0.33
		l-7.51-7.51c-0.21-0.22-0.43-0.43-0.67-0.65c-1.51-1.23-3.23-1.47-4.97-0.71c-0.72,0.31-1.25,0.82-1.74,1.31l-4.27,4.27
		c-3.67,3.68-7.34,7.35-11.03,11c-1.1,1.08-1.67,2.37-1.66,3.72c0.01,1.33,0.61,2.62,1.68,3.64c1.86,1.77,3.69,3.63,5.47,5.43
		c0.72,0.73,1.45,1.46,2.17,2.19c0.09,0.09,0.19,0.19,0.26,0.26c-0.05,0.09-0.12,0.21-0.17,0.31c-2.45,4.29-4.36,8.88-5.68,13.64
		c-1.09,3.89-1.78,7.9-2.05,11.93c-0.1,1.44-0.13,2.84-0.15,4.02c0,0.06,0,0.12,0,0.17c-0.05,0.02-0.11,0.03-0.17,0.05
		c-0.44,0.13-0.89,0.25-1.42,0.4c-3.18,0.86-6.37,1.72-9.55,2.59c-1.97,0.54-3.19,1.92-3.55,3.99c-0.13,0.75,0.05,1.42,0.19,1.96
		l4.55,17c0.4,1.51,0.8,3.02,1.21,4.52c0.54,1.99,1.92,3.23,3.98,3.57c0.86,0.14,1.65-0.08,2.28-0.25c3.5-0.96,7-1.91,10.51-2.86
		c0.09-0.02,0.16-0.05,0.23-0.06c0.03,0.05,0.07,0.12,0.11,0.19c0.91,1.55,1.82,2.96,2.78,4.31c5.03,7.14,11.39,13.01,18.92,17.43
		c0.06,0.04,0.15,0.09,0.23,0.14c-0.01,0.06-0.03,0.12-0.06,0.2c-0.29,1.08-0.58,2.16-0.87,3.24l-1.01,3.74
		c-0.38,1.4-0.75,2.79-1.11,4.19c-0.46,1.85,0.1,3.49,1.63,4.76c0.62,0.51,1.34,0.74,2.02,0.92l21.44,5.74
		c0.4,0.11,0.83,0.2,1.29,0.2c0.19,0,0.4-0.02,0.6-0.05c2.01-0.38,3.35-1.57,3.86-3.45c0.72-2.6,1.42-5.2,2.13-7.8l0.85-3.12
		c0.03-0.1,0.06-0.21,0.08-0.3c0.1,0,0.22,0,0.32,0c2.3,0.01,4.72-0.16,7.47-0.52c3.84-0.5,7.64-1.38,11.3-2.61
		c3.77-1.27,7.43-2.91,10.89-4.87c0.04-0.03,0.08-0.05,0.12-0.07c0.03,0.02,0.06,0.05,0.09,0.08c0.11,0.1,0.21,0.2,0.31,0.3
		l2.54,2.54c1.77,1.77,3.54,3.54,5.32,5.3c1.76,1.74,4.18,1.9,6.19,0.42c0.36-0.27,0.7-0.58,1-0.9l11.77-11.86l1.37-1.37
		c0.74-0.74,1.48-1.48,2.21-2.23c1.79-1.83,1.91-4.32,0.3-6.34c-0.26-0.32-0.55-0.63-0.83-0.91c-2.41-2.42-4.82-4.83-7.24-7.24
		c-0.18-0.18-0.32-0.32-0.4-0.42c0.01-0.02,0.02-0.04,0.04-0.06c0.06-0.1,0.14-0.22,0.22-0.36c1.04-1.84,2-3.77,2.84-5.73
		c3.23-7.48,4.9-15.41,4.97-23.56c0-0.14,0-0.29,0.01-0.39c0.1-0.03,0.23-0.07,0.33-0.09c1.46-0.4,2.92-0.79,4.38-1.17l3.63-0.97
		c1.03-0.27,2.06-0.54,3.08-0.84c2.27-0.67,3.61-2.7,3.35-5.07C176.26,175.73,176.18,175.33,176.07,174.97z"/>
	<path class="st0" d="M274.56,92.29c-0.37-1.99-1.58-3.31-3.49-3.83c-3.61-0.97-7.23-1.94-10.84-2.91
		c-0.13-0.04-0.28-0.07-0.38-0.11c0-0.12,0-0.29,0-0.41c0.02-2.55-0.15-5.12-0.51-7.64c-0.95-7-3.13-13.79-6.48-20.17
		c-0.32-0.61-0.64-1.21-1.03-1.86c0.11-0.1,0.22-0.21,0.32-0.31l0.11-0.11c2.43-2.43,4.86-4.86,7.28-7.29
		c0.3-0.29,0.58-0.6,0.85-0.94c1.53-1.97,1.39-4.46-0.33-6.19c-5.3-5.32-10.61-10.63-15.94-15.93c-1.85-1.84-4.51-1.87-6.48-0.09
		c-0.99,0.9-1.95,1.86-2.89,2.8c-1.78,1.79-3.56,3.57-5.35,5.35c-0.04,0.04-0.08,0.08-0.12,0.12c-0.04-0.02-0.09-0.05-0.15-0.08
		c-0.18-0.09-0.36-0.2-0.53-0.3c-0.15-0.09-0.31-0.18-0.47-0.27c-8.72-4.74-18.32-7.26-28.53-7.47c-0.15,0-0.33-0.01-0.45-0.02
		c-0.04-0.11-0.08-0.28-0.11-0.38c-0.28-1.01-0.55-2.02-0.83-3.02l-0.9-3.33c-0.42-1.55-0.83-3.1-1.29-4.64
		c-0.59-1.98-2.33-3.25-4.45-3.25c-0.01,0-0.01,0-0.02,0c-0.61-0.01-1.17,0.14-1.67,0.28l-12.6,3.38c-2.89,0.78-5.78,1.55-8.67,2.33
		c-1.83,0.5-2.96,1.72-3.35,3.63c-0.17,0.85-0.01,1.64,0.17,2.31c0.91,3.43,1.82,6.86,2.76,10.33c0.07,0.27,0.15,0.55,0.17,0.69
		c-0.12,0.09-0.4,0.26-0.65,0.41c-4.28,2.53-8.23,5.59-11.75,9.1c-2.34,2.33-4.51,4.86-6.45,7.53c-1.03,1.43-2.05,3-3.12,4.79
		c-0.06,0.1-0.1,0.16-0.13,0.21c-0.05-0.01-0.13-0.03-0.25-0.06l-6.5-1.76c-1.47-0.4-2.95-0.8-4.42-1.19
		c-2.6-0.67-4.9,0.59-5.74,3.15c-0.1,0.32-0.19,0.65-0.28,1l-3.35,12.44c-0.74,2.76-1.48,5.51-2.21,8.27
		c-0.16,0.6-0.32,1.3-0.18,2.05c0.38,2.06,1.6,3.38,3.63,3.92l10.62,2.83c0.16,0.04,0.34,0.09,0.45,0.13c0.01,0.13,0,0.34,0,0.48
		c-0.04,2.5,0.15,5.08,0.55,7.9c0.14,0.98,0.33,1.96,0.51,2.91l0.15,0.8c0.04,0.2,0.13,0.72,0.57,1.02
		c0.19,0.13,0.51,0.26,0.97,0.16c0.77-0.17,1.53-0.34,2.29-0.52l0.14-0.03c0.74-0.17,1.12-0.78,0.99-1.55
		c-0.03-0.18-0.07-0.36-0.1-0.55c-0.03-0.17-0.07-0.34-0.1-0.52c-0.63-3.58-0.92-6.5-0.94-9.2c0-0.61,0-1.22,0-1.82l0-1.43
		c0-1.32-0.23-1.63-1.5-1.97l-12.85-3.42c-0.11-0.03-0.24-0.07-0.36-0.1c0.03-0.12,0.06-0.26,0.09-0.36l0.06-0.23
		c1.09-4.1,2.19-8.19,3.29-12.29c0.71-2.65,1.42-5.3,2.14-7.94c0.03-0.09,0.05-0.17,0.07-0.24c0.09,0.02,0.17,0.04,0.22,0.06
		l10.39,2.81c0.92,0.25,1.85,0.5,2.77,0.74c1.03,0.27,1.45,0.09,1.97-0.85l0.36-0.67c0.21-0.38,0.42-0.77,0.63-1.15
		c3.59-6.33,8.39-11.86,14.26-16.43c2.4-1.87,5.11-3.62,8.27-5.34c1.04-0.57,1.2-0.94,0.89-2.1l-2.68-9.92
		c-0.29-1.08-0.58-2.16-0.86-3.24c-0.01-0.05-0.02-0.08-0.03-0.12c0.04-0.01,0.08-0.03,0.14-0.04l19.73-5.31l0.38-0.11
		c0.23-0.07,0.47-0.13,0.7-0.19c0.02,0,0.04-0.01,0.05-0.01c0,0.01,0.01,0.03,0.02,0.05c0.02,0.07,0.04,0.14,0.06,0.21l2.81,10.42
		l0.34,1.21c0.15,0.53,0.3,1.06,0.44,1.58c0.2,0.77,0.75,1.21,1.53,1.15c0.17-0.01,0.34-0.01,0.51-0.01l0.39,0
		c3.64-0.07,7.29,0.2,10.87,0.8c6.9,1.15,13.4,3.53,19.29,7.06c0.52,0.31,1.03,0.63,1.54,0.95c0.64,0.41,1.33,0.33,1.84-0.21
		c0.1-0.11,0.21-0.21,0.31-0.31l9.32-9.31c0.12-0.12,0.24-0.24,0.34-0.34c0.1,0.1,0.23,0.23,0.36,0.35l14.7,14.7
		c0.14,0.14,0.29,0.3,0.4,0.41c-0.11,0.12-0.26,0.28-0.41,0.42l-9.11,9.11c-0.18,0.18-0.36,0.37-0.51,0.53
		c-0.45,0.43-0.53,1.12-0.21,1.59c0.1,0.18,0.2,0.35,0.32,0.53c2.57,4.1,4.61,8.53,6.04,13.15c1.54,5,2.36,9.99,2.42,14.83
		c0.01,0.86,0.01,1.73,0,2.59l0,1.31c0,1.22,0.25,1.55,1.42,1.87c2.01,0.55,4.01,1.09,6.02,1.63l2.56,0.69c1.5,0.4,3,0.8,4.5,1.21
		c0.1,0.03,0.18,0.05,0.24,0.07c-0.01,0.06-0.03,0.15-0.06,0.26l-0.74,2.73c-1.56,5.78-3.11,11.56-4.66,17.34l-0.08,0.31
		c-0.04,0.15-0.08,0.31-0.12,0.43c-0.21-0.04-0.54-0.13-0.79-0.2c-4.15-1.12-8.3-2.23-12.45-3.34c-1.14-0.31-1.53-0.14-2.1,0.89
		c-1.38,2.53-2.64,4.57-3.96,6.44c-2.6,3.66-5.74,7.09-9.36,10.17c-2.99,2.55-6.3,4.78-10.12,6.82c-1.02,0.55-1.22,1-0.94,2.1
		l2.48,9.46c0.33,1.27,0.66,2.54,0.98,3.81c0.02,0.07,0.03,0.13,0.04,0.18c-0.04,0.01-0.1,0.03-0.18,0.05
		c-0.72,0.2-1.43,0.39-2.15,0.58l-16.27,4.33c-0.76,0.2-1.52,0.41-2.28,0.6c-0.05,0.01-0.09,0.02-0.12,0.03
		c-0.01-0.04-0.03-0.09-0.05-0.15l-0.72,0.22v0l0.68-0.35l-3.34-12.53l-0.08-0.32c-0.38-1.46-0.77-1.61-2.25-1.57l-0.18,0
		c-3.64,0.06-6.69-0.01-9.73-0.51c-0.95-0.16-1.91-0.32-2.86-0.5c-1.25-0.23-1.56,0.6-1.64,0.97l-0.49,2.45
		c-0.14,0.72,0.23,1.3,0.95,1.49c0.2,0.05,0.41,0.09,0.61,0.13c3.32,0.65,6.9,1.02,10.94,1.12c0.12,0,0.25,0.01,0.35,0.01
		c0.03,0.1,0.06,0.22,0.08,0.3l2.58,9.6c0.14,0.53,0.28,1.07,0.46,1.6c0.39,1.18,1.18,2.11,2.22,2.63c0.59,0.29,1.24,0.44,1.9,0.44
		c0.5,0,1.02-0.09,1.52-0.26c0.1-0.04,0.21-0.06,0.35-0.1l15.83-4.21c1.82-0.48,3.64-0.97,5.46-1.46c1.76-0.47,2.92-1.65,3.35-3.42
		c0.25-1.03,0.05-2.02-0.13-2.67c-0.94-3.51-1.87-7.01-2.8-10.52c-0.03-0.12-0.07-0.27-0.09-0.38c0.09-0.05,0.2-0.12,0.3-0.18
		c3.06-1.81,5.98-3.9,8.69-6.2c3.72-3.17,7.04-6.79,9.88-10.75c1.2-1.67,2.27-3.4,3.07-4.72c0.04-0.07,0.08-0.14,0.12-0.19
		c0.07,0.02,0.14,0.04,0.24,0.07l2.41,0.64c2.86,0.77,5.73,1.53,8.59,2.29c0.52,0.14,1.21,0.28,1.98,0.12
		c1.96-0.4,3.22-1.56,3.73-3.46l5.77-21.44C274.55,93.77,274.7,93.05,274.56,92.29z"/>
	<path class="st0" d="M187.66,100.33c0.2-0.98-0.05-1.92-0.7-2.56c-0.65-0.64-1.58-0.89-2.56-0.68c-0.15,0.03-0.3,0.07-0.44,0.11
		l-41.27,10.61c-0.49,0.12-0.98,0.25-1.46,0.4c-1.37,0.41-2.14,1.65-1.91,3.07c0.11,0.71,0.53,1.18,0.91,1.57l7.76,7.75
		c0.01,0.01,0.03,0.02,0.04,0.04c-0.02,0.02-0.04,0.04-0.06,0.06l-0.1,0.1c-2.02,2-4.03,4.01-6.05,6.02
		c-2.46,2.46-4.93,4.92-7.4,7.36c-4.88,4.83-9.73,9.69-14.58,14.54c-2.11,2.11-4.22,4.23-6.33,6.34
		c-5.61,5.62-9.08,9.31-12.44,12.89c-3.61,3.84-7.02,7.46-12.86,13.29c-0.72,0.72-1.14,1.56-1.21,2.43
		c-0.08,0.98,0.3,1.92,1.09,2.71l11.14,11.16c0.36,0.37,0.81,0.67,1.3,0.85c0.42,0.16,0.83,0.23,1.23,0.23c0.91,0,1.77-0.4,2.58-1.2
		c4.53-4.51,9.06-9.03,13.59-13.54c9.23-9.22,16.29-16.5,23.11-23.54c6.75-6.96,13.73-14.16,22.83-23.27l0.12-0.12
		c0.06-0.06,0.12-0.12,0.18-0.18c0.1,0.1,0.2,0.2,0.3,0.3l0.18,0.18c2.44,2.44,4.88,4.88,7.32,7.32c0.41,0.41,1.04,0.94,1.95,0.89
		c1.27-0.01,2.28-0.76,2.63-1.96c0.17-0.61,0.33-1.21,0.49-1.82l10.32-40.1C187.47,101.17,187.57,100.75,187.66,100.33z
		 M152.58,122.6c0.16-0.15,0.31-0.31,0.46-0.48c0.74-0.87,0.75-2.06,0.02-2.96c-0.17-0.2-0.36-0.4-0.54-0.57
		c-2.26-2.25-4.51-4.51-6.77-6.77c6.69-1.72,13.38-3.45,20.08-5.17l16.63-4.29l-5.67,21.99c-1.26,4.9-2.53,9.79-3.81,14.69
		l-6.84-6.83c-0.15-0.15-0.3-0.3-0.46-0.43c-0.92-0.76-2.07-0.77-3.02-0.03c-0.28,0.24-0.55,0.49-0.78,0.74
		c-11.44,11.44-20.78,21.01-29.81,30.26c-9.06,9.28-18.42,18.87-29.9,30.34l-0.27,0.27c-0.04,0.04-0.08,0.08-0.11,0.12
		c-0.03-0.03-0.07-0.07-0.11-0.11l-9.22-9.22l-0.12-0.12c-0.05-0.05-0.1-0.09-0.14-0.14c0.08-0.08,0.16-0.16,0.24-0.24l60.01-60.9
		L152.58,122.6z"/>
	<path class="st0" d="M76.58,156.08c3.63-3.17,7.84-5.57,12.52-7.13c2.99-0.99,6.21-1.59,9.58-1.79c1.82-0.1,3.73-0.04,6.18,0.2
		c1.96,0.2,3.92,0.59,5.82,1.14c0.52,0.15,1.28,0.26,1.95-0.47c0.34-0.37,0.7-0.72,1.05-1.07c0.23-0.23,0.46-0.45,0.69-0.68
		c0.34-0.34,0.72-0.73,0.59-1.27c-0.12-0.54-0.65-0.73-1.06-0.88c-0.09-0.03-0.18-0.06-0.34-0.11c-4.47-1.43-8.8-2.09-13.2-2.01
		c-1.68-0.08-3.73,0.08-6.11,0.45c-12.78,2.01-23.76,9.62-30.13,20.88c-3.21,5.68-5.02,11.95-5.38,18.61
		c-0.12,2.39-0.03,4.8,0.27,7.18c0.56,4.79,1.96,9.4,4.14,13.71c3.56,7,8.73,12.67,15.38,16.85c6.14,3.86,13.02,5.99,20.46,6.35
		c0.63,0.03,1.26,0.04,1.9,0.04c3.21,0,6.41-0.38,9.53-1.15c9.06-2.18,16.65-6.87,22.57-13.94c5.82-6.95,9.08-15.23,9.71-24.6
		c0.22-3.33,0.01-6.68-0.62-9.95c-0.35-1.85-0.82-3.7-1.39-5.49c-0.13-0.41-0.31-0.97-0.88-1.12c-0.57-0.14-1.01,0.28-1.33,0.59
		c-0.22,0.21-0.43,0.42-0.65,0.64c-0.35,0.35-0.7,0.7-1.06,1.03c-0.63,0.56-0.82,1.24-0.58,2.09c1.32,4.72,1.68,9.58,1.05,14.44
		c-0.54,4.29-1.77,8.37-3.66,12.11c-2.27,4.54-5.4,8.48-9.31,11.71c-6.53,5.43-14.3,8.31-23.08,8.56c-1.73,0.05-3.47-0.12-4.95-0.29
		c-5.08-0.59-9.83-2.17-14.11-4.7c-6.46-3.82-11.39-9.12-14.64-15.78c-3.46-7.1-4.53-14.68-3.17-22.53
		C65.8,169.16,69.92,161.9,76.58,156.08z"/>
	<path class="st0" d="M234.18,97.13c-1.98,6.06-5.37,11.32-10.08,15.63c-3.28,3.01-7.03,5.39-11.16,7.07
		c-4.42,1.82-9.08,2.74-13.85,2.74c-0.07,0-0.14,0-0.21,0c-1.83-0.01-3.74-0.17-6.01-0.52c-1.08-0.16-1.53,0.15-1.75,1.21
		c-0.14,0.69-0.27,1.38-0.38,2.08c-0.17,1.04,0.16,1.52,1.17,1.71c2.29,0.43,4.63,0.64,6.96,0.64c0.12,0,0.25,0,0.37,0
		c1.86-0.01,3.73-0.15,5.56-0.41c5.41-0.75,10.54-2.53,15.26-5.28c4.42-2.57,8.26-5.83,11.42-9.69c3.4-4.13,5.93-8.8,7.54-13.9
		c0.97-3.06,1.6-6.24,1.86-9.44c0.22-2.64,0.19-5.31-0.09-7.94c-0.45-4.16-1.53-8.22-3.22-12.06c-1.97-4.46-4.56-8.45-7.71-11.86
		c-3.94-4.29-8.64-7.62-13.99-9.92c-7.07-3.04-14.47-4.14-21.99-3.24c-4.88,0.58-9.64,2.06-14.14,4.41
		c-5.72,2.98-10.52,7.01-14.26,11.98c-2.6,3.44-4.63,7.24-6.04,11.3c-1.52,4.32-2.34,8.84-2.44,13.43
		c-0.02,1.52,0.04,3.06,0.19,4.56c0.09,0.91,0.22,1.9,0.43,3.1c0.21,1.21,0.92,1.26,1.66,1.15c0.7-0.11,1.39-0.24,2.08-0.38
		c1.1-0.23,1.43-0.71,1.23-1.83c-0.34-1.95-0.48-3.94-0.42-5.91v-0.05c-0.07-2.17,0.11-4.36,0.52-6.51
		c1.6-8.63,5.7-15.86,12.16-21.49c4.02-3.5,8.75-6.07,14.07-7.63c4.04-1.18,8.32-1.6,13.07-1.27c3.31,0.23,6.66,0.98,9.97,2.23
		c4.48,1.69,8.47,4.11,11.86,7.17c2.92,2.63,5.37,5.69,7.3,9.11c3.76,6.69,5.36,13.88,4.74,21.38
		C235.64,91.56,235.07,94.4,234.18,97.13z"/>
</g>
</svg>
