<?xml version="1.0" encoding="utf-8"?>
<!-- Generator: Adobe Illustrator 25.4.1, SVG Export Plug-In . SVG Version: 6.00 Build 0)  -->
<svg version="1.1" id="Layer_1" xmlns="http://www.w3.org/2000/svg" xmlns:xlink="http://www.w3.org/1999/xlink" x="0px" y="0px"
	 viewBox="0 0 297.44 269.23" style="enable-background:new 0 0 297.44 269.23;" xml:space="preserve">
<style type="text/css">
	.st0{fill:#E01F26;}
</style>
<g>
	<path class="st0" d="M241.96,59.95l-0.3-24.46c-0.03-1.29-1.05-2.3-2.32-2.3c-1.28,0.03-2.32,1.09-2.32,2.37l0.21,18.69l-4.46-4.14
		c-22.39-21.96-51.98-34.05-83.32-34.05c-0.47,0-0.94,0-1.42,0.01c-31.88,0.39-61.7,13.14-83.97,35.9
		C48.11,68.37,37.23,88.76,32.6,110.94c-4.51,21.71-2.96,44.13,4.49,64.82c0.32,0.92,1.19,1.53,2.16,1.53c0.25,0,0.58-0.06,0.9-0.16
		c0.48-0.18,0.95-0.62,1.21-1.16c0.27-0.56,0.3-1.18,0.09-1.75c-14.96-41.69-5.03-87.29,25.92-119
		c21.38-21.89,50.04-34.14,80.7-34.5c30.57-0.37,59.51,11.22,81.46,32.67l4.7,4.37l-19.11,0.21c-1.26,0.03-2.3,1.09-2.3,2.37
		c0.03,1.27,1.05,2.27,2.32,2.27l24.5-0.3C240.92,62.29,241.96,61.23,241.96,59.95z"/>
	<path class="st0" d="M149.29,254.6h0.2c32.43,0,62.74-12.73,85.34-35.85c15.93-16.27,26.81-36.66,31.46-58.96
		c4.51-21.72,2.95-44.13-4.49-64.82c-0.44-1.21-1.76-1.84-2.95-1.41c-0.58,0.21-1.05,0.64-1.32,1.2c-0.27,0.56-0.3,1.18-0.09,1.75
		c14.96,41.69,5.03,87.29-25.92,119c-21.37,21.88-50.03,34.13-80.7,34.48c-0.49,0.01-0.98,0.01-1.47,0.01
		c-30.09,0-58.44-11.55-79.99-32.61l-4.7-4.36l19.11-0.21c1.26-0.02,2.3-1.09,2.3-2.37c-0.03-1.27-1.05-2.27-2.32-2.27l-24.5,0.3
		c-0.66,0.01-1.26,0.27-1.71,0.72c-0.43,0.43-0.65,1-0.64,1.61l0.3,24.49c0.03,1.29,1.05,2.3,2.32,2.3
		c1.27-0.02,2.32-1.09,2.32-2.37l-0.2-18.69l4.46,4.14C88.43,242.56,117.98,254.6,149.29,254.6z"/>
	<path class="st0" d="M197.99,170.44l9.92,1.86c0.43,0.07,0.91,0.11,1.38,0.11c3.1,0,5.91-1.94,6.99-4.83l4.68-12.54
		c1.27-3.42-0.11-7.23-3.27-9.06l-8.61-4.97c-1.03-0.68-1.6-1.71-1.6-2.85c0.15-3.18,0.05-6.34-0.28-9.41
		c-0.14-1.1,0.3-2.19,1.18-2.93l0.15-0.11l8.48-5.74c2.98-2.03,4.06-5.9,2.56-9.2l-5.52-12.08c-1.18-2.63-3.84-4.33-6.75-4.33
		c-0.68,0-1.28,0.08-1.95,0.27l-9.54,2.68c-1.1,0.31-2.32-0.04-3.2-0.91c-2.28-2.48-4.55-4.63-6.78-6.4
		c-1.01-0.72-1.5-2.09-1.15-3.33l1.85-9.85c0.69-3.58-1.29-7.1-4.72-8.37l-12.54-4.68c-0.84-0.3-1.72-0.46-2.61-0.46
		c-2.64,0-5.11,1.43-6.45,3.73l-4.97,8.55c-0.7,1.05-1.69,1.59-2.9,1.59c-3.32-0.19-6.58-0.1-9.73,0.28c-1.13,0.15-2.28-0.31-3-1.18
		l-5.8-8.53c-1.39-2.04-3.68-3.26-6.14-3.26c-1.06,0-2.1,0.22-3.09,0.66l-12.06,5.51c-3.31,1.5-5.02,5.14-4.06,8.66l2.59,9.76
		c0.33,1.15-0.09,2.43-1.07,3.25c-2.4,2.35-4.4,4.58-6.08,6.77c-0.78,0.93-1.94,1.4-3.06,1.24l-10.01-1.96
		c-3.48-0.58-6.91,1.26-8.3,4.48l-0.15,0.32l-4.59,12.31c-1.27,3.42,0.11,7.23,3.27,9.06l8.7,5.02c1.03,0.68,1.6,1.71,1.6,2.85
		c-0.15,3.3-0.04,6.46,0.33,9.43c0.16,1.23-0.38,2.45-1.36,3.1l-8.4,5.66c-2.98,2.03-4.06,5.9-2.56,9.2l5.52,12.08
		c1.18,2.63,3.83,4.33,6.75,4.33c0.67,0,1.27-0.08,1.87-0.26l9.81-2.6c0.25-0.07,0.52-0.11,0.79-0.11c0.94,0,1.84,0.43,2.46,1.18
		c1.82,2.02,4.05,4.1,6.8,6.31c0.9,0.75,1.36,1.91,1.2,3.02l-1.91,10c-0.69,3.58,1.29,7.1,4.72,8.37l12.54,4.68
		c0.83,0.3,1.71,0.46,2.61,0.46c2.64,0,5.11-1.43,6.45-3.73l5.02-8.7c0.68-1.03,1.73-1.6,2.9-1.6c2.75,0.13,5.68,0.04,8.99-0.29
		c1.19-0.16,2.39,0.38,3.04,1.37l5.71,8.45c1.39,2.04,3.68,3.26,6.13,3.26c1.06,0,2.1-0.22,3.09-0.66l12.06-5.51
		c3.31-1.5,5.02-5.14,4.06-8.66l-2.59-9.61c-0.31-1.08,0.04-2.3,0.92-3.17c2.4-2.16,4.54-4.44,6.39-6.81
		C195.58,170.59,196.82,170.15,197.99,170.44z M191.27,168.83c-1.67,2.12-3.64,4.22-5.87,6.23c-2.21,2.02-3.11,5.02-2.34,7.83
		l2.59,9.61c0.43,1.28-0.28,2.78-1.61,3.31l-11.99,5.48c-0.44,0.22-0.85,0.25-1.16,0.25c-1.02,0-1.89-0.48-2.39-1.32l-5.66-8.35
		c-1.67-2.43-4.52-3.73-7.42-3.38c-2.82,0.33-5.57,0.41-8.2,0.26c-2.91-0.12-5.68,1.39-7.17,3.94l-5.02,8.7
		c-0.43,0.87-1.37,1.44-2.44,1.44c-0.28,0-0.57-0.04-0.86-0.12l-12.71-4.73c-1.26-0.42-2.06-1.82-1.79-3.19l1.89-9.89
		c0.54-2.87-0.57-5.8-2.89-7.67c-2.19-1.69-4.24-3.61-6.28-5.87c-1.47-1.62-3.6-2.56-5.83-2.56c-0.72,0-1.38,0.09-1.97,0.26
		l-9.81,2.6c-1.29,0.27-2.47-0.2-3.14-1.2l-0.12-0.21l-5.57-12.19c-0.5-1.24-0.13-2.67,0.88-3.43l8.44-5.73
		c2.4-1.63,3.72-4.54,3.38-7.42c-0.31-2.81-0.42-5.68-0.31-8.55c0.12-2.99-1.36-5.74-3.86-7.16l-8.72-5.03
		c-1.15-0.57-1.71-1.94-1.32-3.31l4.8-12.8c0.6-1.02,1.58-1.63,2.64-1.63l0.3,0.02l10.06,1.91c0.46,0.08,1,0.16,1.48,0.16
		c2.42-0.12,4.69-1.27,6.18-3.14c1.8-2.33,3.79-4.46,5.9-6.31c2.16-1.96,3.05-4.95,2.31-7.79l-2.58-9.74
		c-0.43-1.28,0.29-2.78,1.62-3.31l11.99-5.48c0.43-0.22,0.85-0.25,1.16-0.25c1.01,0,1.88,0.48,2.39,1.31l5.61,8.26
		c1.65,2.44,4.51,3.73,7.47,3.38c3.01-0.38,5.98-0.46,8.83-0.26c2.94,0.18,5.78-1.33,7.23-3.87l4.93-8.57
		c0.57-1.15,1.93-1.71,3.31-1.32l12.71,4.73c1.24,0.41,2.06,1.85,1.79,3.19l-1.89,10.03c-0.54,2.84,0.55,5.76,2.86,7.63
		c2.11,1.66,4.19,3.61,6.17,5.81c1.52,1.68,3.59,2.61,5.83,2.61c0.76,0,1.45-0.09,2.1-0.27l9.5-2.64c1.32-0.27,2.49,0.18,3.17,1.2
		l0.12,0.2l5.58,12.19c0.5,1.24,0.13,2.67-0.88,3.42l-8.55,5.78c-2.39,1.62-3.69,4.45-3.37,7.39c0.32,2.93,0.41,5.82,0.26,8.56
		c-0.16,2.99,1.33,5.76,3.87,7.22l8.61,4.98c1.15,0.57,1.71,1.94,1.32,3.31l-4.73,12.7c-0.51,1.29-1.88,2.06-3.19,1.79l-10.02-1.89
		c-0.46-0.08-1.01-0.16-1.43-0.16C195.02,165.83,192.78,166.92,191.27,168.83z"/>
	<path class="st0" d="M158.36,110.08c-2.97-1.04-5.97-1.56-8.91-1.56c-11.27,0-21.37,7.13-25.14,17.74
		c-4.91,13.86,2.34,29.13,16.17,34.05c2.98,1.04,5.98,1.57,8.92,1.57c11.27,0,21.37-7.13,25.14-17.74c2.38-6.69,2-13.92-1.06-20.37
		C170.41,117.32,165.04,112.46,158.36,110.08z M170.22,142.58c-3.08,8.76-11.44,14.65-20.78,14.65c-2.44,0-4.92-0.42-7.38-1.26
		c-5.55-1.96-10-5.97-12.54-11.3c-2.54-5.33-2.84-11.31-0.87-16.85c3.09-8.76,11.44-14.65,20.78-14.65c2.44,0,4.92,0.42,7.38,1.26
		c5.56,1.99,10.01,6,12.54,11.32C171.9,131.07,172.2,137.04,170.22,142.58z"/>
</g>
</svg>
