<?xml version="1.0" encoding="utf-8"?>
<!-- Generator: Adobe Illustrator 15.1.0, SVG Export Plug-In . SVG Version: 6.00 Build 0)  -->
<!DOCTYPE svg PUBLIC "-//W3C//DTD SVG 1.1//EN" "http://www.w3.org/Graphics/SVG/1.1/DTD/svg11.dtd" [
	<!ENTITY ns_extend "http://ns.adobe.com/Extensibility/1.0/">
	<!ENTITY ns_ai "http://ns.adobe.com/AdobeIllustrator/10.0/">
	<!ENTITY ns_graphs "http://ns.adobe.com/Graphs/1.0/">
	<!ENTITY ns_vars "http://ns.adobe.com/Variables/1.0/">
	<!ENTITY ns_imrep "http://ns.adobe.com/ImageReplacement/1.0/">
	<!ENTITY ns_sfw "http://ns.adobe.com/SaveForWeb/1.0/">
	<!ENTITY ns_custom "http://ns.adobe.com/GenericCustomNamespace/1.0/">
	<!ENTITY ns_adobe_xpath "http://ns.adobe.com/XPath/1.0/">
]>
<svg version="1.1" id="Layer_1" xmlns:x="&ns_extend;" xmlns:i="&ns_ai;" xmlns:graph="&ns_graphs;"
	 xmlns="http://www.w3.org/2000/svg" xmlns:xlink="http://www.w3.org/1999/xlink" x="0px" y="0px" width="292px" height="83px"
	 viewBox="82.5 232.5 292 83" enable-background="new 82.5 232.5 292 83" xml:space="preserve">
<metadata>
	<sfw  xmlns="&ns_sfw;">
		<slices></slices>
		<sliceSourceBounds  width="16383" height="90.659" x="-7865.954" y="267.212" bottomLeftOrigin="true"></sliceSourceBounds>
	</sfw>
</metadata>
<g>
	<g id="Vector_Smart_Object" transform="translate(-33.113 -721.745)" enable-background="new    ">
		<path id="Path_1612" fill="#727272" d="M230.785,1012.858l-7.691-22.779h-0.138c0.207,3.373,0.323,6.554,0.323,9.515v13.264h-3.94
			v-27.285h6.095l7.364,21.707h0.104l7.562-21.707h6.128v27.285h-4.171v-13.494c0-1.349,0.042-3.149,0.109-5.297
			c0.067-2.143,0.122-3.509,0.174-3.953h-0.147l-7.957,22.744H230.785z"/>
		<path id="Path_1613" fill="#727272" d="M266.381,1012.858l-0.859-2.89h-0.141c-0.753,1.075-1.746,1.963-2.901,2.591
			c-1.196,0.479-2.481,0.707-3.772,0.664c-3.129,0.333-5.938-1.928-6.272-5.061c-0.043-0.413-0.043-0.826,0.002-1.238
			c-0.121-1.893,0.756-3.716,2.313-4.809c2.115-1.243,4.541-1.854,6.994-1.767l3.448-0.114v-1.116
			c0.082-1.062-0.238-2.107-0.898-2.942c-0.736-0.721-1.748-1.08-2.771-0.984c-1.002-0.009-1.998,0.141-2.954,0.448
			c-0.928,0.308-1.827,0.682-2.699,1.117l-1.373-3.15c1.125-0.61,2.325-1.066,3.571-1.347c1.197-0.291,2.423-0.44,3.652-0.449
			c2.069-0.141,4.118,0.474,5.766,1.731c1.4,1.418,2.109,3.382,1.94,5.367v13.95H266.381z M260.033,1009.867
			c1.372,0.066,2.713-0.408,3.734-1.322c0.973-0.993,1.48-2.354,1.399-3.742v-1.801l-2.549,0.118
			c-1.531-0.058-3.051,0.294-4.395,1.033c-0.92,0.633-1.435,1.713-1.349,2.829c-0.046,0.791,0.244,1.559,0.795,2.126
			c0.666,0.544,1.516,0.816,2.374,0.75"/>
		<path id="Path_1614" fill="#727272" d="M292.9,992.227v2.419l-3.422,0.638c0.34,0.496,0.602,1.041,0.778,1.616
			c0.791,2.5,0.095,5.228-1.8,7.041c-1.679,1.295-3.772,1.941-5.891,1.823c-0.582,0-1.164-0.053-1.737-0.163
			c-0.78,0.405-1.294,1.186-1.349,2.06c-0.022,0.453,0.231,0.875,0.639,1.067c0.749,0.295,1.556,0.413,2.357,0.352h3.493
			c1.795-0.127,3.576,0.386,5.024,1.458c1.193,1.053,1.831,2.604,1.727,4.194c0.085,2.17-0.982,4.221-2.807,5.398
			c-2.447,1.433-5.266,2.1-8.095,1.919c-2.188,0.138-4.368-0.381-6.256-1.492c-1.408-0.945-2.221-2.557-2.146-4.247
			c-0.033-1.178,0.382-2.325,1.16-3.207c0.875-0.923,2.018-1.55,3.265-1.801c-0.573-0.254-1.063-0.672-1.417-1.194
			c-0.342-0.518-0.527-1.125-0.528-1.748c-0.029-0.708,0.196-1.402,0.632-1.958c0.525-0.637,1.159-1.178,1.875-1.591
			c-1.055-0.465-1.935-1.251-2.515-2.249c-0.665-1.098-1.001-2.372-0.971-3.654c-0.114-1.95,0.632-3.848,2.042-5.196
			c1.65-1.331,3.734-1.994,5.846-1.866c0.604,0,1.204,0.043,1.8,0.132c0.472,0.053,0.936,0.131,1.397,0.241L292.9,992.227z
			 M277.158,1016.065c-0.029,0.904,0.452,1.756,1.245,2.195c1.076,0.563,2.284,0.821,3.496,0.756
			c1.784,0.114,3.568-0.238,5.177-1.019c1.027-0.531,1.679-1.586,1.69-2.74c0.071-0.752-0.275-1.486-0.901-1.907
			c-1.093-0.473-2.289-0.667-3.476-0.562h-3.228c-1.039-0.053-2.061,0.264-2.884,0.896c-0.731,0.576-1.142,1.467-1.107,2.394
			 M279.016,998.917c-0.071,1.08,0.276,2.151,0.966,2.987c0.73,0.738,1.741,1.119,2.775,1.054c2.464,0,3.687-1.348,3.687-4.05
			c0.068-1.107-0.25-2.205-0.898-3.105c-1.579-1.458-4.013-1.458-5.592,0c-0.691,0.896-1.029,2.015-0.948,3.148"/>
		<path id="Path_1615" fill="#727272" d="M306.044,1013.236c-2.715,0.159-5.368-0.861-7.283-2.794
			c-1.854-2.129-2.802-4.901-2.642-7.722c-0.169-2.863,0.696-5.688,2.438-7.967c1.668-1.951,4.148-3.022,6.714-2.895
			c2.358-0.124,4.654,0.786,6.294,2.49c1.615,1.894,2.438,4.34,2.288,6.826v2.372h-13.356c-0.049,1.683,0.514,3.325,1.585,4.625
			c1.088,1.111,2.613,1.696,4.172,1.604c1.106,0.004,2.219-0.11,3.304-0.337c1.132-0.27,2.235-0.654,3.285-1.156v3.575
			c-1.001,0.484-2.059,0.843-3.149,1.072C308.49,1013.143,307.27,1013.245,306.044,1013.236 M305.272,995.183
			c-1.231-0.044-2.409,0.449-3.247,1.349c-0.9,1.093-1.41,2.455-1.445,3.869h9.079c0.076-1.397-0.351-2.776-1.2-3.886
			c-0.811-0.901-1.983-1.38-3.187-1.31"/>
		<path id="Path_1616" fill="#727272" d="M337.063,1012.858h-4.278v-12.685c0.105-1.256-0.229-2.513-0.931-3.562
			c-0.752-0.831-1.851-1.265-2.97-1.174c-1.499-0.14-2.971,0.471-3.927,1.634c-0.984,1.661-1.423,3.589-1.26,5.513v10.274h-4.261
			v-20.64h3.324l0.603,2.696h0.22c0.614-0.997,1.505-1.787,2.574-2.275c1.154-0.549,2.42-0.83,3.702-0.812
			c4.797,0,7.195,2.521,7.195,7.564L337.063,1012.858z"/>
		<path id="Path_1617" fill="#727272" d="M351.197,1009.709c1.054,0.005,2.109-0.163,3.11-0.488v3.308
			c-0.589,0.241-1.199,0.417-1.828,0.522c-0.759,0.141-1.536,0.207-2.309,0.201c-4.016,0-6.032-2.178-6.032-6.548v-11.144h-2.745
			v-1.923l2.934-1.603l1.451-4.388h2.626v4.595h5.705v3.311h-5.705v11.061c-0.066,0.857,0.21,1.705,0.77,2.354
			c0.549,0.505,1.276,0.769,2.023,0.738"/>
		<path id="Path_1618" fill="#727272" d="M376.76,1002.514c0.186,2.856-0.712,5.675-2.513,7.902
			c-1.786,1.941-4.357,2.982-6.992,2.829c-1.739,0.035-3.451-0.413-4.95-1.292c-1.464-0.888-2.623-2.201-3.325-3.761
			c-0.809-1.783-1.209-3.724-1.169-5.679c-0.175-2.828,0.722-5.619,2.5-7.823c1.81-1.941,4.388-2.979,7.041-2.824
			c2.609-0.119,5.131,0.944,6.87,2.895c1.775,2.179,2.679,4.942,2.53,7.752 M362.195,1002.514c0,4.792,1.714,7.155,5.104,7.155
			c3.401,0,5.07-2.372,5.07-7.155c0-4.705-1.696-7.054-5.095-7.054c-1.528-0.127-3.014,0.567-3.884,1.828
			c-0.904,1.585-1.317,3.403-1.203,5.226"/>
	</g>
	<path id="Path_1611" fill="#727272" d="M161.906,294.592v-31.034l-19.526-12.424l-19.527,12.424v31.034l-7.018-4.482v-30.574
		l26.545-16.907l26.546,16.907v30.578L161.906,294.592z M138.477,298.093l3.899,2.486l3.9-2.486v-35.979l8.605,5.47v31.481
		l-12.506,7.954l-12.494-7.954v-31.481l8.59-5.47L138.477,298.093z"/>
</g>
</svg>
