<?xml version="1.0" encoding="utf-8"?>
<!-- Generator: Adobe Illustrator 15.1.0, SVG Export Plug-In . SVG Version: 6.00 Build 0)  -->
<!DOCTYPE svg PUBLIC "-//W3C//DTD SVG 1.1//EN" "http://www.w3.org/Graphics/SVG/1.1/DTD/svg11.dtd" [
	<!ENTITY ns_extend "http://ns.adobe.com/Extensibility/1.0/">
	<!ENTITY ns_ai "http://ns.adobe.com/AdobeIllustrator/10.0/">
	<!ENTITY ns_graphs "http://ns.adobe.com/Graphs/1.0/">
	<!ENTITY ns_vars "http://ns.adobe.com/Variables/1.0/">
	<!ENTITY ns_imrep "http://ns.adobe.com/ImageReplacement/1.0/">
	<!ENTITY ns_sfw "http://ns.adobe.com/SaveForWeb/1.0/">
	<!ENTITY ns_custom "http://ns.adobe.com/GenericCustomNamespace/1.0/">
	<!ENTITY ns_adobe_xpath "http://ns.adobe.com/XPath/1.0/">
]>
<svg version="1.1" id="Layer_1" xmlns:x="&ns_extend;" xmlns:i="&ns_ai;" xmlns:graph="&ns_graphs;"
	 xmlns="http://www.w3.org/2000/svg" xmlns:xlink="http://www.w3.org/1999/xlink" x="0px" y="0px" width="27.936px"
	 height="21.949px" viewBox="0 0 27.936 21.949" enable-background="new 0 0 27.936 21.949" xml:space="preserve">
<metadata>
	<sfw  xmlns="&ns_sfw;">
		<slices></slices>
		<sliceSourceBounds  y="439.525" x="785.53" height="21.952" width="27.952" bottomLeftOrigin="true"></sliceSourceBounds>
	</sfw>
</metadata>
<g id="Group_4" transform="translate(0 -54.82)">
	<g id="Group_3" transform="translate(0 54.82)">
		<path id="Path_6" fill="#898989" d="M2.681,6.766c0.353,0.249,1.42,0.99,3.199,2.221c1.78,1.231,3.142,2.18,4.084,2.845
			c0.104,0.072,0.325,0.231,0.662,0.477c0.338,0.244,0.618,0.441,0.842,0.592c0.224,0.151,0.494,0.32,0.812,0.508
			c0.284,0.172,0.586,0.313,0.9,0.42c0.25,0.088,0.513,0.135,0.778,0.14h0.031c0.266-0.005,0.529-0.052,0.78-0.14
			c0.313-0.107,0.615-0.249,0.899-0.42c0.317-0.188,0.587-0.356,0.812-0.508c0.224-0.15,0.505-0.348,0.842-0.592
			c0.337-0.245,0.559-0.404,0.663-0.477c0.956-0.667,3.39-2.355,7.3-5.066c0.745-0.517,1.39-1.167,1.9-1.917
			c0.49-0.688,0.757-1.51,0.764-2.354c-0.012-1.373-1.121-2.483-2.494-2.494H2.494c-0.71-0.04-1.396,0.261-1.847,0.811
			C0.203,1.392-0.026,2.107,0,2.837c0.049,0.783,0.35,1.53,0.857,2.128C1.361,5.663,1.977,6.271,2.681,6.766z"/>
		<path id="Path_7" fill="#898989" d="M26.376,8.433c-3.408,2.307-5.996,4.099-7.763,5.377c-0.593,0.437-1.073,0.777-1.442,1.021
			c-0.467,0.295-0.96,0.545-1.473,0.748c-0.541,0.239-1.124,0.369-1.715,0.382h-0.032c-0.591-0.013-1.174-0.143-1.715-0.382
			c-0.514-0.203-1.007-0.453-1.473-0.748c-0.369-0.244-0.85-0.584-1.442-1.021c-1.4-1.028-3.982-2.821-7.748-5.377
			C0.994,8.049,0.466,7.593,0,7.077v12.377c-0.01,0.663,0.256,1.302,0.733,1.762c0.461,0.478,1.099,0.743,1.762,0.733h22.946
			c1.376-0.004,2.491-1.119,2.494-2.495V7.077C27.471,7.59,26.948,8.045,26.376,8.433z"/>
	</g>
</g>
</svg>
