<?xml version="1.0" encoding="utf-8"?>
<!-- Generator: Adobe Illustrator 23.0.4, SVG Export Plug-In . SVG Version: 6.00 Build 0)  -->
<svg version="1.1" id="Layer_1" xmlns="http://www.w3.org/2000/svg" xmlns:xlink="http://www.w3.org/1999/xlink" x="0px" y="0px"
	 viewBox="0 0 175.748 52.01" enable-background="new 0 0 175.748 52.01" xml:space="preserve">
<g id="Group_15" transform="translate(-1052 -612)">
	<g id="Group_10" transform="translate(950.852 531.783)">
		<path id="Path_37" fill-rule="evenodd" clip-rule="evenodd" fill="#666666" d="M108.267,118.692l5.626-25.329h10.045l0.459,14.153
			l6.76-14.153h10.069l-5.65,25.329h-7.291l3.018-13.618l-6.785,13.618h-5.238l-0.266-13.618l-3.38,13.618L108.267,118.692z"/>
		<path id="Path_38" fill-rule="evenodd" clip-rule="evenodd" fill="#666666" d="M142.094,97.492h6.785l0.919-4.129h-6.809
			l-0.893,4.129H142.094z"/>
		<path id="Path_39" fill-rule="evenodd" clip-rule="evenodd" fill="#666666" d="M144.171,118.713l-6.833-0.024l4.177-18.76h6.833
			L144.171,118.713z"/>
		<path id="Path_40" fill-rule="evenodd" clip-rule="evenodd" fill="#666666" d="M170.054,99.931h6.109l-0.531,2.318
			c0.815-1.001,1.907-1.74,3.138-2.125c1.028-0.342,2.105-0.514,3.188-0.507l-1.57,6.109c-0.387,0-5.119-0.919-6.592,6.303
			l-1.519,6.685h-6.447l4.227-18.785L170.054,99.931z"/>
		<path id="Path_41" fill-rule="evenodd" clip-rule="evenodd" fill="#666666" d="M166.48,111.762c0,0.145-2.149,7.678-11.59,7.485
			c-12.652-0.266-9.368-20.548,4.998-19.824c8.161,0.411,7.751,7.196,7.678,7.485h-7.053c0.092-0.266,0.338-3.067-1.908-3.018
			c-4.177,0.12-7.147,10.477-2.535,10.576c2.125,0.072,3.114-2.389,3.308-2.705L166.48,111.762z"/>
		<path id="Path_42" fill-rule="evenodd" clip-rule="evenodd" fill="#666666" d="M227.061,119.319
			c-13.739-0.579-9.61-20.813,4.491-20.137C244.808,99.835,241.041,119.875,227.061,119.319z M231.093,103.604
			c-4.564-0.919-7.969,10.044-3.622,10.936C232.3,115.551,235.536,104.497,231.093,103.604z"/>
		<path id="Path_43" fill-rule="evenodd" clip-rule="evenodd" fill="#666666" d="M252.799,97.155c-1.883,0-2.245,0.724-2.559,2.149
			l-0.12,0.628h3.984l0.99-4.539h6.23l-0.966,4.539h3.211l-0.942,4.319h-3.211l-1.763,8.233c-0.146,0.445-0.171,0.921-0.073,1.379
			c0.266,0.748,2.946,0.435,2.946,0.435l-1.038,4.297c0,0-5.457,0.628-7.292-0.652c-0.821-0.551-1.714-1.715-1.159-4.202
			l2.101-9.466l-3.742-0.024l-3.163,14.438h-6.709l3.138-14.438h-3.453l0.966-4.319h3.356c0.604-2.414,1.135-4.056,2.632-5.312
			c2.052-1.666,7.389-1.011,7.389-1.011l-0.749,3.55L252.799,97.155z"/>
		<path id="Path_44" fill-rule="evenodd" clip-rule="evenodd" fill="#666666" d="M192.533,112.27l12.748-0.025
			c0,0-1.086,2.825,2.922,2.849c2.777,0,3.86-3.163,0.121-3.816c-1.715-0.313-8.355-1.424-7.606-6.543
			c0.628-4.201,4.998-5.674,9.779-5.606c9.778,0.12,7.943,5.867,8.064,6.254h-6.519c0,0,0.7-2.415-2.245-2.415
			c-2.681,0-3.332,2.415-0.242,3.067c3.768,0.822,8.087,1.011,8.33,5.868c0.073,1.352-0.724,7.677-10.576,7.484
			c-9.03-0.193-9.658-4.442-9.416-6.423c-2.161,4.144-6.563,6.625-11.227,6.326c-13.739-0.435-9.558-20.789,4.515-20.088
			c6.398,0.313,8.837,5.167,8.064,9.947c-0.12,0.845-0.193,0.966-0.435,1.038l-6.278,2.077V112.27z M190.674,103.577
			c-4.515-0.893-7.895,10.017-3.573,10.936C191.88,115.503,195.096,104.468,190.674,103.577z"/>
		<path id="Path_45" fill-rule="evenodd" clip-rule="evenodd" fill="#666666" d="M267.334,99.907
			c1.34-0.026,2.448,1.039,2.474,2.379c0.026,1.34-1.039,2.448-2.379,2.474c-0.032,0.001-0.063,0.001-0.095,0
			c-1.34,0.026-2.448-1.039-2.474-2.379c-0.026-1.34,1.039-2.448,2.379-2.474C267.271,99.907,267.303,99.907,267.334,99.907z
			 M267.334,100.342c-1.093-0.033-2.007,0.826-2.04,1.919c-0.033,1.093,0.826,2.007,1.919,2.04c0.04,0.001,0.08,0.001,0.121,0
			c1.093,0.033,2.007-0.826,2.04-1.919s-0.826-2.007-1.919-2.04C267.415,100.341,267.374,100.341,267.334,100.342z M267.77,102.611
			l0.482,0.966h-0.583l-0.386-0.966h-0.338l-0.145,1.038h-0.506l0.411-2.583h1.183c0.364,0.091,0.615,0.422,0.604,0.797
			c0.011,0.402-0.307,0.737-0.709,0.748c-0.005,0-0.01,0-0.015,0H267.77z M267.648,101.404h-0.482l-0.121,0.845h0.483
			c0.245,0.045,0.48-0.116,0.525-0.361c0.003-0.016,0.005-0.033,0.006-0.049c0.014-0.226-0.158-0.42-0.384-0.434
			C267.666,101.404,267.657,101.404,267.648,101.404L267.648,101.404z"/>
	</g>
</g>
</svg>
