<svg xmlns="http://www.w3.org/2000/svg" width="334.07" height="89.325" viewBox="0 0 334.07 89.325">
  <g id="Group_115" data-name="Group 115" transform="translate(-101.462 -48.518)">
    <g id="Group_110" data-name="Group 110">
      <path id="Path_75" data-name="Path 75" d="M114.571,50.094H102.923v52.854H115.86l-.29-31.856L135.8,102.948H147.52V50.094H134.947l-.077,32.215ZM195.9,87.236c.932-7.285-.568-13.645-5.576-19a20.266,20.266,0,0,0-15-6.283c-12.083,0-20.8,10.213-20.8,21.281a21.054,21.054,0,0,0,21.015,21.016,19.232,19.232,0,0,0,11.289-3.585A23.239,23.239,0,0,0,194.9,90.521H182.756a8,8,0,0,1-7.216,3.709c-4.651,0-8.645-2.789-9.154-6.994Zm-29.376-9c.292-1.857,2.717-6.288,8.869-6.288s8.571,4.431,8.861,6.288Zm34.454,4.847c0,9.715,6.932,21.086,21.368,21.086S243.725,92.8,243.725,83.087s-6.933-21.065-21.375-21.065-21.368,11.351-21.368,21Zm11.862,0a9.979,9.979,0,1,1,0,.07Z" fill="#010101" fill-rule="evenodd"/>
    </g>
    <g id="Group_111" data-name="Group 111">
      <path id="Path_76" data-name="Path 76" d="M247.94,85.442c-.36,10.362,5.214,18.514,19.077,18.514,14.016,0,18.442-8.507,18.442-16.932,0-6.146-2.5-10.718-12.36-15.144-9.511-4.287-10.937-4.937-10.937-7.362,0-2.5,2.286-4.14,4.644-4.14,4.148,0,4.572,3.357,4.86,5.142h13.366c-.213-12.714-10.505-16.426-17.8-16.426-8.866,0-18.511,5.645-18.511,16.29,0,9.917,9.216,13.632,12.937,15.139,8.145,3.424,10.367,4.282,10.367,7.067a5.107,5.107,0,0,1-5.148,5.075c-1.718,0-5.5-1.076-5.5-7.223ZM289.6,77.166c0,13.567,11.155,26.79,27.809,26.79,16.437,0,28.016-12.724,28.016-27.437a27.42,27.42,0,0,0-27.946-27.425c-14.577,0-27.879,10.718-27.879,27.995Zm13.515-.783c0-7.431,5.076-15.435,14.436-15.435,9.719,0,14.366,8.787,14.366,15.64,0,6.784-4.647,15.494-14.225,15.494-9.08,0-14.577-7.567-14.577-15.633Zm49.6,26.564h13.508V82.807h14.8V70.95h-14.8v-9h15.37V50.1H352.714Zm42.522,0h13.51v-41h10.365V50.1H384.8V61.947h10.433Z" fill="#e92c38" fill-rule="evenodd"/>
    </g>
    <g id="Group_112" data-name="Group 112">
      <path id="Path_77" data-name="Path 77" d="M108,137.4h-2.154V117.618h-4.386v-2.147h10.929v2.147H108ZM125.5,125.3h9.213v2.167H125.5v7.811h9.213V137.4H123.325V115.471h11.383v2.147H125.5Zm39.515-4.158a9.79,9.79,0,0,0-3.3-3.015,8.678,8.678,0,0,0-4.156-.957,8.38,8.38,0,0,0-6.265,2.7,9.035,9.035,0,0,0-2.6,6.457,9.431,9.431,0,0,0,2.586,6.712,8.347,8.347,0,0,0,6.275,2.727,8.961,8.961,0,0,0,4.116-.955,9.117,9.117,0,0,0,3.191-2.836h2.562a11.059,11.059,0,0,1-4.039,4.332,11.42,11.42,0,0,1-13.749-1.773,11.855,11.855,0,0,1-2.358-12.608,11.419,11.419,0,0,1,2.556-3.724,10.684,10.684,0,0,1,7.751-3.176,11.072,11.072,0,0,1,5.889,1.594,11.329,11.329,0,0,1,4.131,4.522ZM181.6,137.4h-2.177V115.471H181.6V125.3h10.422v-9.833h2.157V137.4h-2.157v-10H181.6Zm39.952-2.613-.261-19.315h2.143V137.4h-2.6L208.8,118.054l.243,19.345h-2.12V115.471h2.588Zm15.861-8.455a9.315,9.315,0,0,0,2.6,6.722,8.587,8.587,0,0,0,6.434,2.717,8.37,8.37,0,0,0,6.31-2.745,9.5,9.5,0,0,0,2.572-6.759,8.883,8.883,0,0,0-2.651-6.441,8.59,8.59,0,0,0-6.385-2.7,8.392,8.392,0,0,0-2.928.525,8.639,8.639,0,0,0-2.6,1.533,9.516,9.516,0,0,0-3.357,7.153m-2.264-.025a11.055,11.055,0,0,1,.885-4.376,11.456,11.456,0,0,1,2.549-3.724,11.17,11.17,0,0,1,3.553-2.378,11.319,11.319,0,0,1,14.572,6.082,11.39,11.39,0,0,1,.848,4.4,12.2,12.2,0,0,1-.727,4.28,10.879,10.879,0,0,1-2.164,3.548,10.937,10.937,0,0,1-8.366,3.709,10.542,10.542,0,0,1-7.934-3.325,11.349,11.349,0,0,1-3.216-8.212M279.141,137.4h-9.879V115.471h2.17v19.811h7.709Zm12.682-11.068a9.328,9.328,0,0,0,2.613,6.722,8.58,8.58,0,0,0,6.429,2.717,8.378,8.378,0,0,0,6.311-2.745,9.533,9.533,0,0,0,2.578-6.759,8.87,8.87,0,0,0-2.658-6.441,8.592,8.592,0,0,0-6.379-2.7,8.364,8.364,0,0,0-2.934.525,8.557,8.557,0,0,0-2.6,1.533,9.177,9.177,0,0,0-2.464,3.235,9.047,9.047,0,0,0-.9,3.918m-2.254-.025a11.188,11.188,0,0,1,.875-4.376A11.709,11.709,0,0,1,293,118.206a11.107,11.107,0,0,1,3.551-2.378,10.924,10.924,0,0,1,4.195-.8,10.877,10.877,0,0,1,7.87,3.213,10.9,10.9,0,0,1,2.506,3.667,11.373,11.373,0,0,1,.851,4.4,12.268,12.268,0,0,1-.727,4.28,10.753,10.753,0,0,1-2.167,3.548,10.933,10.933,0,0,1-8.36,3.709,10.56,10.56,0,0,1-7.937-3.325,11.394,11.394,0,0,1-3.211-8.212m41.756.578H344.96a11.43,11.43,0,0,1-3.447,7.874,10.781,10.781,0,0,1-7.8,3.085,10.586,10.586,0,0,1-7.954-3.318,11.39,11.39,0,0,1-3.2-8.219,11.17,11.17,0,0,1,.875-4.376A11.481,11.481,0,0,1,326,118.206a10.772,10.772,0,0,1,3.593-2.4,11.873,11.873,0,0,1,4.384-.776,10.827,10.827,0,0,1,5.737,1.539,11.322,11.322,0,0,1,4.071,4.416h-2.655a10.571,10.571,0,0,0-3.322-2.921,8.274,8.274,0,0,0-3.955-.944,8.56,8.56,0,0,0-6.4,2.7,9.055,9.055,0,0,0-2.6,6.506,9.288,9.288,0,0,0,2.6,6.729,8.609,8.609,0,0,0,6.434,2.71,8.407,8.407,0,0,0,5.4-1.934,8.86,8.86,0,0,0,3.106-5H331.325ZM358.8,137.4h-2.15V115.468h2.15Zm14.956-12.1h9.221v2.167h-9.221v7.811h9.221V137.4H371.586V115.471h11.386v2.147h-9.221Zm20.847,5.837h2.075a4.923,4.923,0,0,0,1.153,3.228,3.708,3.708,0,0,0,2.869,1.213,4,4,0,0,0,3.045-1.2,4.568,4.568,0,0,0,1.128-3.243c0-2-1.545-3.5-4.617-4.513-.248-.081-.424-.138-.54-.181a7.66,7.66,0,0,1-3.472-2.1,5.027,5.027,0,0,1-1.071-3.325,5.9,5.9,0,0,1,1.647-4.292,5.618,5.618,0,0,1,4.217-1.668,5.155,5.155,0,0,1,3.918,1.517,6.572,6.572,0,0,1,1.616,4.282h-2.038a4.566,4.566,0,0,0-1.071-2.769,3.137,3.137,0,0,0-2.425-.972,3.534,3.534,0,0,0-2.658,1.068,3.73,3.73,0,0,0-1.034,2.7,3.048,3.048,0,0,0,1.3,2.624,10.606,10.606,0,0,0,2.655,1.143c.744.233,1.322.434,1.713.587a6.615,6.615,0,0,1,3.082,2.118,5.538,5.538,0,0,1,.94,3.377,7.452,7.452,0,0,1-1.733,5.142,5.882,5.882,0,0,1-4.619,1.959,5.581,5.581,0,0,1-4.354-1.852,7.08,7.08,0,0,1-1.726-4.85" fill="#010101" fill-rule="evenodd"/>
    </g>
    <g id="Group_113" data-name="Group 113">
      <path id="Path_78" data-name="Path 78" d="M428.741,48.518a6.8,6.8,0,1,0,6.791,6.8,6.791,6.791,0,0,0-6.791-6.8m0,12.487a5.693,5.693,0,1,1,5.693-5.691,5.689,5.689,0,0,1-5.693,5.691" fill="#010101" fill-rule="evenodd"/>
    </g>
    <g id="Group_114" data-name="Group 114">
      <path id="Path_79" data-name="Path 79" d="M426.843,52.093a8.89,8.89,0,0,1,1.646-.136,2.8,2.8,0,0,1,1.845.478,1.536,1.536,0,0,1,.513,1.21,1.564,1.564,0,0,1-1.088,1.488v.022a1.5,1.5,0,0,1,.828,1.163c.2.739.365,1.433.474,1.666h-1.119a7.66,7.66,0,0,1-.4-1.408c-.178-.783-.454-1.034-1.073-1.051h-.551v2.459h-1.076Zm1.076,2.636h.642c.744,0,1.2-.392,1.2-.989,0-.643-.454-.955-1.165-.955a2.694,2.694,0,0,0-.675.055Z" fill="#010101"/>
    </g>
  </g>
</svg>
