<svg id="Group_1153" data-name="Group 1153" xmlns="http://www.w3.org/2000/svg" width="137.297" height="36.712" viewBox="0 0 137.297 36.712">
  <path id="Path_5624" data-name="Path 5624" d="M642.768,595.6h-4.786v21.722H643.3l-.119-13.092,8.312,13.092h4.819V595.6h-5.319l.121,13.239ZM676.2,610.867a9.089,9.089,0,0,0-2.291-7.811,8.339,8.339,0,0,0-6.167-2.58,8.692,8.692,0,0,0,.09,17.384,7.9,7.9,0,0,0,4.639-1.474,9.549,9.549,0,0,0,3.319-4.168h-4.992a3.287,3.287,0,0,1-2.966,1.526,3.55,3.55,0,0,1-3.763-2.876Zm-12.072-3.7a3.861,3.861,0,0,1,7.287,0Zm14.16,2a8.645,8.645,0,1,0,0-.028Zm4.875,0a4.1,4.1,0,1,1,0,.028Z" transform="translate(-637.381 -594.956)" fill-rule="evenodd"/>
  <path id="Path_5625" data-name="Path 5625" d="M785.686,609.529c-.147,4.257,2.144,7.609,7.842,7.609,5.759,0,7.578-3.5,7.578-6.963,0-2.526-1.027-4.407-5.08-6.225-3.909-1.759-4.495-2.025-4.495-3.023a1.811,1.811,0,0,1,1.908-1.7c1.705,0,1.881,1.381,2,2.115h5.494c-.086-5.224-4.319-6.75-7.314-6.75-3.644,0-7.609,2.318-7.609,6.69,0,4.082,3.79,5.607,5.317,6.224,3.349,1.409,4.262,1.762,4.262,2.908a2.1,2.1,0,0,1-2.115,2.084c-.707,0-2.264-.441-2.264-2.965Zm17.123-3.406a11.52,11.52,0,1,0,0-.031Zm5.553-.32c0-3.053,2.087-6.343,5.934-6.343,3.994,0,5.9,3.611,5.9,6.428,0,2.789-1.909,6.369-5.844,6.369-3.731,0-5.993-3.112-5.993-6.428Zm20.385,10.918H834.3v-8.278h6.081v-4.873H834.3v-3.7h6.317V595H828.747Zm17.476,0h5.55V599.871h4.262V595h-14.1v4.874h4.289Z" transform="translate(-725.487 -594.351)" fill="#e82629" fill-rule="evenodd"/>
  <path id="Path_5626" data-name="Path 5626" d="M639.182,670.941H638.3V662.81h-1.8v-.884h4.492v.884h-1.8Zm7.189-4.973h3.786v.891h-3.786v3.209h3.786v.873h-4.678v-9.016h4.678v.884h-3.786Zm16.238-1.71a3.983,3.983,0,0,0-1.357-1.237,3.553,3.553,0,0,0-1.707-.4,3.447,3.447,0,0,0-2.576,1.113,3.7,3.7,0,0,0-1.065,2.654,3.86,3.86,0,0,0,1.061,2.755,3.428,3.428,0,0,0,2.58,1.119,3.645,3.645,0,0,0,1.69-.39,3.726,3.726,0,0,0,1.313-1.166H663.6a4.517,4.517,0,0,1-1.66,1.781,4.4,4.4,0,0,1-2.334.632,4.447,4.447,0,0,1-3.315-1.361,4.631,4.631,0,0,1-1.329-3.383,4.578,4.578,0,0,1,.359-1.8,4.722,4.722,0,0,1,1.052-1.534,4.4,4.4,0,0,1,1.444-.971,4.477,4.477,0,0,1,1.739-.336,4.549,4.549,0,0,1,2.421.656,4.662,4.662,0,0,1,1.7,1.858Zm6.819,6.683h-.894v-9.016h.894v4.043h4.282v-4.043h.886v9.016h-.886v-4.113h-4.282Zm16.418-1.076-.107-7.94h.883v9.016h-1.068l-4.946-7.951.1,7.951h-.872v-9.016H680.9Zm6.519-3.473a3.831,3.831,0,0,0,1.069,2.76,3.518,3.518,0,0,0,2.644,1.114,3.425,3.425,0,0,0,2.6-1.127,3.9,3.9,0,0,0,1.055-2.775,3.65,3.65,0,0,0-1.087-2.646,3.533,3.533,0,0,0-2.626-1.111,3.453,3.453,0,0,0-1.2.214,3.606,3.606,0,0,0-1.07.629,3.836,3.836,0,0,0-1.011,1.332,3.771,3.771,0,0,0-.366,1.611m-.93-.013a4.524,4.524,0,0,1,.363-1.8,4.668,4.668,0,0,1,1.048-1.534,4.591,4.591,0,0,1,1.459-.976,4.707,4.707,0,0,1,3.478.005,4.545,4.545,0,0,1,1.478.985,4.5,4.5,0,0,1,1.034,1.51,4.684,4.684,0,0,1,.347,1.805,5.02,5.02,0,0,1-.3,1.762,4.461,4.461,0,0,1-.889,1.455,4.51,4.51,0,0,1-3.436,1.527,4.338,4.338,0,0,1-3.261-1.367,4.664,4.664,0,0,1-1.322-3.377m18.08,4.562h-4.059v-9.016h.892v8.143h3.167Zm5.212-4.549a3.828,3.828,0,0,0,1.072,2.76,3.521,3.521,0,0,0,2.644,1.114,3.419,3.419,0,0,0,2.593-1.127,3.9,3.9,0,0,0,1.06-2.775A3.645,3.645,0,0,0,721,663.718a3.528,3.528,0,0,0-2.622-1.111,3.437,3.437,0,0,0-1.2.214,3.537,3.537,0,0,0-1.069.629,3.8,3.8,0,0,0-1.013,1.332,3.733,3.733,0,0,0-.369,1.611m-.928-.013a4.552,4.552,0,0,1,.362-1.8,4.736,4.736,0,0,1,1.049-1.534,4.583,4.583,0,0,1,1.458-.976,4.482,4.482,0,0,1,1.724-.33,4.647,4.647,0,0,1,4.266,2.83,4.708,4.708,0,0,1,.349,1.805,5.114,5.114,0,0,1-.3,1.762,4.473,4.473,0,0,1-.89,1.455,4.668,4.668,0,0,1-1.556,1.139,4.579,4.579,0,0,1-1.88.387,4.35,4.35,0,0,1-3.264-1.367,4.682,4.682,0,0,1-1.319-3.377m17.162.241h5.6a4.7,4.7,0,0,1-1.417,3.234,4.422,4.422,0,0,1-3.205,1.269,4.351,4.351,0,0,1-3.268-1.365,4.679,4.679,0,0,1-1.316-3.379,4.563,4.563,0,0,1,.36-1.8,4.756,4.756,0,0,1,1.054-1.534,4.43,4.43,0,0,1,1.477-.985,4.882,4.882,0,0,1,1.8-.322,4.449,4.449,0,0,1,2.359.636,4.656,4.656,0,0,1,1.673,1.813h-1.091a4.407,4.407,0,0,0-1.366-1.2,3.394,3.394,0,0,0-1.624-.386,3.511,3.511,0,0,0-2.629,1.111,3.715,3.715,0,0,0-1.071,2.675,3.812,3.812,0,0,0,1.071,2.764,3.527,3.527,0,0,0,2.644,1.11,3.458,3.458,0,0,0,2.22-.791,3.641,3.641,0,0,0,1.278-2.058h-4.551Zm11.29,4.321h-.886v-9.016h.886Zm6.146-4.973h3.792v.891H748.4v3.209h3.792v.873h-4.682v-9.016h4.682v.884H748.4Zm8.569,2.4h.853a2.017,2.017,0,0,0,.474,1.332,1.52,1.52,0,0,0,1.179.5,1.635,1.635,0,0,0,1.251-.5,1.88,1.88,0,0,0,.462-1.334c0-.817-.636-1.435-1.9-1.851l-.224-.073a3.174,3.174,0,0,1-1.427-.865,2.072,2.072,0,0,1-.439-1.365,2.429,2.429,0,0,1,.676-1.766,2.31,2.31,0,0,1,1.733-.686,2.12,2.12,0,0,1,1.612.626,2.69,2.69,0,0,1,.661,1.759h-.836a1.868,1.868,0,0,0-.44-1.137,1.284,1.284,0,0,0-1-.4,1.458,1.458,0,0,0-1.091.436,1.532,1.532,0,0,0-.426,1.111,1.259,1.259,0,0,0,.534,1.08,4.175,4.175,0,0,0,1.091.468c.307.1.544.179.7.242a2.744,2.744,0,0,1,1.266.869,2.309,2.309,0,0,1,.388,1.393,3.081,3.081,0,0,1-.714,2.115,2.429,2.429,0,0,1-1.9.8,2.305,2.305,0,0,1-1.79-.759,2.929,2.929,0,0,1-.706-2" transform="translate(-636.492 -634.411)" fill-rule="evenodd"/>
  <path id="Path_5627" data-name="Path 5627" d="M965.736,594a2.793,2.793,0,1,0,2.792,2.792A2.791,2.791,0,0,0,965.736,594m0,5.132a2.339,2.339,0,1,1,2.34-2.34,2.34,2.34,0,0,1-2.34,2.34" transform="translate(-831.23 -594)" fill-rule="evenodd"/>
  <path id="Path_5628" data-name="Path 5628" d="M967.929,597.558a3.773,3.773,0,0,1,.677-.055,1.17,1.17,0,0,1,.756.194.632.632,0,0,1,.213.5.644.644,0,0,1-.448.614v.012a.609.609,0,0,1,.34.473,6.95,6.95,0,0,0,.2.686h-.46a2.874,2.874,0,0,1-.165-.58c-.074-.32-.186-.424-.441-.43h-.224v1.01h-.443Zm.443,1.085h.264c.3,0,.49-.163.49-.407,0-.266-.185-.394-.478-.394a1.481,1.481,0,0,0-.276.021Z" transform="translate(-834.204 -596.09)"/>
</svg>
