<?xml version="1.0" encoding="utf-8"?>
<!-- Generator: Adobe Illustrator 15.1.0, SVG Export Plug-In . SVG Version: 6.00 Build 0)  -->
<!DOCTYPE svg PUBLIC "-//W3C//DTD SVG 1.1//EN" "http://www.w3.org/Graphics/SVG/1.1/DTD/svg11.dtd" [
	<!ENTITY ns_extend "http://ns.adobe.com/Extensibility/1.0/">
	<!ENTITY ns_ai "http://ns.adobe.com/AdobeIllustrator/10.0/">
	<!ENTITY ns_graphs "http://ns.adobe.com/Graphs/1.0/">
	<!ENTITY ns_vars "http://ns.adobe.com/Variables/1.0/">
	<!ENTITY ns_imrep "http://ns.adobe.com/ImageReplacement/1.0/">
	<!ENTITY ns_sfw "http://ns.adobe.com/SaveForWeb/1.0/">
	<!ENTITY ns_custom "http://ns.adobe.com/GenericCustomNamespace/1.0/">
	<!ENTITY ns_adobe_xpath "http://ns.adobe.com/XPath/1.0/">
]>
<svg version="1.1" id="Layer_1" xmlns:x="&ns_extend;" xmlns:i="&ns_ai;" xmlns:graph="&ns_graphs;"
	 xmlns="http://www.w3.org/2000/svg" xmlns:xlink="http://www.w3.org/1999/xlink" x="0px" y="0px" width="252px" height="67.381px"
	 viewBox="0 0 252 67.381" enable-background="new 0 0 252 67.381" xml:space="preserve">
<metadata>
	<sfw  xmlns="&ns_sfw;">
		<slices></slices>
		<sliceSourceBounds  y="0.809" x="-87.5" height="67.382" width="252.001" bottomLeftOrigin="true"></sliceSourceBounds>
	</sfw>
</metadata>
<g id="Group_1" transform="translate(-370 -385)">
	<g id="neosoft-logo-black" transform="translate(369.992 385)">
		<path id="Path_5624" fill="#FFFFFF" d="M9.882,1.182H1.097v39.871h9.761L10.64,17.022l15.257,24.031h8.845V1.182h-9.763
			l0.222,24.3L9.882,1.182z M71.247,29.205c0.936-5.175-0.623-10.488-4.205-14.337c-2.948-3.088-7.052-4.805-11.32-4.736
			c-8.812-0.007-15.961,7.13-15.968,15.941c-0.007,8.813,7.13,15.961,15.941,15.969c0.064,0,0.128,0,0.192-0.001
			c3.053,0.017,6.032-0.931,8.515-2.706c2.715-1.92,4.829-4.574,6.092-7.651h-9.163c-1.171,1.853-3.255,2.924-5.444,2.799
			c-3.311,0.258-6.287-2.016-6.907-5.278H71.247z M49.088,22.413c1.295-3.693,5.34-5.637,9.033-4.342
			c2.032,0.713,3.629,2.31,4.342,4.342H49.088z M75.079,26.084c0.014,8.764,7.129,15.856,15.893,15.843
			c8.764-0.015,15.857-7.13,15.843-15.894s-7.13-15.857-15.894-15.843c-8.744,0.014-15.829,7.099-15.842,15.843V26.084z
			 M84.027,26.084c0.014-4.166,3.403-7.532,7.568-7.518c4.166,0.014,7.532,3.403,7.518,7.568c-0.014,4.166-3.403,7.532-7.568,7.518
			c-4.146-0.014-7.503-3.372-7.518-7.518V26.084z"/>
		<path id="Path_5625" fill="#FFFFFF" d="M110.49,27.86c-0.27,7.814,3.935,13.967,14.394,13.967c10.571,0,13.91-6.424,13.91-12.781
			c0-4.637-1.886-8.089-9.324-11.426c-7.175-3.229-8.251-3.717-8.251-5.549c0.109-1.826,1.674-3.22,3.5-3.12
			c3.13,0,3.453,2.535,3.671,3.882h10.084c-0.157-9.589-7.927-12.39-13.425-12.39c-6.689,0-13.967,4.255-13.967,12.28
			c0,7.493,6.957,10.292,9.76,11.424c6.146,2.586,7.823,3.234,7.823,5.338c-0.017,2.128-1.755,3.84-3.882,3.825
			c-1.3,0-4.156-0.81-4.156-5.443L110.49,27.86z M141.92,21.608c0.016,11.678,9.495,21.132,21.174,21.117
			c11.678-0.017,21.132-9.496,21.116-21.174c-0.017-11.678-9.495-21.132-21.174-21.116c-11.655,0.016-21.101,9.46-21.116,21.116
			V21.608z M152.113,21.021c0-5.6,3.83-11.643,10.892-11.643c7.331,0,10.83,6.628,10.83,11.8c0,5.119-3.5,11.691-10.728,11.691
			c-6.849,0-11-5.712-11-11.8L152.113,21.021z M189.529,41.062h10.193V25.867h11.162v-8.944h-11.162v-6.792h11.6V1.192h-21.793
			V41.062z M221.608,41.062h10.191V10.133h7.823V1.192h-25.886v8.946h7.873L221.608,41.062z"/>
		<path id="Path_5626" fill="#FFFFFF" d="M4.931,67.052H3.308V52.127h-3.3v-1.623h8.245v1.623h-3.3L4.931,67.052z M18.131,57.924
			h6.949v1.636h-6.949v5.89h6.949v1.6h-8.587V50.503h8.587v1.623h-6.949V57.924z M47.936,54.785
			c-0.642-0.94-1.495-1.719-2.491-2.271c-0.967-0.503-2.044-0.756-3.133-0.734c-1.794-0.021-3.513,0.723-4.728,2.043
			c-1.278,1.296-1.982,3.051-1.955,4.871c-0.047,1.877,0.654,3.695,1.948,5.057c1.212,1.33,2.936,2.078,4.736,2.055
			c1.076,0.014,2.14-0.232,3.1-0.717c0.962-0.511,1.789-1.244,2.41-2.14h1.931c-0.697,1.347-1.751,2.478-3.046,3.268
			c-1.292,0.779-2.776,1.181-4.284,1.16c-2.289,0.058-4.497-0.851-6.085-2.5c-1.625-1.651-2.506-3.894-2.439-6.209
			c-0.005-1.134,0.219-2.256,0.659-3.3c0.451-1.058,1.107-2.015,1.931-2.816c0.756-0.764,1.658-1.37,2.651-1.781
			c1.013-0.417,2.098-0.627,3.192-0.617c1.564-0.024,3.104,0.391,4.444,1.199c1.333,0.83,2.413,2.01,3.12,3.41L47.936,54.785z
			 M60.452,67.052h-1.644V50.503h1.641v7.421h7.86v-7.421h1.626v16.549h-1.627v-7.55h-7.86L60.452,67.052z M90.588,65.077
			l-0.2-14.574h1.62v16.549h-1.96L80.97,52.458l0.183,14.594h-1.6V50.503h1.955L90.588,65.077z M102.554,58.702
			c-0.053,1.882,0.651,3.707,1.954,5.066c1.254,1.34,3.018,2.083,4.853,2.045c1.815,0.031,3.555-0.723,4.772-2.069
			c1.292-1.376,1.987-3.207,1.936-5.095c0.022-1.823-0.7-3.577-2-4.856c-1.249-1.326-2.999-2.066-4.82-2.039
			c-0.751,0-1.496,0.133-2.2,0.394c-0.717,0.268-1.381,0.659-1.964,1.154c-0.791,0.669-1.425,1.504-1.856,2.445
			c-0.439,0.924-0.669,1.934-0.672,2.957 M100.85,58.681c-0.005-1.135,0.221-2.258,0.666-3.301c0.446-1.058,1.101-2.016,1.924-2.816
			c0.769-0.764,1.678-1.372,2.678-1.791c2.051-0.813,4.335-0.81,6.384,0.009c2.071,0.874,3.723,2.515,4.611,4.58
			c0.429,1.052,0.646,2.177,0.637,3.313c0.011,1.103-0.175,2.198-0.55,3.234c-0.367,0.987-0.921,1.894-1.632,2.671
			c-1.595,1.807-3.897,2.829-6.307,2.8c-2.261,0.052-4.438-0.86-5.986-2.509c-1.613-1.654-2.488-3.891-2.427-6.2 M134.033,67.044
			h-7.449V50.495h1.637v14.947h5.813V67.044z M143.601,58.694c-0.05,1.885,0.659,3.709,1.968,5.066
			c1.254,1.339,3.019,2.082,4.854,2.045c1.811,0.029,3.546-0.726,4.76-2.069c1.295-1.375,1.995-3.206,1.946-5.095
			c0.015-1.824-0.716-3.576-2.024-4.849c-1.246-1.325-2.993-2.065-4.813-2.039c-0.751-0.001-1.496,0.132-2.2,0.394
			c-0.717,0.266-1.381,0.656-1.962,1.154c-0.794,0.666-1.429,1.502-1.859,2.444c-0.443,0.923-0.675,1.933-0.677,2.957
			 M141.893,58.679c-0.005-1.133,0.221-2.256,0.664-3.3c0.449-1.056,1.104-2.014,1.926-2.815c0.768-0.764,1.676-1.373,2.676-1.791
			c1.004-0.409,2.08-0.615,3.164-0.606c3.415,0.009,6.496,2.052,7.83,5.195c0.43,1.052,0.647,2.177,0.642,3.313
			c0.007,1.102-0.179,2.196-0.552,3.233c-0.367,0.987-0.922,1.894-1.633,2.671c-0.797,0.889-1.77,1.601-2.856,2.091
			c-1.087,0.478-2.264,0.72-3.451,0.71c-2.263,0.051-4.44-0.861-5.991-2.509c-1.607-1.657-2.479-3.892-2.421-6.2 M173.39,59.113
			h10.279c-0.063,2.241-0.995,4.37-2.601,5.937c-1.564,1.539-3.688,2.38-5.883,2.328c-2.265,0.054-4.445-0.857-6-2.505
			c-1.605-1.658-2.476-3.893-2.414-6.2c-0.006-1.133,0.219-2.256,0.66-3.3c0.453-1.057,1.111-2.014,1.936-2.815
			c0.771-0.779,1.694-1.395,2.711-1.809c1.053-0.402,2.172-0.604,3.3-0.591c1.524-0.022,3.024,0.382,4.33,1.167
			c1.304,0.813,2.364,1.963,3.071,3.328h-2c-0.674-0.9-1.527-1.648-2.508-2.2c-0.919-0.48-1.943-0.724-2.98-0.708
			c-1.825-0.034-3.579,0.707-4.826,2.039c-1.289,1.306-1.998,3.076-1.966,4.91c-0.056,1.887,0.653,3.716,1.966,5.072
			c1.256,1.336,3.02,2.076,4.854,2.037c1.486,0.009,2.928-0.506,4.074-1.451c1.19-0.955,2.018-2.287,2.346-3.777h-8.351
			L173.39,59.113z M194.113,67.044h-1.627v-16.55h1.627V67.044z M205.394,57.916h6.96v1.636h-6.945v5.89h6.959v1.6h-8.594V50.494
			h8.594v1.623h-6.959L205.394,57.916z M221.123,62.321h1.566c-0.016,0.894,0.293,1.762,0.869,2.445
			c0.551,0.609,1.343,0.945,2.164,0.918c0.863,0.039,1.701-0.295,2.301-0.918c0.59-0.676,0.894-1.554,0.848-2.449
			c0-1.5-1.168-2.634-3.487-3.4l-0.411-0.134c-0.999-0.286-1.903-0.835-2.619-1.588c-0.559-0.712-0.844-1.602-0.806-2.506
			c-0.041-1.204,0.406-2.373,1.241-3.241c0.836-0.848,1.99-1.305,3.181-1.259c1.104-0.056,2.181,0.362,2.959,1.149
			c0.779,0.895,1.21,2.041,1.213,3.229h-1.534c-0.028-0.767-0.313-1.502-0.808-2.087c-0.475-0.502-1.146-0.771-1.836-0.734
			c-0.749-0.024-1.476,0.265-2,0.8c-0.524,0.547-0.808,1.283-0.782,2.041c-0.031,0.783,0.338,1.529,0.98,1.981
			c0.622,0.38,1.295,0.669,2,0.858c0.563,0.184,1,0.328,1.285,0.444c0.91,0.302,1.717,0.856,2.323,1.601
			c0.505,0.754,0.755,1.65,0.712,2.557c0.064,1.412-0.404,2.797-1.311,3.882c-0.887,0.983-2.164,1.521-3.487,1.468
			c-1.247,0.043-2.45-0.467-3.286-1.393c-0.877-1.018-1.34-2.328-1.3-3.671"/>
		<path id="Path_5627" fill="#FFFFFF" d="M246.884,0c-2.831-0.001-5.128,2.293-5.129,5.125s2.294,5.128,5.125,5.129
			s5.128-2.293,5.129-5.125c0-0.001,0-0.002,0-0.004C252.008,2.295,249.714,0.001,246.884,0 M246.884,9.42
			c-2.371-0.004-4.29-1.929-4.286-4.3s1.93-4.29,4.3-4.286c2.368,0.004,4.286,1.924,4.286,4.292c0,2.371-1.921,4.293-4.292,4.294
			C246.889,9.42,246.887,9.42,246.884,9.42"/>
		<path id="Path_5628" fill="#FFFFFF" d="M245.449,2.695c0.411-0.071,0.827-0.104,1.244-0.1c0.488-0.043,0.979,0.083,1.387,0.356
			c0.262,0.231,0.405,0.568,0.391,0.918c0,0.515-0.332,0.97-0.822,1.127v0.022c0.342,0.165,0.577,0.492,0.625,0.868
			c0.1,0.426,0.223,0.846,0.366,1.259h-0.844c-0.138-0.344-0.237-0.701-0.3-1.065c-0.135-0.587-0.342-0.778-0.81-0.789h-0.411v1.854
			h-0.813L245.449,2.695z M246.263,4.687h0.483c0.552,0,0.9-0.3,0.9-0.747c0-0.488-0.34-0.723-0.877-0.723
			c-0.17-0.003-0.34,0.01-0.507,0.039V4.687z"/>
	</g>
</g>
</svg>
