<?xml version="1.0" encoding="utf-8"?>
<!-- Generator: Adobe Illustrator 15.1.0, SVG Export Plug-In . SVG Version: 6.00 Build 0)  -->
<!DOCTYPE svg PUBLIC "-//W3C//DTD SVG 1.1//EN" "http://www.w3.org/Graphics/SVG/1.1/DTD/svg11.dtd" [
	<!ENTITY ns_extend "http://ns.adobe.com/Extensibility/1.0/">
	<!ENTITY ns_ai "http://ns.adobe.com/AdobeIllustrator/10.0/">
	<!ENTITY ns_graphs "http://ns.adobe.com/Graphs/1.0/">
	<!ENTITY ns_vars "http://ns.adobe.com/Variables/1.0/">
	<!ENTITY ns_imrep "http://ns.adobe.com/ImageReplacement/1.0/">
	<!ENTITY ns_sfw "http://ns.adobe.com/SaveForWeb/1.0/">
	<!ENTITY ns_custom "http://ns.adobe.com/GenericCustomNamespace/1.0/">
	<!ENTITY ns_adobe_xpath "http://ns.adobe.com/XPath/1.0/">
]>
<svg version="1.1" id="Layer_1" xmlns:x="&ns_extend;" xmlns:i="&ns_ai;" xmlns:graph="&ns_graphs;"
	 xmlns="http://www.w3.org/2000/svg" xmlns:xlink="http://www.w3.org/1999/xlink" x="0px" y="0px" width="252px" height="67.381px"
	 viewBox="0 0 252 67.381" enable-background="new 0 0 252 67.381" xml:space="preserve">
<metadata>
	<sfw  xmlns="&ns_sfw;">
		<slices></slices>
		<sliceSourceBounds  width="489" height="64.724" x="872.25" y="360.56" bottomLeftOrigin="true"></sliceSourceBounds>
	</sfw>
</metadata>
<path fill="none" stroke="#FFFFFF" stroke-width="0.5" stroke-miterlimit="10" d="M489.5,34.269
	c0,17.736-14.379,32.112-32.113,32.112H33.112C15.377,66.381,1,52.005,1,34.269l0,0C1,16.533,15.377,2.157,33.112,2.157h424.274
	C475.121,2.157,489.5,16.533,489.5,34.269L489.5,34.269z"/>
<g id="Group_1" transform="translate(-370 -385)">
	<g id="neosoft-logo-black" transform="translate(369.992 385)">
		<path id="Path_5624" fill="#FFFFFF" d="M42.081,12.919h-5.42v24.602h6.023l-0.135-14.828l9.415,14.828h5.458V12.919h-6.024
			l0.137,14.994L42.081,12.919z M79.947,30.211c0.578-3.193-0.385-6.472-2.595-8.846C75.533,19.46,73,18.4,70.367,18.443
			c-5.438-0.004-9.849,4.399-9.853,9.837c-0.004,5.437,4.399,9.849,9.836,9.853c0.039,0,0.079,0,0.119,0
			c1.883,0.011,3.722-0.573,5.253-1.67c1.676-1.187,2.98-2.822,3.759-4.721h-5.654c-0.723,1.145-2.009,1.805-3.359,1.727
			c-2.044,0.16-3.88-1.244-4.263-3.257L79.947,30.211L79.947,30.211z M66.274,26.021c0.799-2.279,3.295-3.479,5.574-2.68
			c1.254,0.44,2.239,1.426,2.679,2.68H66.274z M82.311,28.286c0.008,5.409,4.399,9.783,9.807,9.775
			c5.408-0.009,9.784-4.399,9.776-9.809c-0.008-5.408-4.4-9.784-9.808-9.775c-5.396,0.008-9.767,4.38-9.775,9.775V28.286z
			 M87.833,28.286c0.009-2.571,2.1-4.647,4.669-4.639c2.571,0.009,4.648,2.1,4.639,4.67c-0.009,2.57-2.1,4.647-4.669,4.638
			c-2.558-0.009-4.63-2.08-4.639-4.638V28.286z"/>
		<path id="Path_5625" fill="#FFFFFF" d="M104.161,29.381C103.995,34.202,106.59,38,113.043,38c6.524,0,8.583-3.964,8.583-7.887
			c0-2.861-1.163-4.991-5.753-7.05c-4.427-1.993-5.092-2.293-5.092-3.424c0.067-1.126,1.033-1.987,2.16-1.925
			c1.931,0,2.131,1.564,2.264,2.396h6.224c-0.097-5.917-4.892-7.646-8.285-7.646c-4.127,0-8.618,2.626-8.618,7.578
			c0,4.624,4.293,6.351,6.023,7.049c3.792,1.596,4.826,1.995,4.826,3.293c-0.01,1.313-1.083,2.369-2.395,2.361
			c-0.802,0-2.564-0.501-2.564-3.359L104.161,29.381z M123.556,25.523c0.01,7.206,5.858,13.041,13.063,13.031
			c7.207-0.012,13.041-5.86,13.031-13.066c-0.012-7.206-5.859-13.039-13.065-13.029c-7.192,0.01-13.021,5.837-13.029,13.029V25.523
			L123.556,25.523z M129.846,25.161c0-3.456,2.363-7.184,6.721-7.184c4.523,0,6.684,4.09,6.684,7.281
			c0,3.159-2.159,7.214-6.619,7.214c-4.229,0-6.787-3.525-6.787-7.282L129.846,25.161z M152.932,37.526h6.29v-9.375h6.888v-5.519
			h-6.888v-4.191h7.159v-5.516h-13.449V37.526z M172.726,37.526h6.288V18.443h4.828v-5.517h-15.973v5.52h4.856V37.526z"/>
		<path id="Path_5626" fill="#FFFFFF" d="M39.027,53.563h-1.002v-9.209h-2.036v-1.002h5.087v1.002H39.04L39.027,53.563z
			 M47.172,47.933h4.288v1.01h-4.288v3.636h4.288v0.985h-5.298V43.354h5.298v1h-4.288V47.933z M65.563,45.996
			c-0.396-0.581-0.922-1.062-1.537-1.402c-0.596-0.311-1.261-0.467-1.933-0.452c-1.107-0.014-2.167,0.445-2.917,1.262
			c-0.789,0.8-1.223,1.883-1.207,3.006c-0.028,1.156,0.404,2.279,1.203,3.119c0.748,0.82,1.812,1.281,2.922,1.27
			c0.664,0.01,1.32-0.145,1.913-0.439c0.594-0.316,1.104-0.771,1.487-1.321h1.191c-0.43,0.831-1.081,1.528-1.879,2.016
			c-0.797,0.481-1.713,0.729-2.644,0.716c-1.412,0.037-2.775-0.521-3.754-1.541c-1.003-1.021-1.547-2.4-1.506-3.832
			c-0.003-0.698,0.135-1.393,0.407-2.035c0.279-0.652,0.684-1.243,1.191-1.737c0.467-0.474,1.024-0.847,1.636-1.101
			c0.625-0.256,1.295-0.387,1.97-0.381c0.965-0.015,1.916,0.24,2.742,0.74c0.823,0.512,1.489,1.239,1.925,2.104L65.563,45.996z
			 M73.285,53.563h-1.014V43.354h1.013v4.578h4.85v-4.578h1.004v10.211h-1.004v-4.658h-4.85L73.285,53.563z M91.881,52.347
			l-0.123-8.992h1v10.211h-1.209l-5.602-9.006l0.113,9.006h-0.987V43.354h1.206L91.881,52.347z M99.265,48.413
			c-0.032,1.16,0.402,2.287,1.206,3.125c0.774,0.827,1.862,1.286,2.995,1.263c1.12,0.019,2.193-0.446,2.944-1.276
			c0.797-0.85,1.226-1.979,1.195-3.145c0.013-1.125-0.432-2.207-1.234-2.996c-0.771-0.818-1.85-1.275-2.974-1.26
			c-0.463,0-0.923,0.082-1.357,0.244c-0.442,0.165-0.852,0.406-1.212,0.713c-0.488,0.413-0.879,0.927-1.145,1.508
			c-0.271,0.57-0.414,1.193-0.416,1.824 M98.214,48.399c-0.003-0.7,0.136-1.396,0.41-2.037c0.276-0.652,0.68-1.244,1.188-1.737
			c0.475-0.472,1.036-0.847,1.652-1.106c1.266-0.5,2.675-0.498,3.94,0.006c1.277,0.541,2.296,1.554,2.844,2.828
			c0.265,0.648,0.399,1.345,0.393,2.043c0.007,0.683-0.108,1.356-0.339,1.996c-0.226,0.608-0.569,1.168-1.007,1.647
			c-0.984,1.116-2.404,1.747-3.892,1.728c-1.396,0.033-2.738-0.529-3.693-1.548c-0.996-1.021-1.535-2.401-1.498-3.825
			 M118.689,53.56h-4.597V43.349h1.01v9.225h3.587V53.56L118.689,53.56z M124.592,48.407c-0.031,1.162,0.407,2.289,1.215,3.127
			c0.773,0.824,1.863,1.283,2.996,1.262c1.117,0.018,2.188-0.449,2.938-1.277c0.8-0.849,1.229-1.978,1.199-3.143
			c0.01-1.127-0.439-2.208-1.248-2.993c-0.77-0.817-1.848-1.274-2.971-1.259c-0.463,0-0.922,0.082-1.357,0.244
			c-0.439,0.164-0.852,0.404-1.209,0.712c-0.489,0.41-0.881,0.926-1.146,1.508c-0.274,0.569-0.416,1.192-0.418,1.825
			 M123.539,48.397c-0.004-0.698,0.136-1.395,0.409-2.037c0.277-0.65,0.68-1.241,1.188-1.735c0.474-0.472,1.034-0.849,1.651-1.106
			c0.619-0.25,1.283-0.377,1.951-0.371c2.107,0.004,4.01,1.266,4.834,3.205c0.265,0.648,0.396,1.345,0.396,2.043
			c0.005,0.682-0.11,1.355-0.341,1.996c-0.227,0.608-0.569,1.168-1.008,1.646c-0.49,0.55-1.092,0.988-1.762,1.291
			c-0.673,0.295-1.398,0.443-2.131,0.438c-1.396,0.032-2.74-0.531-3.698-1.548c-0.991-1.021-1.53-2.401-1.494-3.825 M142.974,48.665
			h6.343c-0.039,1.384-0.613,2.697-1.604,3.664c-0.965,0.949-2.273,1.47-3.63,1.438c-1.397,0.033-2.742-0.529-3.702-1.545
			c-0.99-1.022-1.525-2.404-1.489-3.826c-0.004-0.698,0.136-1.393,0.407-2.037c0.277-0.65,0.688-1.241,1.191-1.736
			c0.479-0.479,1.048-0.857,1.677-1.115c0.647-0.248,1.339-0.373,2.034-0.363c0.94-0.016,1.865,0.234,2.673,0.722
			c0.804,0.501,1.459,1.211,1.895,2.053h-1.231c-0.416-0.556-0.942-1.017-1.547-1.356c-0.568-0.297-1.199-0.446-1.84-0.438
			c-1.127-0.021-2.209,0.438-2.979,1.259c-0.796,0.808-1.231,1.896-1.213,3.029c-0.034,1.164,0.401,2.294,1.213,3.129
			c0.774,0.826,1.86,1.281,2.994,1.258c0.918,0.005,1.808-0.313,2.514-0.896c0.735-0.588,1.246-1.41,1.447-2.33h-5.152V48.665z
			 M155.761,53.56h-1.003V43.349h1.003V53.56z M162.721,47.927h4.295v1.01h-4.285v3.637h4.295v0.984h-5.304V43.349h5.304v1.002
			h-4.295L162.721,47.927z M172.428,50.646h0.967c-0.011,0.554,0.182,1.088,0.535,1.511c0.342,0.375,0.829,0.581,1.335,0.565
			c0.532,0.023,1.05-0.183,1.421-0.565c0.363-0.419,0.551-0.959,0.522-1.513c0-0.926-0.722-1.625-2.152-2.099l-0.253-0.082
			c-0.615-0.177-1.174-0.516-1.615-0.979c-0.346-0.438-0.521-0.988-0.498-1.547c-0.024-0.742,0.252-1.465,0.768-2
			c0.516-0.521,1.229-0.805,1.963-0.776c0.682-0.034,1.346,0.225,1.826,0.711c0.479,0.551,0.744,1.258,0.748,1.991h-0.946
			c-0.019-0.475-0.19-0.928-0.499-1.287c-0.293-0.313-0.707-0.477-1.133-0.453c-0.463-0.016-0.91,0.163-1.234,0.493
			c-0.32,0.337-0.497,0.792-0.48,1.26c-0.021,0.483,0.209,0.942,0.604,1.224c0.385,0.233,0.801,0.412,1.233,0.528
			c0.348,0.114,0.616,0.202,0.793,0.272c0.562,0.188,1.059,0.527,1.434,0.987c0.313,0.466,0.468,1.02,0.439,1.578
			c0.038,0.871-0.249,1.726-0.81,2.396c-0.549,0.606-1.337,0.938-2.152,0.906c-0.77,0.026-1.512-0.289-2.025-0.857
			c-0.542-0.631-0.828-1.438-0.804-2.268"/>
		<path id="Path_5627" fill="#FFFFFF" d="M188.322,12.19c-1.746-0.001-3.164,1.415-3.164,3.162
			c-0.002,1.748,1.414,3.165,3.162,3.165c1.746,0,3.164-1.415,3.164-3.162c0,0,0-0.001,0-0.003
			C191.485,13.606,190.07,12.191,188.322,12.19 M188.322,18.003c-1.463-0.002-2.646-1.19-2.646-2.653
			c0.002-1.463,1.189-2.647,2.654-2.644c1.461,0.002,2.645,1.187,2.645,2.647c0,1.463-1.186,2.649-2.646,2.65
			C188.326,18.003,188.324,18.003,188.322,18.003"/>
		<path id="Path_5628" fill="#FFFFFF" d="M187.438,13.854c0.254-0.044,0.512-0.064,0.771-0.062c0.3-0.027,0.604,0.051,0.854,0.22
			c0.161,0.143,0.252,0.351,0.241,0.566c0,0.317-0.205,0.599-0.509,0.696v0.013c0.212,0.103,0.355,0.303,0.387,0.536
			c0.063,0.263,0.139,0.521,0.227,0.777h-0.521c-0.086-0.212-0.146-0.433-0.188-0.657c-0.082-0.362-0.209-0.48-0.498-0.487h-0.254
			V16.6h-0.502L187.438,13.854z M187.94,15.083h0.301c0.34,0,0.555-0.185,0.555-0.461c0-0.301-0.21-0.446-0.541-0.446
			c-0.104-0.001-0.21,0.006-0.313,0.024v0.883H187.94z"/>
	</g>
</g>
</svg>
