<svg xmlns="http://www.w3.org/2000/svg" width="38.49" height="38.49" viewBox="0 0 38.49 38.49">
  <g id="Group_11" data-name="Group 11" transform="translate(772 312.001)">
    <path id="Path_47" data-name="Path 47" d="M-733.944-214.418a.435.435,0,0,0,.435-.435v-.435h-1.636v-32.28a.435.435,0,0,0-.434-.435h-13.086a.435.435,0,0,0-.435.435v32.28h-7.31v-22.465a.435.435,0,0,0-.434-.435H-769.93a.435.435,0,0,0-.434.435v22.465H-772v.435a.435.435,0,0,0,.435.434h37.621Zm-7.8-.869h-3.22v-3.22h3.22Zm-6.492-7.31h8.179v-.869h-8.179v-3.22h8.179v-.869h-8.179v-3.22h8.179v-.869h-8.179v-3.22h8.179v-.869h-8.179v-3.22h8.179v-.869h-8.179v-3.22h8.179v-.869h-8.179v-3.22h12.217v31.845h-4.856v-3.655a.435.435,0,0,0-.435-.435h-4.089a.435.435,0,0,0-.435.435v3.655h-2.4Zm-12.319,7.31h-5.674v-2.4h5.674Zm3.271,0h-2.4v-2.837a.432.432,0,0,0-.127-.307.431.431,0,0,0-.307-.127h-6.543a.435.435,0,0,0-.435.435v2.837h-2.4v-22.031h12.217Z" transform="translate(0 -59.093)" fill="#8d8d8d"/>
    <path id="Path_48" data-name="Path 48" d="M-642.383-309.5v-2.07a.435.435,0,0,0-.435-.434H-664.9a.435.435,0,0,0-.435.435v11.884h.869v-11.45h21.213v1.636Z" transform="translate(-98.488)" fill="#8d8d8d"/>
    <rect id="Rectangle_3" data-name="Rectangle 3" width="0.869" height="13.955" transform="translate(-767.093 -294.008)" fill="#8d8d8d"/>
    <rect id="Rectangle_4" data-name="Rectangle 4" width="0.869" height="13.955" transform="translate(-763.821 -294.008)" fill="#8d8d8d"/>
    <rect id="Rectangle_5" data-name="Rectangle 5" width="0.869" height="13.955" transform="translate(-760.55 -294.008)" fill="#8d8d8d"/>
    <rect id="Rectangle_6" data-name="Rectangle 6" width="0.869" height="1.687" transform="translate(-759.732 -307.912)" fill="#8d8d8d"/>
    <rect id="Rectangle_7" data-name="Rectangle 7" width="0.869" height="1.687" transform="translate(-759.732 -303.005)" fill="#8d8d8d"/>
    <rect id="Rectangle_8" data-name="Rectangle 8" width="0.869" height="1.687" transform="translate(-756.461 -303.005)" fill="#8d8d8d"/>
    <rect id="Rectangle_9" data-name="Rectangle 9" width="0.869" height="1.687" transform="translate(-756.461 -307.912)" fill="#8d8d8d"/>
    <rect id="Rectangle_10" data-name="Rectangle 10" width="0.869" height="1.687" transform="translate(-753.189 -307.912)" fill="#8d8d8d"/>
    <rect id="Rectangle_11" data-name="Rectangle 11" width="0.869" height="1.687" transform="translate(-753.189 -303.005)" fill="#8d8d8d"/>
    <rect id="Rectangle_12" data-name="Rectangle 12" width="0.869" height="1.687" transform="translate(-753.189 -298.098)" fill="#8d8d8d"/>
    <rect id="Rectangle_13" data-name="Rectangle 13" width="0.869" height="1.687" transform="translate(-753.189 -293.19)" fill="#8d8d8d"/>
    <rect id="Rectangle_14" data-name="Rectangle 14" width="0.869" height="1.687" transform="translate(-753.189 -288.283)" fill="#8d8d8d"/>
    <rect id="Rectangle_15" data-name="Rectangle 15" width="0.869" height="1.687" transform="translate(-753.189 -283.376)" fill="#8d8d8d"/>
  </g>
</svg>
