<svg xmlns="http://www.w3.org/2000/svg" width="56.166" height="56.166" viewBox="0 0 56.166 56.166">
  <g id="_11.Optimization" data-name="11.Optimization" transform="translate(-1008.234 -486.034)">
    <path id="Path_240" data-name="Path 240" d="M1008.6,542.2h55.3a.472.472,0,0,0,.5-.5.367.367,0,0,0-.1-.3l-11-15.5V508.1h3.2a.472.472,0,0,0,.5-.5.367.367,0,0,0-.1-.3l-8.3-12a.616.616,0,0,0-.7-.1l-.1.1-2.4,3.5h0l-4.1,6-.3-.8a4.977,4.977,0,0,0-6.5-2.9,4.953,4.953,0,0,0-3,3l-.3.8-4.1-6h0l-2.4-3.5a.616.616,0,0,0-.7-.1l-.1.1-8.3,12c-.1.2-.1.5.1.6a.367.367,0,0,0,.3.1h3.3V526l-11,15.5c-.1.2-.1.5.1.6C1008.4,542.2,1008.5,542.2,1008.6,542.2Zm32.1-34h2.4v4.2l-.7-.6a4.376,4.376,0,0,0-2.5-.8h-2.2l1.3-.8a5.235,5.235,0,0,0,1.6-1.7Zm-.4,8.2v19.3h-3.7V524.6h-.9v11.1H1032V516.4h-.9v7.4h-1.8V515a3.159,3.159,0,0,1,3.2-3.2h7.4a3.159,3.159,0,0,1,3.2,3.2v8.8h-1.8v-7.4Zm-4.1-14.7a4.118,4.118,0,0,1,4.1,4.1,4.185,4.185,0,0,1-4.1,4.1,4.1,4.1,0,0,1,0-8.2Zm-4.4,6.7a4.364,4.364,0,0,0,1.6,1.7l1.3.8h-2.2a4.376,4.376,0,0,0-2.5.8l-.7.6v-4.2h2.4Zm-11.8,18a.367.367,0,0,0,.1-.3V507.7a.472.472,0,0,0-.5-.5h-2.8l7.4-10.7,7.4,10.7h-2.8a.472.472,0,0,0-.5.5v16.6a.472.472,0,0,0,.5.5h2.3v11.5a.472.472,0,0,0,.5.5h9.2a.472.472,0,0,0,.5-.5V524.8h2.3a.472.472,0,0,0,.5-.5v-9.9h0v-6.7a.472.472,0,0,0-.5-.5h-2.8l7.4-10.7,7.4,10.7h-2.8a.472.472,0,0,0-.5.5v18.4a.367.367,0,0,0,.1.3l10.5,14.9h-14.4l-4.4-14.9-.9.3,4.3,14.6h-22.7l4.3-14.6-.9-.3-4.4,14.9h-14.4Z" fill="#9c9ca0"/>
    <path id="Path_241" data-name="Path 241" d="M1044.9,498.3a.1.1,0,0,0-.1-.1l-8.3-12a.616.616,0,0,0-.7-.1l-.1.1-8.3,12a.1.1,0,0,1-.1.1l-.2.6h3.9v1.8h.9v-2.3a.472.472,0,0,0-.5-.5h-2.8l7.4-10.7,7.4,10.7h-2.8a.472.472,0,0,0-.5.5v2.3h.9v-1.8h3.9Z" fill="#9c9ca0"/>
  </g>
</svg>
