<svg xmlns="http://www.w3.org/2000/svg" width="71.387" height="68.674" viewBox="0 0 71.387 68.674">
  <g id="Group_93" data-name="Group 93" transform="translate(-113.336 -5322.299)">
    <rect id="Rectangle_68" data-name="Rectangle 68" width="54.544" height="1.389" transform="translate(118.388 5331.963)" fill="#de0022"/>
    <rect id="Rectangle_69" data-name="Rectangle 69" width="4.539" height="1.389" transform="translate(118.388 5327.277)" fill="#de0022"/>
    <rect id="Rectangle_70" data-name="Rectangle 70" width="3.148" height="1.389" transform="translate(124.245 5327.277)" fill="#de0022"/>
    <rect id="Rectangle_71" data-name="Rectangle 71" width="4.539" height="1.904" transform="translate(168.027 5383.945)" fill="#de0022"/>
    <g id="Group_88" data-name="Group 88">
      <path id="Path_61" data-name="Path 61" d="M115.606,5381.749a.97.97,0,0,1-.952-.952v-56.228a.969.969,0,0,1,.952-.952h59.6a.969.969,0,0,1,.952.952v15.741h1.318v-15.741a2.281,2.281,0,0,0-2.27-2.27h-59.6a2.281,2.281,0,0,0-2.27,2.27v56.155a2.281,2.281,0,0,0,2.27,2.269h36.973v-1.318H115.606Z" fill="#de0022"/>
    </g>
    <g id="Group_90" data-name="Group 90">
      <g id="Group_89" data-name="Group 89">
        <path id="Path_62" data-name="Path 62" d="M173.884,5361.249l-7.541-7.615a.622.622,0,0,0-.879.879l7.175,7.1-7.175,7.1a.671.671,0,0,0,0,.879.549.549,0,0,0,.879,0l7.614-7.614a.632.632,0,0,0,.22-.439C174.1,5361.542,174.03,5361.322,173.884,5361.249Z" fill="#de0022"/>
      </g>
    </g>
    <g id="Group_92" data-name="Group 92">
      <g id="Group_91" data-name="Group 91">
        <path id="Path_63" data-name="Path 63" d="M135.813,5362.127l7.614,7.614a.621.621,0,0,0,.879-.878l-7.175-7.1,7.175-7.1a.669.669,0,0,0,0-.878.549.549,0,0,0-.879,0l-7.614,7.468a.63.63,0,0,0-.22.439Z" fill="#de0022"/>
      </g>
    </g>
    <path id="Path_64" data-name="Path 64" d="M181.571,5342.872H158.216a3.125,3.125,0,0,0-3.148,3.148v10.689h1.318V5346.02a1.812,1.812,0,0,1,1.83-1.83h23.355a1.813,1.813,0,0,1,1.831,1.83V5387.9a1.814,1.814,0,0,1-1.831,1.831H158.216a1.813,1.813,0,0,1-1.83-1.831v-22.11h-1.318v22.037a3.125,3.125,0,0,0,3.148,3.148h23.355a3.125,3.125,0,0,0,3.149-3.148V5346.02A3.08,3.08,0,0,0,181.571,5342.872Z" fill="#de0022"/>
    <path id="Path_65" data-name="Path 65" d="M156.313,5361.029H136.838v1.245h35.875v-1.245Z" fill="#de0022"/>
  </g>
</svg>
