<?xml version="1.0" encoding="utf-8"?>
<!-- Generator: Adobe Illustrator 25.4.1, SVG Export Plug-In . SVG Version: 6.00 Build 0)  -->
<svg version="1.1" id="Layer_1" xmlns="http://www.w3.org/2000/svg" xmlns:xlink="http://www.w3.org/1999/xlink" x="0px" y="0px"
	 viewBox="0 0 297.44 269.23" style="enable-background:new 0 0 297.44 269.23;" xml:space="preserve">
<style type="text/css">
	.st0{fill:#E01F26;}
</style>
<g>
	<path class="st0" d="M98.91,173.82c-0.01,0-0.01,0-0.02,0c-2.85,0-5.7,1.23-7.82,3.37c-2.12,2.13-3.32,4.99-3.3,7.83
		c0.02,3.06,1.24,5.93,3.44,8.08c2.11,2.06,4.87,3.18,7.77,3.18c0.08,0,0.16,0,0.24,0c6.03-0.13,10.89-5.23,10.85-11.38
		C110.03,178.88,104.92,173.82,98.91,173.82z M99.12,191.27c-1.64,0.04-3.21-0.59-4.42-1.76c-1.24-1.2-1.92-2.81-1.93-4.52
		c-0.01-1.53,0.67-3.08,1.85-4.28c1.19-1.2,2.75-1.89,4.28-1.89c0,0,0.01,0,0.01,0c3.26,0,6.14,2.85,6.16,6.11
		C105.09,188.29,102.37,191.2,99.12,191.27z"/>
	<path class="st0" d="M292.4,148.94c-1.42-12.78-6.64-24.26-15.5-34.13c-6.92-7.71-15.51-13.44-25.53-17.04
		c-0.11-0.04-0.19-0.08-0.25-0.1c-0.29-2.77-0.64-5.53-1.04-8.26c-1.92-13.27-6.46-26.81-10.84-39.91
		c-0.67-2.02-1.34-4.01-1.99-5.98c-0.1-0.31-0.22-0.59-0.35-0.84c0-0.01-0.01-0.02-0.01-0.04c-0.17-0.54-0.39-1-0.65-1.53
		c-0.12-0.26-0.27-0.55-0.43-0.91l-1.85-4.08l-2.5,3.72c-0.27,0.41-0.52,0.77-0.74,1.09c-0.47,0.68-0.85,1.24-1.2,1.82
		c-2.21,3.66-4.42,7.34-6.61,11.01c-0.59-0.57-1.2-1.09-1.79-1.61c-0.27-0.24-0.54-0.48-0.81-0.72
		c-7.28-6.51-14.57-11.5-22.27-15.26c-19.17-9.37-39.47-12.33-60.33-8.81c-13.3,2.25-25.76,7.14-37.06,14.55
		c-11.09,7.27-20.66,16.79-28.45,28.3c-0.66,0.97-1.88,2.77-1.03,4.63c0.85,1.86,3.02,2.11,4.18,2.24c3.58,0.41,7.07,1.13,10.5,2.17
		c-7.37-1.2-15.05-1.21-22.95-0.02c-6.02,0.91-11.75,2.56-17.02,4.92c-17.25,7.72-29.59,20.35-36.67,37.54
		c-7.02,17.05-7.15,34.65-0.38,52.3c3.71,9.67,9.69,18.36,17.76,25.84c9.47,8.76,20.85,14.56,33.83,17.23
		c6.71,1.38,13.46,1.33,20,1.28c2.62-0.02,5.32-0.04,7.95,0.03c1.64,0.05,3.28,0.06,4.93,0.06c2.83,0,5.66-0.05,8.42-0.1
		c2.15-0.04,4.31-0.08,6.46-0.1c1.58-0.01,3.15,0.01,4.73,0.03l1.62,0.02c0.94,0.01,1.87,0.03,2.81,0.04
		c1.86,0.03,3.72,0.07,5.58,0.06c2.1-0.01,4.2-0.04,6.3-0.07c2.58-0.04,5.15-0.07,7.73-0.07c2.27,0,4.54,0.04,6.8,0.08
		c2.41,0.04,4.81,0.06,7.24,0.08c2.46,0,4.93-0.04,7.39-0.09c2.22-0.04,4.44-0.08,6.66-0.09c1.33,0.01,2.71,0.04,4.04,0.09
		c1.31,0.05,2.62,0.09,3.94,0.09c1.62,0,3.19-0.04,4.74-0.08c1.16-0.03,2.31-0.06,3.47-0.08c2.46-0.03,4.98-0.01,7.42,0.01
		c1.68,0.01,3.35,0.04,5.03,0.06c3.01,0.04,6.02,0.08,9.03,0.08c2.59,0,5.18-0.04,7.77-0.09c2.09-0.03,4.19-0.07,6.29-0.08
		c2.09-0.02,4.18,0,6.27,0.01c3.73,0.02,7.58,0.04,11.39-0.08c10.84-0.36,21.22-3.8,30.87-10.24c9-6,16.06-13.96,20.96-23.65
		C291.74,173.43,293.81,161.54,292.4,148.94z M224.95,59.47c3.65-3.8,6.26-7.66,8.44-11.36c4.22,13.41,8.73,28.91,11.75,45.03
		l0.2,1.04c0.25,1.28,0.48,2.49,0.62,3.7c0.05,0.48,0.15,0.92,0.29,1.33c0.53,5.18,0.87,10.42,1.03,15.65
		c0.29,9.49-0.96,18.55-3.71,26.94c-6.01,18.29-17.06,29.91-33.78,35.52c-7.42,2.49-15.18,3.97-23.08,4.4
		c-8.36,0.45-15.84,0.66-22.84,0.64c-5.5-0.02-11.11-0.15-16.54-0.29c-4.47-0.11-9.07-0.22-13.64-0.27
		c5.17-1.71,10.44-3.41,15.67-4.93c16.38-4.75,30.82-12.47,42.91-22.97c12.27-10.64,21.41-21.92,27.94-34.48
		c1.57-3.01,2.95-6.14,4.29-9.16c0.61-1.38,1.23-2.77,1.86-4.14l0.9-1.97l-4.33-2.79l-1.42,1.68c-0.08,0.1-0.18,0.2-0.27,0.3
		c-0.33,0.35-0.73,0.78-1.06,1.37c-5.26,9.45-11.96,18-19.9,25.41c-14.48,13.51-29.54,22.57-46.03,27.71
		c-8.48,2.64-17.28,4.89-25.79,7.06c-2.03,0.52-4.07,1.04-6.1,1.56c-4.7,1.22-9.58,2.15-14.3,3.05c-0.49,0.09-1.21,0-1.64-0.21
		c-6.83-3.32-11.18-9.13-13.31-17.77c-3.63-14.75-0.43-28.41,9.53-40.6c8.05-9.86,19.02-15.97,32.6-18.16
		c6.12-0.99,12.5-1.42,18.67-1.83c1.44-0.1,2.88-0.19,4.32-0.29c9.52-0.68,18.83-1.54,27.98-4.57
		C199.4,81.71,211.71,73.25,224.95,59.47z M281.79,182.03c-4.51,8.91-10.99,16.23-19.27,21.75c-8.86,5.91-18.37,9.07-28.27,9.4
		c-3.71,0.12-7.52,0.1-11.2,0.08c-2.11-0.01-4.22-0.02-6.33-0.01c-2.11,0.01-4.22,0.05-6.33,0.08c-2.56,0.04-5.13,0.08-7.69,0.08
		c-2.99-0.01-5.97-0.04-8.96-0.07c-1.68-0.02-3.37-0.04-5.05-0.06c-2.46-0.02-5-0.04-7.52-0.01c-1.18,0.01-2.37,0.05-3.55,0.08
		c-1.51,0.04-3.08,0.08-4.59,0.08c-1.26,0-2.51-0.05-3.77-0.09c-1.38-0.05-2.81-0.09-4.24-0.09c-2.24,0.01-4.48,0.05-6.73,0.09
		c-2.43,0.04-4.87,0.09-7.3,0.09c-0.04,0-0.08,0-0.13,0c-2.34,0-4.68-0.04-7.02-0.08c-2.29-0.04-4.59-0.08-6.88-0.08
		c-2.61,0-5.2,0.03-7.8,0.07c-2.08,0.03-4.17,0.06-6.25,0.07c-1.83,0.01-3.65-0.02-5.47-0.06c-0.95-0.02-1.89-0.03-2.84-0.04
		l-1.61-0.02c-1.61-0.02-3.22-0.04-4.83-0.03c-2.17,0.02-4.35,0.06-6.52,0.1c-4.31,0.08-8.77,0.16-13.11,0.04
		c-1.45-0.04-2.91-0.05-4.36-0.05c-1.27,0-2.53,0.01-3.78,0.02c-6.56,0.05-12.77,0.1-18.95-1.17c-12.07-2.49-22.65-7.87-31.44-16
		c-7.51-6.95-13.06-15.01-16.49-23.96c-6.3-16.42-6.18-32.78,0.34-48.61c6.58-15.97,18.05-27.7,34.09-34.88
		c4.86-2.17,10.15-3.7,15.72-4.54c13.09-1.98,24.97-0.54,36.32,4.38c1.53,0.66,3.01,1.45,4.57,2.29c0.81,0.43,1.62,0.87,2.44,1.28
		c0.46,0.24,0.94,0.45,1.42,0.66l2.25,1.01l3.64-4.14l-2.87-2.23c-0.57-0.45-1.14-0.9-1.73-1.33C99.25,78.28,88.5,73.74,76.87,72.23
		c7.32-10.6,16.24-19.39,26.52-26.14c10.71-7.02,22.54-11.67,35.15-13.8c19.8-3.35,39.08-0.53,57.3,8.37
		c7.29,3.56,14.2,8.3,21.13,14.5c0.28,0.25,0.57,0.5,0.85,0.75c0.67,0.59,1.32,1.15,1.91,1.74c-12.04,12.2-23.23,19.74-35.08,23.66
		c-8.61,2.85-17.57,3.67-26.77,4.33c-1.43,0.1-2.86,0.2-4.3,0.29c-6.28,0.42-12.78,0.85-19.14,1.88
		c-14.83,2.4-26.83,9.1-35.68,19.94c-11.01,13.47-14.54,28.6-10.51,44.96c2.47,10.03,7.85,17.12,15.98,21.07
		c1.4,0.68,3.22,0.92,4.77,0.62c4.8-0.92,9.76-1.87,14.62-3.12c2.03-0.52,4.06-1.04,6.08-1.56c8.57-2.19,17.43-4.45,26.03-7.13
		c17.23-5.36,32.91-14.79,47.96-28.82c1.66-1.55,3.26-3.14,4.82-4.78c-5.28,7.42-11.74,14.41-19.51,21.15
		c-11.71,10.16-25.13,17.34-41.03,21.94c-6.84,1.98-13.7,4.27-20.33,6.47c-2.7,0.9-5.39,1.8-8.1,2.68
		c-0.73,0.24-1.36,0.56-1.92,0.85c-0.21,0.11-0.42,0.22-0.63,0.32l-1.98,0.94l1.39,4.31h1.82c0.25,0,0.5,0,0.76,0.01
		c0.63,0.01,1.28,0.03,1.97-0.03c1.29-0.09,2.57-0.22,3.86-0.35c2.53-0.25,4.92-0.51,7.3-0.48c5.03,0.03,10.15,0.16,15.1,0.28
		c5.45,0.13,11.09,0.27,16.64,0.29c7.1,0.02,14.67-0.19,23.13-0.65c8.35-0.45,16.55-2.02,24.4-4.65
		c18.07-6.06,30.5-19.08,36.94-38.7c2.94-8.94,4.27-18.58,3.96-28.65c-0.12-3.83-0.33-7.67-0.64-11.49
		c8.4,3.34,15.64,8.35,21.54,14.93c8.15,9.08,12.94,19.62,14.25,31.34C288.73,161.11,286.83,172.06,281.79,182.03z"/>
</g>
</svg>
