<?xml version="1.0" encoding="utf-8"?>
<!-- Generator: Adobe Illustrator 25.4.1, SVG Export Plug-In . SVG Version: 6.00 Build 0)  -->
<svg version="1.1" id="Layer_1" xmlns="http://www.w3.org/2000/svg" xmlns:xlink="http://www.w3.org/1999/xlink" x="0px" y="0px"
	 viewBox="0 0 297.44 269.23" style="enable-background:new 0 0 297.44 269.23;" xml:space="preserve">
<style type="text/css">
	.st0{fill:#E01F26;}
</style>
<g>
	<path class="st0" d="M261.97,157.52l-14.27-8.25c-2.02-1.33-3.18-3.38-3.18-5.6c0.24-5.26,0.08-10.49-0.47-15.56
		c-0.27-2.15,0.59-4.29,2.29-5.71l14.44-9.8c4.55-3.09,6.19-9,3.9-14.05l-9.16-20.06c-1.81-4.02-5.85-6.61-10.31-6.61
		c-1.03,0-1.95,0.13-2.97,0.41l-15.84,4.46c-2.17,0.61-4.58-0.06-6.27-1.75c-3.77-4.1-7.53-7.66-11.21-10.59
		c-2-1.42-2.92-4.11-2.21-6.61l3.03-16.22c1.06-5.47-1.97-10.85-7.21-12.79l-20.83-7.77c-1.27-0.46-2.61-0.7-3.99-0.7
		c-4.03,0-7.8,2.19-9.86,5.7l-8.24,14.18c-1.37,2.07-3.34,3.17-5.67,3.17c-5.5-0.32-10.91-0.16-16.08,0.46
		c-2.2,0.29-4.44-0.6-5.84-2.27l-9.72-14.28c-2.12-3.12-5.62-4.98-9.37-4.98c-1.62,0-3.21,0.34-4.74,1.01l-20.01,9.14
		c-5.05,2.29-7.66,7.85-6.2,13.21l4.31,16.23c0.65,2.29-0.17,4.81-2.13,6.44c-3.92,3.86-7.17,7.47-9.91,11.04
		c-1.52,1.83-3.83,2.77-6.01,2.45l-16.71-3.27c-5.33-0.88-10.54,1.94-12.65,6.84l-0.28,0.61l-7.57,20.34
		c-1.94,5.22,0.16,11.04,4.99,13.84l14.43,8.33c2.02,1.34,3.18,3.39,3.18,5.6c-0.25,5.45-0.07,10.69,0.54,15.56
		c0.3,2.42-0.75,4.81-2.7,6.11l-13.94,9.4c-4.55,3.09-6.19,9-3.9,14.04l9.16,20.06c1.81,4.02,5.85,6.62,10.3,6.62
		c1.02,0,1.91-0.12,2.81-0.39l16.33-4.34c0.48-0.14,1.02-0.21,1.57-0.21c1.86,0,3.63,0.84,4.86,2.33
		c2.97,3.31,6.61,6.68,11.14,10.32c1.77,1.47,2.68,3.75,2.37,5.92l-3.18,16.68c-1.06,5.46,1.97,10.83,7.2,12.77l20.84,7.77
		c1.27,0.46,2.61,0.7,3.98,0.7c4.03,0,7.8-2.19,9.86-5.71l8.32-14.41c1.33-2.02,3.41-3.18,5.68-3.18c4.56,0.22,9.42,0.06,14.87-0.47
		c2.32-0.3,4.66,0.75,5.97,2.71l9.49,14.02c2.12,3.11,5.61,4.97,9.36,4.97c1.62,0,3.21-0.34,4.74-1.01l20.01-9.14
		c5.05-2.29,7.66-7.85,6.2-13.21l-4.3-15.97c-0.61-2.13,0.07-4.52,1.77-6.21c3.97-3.58,7.52-7.36,10.54-11.23
		c1.66-2,4.12-2.9,6.45-2.34l16.45,3.09c0.65,0.11,1.38,0.16,2.1,0.16c4.73,0,9.02-2.96,10.67-7.38l7.77-20.82v0
		C268.9,166.13,266.8,160.31,261.97,157.52z M247.6,194l-16.64-3.13c-0.78-0.13-1.58-0.25-2.18-0.25c-3.65,0-7.08,1.68-9.41,4.6
		c-2.8,3.56-6.12,7.09-9.86,10.47c-3.39,3.1-4.77,7.7-3.58,12l4.31,16c0.88,2.6-0.59,5.59-3.29,6.67l-19.87,9.08
		c-0.88,0.44-1.75,0.5-2.33,0.5c-2.05,0-3.8-0.98-4.84-2.7l-9.35-13.81c-2.57-3.74-6.93-5.71-11.36-5.17
		c-4.72,0.55-9.37,0.7-13.81,0.44c-4.49-0.17-8.7,2.14-10.98,6.05l-8.35,14.46c-0.85,1.74-2.78,2.86-4.91,2.86
		c-0.56,0-1.13-0.08-1.66-0.23l-21.24-7.9c-2.56-0.85-4.13-3.67-3.59-6.42l3.14-16.41c0.83-4.4-0.88-8.9-4.46-11.77
		c-3.67-2.84-7.12-6.06-10.54-9.85c-2.25-2.49-5.51-3.91-8.94-3.91c-1.1,0-2.1,0.13-2.97,0.39l-16.29,4.33
		c-2.56,0.53-4.99-0.39-6.32-2.38l-0.23-0.38l-9.32-20.36c-1.01-2.49-0.27-5.4,1.75-6.91l14.07-9.56c3.68-2.49,5.71-6.96,5.18-11.37
		c-0.52-4.73-0.7-9.56-0.52-14.36c0.18-4.6-2.09-8.81-5.91-10.98l-14.52-8.38c-2.29-1.13-3.39-3.92-2.63-6.58l8.05-21.45
		c1.19-2.06,3.17-3.28,5.25-3.28l0.66,0.04l16.78,3.18c0.76,0.12,1.55,0.25,2.27,0.25c0,0,0,0,0.01,0c3.71-0.19,7.16-1.95,9.47-4.85
		c3.02-3.91,6.36-7.48,9.91-10.6c3.3-3.01,4.65-7.58,3.52-11.93l-4.3-16.2c-0.88-2.59,0.6-5.58,3.31-6.66l19.86-9.08
		c0.87-0.44,1.75-0.5,2.33-0.5c2.04,0,3.8,0.97,4.84,2.69l9.27,13.65c2.53,3.74,6.93,5.72,11.46,5.18
		c5.06-0.63,10.06-0.78,14.85-0.43c4.52,0.28,8.86-2.04,11.06-5.92l8.21-14.26c1.15-2.33,3.86-3.41,6.58-2.64l21.23,7.9
		c2.52,0.83,4.13,3.72,3.58,6.43l-3.13,16.64c-0.83,4.35,0.85,8.84,4.4,11.73c3.54,2.77,7.02,6.05,10.35,9.74
		c2.34,2.58,5.51,4,8.93,4c1.18,0,2.23-0.13,3.22-0.41l15.75-4.37c2.65-0.55,5.03,0.35,6.38,2.37l0.22,0.37l9.32,20.36
		c1.01,2.49,0.27,5.4-1.74,6.91l-14.26,9.65c-3.67,2.48-5.65,6.83-5.17,11.35c0.54,4.93,0.68,9.77,0.43,14.38
		c-0.24,4.58,2.03,8.83,5.94,11.08l14.33,8.28c2.33,1.15,3.4,3.88,2.63,6.58l-7.89,21.2C253.02,192.98,250.25,194.53,247.6,194z"/>
	<path class="st0" d="M201.46,121.89c-1.35-9.28-4.5-18.72-7.56-27.84c-0.47-1.4-0.93-2.78-1.38-4.14
		c-0.15-0.46-0.35-0.83-0.51-1.14c-0.05-0.09-0.1-0.19-0.15-0.29l-1.08-2.2l-2.22,1.04l-1.14,0.58l-0.15,0.62
		c-0.36,0.25-0.62,0.58-0.79,0.9c-1.59,2.87-3.45,5.93-6.26,8.86c-8.69,9.05-16.69,14.57-25.16,17.38
		c-5.89,1.95-12.06,2.52-18.39,2.97c-0.99,0.07-1.98,0.14-2.98,0.2c-4.38,0.29-8.91,0.59-13.36,1.31
		c-10.48,1.69-18.97,6.44-25.23,14.11c-7.8,9.55-10.31,20.27-7.45,31.88c1.77,7.19,5.64,12.28,11.5,15.13
		c1.13,0.55,2.54,0.73,3.79,0.49c3.34-0.64,6.78-1.3,10.19-2.18c1.4-0.36,2.8-0.72,4.21-1.08c5.96-1.52,12.13-3.1,18.13-4.97
		c10.06-3.13,19.36-8.24,28.28-15.54c-1.83,1.89-3.8,3.75-5.92,5.58c-8.04,6.98-17.27,11.91-28.19,15.07
		c-4.77,1.38-9.54,2.97-14.15,4.51c-1.87,0.62-3.73,1.24-5.61,1.85c-0.56,0.18-1.03,0.43-1.45,0.64c-0.14,0.07-0.28,0.14-0.41,0.21
		L106,186.8l1.35,4.16h1.81c0.17,0,0.34,0,0.51,0.01c0.19,0,0.4,0.01,0.61,0.01c0.27,0,0.54-0.01,0.83-0.03
		c0.9-0.07,1.8-0.16,2.7-0.25c1.73-0.17,3.39-0.33,4.98-0.33c3.48,0.02,7.03,0.11,10.46,0.19c3.79,0.09,7.71,0.19,11.58,0.2
		c4.96,0.02,10.22-0.13,16.1-0.45c5.86-0.32,11.63-1.42,17.14-3.27c12.78-4.29,21.57-13.49,26.12-27.35
		c2.07-6.29,3-13.07,2.79-20.15C202.81,133.61,202.29,127.67,201.46,121.89z M195.45,158.13c-4.09,12.45-11.6,20.36-22.97,24.17
		c-5.08,1.71-10.4,2.72-15.82,3.01c-5.78,0.31-10.95,0.46-15.81,0.44c-3.82-0.01-7.71-0.11-11.47-0.2
		c-1.61-0.04-3.25-0.08-4.89-0.11c2.17-0.69,4.34-1.37,6.51-2c11.48-3.32,21.59-8.74,30.08-16.1c8.59-7.45,14.99-15.36,19.57-24.16
		c1.1-2.11,2.07-4.3,3-6.41c0.42-0.96,0.85-1.91,1.28-2.86l0.9-1.96l-4.12-2.68l-1.42,1.69c-0.05,0.06-0.11,0.12-0.16,0.18
		c-0.24,0.26-0.57,0.61-0.85,1.1c-3.61,6.49-8.21,12.36-13.67,17.45c-9.97,9.3-20.32,15.53-31.66,19.06
		c-5.88,1.83-11.98,3.39-17.88,4.9c-1.41,0.36-2.81,0.72-4.22,1.08c-3.25,0.84-6.62,1.49-9.88,2.11c-0.2,0.04-0.53-0.01-0.66-0.08
		c-4.52-2.2-7.41-6.07-8.83-11.83c-2.46-9.99-0.29-19.25,6.47-27.52c5.47-6.69,12.92-10.84,22.16-12.34
		c4.21-0.68,8.63-0.98,12.89-1.26c1-0.07,2-0.13,3-0.21c6.66-0.48,13.17-1.08,19.61-3.21c9.27-3.07,17.92-9,27.19-18.66
		c2.15-2.24,3.79-4.5,5.16-6.69c0.07,0.2,0.13,0.39,0.2,0.59c2.98,8.92,6.07,18.14,7.35,26.97c0.81,5.59,1.31,11.34,1.49,17.08
		C198.19,146.19,197.34,152.39,195.45,158.13z"/>
</g>
</svg>
