<svg xmlns="http://www.w3.org/2000/svg" width="34.102" height="34.101" viewBox="0 0 34.102 34.101">
  <path id="Path_46" data-name="Path 46" d="M644.718,49.174H642.4V27.418h2.319a.384.384,0,0,0,.384-.384V21.629a.384.384,0,0,0-.384-.384h-5.406a.384.384,0,0,0-.384.384v2.319H617.173V21.629a.384.384,0,0,0-.384-.384h-5.406a.384.384,0,0,0-.384.384v5.406a.384.384,0,0,0,.384.384H613.7V49.174h-2.319a.384.384,0,0,0-.384.384v5.406a.384.384,0,0,0,.384.384h5.406a.384.384,0,0,0,.384-.384V52.644h21.756v2.319a.384.384,0,0,0,.384.384h5.406a.384.384,0,0,0,.384-.384V49.557A.384.384,0,0,0,644.718,49.174Zm-3.086,0h-2.319a.384.384,0,0,0-.384.384v2.319H617.173V49.557a.384.384,0,0,0-.384-.384H614.47V27.418h2.319a.384.384,0,0,0,.384-.384V24.715h21.756v2.319a.384.384,0,0,0,.384.384h2.319Z" transform="translate(-611 -21.245)" fill="#8d8d8d"/>
</svg>
