<?xml version="1.0" encoding="utf-8"?>
<!-- Generator: Adobe Illustrator 25.3.1, SVG Export Plug-In . SVG Version: 6.00 Build 0)  -->
<!DOCTYPE svg PUBLIC "-//W3C//DTD SVG 1.1//EN" "http://www.w3.org/Graphics/SVG/1.1/DTD/svg11.dtd" [
	<!ENTITY ns_extend "http://ns.adobe.com/Extensibility/1.0/">
	<!ENTITY ns_ai "http://ns.adobe.com/AdobeIllustrator/10.0/">
	<!ENTITY ns_graphs "http://ns.adobe.com/Graphs/1.0/">
	<!ENTITY ns_vars "http://ns.adobe.com/Variables/1.0/">
	<!ENTITY ns_imrep "http://ns.adobe.com/ImageReplacement/1.0/">
	<!ENTITY ns_sfw "http://ns.adobe.com/SaveForWeb/1.0/">
	<!ENTITY ns_custom "http://ns.adobe.com/GenericCustomNamespace/1.0/">
	<!ENTITY ns_adobe_xpath "http://ns.adobe.com/XPath/1.0/">
]>
<svg version="1.1" id="Layer_1" xmlns:x="&ns_extend;" xmlns:i="&ns_ai;" xmlns:graph="&ns_graphs;"
	 xmlns="http://www.w3.org/2000/svg" xmlns:xlink="http://www.w3.org/1999/xlink" x="0px" y="0px" viewBox="0 0 1466 696"
	 style="enable-background:new 0 0 1466 696;" xml:space="preserve">
<style type="text/css">
	.Drop_x0020_Shadow{fill:none;}
	.Outer_x0020_Glow_x0020_5_x0020_pt{fill:none;}
	.Blue_x0020_Neon{fill:none;stroke:#8AACDA;stroke-width:7;stroke-linecap:round;stroke-linejoin:round;}
	.Chrome_x0020_Highlight{fill:url(#SVGID_1_);stroke:#FFFFFF;stroke-width:0.3629;stroke-miterlimit:1;}
	.Jive_GS{fill:#FFDD00;}
	.Alyssa_GS{fill:#A6D0E4;}
	.st0{enable-background:new    ;}
	.st1{fill:#DE0022;}
	.st2{fill:#272727;}
	.st3{fill:#9C9CA0;}
	.st4{fill:none;stroke:#DE0022;stroke-width:0.5;stroke-miterlimit:10;}
</style>
<metadata>
	<sfw  xmlns="&ns_sfw;">
		<slices></slices>
		<sliceSourceBounds  bottomLeftOrigin="true" height="648.8" width="1411.2" x="-65.8" y="-1084.2"></sliceSourceBounds>
	</sfw>
</metadata>
<linearGradient id="SVGID_1_" gradientUnits="userSpaceOnUse" x1="93" y1="-412" x2="93" y2="-413">
	<stop  offset="0" style="stop-color:#656565"/>
	<stop  offset="0.618" style="stop-color:#1B1B1B"/>
	<stop  offset="0.6292" style="stop-color:#545454"/>
	<stop  offset="0.9831" style="stop-color:#3E3E3E"/>
</linearGradient>
<g class="st0">
	<path class="st1" d="M149.5,150.1c0.8,0.9,2,1.7,3.7,1.7c2.5,0,3.2-1.4,3.2-2.4c0-1.7-1.6-2.2-3.3-2.6c-1.9-0.5-3.9-1.1-3.9-3.3
		c0-2,1.8-3.2,3.9-3.2c1.8,0,3.1,0.6,4.1,1.7l-0.7,0.8c-0.9-1-2.1-1.5-3.4-1.5c-1.6,0-2.8,0.9-2.8,2.2c0,1.4,1.5,1.8,3.1,2.3
		c1.9,0.5,4.1,1.2,4.1,3.6c0,1.5-1,3.4-4.3,3.4c-2,0-3.5-0.8-4.4-1.9L149.5,150.1z"/>
	<path class="st1" d="M162.9,141.5H159v-0.9h8.9v0.9H164v11.1h-1V141.5z"/>
	<path class="st1" d="M170,140.6h7.6v0.9h-6.6v4.4h6.5v0.9h-6.5v4.8h6.6v0.9H170V140.6z"/>
	<path class="st1" d="M180.2,140.6h4.5c2.3,0,3.6,1.6,3.6,3.5c0,1.9-1.3,3.5-3.6,3.5h-3.5v5h-1V140.6z M184.6,141.5h-3.4v5.1h3.4
		c1.6,0,2.6-1.1,2.6-2.6C187.2,142.6,186.2,141.5,184.6,141.5z"/>
	<path class="st1" d="M199.1,140.4c3.2,0,4.4,3.3,4.4,6.2c0,2.8-1.2,6.2-4.4,6.2c-3.2,0-4.4-3.4-4.4-6.2
		C194.7,143.7,195.9,140.4,199.1,140.4z M199.1,141.3c-2.5,0-3.4,2.8-3.4,5.3c0,2.5,0.8,5.3,3.4,5.3c2.5,0,3.3-2.8,3.3-5.3
		C202.5,144.1,201.6,141.3,199.1,141.3z"/>
	<path class="st1" d="M207.6,142l-1.9,2.1l-0.6-0.7l2.7-2.8h0.9v12h-1V142z"/>
</g>
<g id="_01_45_">
	<g class="st0">
		<path class="st1" d="M354.5,150.1c0.8,0.9,2,1.7,3.7,1.7c2.5,0,3.2-1.4,3.2-2.4c0-1.7-1.6-2.2-3.3-2.6c-1.9-0.5-3.9-1.1-3.9-3.3
			c0-2,1.8-3.2,3.9-3.2c1.8,0,3.1,0.6,4.1,1.7l-0.7,0.8c-0.9-1-2.1-1.5-3.4-1.5c-1.6,0-2.8,0.9-2.8,2.2c0,1.4,1.5,1.8,3.1,2.3
			c1.9,0.5,4.1,1.2,4.1,3.6c0,1.5-1,3.4-4.3,3.4c-2,0-3.5-0.8-4.4-1.9L354.5,150.1z"/>
		<path class="st1" d="M367.9,141.5H364v-0.9h8.9v0.9H369v11.1h-1V141.5z"/>
		<path class="st1" d="M375,140.6h7.6v0.9h-6.6v4.4h6.5v0.9h-6.5v4.8h6.6v0.9H375V140.6z"/>
		<path class="st1" d="M385.2,140.6h4.5c2.3,0,3.6,1.6,3.6,3.5c0,1.9-1.3,3.5-3.6,3.5h-3.5v5h-1V140.6z M389.6,141.5h-3.4v5.1h3.4
			c1.6,0,2.6-1.1,2.6-2.6C392.2,142.6,391.2,141.5,389.6,141.5z"/>
		<path class="st1" d="M404.1,140.4c3.2,0,4.4,3.3,4.4,6.2c0,2.8-1.2,6.2-4.4,6.2c-3.2,0-4.4-3.4-4.4-6.2
			C399.7,143.7,400.9,140.4,404.1,140.4z M404.1,141.3c-2.5,0-3.4,2.8-3.4,5.3c0,2.5,0.8,5.3,3.4,5.3c2.5,0,3.3-2.8,3.3-5.3
			C407.5,144.1,406.6,141.3,404.1,141.3z"/>
		<path class="st1" d="M410.6,151.8c4.1-3.3,6.8-5.6,6.8-7.9c0-1.7-1.4-2.5-2.7-2.5c-1.5,0-2.6,0.6-3.3,1.6l-0.7-0.6
			c0.8-1.2,2.3-1.9,4-1.9c1.8,0,3.8,1,3.8,3.4c0,2.6-2.8,5-6.3,7.9h6.3v0.9h-7.9V151.8z"/>
	</g>
</g>
<g id="_01_43_">
	<g class="st0">
		<path class="st1" d="M572.6,150.1c0.8,0.9,2,1.7,3.7,1.7c2.5,0,3.2-1.4,3.2-2.4c0-1.7-1.6-2.2-3.3-2.6c-1.9-0.5-3.9-1.1-3.9-3.3
			c0-2,1.8-3.2,3.9-3.2c1.8,0,3.1,0.6,4.1,1.7l-0.7,0.8c-0.9-1-2.1-1.5-3.4-1.5c-1.6,0-2.8,0.9-2.8,2.2c0,1.4,1.5,1.8,3.1,2.3
			c1.9,0.5,4.1,1.2,4.1,3.6c0,1.5-1,3.4-4.3,3.4c-2,0-3.5-0.8-4.4-1.9L572.6,150.1z"/>
		<path class="st1" d="M586.1,141.5h-3.9v-0.9h8.9v0.9h-3.9v11.1h-1V141.5z"/>
		<path class="st1" d="M593.1,140.6h7.6v0.9h-6.6v4.4h6.5v0.9h-6.5v4.8h6.6v0.9h-7.6V140.6z"/>
		<path class="st1" d="M603.3,140.6h4.5c2.3,0,3.6,1.6,3.6,3.5c0,1.9-1.3,3.5-3.6,3.5h-3.5v5h-1V140.6z M607.7,141.5h-3.4v5.1h3.4
			c1.6,0,2.6-1.1,2.6-2.6C610.3,142.6,609.3,141.5,607.7,141.5z"/>
		<path class="st1" d="M622.2,140.4c3.2,0,4.4,3.3,4.4,6.2c0,2.8-1.2,6.2-4.4,6.2c-3.2,0-4.4-3.4-4.4-6.2
			C617.8,143.7,619,140.4,622.2,140.4z M622.2,141.3c-2.5,0-3.4,2.8-3.4,5.3c0,2.5,0.8,5.3,3.4,5.3c2.5,0,3.3-2.8,3.3-5.3
			C625.6,144.1,624.8,141.3,622.2,141.3z"/>
		<path class="st1" d="M629,150.2c0.7,1,1.8,1.7,3.4,1.7c1.9,0,3-1,3-2.6c0-1.7-1.4-2.4-3.2-2.4c-0.5,0-0.9,0-1.1,0v-1
			c0.2,0,0.6,0,1.1,0c1.6,0,3-0.7,3-2.3c0-1.5-1.3-2.3-2.9-2.3c-1.4,0-2.3,0.5-3.2,1.5l-0.6-0.6c0.8-1,2.2-1.8,3.9-1.8
			c2.1,0,3.9,1.1,3.9,3.2c0,1.8-1.5,2.6-2.6,2.8c1,0.1,2.8,1,2.8,3s-1.5,3.4-4.1,3.4c-2,0-3.4-0.9-4.1-2L629,150.2z"/>
	</g>
</g>
<g id="_01_41_">
	<g class="st0">
		<path class="st1" d="M789.5,150.1c0.8,0.9,2,1.7,3.7,1.7c2.5,0,3.2-1.4,3.2-2.4c0-1.7-1.6-2.2-3.3-2.6c-1.9-0.5-3.9-1.1-3.9-3.3
			c0-2,1.8-3.2,3.9-3.2c1.8,0,3.1,0.6,4.1,1.7l-0.7,0.8c-0.9-1-2.1-1.5-3.4-1.5c-1.6,0-2.8,0.9-2.8,2.2c0,1.4,1.5,1.8,3.1,2.3
			c1.9,0.5,4.1,1.2,4.1,3.6c0,1.5-1,3.4-4.3,3.4c-2,0-3.5-0.8-4.4-1.9L789.5,150.1z"/>
		<path class="st1" d="M802.9,141.5H799v-0.9h8.9v0.9H804v11.1h-1V141.5z"/>
		<path class="st1" d="M810,140.6h7.6v0.9h-6.6v4.4h6.5v0.9h-6.5v4.8h6.6v0.9H810V140.6z"/>
		<path class="st1" d="M820.2,140.6h4.5c2.3,0,3.6,1.6,3.6,3.5c0,1.9-1.3,3.5-3.6,3.5h-3.5v5h-1V140.6z M824.6,141.5h-3.4v5.1h3.4
			c1.6,0,2.6-1.1,2.6-2.6C827.2,142.6,826.2,141.5,824.6,141.5z"/>
		<path class="st1" d="M839.1,140.4c3.2,0,4.4,3.3,4.4,6.2c0,2.8-1.2,6.2-4.4,6.2c-3.2,0-4.4-3.4-4.4-6.2
			C834.7,143.7,835.9,140.4,839.1,140.4z M839.1,141.3c-2.5,0-3.4,2.8-3.4,5.3c0,2.5,0.8,5.3,3.4,5.3c2.5,0,3.3-2.8,3.3-5.3
			C842.5,144.1,841.6,141.3,839.1,141.3z"/>
		<path class="st1" d="M850.9,149.3h-5.7v-0.9l5.3-7.8h1.4v7.8h1.8v0.9h-1.8v3.3h-1V149.3z M846.3,148.4h4.6v-6.8L846.3,148.4z"/>
	</g>
</g>
<g id="_01_39_">
	<g class="st0">
		<path class="st1" d="M1009.6,150.1c0.8,0.9,2,1.7,3.7,1.7c2.5,0,3.2-1.4,3.2-2.4c0-1.7-1.6-2.2-3.3-2.6c-1.9-0.5-3.9-1.1-3.9-3.3
			c0-2,1.8-3.2,3.9-3.2c1.8,0,3.1,0.6,4.1,1.7l-0.7,0.8c-0.9-1-2.1-1.5-3.4-1.5c-1.6,0-2.8,0.9-2.8,2.2c0,1.4,1.5,1.8,3.1,2.3
			c1.9,0.5,4.1,1.2,4.1,3.6c0,1.5-1,3.4-4.3,3.4c-2,0-3.5-0.8-4.4-1.9L1009.6,150.1z"/>
		<path class="st1" d="M1023.1,141.5h-3.9v-0.9h8.9v0.9h-3.9v11.1h-1V141.5z"/>
		<path class="st1" d="M1030.2,140.6h7.6v0.9h-6.6v4.4h6.5v0.9h-6.5v4.8h6.6v0.9h-7.6V140.6z"/>
		<path class="st1" d="M1040.3,140.6h4.5c2.3,0,3.6,1.6,3.6,3.5c0,1.9-1.3,3.5-3.6,3.5h-3.5v5h-1V140.6z M1044.7,141.5h-3.4v5.1h3.4
			c1.6,0,2.6-1.1,2.6-2.6C1047.3,142.6,1046.3,141.5,1044.7,141.5z"/>
		<path class="st1" d="M1059.2,140.4c3.2,0,4.4,3.3,4.4,6.2c0,2.8-1.2,6.2-4.4,6.2c-3.2,0-4.4-3.4-4.4-6.2
			C1054.8,143.7,1056,140.4,1059.2,140.4z M1059.2,141.3c-2.5,0-3.4,2.8-3.4,5.3c0,2.5,0.8,5.3,3.4,5.3c2.5,0,3.3-2.8,3.3-5.3
			C1062.6,144.1,1061.8,141.3,1059.2,141.3z"/>
		<path class="st1" d="M1066.7,150.2c0.8,1.1,1.8,1.7,3.4,1.7c1.7,0,3-1.3,3-2.9c0-1.8-1.3-2.9-3-2.9c-1.1,0-2,0.4-2.9,1.2l-0.8-0.3
			v-6.3h7v0.9h-5.9v4.7c0.6-0.6,1.6-1.1,2.9-1.1c2,0,3.8,1.3,3.8,3.8c0,2.4-1.9,3.9-4.1,3.9c-2,0-3.2-0.8-4.1-2L1066.7,150.2z"/>
	</g>
</g>
<g class="st0">
	<path class="st2" d="M154.6,270.7h-2.8v5.7h-2.2v-14.7h6.2c2.8,0,4.7,1.8,4.7,4.5c0,2.6-1.8,4-3.7,4.3l3.8,5.9h-2.6L154.6,270.7z
		 M155.5,263.6h-3.7v5.1h3.7c1.6,0,2.7-1,2.7-2.6C158.2,264.7,157.1,263.6,155.5,263.6z"/>
	<path class="st2" d="M167.2,265.5c3.2,0,5.2,2.5,5.2,5.7v0.5h-8.4c0.2,1.8,1.5,3.3,3.6,3.3c1.1,0,2.4-0.4,3.1-1.3l0.9,1.3
		c-1.1,1-2.6,1.6-4.3,1.6c-3.2,0-5.5-2.2-5.5-5.6C161.8,268,164.1,265.5,167.2,265.5z M163.9,270.3h6.5c0-1.4-1-3.2-3.2-3.2
		C165,267.1,164,268.8,163.9,270.3z"/>
	<path class="st2" d="M182.4,280.4v-5.6c-0.9,1.2-2.1,1.8-3.5,1.8c-2.8,0-4.7-2.1-4.7-5.6s2-5.6,4.7-5.6c1.4,0,2.7,0.7,3.5,1.8v-1.5
		h2v14.7H182.4z M182.4,268.8c-0.6-0.9-1.8-1.6-2.9-1.6c-2,0-3.2,1.6-3.2,3.8c0,2.2,1.2,3.8,3.2,3.8c1.2,0,2.4-0.7,2.9-1.6V268.8z"
		/>
	<path class="st2" d="M194.7,274.9c-0.8,0.9-2.2,1.7-3.8,1.7c-2.3,0-3.4-1.1-3.4-3.4v-7.5h2v6.8c0,1.8,0.9,2.3,2.2,2.3
		c1.2,0,2.4-0.7,2.9-1.5v-7.6h2v10.6h-2V274.9z"/>
	<path class="st2" d="M199.5,262.7c0-0.7,0.6-1.3,1.3-1.3c0.7,0,1.3,0.6,1.3,1.3s-0.6,1.3-1.3,1.3
		C200.1,264,199.5,263.4,199.5,262.7z M199.8,265.7h2v10.6h-2V265.7z"/>
	<path class="st2" d="M204.9,265.7h2v1.6c0.8-1.1,2.1-1.9,3.5-1.9v2c-0.2,0-0.4-0.1-0.7-0.1c-1,0-2.3,0.7-2.8,1.5v7.4h-2V265.7z"/>
	<path class="st2" d="M217,265.5c3.2,0,5.2,2.5,5.2,5.7v0.5h-8.4c0.2,1.8,1.5,3.3,3.6,3.3c1.1,0,2.4-0.4,3.1-1.3l0.9,1.3
		c-1.1,1-2.6,1.6-4.3,1.6c-3.2,0-5.5-2.2-5.5-5.6C211.7,268,213.9,265.5,217,265.5z M213.8,270.3h6.5c0-1.4-1-3.2-3.2-3.2
		C214.9,267.1,213.9,268.8,213.8,270.3z"/>
	<path class="st2" d="M237.6,269.3c0-1.2-0.5-2-1.8-2c-1.1,0-2.1,0.7-2.6,1.5v7.6h-2v-7.1c0-1.2-0.5-2-1.9-2c-1,0-2.1,0.8-2.6,1.5
		v7.6h-2v-10.6h2v1.5c0.4-0.7,1.8-1.8,3.4-1.8c1.6,0,2.6,0.8,2.9,2c0.6-1,2-2,3.6-2c2,0,3,1.1,3,3.2v7.7h-2V269.3z"/>
	<path class="st2" d="M247.4,265.5c3.2,0,5.2,2.5,5.2,5.7v0.5h-8.4c0.2,1.8,1.5,3.3,3.6,3.3c1.1,0,2.4-0.4,3.1-1.3l0.9,1.3
		c-1.1,1-2.6,1.6-4.3,1.6c-3.2,0-5.5-2.2-5.5-5.6C242.1,268,244.3,265.5,247.4,265.5z M244.1,270.3h6.5c0-1.4-1-3.2-3.2-3.2
		C245.3,267.1,244.3,268.8,244.1,270.3z"/>
	<path class="st2" d="M262.2,269.6c0-1.8-0.9-2.3-2.3-2.3c-1.2,0-2.4,0.7-2.9,1.5v7.6h-2v-10.6h2v1.5c0.7-0.9,2.1-1.8,3.8-1.8
		c2.2,0,3.4,1.2,3.4,3.4v7.5h-2V269.6z"/>
	<path class="st2" d="M267.8,274v-6.5H266v-1.7h1.8v-2.9h2v2.9h2.2v1.7h-2.2v6.1c0,0.7,0.4,1.3,1,1.3c0.5,0,0.9-0.2,1.1-0.4l0.5,1.5
		c-0.4,0.4-1,0.7-2.1,0.7C268.6,276.6,267.8,275.7,267.8,274z"/>
</g>
<g class="st0">
	<path class="st2" d="M156.6,292.1c2.8,0,4.6,1.3,5.8,2.9l-1.8,1c-0.8-1.1-2.3-2-4-2c-3.1,0-5.3,2.3-5.3,5.6c0,3.3,2.3,5.7,5.3,5.7
		c1.6,0,3-0.8,3.7-1.5v-2.6h-4.7v-1.9h6.9v5.4c-1.4,1.6-3.4,2.6-5.9,2.6c-4.2,0-7.6-3-7.6-7.6C149,295.1,152.4,292.1,156.6,292.1z"
		/>
	<path class="st2" d="M171.9,305.9c-0.8,0.9-2,1.4-3.5,1.4c-1.8,0-3.7-1.2-3.7-3.5c0-2.4,1.9-3.5,3.7-3.5c1.4,0,2.7,0.5,3.5,1.4
		v-1.8c0-1.3-1.1-2.1-2.6-2.1c-1.2,0-2.2,0.5-3.2,1.4l-0.9-1.4c1.2-1.2,2.6-1.7,4.4-1.7c2.3,0,4.3,1,4.3,3.7v7.2h-2V305.9z
		 M171.9,302.9c-0.6-0.8-1.6-1.2-2.7-1.2c-1.4,0-2.4,0.9-2.4,2.1s1,2.1,2.4,2.1c1.1,0,2.1-0.4,2.7-1.2V302.9z"/>
	<path class="st2" d="M177.4,304.7v-6.5h-1.8v-1.7h1.8v-2.9h2v2.9h2.2v1.7h-2.2v6.1c0,0.7,0.4,1.3,1,1.3c0.5,0,0.9-0.2,1.1-0.4
		l0.5,1.5c-0.4,0.4-1,0.7-2.1,0.7C178.3,307.3,177.4,306.4,177.4,304.7z"/>
	<path class="st2" d="M190.9,300.2c0-1.8-0.9-2.3-2.3-2.3c-1.2,0-2.4,0.7-2.9,1.5v7.6h-2v-14.7h2v5.5c0.7-0.9,2.1-1.8,3.8-1.8
		c2.3,0,3.4,1.1,3.4,3.4v7.5h-2V300.2z"/>
	<path class="st2" d="M200.7,296.1c3.2,0,5.2,2.5,5.2,5.7v0.5h-8.4c0.2,1.8,1.5,3.3,3.6,3.3c1.1,0,2.4-0.4,3.1-1.3l0.9,1.3
		c-1.1,1-2.6,1.6-4.3,1.6c-3.2,0-5.5-2.2-5.5-5.6C195.4,298.6,197.6,296.1,200.7,296.1z M197.5,300.9h6.5c0-1.4-1-3.2-3.2-3.2
		C198.6,297.8,197.6,299.5,197.5,300.9z"/>
	<path class="st2" d="M208.4,296.4h2v1.6c0.8-1.1,2.1-1.9,3.5-1.9v2c-0.2,0-0.4-0.1-0.7-0.1c-1,0-2.3,0.7-2.8,1.5v7.4h-2V296.4z"/>
	<path class="st2" d="M215.5,293.4c0-0.7,0.6-1.3,1.3-1.3c0.7,0,1.3,0.6,1.3,1.3c0,0.7-0.6,1.3-1.3,1.3
		C216.1,294.6,215.5,294.1,215.5,293.4z M215.8,296.4h2V307h-2V296.4z"/>
	<path class="st2" d="M228.1,300.2c0-1.8-0.9-2.3-2.3-2.3c-1.2,0-2.4,0.7-2.9,1.5v7.6h-2v-10.6h2v1.5c0.7-0.9,2.1-1.8,3.8-1.8
		c2.2,0,3.4,1.2,3.4,3.4v7.5h-2V300.2z"/>
	<path class="st2" d="M234.1,308.3c0.9,1,2,1.4,3.4,1.4c1.7,0,3.3-0.8,3.3-3v-1.4c-0.8,1.1-2.1,1.8-3.5,1.8c-2.8,0-4.7-2-4.7-5.5
		c0-3.4,2-5.5,4.7-5.5c1.4,0,2.6,0.7,3.5,1.8v-1.5h2v10.2c0,3.7-2.7,4.7-5.3,4.7c-1.8,0-3.1-0.4-4.4-1.6L234.1,308.3z M240.8,299.5
		c-0.6-0.9-1.8-1.6-2.9-1.6c-2,0-3.2,1.5-3.2,3.7c0,2.2,1.2,3.7,3.2,3.7c1.2,0,2.4-0.7,2.9-1.6V299.5z"/>
</g>
<g id="UI_UX_DESIGNING_9_">
	<g class="st0">
		<path class="st2" d="M354.6,262h2.2v8.9c0,2.5,1.4,4.1,4,4.1c2.6,0,3.9-1.6,3.9-4.1V262h2.2v8.9c0,3.7-2,6-6.2,6s-6.2-2.4-6.2-6
			V262z"/>
		<path class="st2" d="M370.2,262h2.2v14.7h-2.2V262z"/>
		<path class="st2" d="M379.3,261.5h1.5l-5.2,15.6h-1.5L379.3,261.5z"/>
		<path class="st2" d="M382.4,262h2.2v8.9c0,2.5,1.4,4.1,4,4.1s3.9-1.6,3.9-4.1V262h2.2v8.9c0,3.7-2,6-6.2,6c-4.1,0-6.2-2.4-6.2-6
			V262z"/>
		<path class="st2" d="M403.7,270.6l-4.4,6h-2.7l5.6-7.5l-5.3-7.2h2.7l4.1,5.6l4-5.6h2.7l-5.3,7.1l5.6,7.5h-2.6L403.7,270.6z"/>
		<path class="st2" d="M354.6,288.4h5.2c4.6,0,7.6,3.1,7.6,7.3c0,4.2-3,7.3-7.6,7.3h-5.2V288.4z M359.9,301.1c3.4,0,5.3-2.4,5.3-5.4
			c0-3-1.9-5.4-5.3-5.4h-3v10.8H359.9z"/>
		<path class="st2" d="M374.7,292.1c3.2,0,5.2,2.5,5.2,5.7v0.5h-8.4c0.2,1.8,1.5,3.3,3.6,3.3c1.1,0,2.4-0.4,3.1-1.3l0.9,1.3
			c-1.1,1-2.6,1.6-4.3,1.6c-3.2,0-5.5-2.2-5.5-5.6C369.4,294.6,371.6,292.1,374.7,292.1z M371.5,296.9h6.5c0-1.4-1-3.2-3.2-3.2
			C372.6,293.8,371.6,295.5,371.5,296.9z"/>
		<path class="st2" d="M382.4,300.2c0.7,0.8,2.1,1.5,3.6,1.5c1.5,0,2.3-0.6,2.3-1.5c0-1.1-1.2-1.4-2.6-1.7c-1.8-0.4-3.9-0.9-3.9-3.2
			c0-1.7,1.5-3.1,4-3.1c1.8,0,3.1,0.7,4,1.5L389,295c-0.6-0.7-1.8-1.3-3.1-1.3c-1.3,0-2.2,0.5-2.2,1.4c0,0.9,1.1,1.2,2.5,1.5
			c1.8,0.4,4,0.9,4,3.4c0,1.8-1.5,3.3-4.3,3.3c-1.8,0-3.3-0.5-4.4-1.6L382.4,300.2z"/>
		<path class="st2" d="M392.4,289.4c0-0.7,0.6-1.3,1.3-1.3c0.7,0,1.3,0.6,1.3,1.3c0,0.7-0.6,1.3-1.3,1.3
			C393,290.6,392.4,290.1,392.4,289.4z M392.7,292.4h2V303h-2V292.4z"/>
		<path class="st2" d="M398.7,304.3c0.9,1,2,1.4,3.4,1.4c1.6,0,3.3-0.8,3.3-3v-1.4c-0.8,1.1-2.1,1.8-3.5,1.8c-2.8,0-4.7-2-4.7-5.5
			c0-3.4,2-5.5,4.7-5.5c1.4,0,2.6,0.7,3.5,1.8v-1.5h2v10.2c0,3.7-2.7,4.7-5.3,4.7c-1.8,0-3.1-0.4-4.4-1.6L398.7,304.3z M405.4,295.5
			c-0.6-0.9-1.8-1.6-2.9-1.6c-2,0-3.2,1.5-3.2,3.7c0,2.2,1.2,3.7,3.2,3.7c1.2,0,2.4-0.7,2.9-1.6V295.5z"/>
		<path class="st2" d="M417.7,296.2c0-1.8-0.9-2.3-2.3-2.3c-1.2,0-2.4,0.7-2.9,1.5v7.6h-2v-10.6h2v1.5c0.7-0.9,2.1-1.8,3.8-1.8
			c2.2,0,3.4,1.2,3.4,3.4v7.5h-2V296.2z"/>
		<path class="st2" d="M422.5,289.4c0-0.7,0.6-1.3,1.3-1.3c0.7,0,1.3,0.6,1.3,1.3c0,0.7-0.6,1.3-1.3,1.3
			C423.1,290.6,422.5,290.1,422.5,289.4z M422.8,292.4h2V303h-2V292.4z"/>
		<path class="st2" d="M435.1,296.2c0-1.8-0.9-2.3-2.3-2.3c-1.2,0-2.4,0.7-2.9,1.5v7.6h-2v-10.6h2v1.5c0.7-0.9,2.1-1.8,3.8-1.8
			c2.2,0,3.4,1.2,3.4,3.4v7.5h-2V296.2z"/>
		<path class="st2" d="M441.1,304.3c0.9,1,2,1.4,3.4,1.4c1.6,0,3.3-0.8,3.3-3v-1.4c-0.8,1.1-2.1,1.8-3.5,1.8c-2.8,0-4.7-2-4.7-5.5
			c0-3.4,2-5.5,4.7-5.5c1.4,0,2.6,0.7,3.5,1.8v-1.5h2v10.2c0,3.7-2.7,4.7-5.3,4.7c-1.8,0-3.1-0.4-4.4-1.6L441.1,304.3z M447.8,295.5
			c-0.6-0.9-1.8-1.6-2.9-1.6c-2,0-3.2,1.5-3.2,3.7c0,2.2,1.2,3.7,3.2,3.7c1.2,0,2.4-0.7,2.9-1.6V295.5z"/>
	</g>
</g>
<g id="ARCHITECTURE_PLANNING_9_">
	<g class="st0">
		<path class="st2" d="M581.9,273.6h-7.2l-1.2,3h-2.4l5.8-14.7h2.8l5.8,14.7h-2.4L581.9,273.6z M575.3,271.6h5.9l-3-7.8L575.3,271.6
			z"/>
		<path class="st2" d="M587.2,266h2v1.6c0.8-1.1,2.1-1.9,3.5-1.9v2c-0.2,0-0.4-0.1-0.7-0.1c-1,0-2.3,0.7-2.8,1.5v7.4h-2V266z"/>
		<path class="st2" d="M599.4,265.7c2,0,3.2,0.8,4,1.9l-1.3,1.2c-0.6-0.9-1.5-1.3-2.6-1.3c-2.1,0-3.4,1.6-3.4,3.8
			c0,2.2,1.3,3.8,3.4,3.8c1.1,0,1.9-0.4,2.6-1.3l1.3,1.2c-0.8,1-2,1.9-4,1.9c-3.2,0-5.4-2.4-5.4-5.6S596.2,265.7,599.4,265.7z"/>
		<path class="st2" d="M612.7,269.8c0-1.8-0.9-2.3-2.3-2.3c-1.2,0-2.4,0.7-2.9,1.5v7.6h-2V262h2v5.5c0.7-0.9,2.1-1.8,3.8-1.8
			c2.3,0,3.4,1.1,3.4,3.4v7.5h-2V269.8z"/>
		<path class="st2" d="M617.6,263c0-0.7,0.6-1.3,1.3-1.3c0.7,0,1.3,0.6,1.3,1.3s-0.6,1.3-1.3,1.3C618.2,264.2,617.6,263.7,617.6,263
			z M617.9,266h2v10.6h-2V266z"/>
		<path class="st2" d="M623.4,274.3v-6.5h-1.8V266h1.8v-2.9h2v2.9h2.2v1.7h-2.2v6.1c0,0.7,0.4,1.3,1,1.3c0.5,0,0.9-0.2,1.1-0.4
			l0.5,1.5c-0.4,0.4-1,0.7-2.1,0.7C624.3,276.9,623.4,276,623.4,274.3z"/>
		<path class="st2" d="M634.4,265.7c3.2,0,5.2,2.5,5.2,5.7v0.5h-8.4c0.2,1.8,1.5,3.3,3.6,3.3c1.1,0,2.4-0.4,3.1-1.3l0.9,1.3
			c-1.1,1-2.6,1.6-4.3,1.6c-3.2,0-5.5-2.2-5.5-5.6C629.1,268.2,631.3,265.7,634.4,265.7z M631.2,270.5h6.5c0-1.4-1-3.2-3.2-3.2
			C632.3,267.4,631.3,269.1,631.2,270.5z"/>
		<path class="st2" d="M646.8,265.7c2,0,3.2,0.8,4,1.9l-1.3,1.2c-0.6-0.9-1.5-1.3-2.6-1.3c-2.1,0-3.4,1.6-3.4,3.8
			c0,2.2,1.3,3.8,3.4,3.8c1.1,0,1.9-0.4,2.6-1.3l1.3,1.2c-0.8,1-2,1.9-4,1.9c-3.2,0-5.4-2.4-5.4-5.6S643.6,265.7,646.8,265.7z"/>
		<path class="st2" d="M653.4,274.3v-6.5h-1.8V266h1.8v-2.9h2v2.9h2.2v1.7h-2.2v6.1c0,0.7,0.4,1.3,1,1.3c0.5,0,0.9-0.2,1.1-0.4
			l0.5,1.5c-0.4,0.4-1,0.7-2.1,0.7C654.2,276.9,653.4,276,653.4,274.3z"/>
		<path class="st2" d="M666.9,275.2c-0.8,0.9-2.2,1.7-3.8,1.7c-2.3,0-3.4-1.1-3.4-3.4V266h2v6.8c0,1.8,0.9,2.3,2.2,2.3
			c1.2,0,2.4-0.7,2.9-1.5V266h2v10.6h-2V275.2z"/>
		<path class="st2" d="M672,266h2v1.6c0.8-1.1,2.1-1.9,3.5-1.9v2c-0.2,0-0.4-0.1-0.7-0.1c-1,0-2.3,0.7-2.8,1.5v7.4h-2V266z"/>
		<path class="st2" d="M684.1,265.7c3.2,0,5.2,2.5,5.2,5.7v0.5h-8.4c0.2,1.8,1.5,3.3,3.6,3.3c1.1,0,2.4-0.4,3.1-1.3l0.9,1.3
			c-1.1,1-2.6,1.6-4.3,1.6c-3.2,0-5.5-2.2-5.5-5.6C678.8,268.2,681,265.7,684.1,265.7z M680.9,270.5h6.5c0-1.4-1-3.2-3.2-3.2
			C682,267.4,681,269.1,680.9,270.5z"/>
		<path class="st2" d="M572.6,288.4h6.2c3,0,4.7,2.1,4.7,4.5s-1.7,4.5-4.7,4.5h-4v5.7h-2.2V288.4z M578.5,290.3h-3.7v5.1h3.7
			c1.6,0,2.7-1,2.7-2.6C581.2,291.3,580.1,290.3,578.5,290.3z"/>
		<path class="st2" d="M585.7,288.4h2V303h-2V288.4z"/>
		<path class="st2" d="M597.4,301.9c-0.8,0.9-2,1.4-3.5,1.4c-1.8,0-3.7-1.2-3.7-3.5c0-2.4,1.9-3.5,3.7-3.5c1.4,0,2.7,0.5,3.5,1.4
			V296c0-1.3-1.1-2.1-2.6-2.1c-1.2,0-2.2,0.5-3.2,1.4l-0.9-1.4c1.2-1.2,2.6-1.7,4.4-1.7c2.3,0,4.3,1,4.3,3.7v7.2h-2V301.9z
			 M597.4,298.9c-0.6-0.8-1.6-1.2-2.7-1.2c-1.4,0-2.4,0.9-2.4,2.1s1,2.1,2.4,2.1c1.1,0,2.1-0.4,2.7-1.2V298.9z"/>
		<path class="st2" d="M609.7,296.2c0-1.8-0.9-2.3-2.3-2.3c-1.2,0-2.4,0.7-2.9,1.5v7.6h-2v-10.6h2v1.5c0.7-0.9,2.1-1.8,3.8-1.8
			c2.2,0,3.4,1.2,3.4,3.4v7.5h-2V296.2z"/>
		<path class="st2" d="M622,296.2c0-1.8-0.9-2.3-2.3-2.3c-1.2,0-2.4,0.7-2.9,1.5v7.6h-2v-10.6h2v1.5c0.7-0.9,2.1-1.8,3.8-1.8
			c2.2,0,3.4,1.2,3.4,3.4v7.5h-2V296.2z"/>
		<path class="st2" d="M626.8,289.4c0-0.7,0.6-1.3,1.3-1.3c0.7,0,1.3,0.6,1.3,1.3c0,0.7-0.6,1.3-1.3,1.3
			C627.4,290.6,626.8,290.1,626.8,289.4z M627.1,292.4h2V303h-2V292.4z"/>
		<path class="st2" d="M639.4,296.2c0-1.8-0.9-2.3-2.3-2.3c-1.2,0-2.4,0.7-2.9,1.5v7.6h-2v-10.6h2v1.5c0.7-0.9,2.1-1.8,3.8-1.8
			c2.2,0,3.4,1.2,3.4,3.4v7.5h-2V296.2z"/>
		<path class="st2" d="M645.4,304.3c0.9,1,2,1.4,3.4,1.4c1.6,0,3.3-0.8,3.3-3v-1.4c-0.8,1.1-2.1,1.8-3.5,1.8c-2.8,0-4.7-2-4.7-5.5
			c0-3.4,2-5.5,4.7-5.5c1.4,0,2.6,0.7,3.5,1.8v-1.5h2v10.2c0,3.7-2.7,4.7-5.3,4.7c-1.8,0-3.1-0.4-4.4-1.6L645.4,304.3z M652.1,295.5
			c-0.5-0.9-1.8-1.6-2.9-1.6c-2,0-3.2,1.5-3.2,3.7c0,2.2,1.2,3.7,3.2,3.7c1.2,0,2.4-0.7,2.9-1.6V295.5z"/>
	</g>
</g>
<g>
	<path class="st2" d="M790.3,262h5.2c4.6,0,7.6,3.1,7.6,7.3c0,4.2-3,7.3-7.6,7.3h-5.2V262z M795.6,274.7c3.4,0,5.3-2.4,5.3-5.4
		c0-3-1.9-5.4-5.3-5.4h-3v10.8H795.6z"/>
	<path class="st2" d="M810.5,265.7c3.2,0,5.2,2.5,5.2,5.7v0.5h-8.4c0.2,1.8,1.5,3.3,3.6,3.3c1.1,0,2.4-0.4,3.1-1.3l0.9,1.3
		c-1.1,1-2.6,1.6-4.3,1.6c-3.2,0-5.5-2.2-5.5-5.6C805.1,268.2,807.4,265.7,810.5,265.7z M807.2,270.5h6.5c0-1.4-1-3.2-3.2-3.2
		C808.3,267.4,807.3,269.1,807.2,270.5z"/>
	<path class="st2" d="M816.6,266h2.1l3.3,8.3l3.3-8.3h2.1l-4.4,10.6h-2.1L816.6,266z"/>
	<path class="st2" d="M833.7,265.7c3.2,0,5.2,2.5,5.2,5.7v0.5h-8.4c0.2,1.8,1.5,3.3,3.6,3.3c1.1,0,2.4-0.4,3.1-1.3l0.9,1.3
		c-1.1,1-2.6,1.6-4.3,1.6c-3.2,0-5.5-2.2-5.5-5.6C828.4,268.2,830.6,265.7,833.7,265.7z M830.5,270.5h6.5c0-1.4-1-3.2-3.2-3.2
		C831.6,267.4,830.6,269.1,830.5,270.5z"/>
	<path class="st2" d="M841.4,262h2v14.7h-2V262z"/>
	<path class="st2" d="M845.8,271.3c0-3.1,2.1-5.6,5.4-5.6c3.3,0,5.4,2.5,5.4,5.6c0,3.1-2,5.6-5.4,5.6
		C847.9,276.9,845.8,274.4,845.8,271.3z M854.5,271.3c0-2-1.2-3.8-3.3-3.8c-2.1,0-3.3,1.8-3.3,3.8c0,2,1.2,3.8,3.3,3.8
		C853.3,275.1,854.5,273.3,854.5,271.3z"/>
	<path class="st2" d="M859.1,280.7V266h2v1.5c0.8-1.1,2-1.8,3.5-1.8c2.8,0,4.7,2.1,4.7,5.6c0,3.5-2,5.6-4.7,5.6
		c-1.4,0-2.6-0.6-3.5-1.8v5.6H859.1z M864,267.5c-1.2,0-2.4,0.7-2.9,1.6v4.5c0.5,0.8,1.7,1.6,2.9,1.6c2,0,3.2-1.6,3.2-3.8
		C867.2,269.1,866,267.5,864,267.5z"/>
	<path class="st2" d="M884.7,269.5c0-1.2-0.5-2-1.8-2c-1.1,0-2.1,0.7-2.6,1.5v7.6h-2v-7.1c0-1.2-0.5-2-1.9-2c-1,0-2.1,0.8-2.6,1.5
		v7.6h-2V266h2v1.5c0.4-0.7,1.8-1.8,3.4-1.8c1.6,0,2.6,0.8,2.9,2c0.6-1,2-2,3.6-2c2,0,3,1.1,3,3.2v7.7h-2V269.5z"/>
	<path class="st2" d="M894.5,265.7c3.2,0,5.2,2.5,5.2,5.7v0.5h-8.4c0.2,1.8,1.5,3.3,3.6,3.3c1.1,0,2.4-0.4,3.1-1.3l0.9,1.3
		c-1.1,1-2.6,1.6-4.3,1.6c-3.2,0-5.5-2.2-5.5-5.6C889.2,268.2,891.4,265.7,894.5,265.7z M891.2,270.5h6.5c0-1.4-1-3.2-3.2-3.2
		C892.4,267.4,891.3,269.1,891.2,270.5z"/>
	<path class="st2" d="M909.3,269.8c0-1.8-0.9-2.3-2.3-2.3c-1.2,0-2.4,0.7-2.9,1.5v7.6h-2V266h2v1.5c0.7-0.9,2.1-1.8,3.8-1.8
		c2.2,0,3.4,1.2,3.4,3.4v7.5h-2V269.8z"/>
	<path class="st2" d="M914.8,274.3v-6.5h-1.8V266h1.8v-2.9h2v2.9h2.2v1.7h-2.2v6.1c0,0.7,0.4,1.3,1,1.3c0.5,0,0.9-0.2,1.1-0.4
		l0.5,1.5c-0.4,0.4-1,0.7-2.1,0.7C915.7,276.9,914.8,276,914.8,274.3z"/>
	<path class="st2" d="M790.3,288.4h6.2c3,0,4.7,2.1,4.7,4.5s-1.7,4.5-4.7,4.5h-4v5.7h-2.2V288.4z M796.2,290.3h-3.7v5.1h3.7
		c1.6,0,2.7-1,2.7-2.6C798.9,291.3,797.8,290.3,796.2,290.3z"/>
	<path class="st2" d="M810.6,296.2c0-1.8-0.9-2.3-2.3-2.3c-1.2,0-2.4,0.7-2.9,1.5v7.6h-2v-14.7h2v5.5c0.7-0.9,2.1-1.8,3.8-1.8
		c2.3,0,3.4,1.1,3.4,3.4v7.5h-2V296.2z"/>
	<path class="st2" d="M822.3,301.9c-0.8,0.9-2,1.4-3.5,1.4c-1.8,0-3.7-1.2-3.7-3.5c0-2.4,1.9-3.5,3.7-3.5c1.4,0,2.7,0.5,3.5,1.4V296
		c0-1.3-1.1-2.1-2.6-2.1c-1.2,0-2.2,0.5-3.2,1.4l-0.9-1.4c1.2-1.2,2.6-1.7,4.4-1.7c2.3,0,4.3,1,4.3,3.7v7.2h-2V301.9z M822.3,298.9
		c-0.6-0.8-1.6-1.2-2.7-1.2c-1.4,0-2.4,0.9-2.4,2.1s1,2.1,2.4,2.1c1.1,0,2.1-0.4,2.7-1.2V298.9z"/>
	<path class="st2" d="M827.5,300.2c0.7,0.8,2.1,1.5,3.6,1.5c1.5,0,2.3-0.6,2.3-1.5c0-1.1-1.2-1.4-2.6-1.7c-1.8-0.4-3.9-0.9-3.9-3.2
		c0-1.7,1.5-3.1,4-3.1c1.8,0,3.1,0.7,4,1.5l-0.9,1.4c-0.6-0.7-1.8-1.3-3.1-1.3s-2.2,0.5-2.2,1.4c0,0.9,1.1,1.2,2.5,1.5
		c1.8,0.4,4,0.9,4,3.4c0,1.8-1.5,3.3-4.3,3.3c-1.8,0-3.3-0.5-4.4-1.6L827.5,300.2z"/>
	<path class="st2" d="M842.4,292.1c3.2,0,5.2,2.5,5.2,5.7v0.5h-8.4c0.2,1.8,1.5,3.3,3.6,3.3c1.1,0,2.4-0.4,3.1-1.3l0.9,1.3
		c-1.1,1-2.6,1.6-4.3,1.6c-3.2,0-5.5-2.2-5.5-5.6C837.1,294.6,839.3,292.1,842.4,292.1z M839.2,296.9h6.5c0-1.4-1-3.2-3.2-3.2
		C840.3,293.8,839.3,295.5,839.2,296.9z"/>
</g>
<g class="st0">
	<path class="st2" d="M576.4,566h-4.6v-1.9h11.5v1.9h-4.6v12.6h-2.2V566z"/>
	<path class="st2" d="M585.2,565.1c0-0.7,0.6-1.3,1.3-1.3c0.7,0,1.3,0.6,1.3,1.3s-0.6,1.2-1.3,1.2
		C585.8,566.3,585.2,565.8,585.2,565.1z M585.5,568.1h2v10.5h-2V568.1z"/>
	<path class="st2" d="M603.9,571.6c0-1.2-0.6-2-1.9-2c-1.1,0-2.2,0.7-2.7,1.5v7.6h-2v-7c0-1.2-0.5-2-1.9-2c-1.1,0-2.1,0.8-2.6,1.5
		v7.5h-2v-10.5h2v1.5c0.4-0.7,1.9-1.7,3.5-1.7c1.6,0,2.6,0.8,2.9,2c0.6-1,2.1-2,3.6-2c2,0,3.1,1.1,3.1,3.2v7.6h-2V571.6z"/>
	<path class="st2" d="M613.8,567.8c3.2,0,5.3,2.5,5.3,5.7v0.5h-8.5c0.2,1.8,1.5,3.3,3.7,3.3c1.1,0,2.4-0.4,3.2-1.2l0.9,1.3
		c-1.1,1-2.6,1.6-4.3,1.6c-3.2,0-5.6-2.2-5.6-5.5C608.4,570.3,610.7,567.8,613.8,567.8z M610.5,572.6h6.6c0-1.4-1-3.1-3.3-3.1
		C611.6,569.5,610.6,571.2,610.5,572.6z"/>
	<path class="st2" d="M626.4,572.5h5.4v1.7h-5.4V572.5z"/>
	<path class="st2" d="M637.8,566h-4.6v-1.9h11.5v1.9H640v12.6h-2.2V566z"/>
	<path class="st2" d="M643.8,573.4c0-3,2.1-5.5,5.5-5.5c3.4,0,5.5,2.5,5.5,5.5c0,3.1-2.1,5.5-5.5,5.5
		C645.9,578.9,643.8,576.4,643.8,573.4z M652.6,573.4c0-2-1.2-3.8-3.4-3.8c-2.1,0-3.4,1.8-3.4,3.8c0,2,1.2,3.8,3.4,3.8
		C651.4,577.2,652.6,575.4,652.6,573.4z"/>
	<path class="st2" d="M656.3,572.5h5.4v1.7h-5.4V572.5z"/>
	<path class="st2" d="M676.8,567.1l-4.8,11.6H671l-4.8-11.6v11.6H664v-14.6h3.2l4.3,10.5l4.3-10.5h3.2v14.6h-2.2V567.1z"/>
	<path class="st2" d="M689,577.5c-0.9,0.9-2.1,1.4-3.5,1.4c-1.8,0-3.8-1.2-3.8-3.5c0-2.4,1.9-3.4,3.8-3.4c1.5,0,2.7,0.5,3.5,1.4
		v-1.7c0-1.3-1.1-2.1-2.6-2.1c-1.2,0-2.3,0.5-3.2,1.4l-0.9-1.4c1.2-1.2,2.7-1.7,4.4-1.7c2.3,0,4.3,1,4.3,3.7v7.1h-2V577.5z
		 M689,574.6c-0.6-0.8-1.7-1.2-2.8-1.2c-1.5,0-2.5,0.9-2.5,2.1c0,1.2,1,2.1,2.5,2.1c1.1,0,2.2-0.4,2.8-1.2V574.6z"/>
	<path class="st2" d="M694.2,568.1h2v1.6c0.8-1,2.1-1.9,3.5-1.9v2c-0.2,0-0.4-0.1-0.7-0.1c-1,0-2.4,0.7-2.8,1.5v7.3h-2V568.1z"/>
	<path class="st2" d="M705.4,574.1l-1.6,1.6v2.9h-2v-14.6h2v9.4l5.2-5.3h2.5l-4.7,4.8l4.7,5.8H709L705.4,574.1z"/>
	<path class="st2" d="M717.6,567.8c3.2,0,5.3,2.5,5.3,5.7v0.5h-8.5c0.2,1.8,1.5,3.3,3.7,3.3c1.1,0,2.4-0.4,3.2-1.2l0.9,1.3
		c-1.1,1-2.6,1.6-4.3,1.6c-3.2,0-5.6-2.2-5.6-5.5C712.2,570.3,714.5,567.8,717.6,567.8z M714.3,572.6h6.6c0-1.4-1-3.1-3.3-3.1
		C715.4,569.5,714.4,571.2,714.3,572.6z"/>
	<path class="st2" d="M725.8,576.3v-6.5H724v-1.7h1.8v-2.9h2v2.9h2.2v1.7h-2.2v6c0,0.7,0.4,1.3,1.1,1.3c0.5,0,0.9-0.2,1.1-0.4
		l0.5,1.5c-0.4,0.4-1.1,0.7-2.1,0.7C726.7,578.9,725.8,578,725.8,576.3z"/>
</g>
<g>
	<path class="st2" d="M789.6,564.1h6.2c3,0,4.7,2.1,4.7,4.5s-1.7,4.5-4.7,4.5h-4v5.7h-2.2V564.1z M795.5,566h-3.7v5.1h3.7
		c1.6,0,2.7-1,2.7-2.6C798.2,567.1,797.1,566,795.5,566z"/>
	<path class="st2" d="M801.7,573.5c0-3.1,2.1-5.6,5.4-5.6c3.3,0,5.4,2.5,5.4,5.6c0,3.1-2,5.6-5.4,5.6
		C803.8,579.1,801.7,576.5,801.7,573.5z M810.4,573.5c0-2-1.2-3.8-3.3-3.8c-2.1,0-3.3,1.8-3.3,3.8c0,2,1.2,3.8,3.3,3.8
		C809.2,577.3,810.4,575.5,810.4,573.5z"/>
	<path class="st2" d="M815,576c0.7,0.8,2.1,1.5,3.6,1.5c1.5,0,2.3-0.6,2.3-1.5c0-1.1-1.2-1.4-2.6-1.7c-1.8-0.4-3.9-0.9-3.9-3.2
		c0-1.7,1.5-3.1,4-3.1c1.8,0,3.1,0.7,4,1.5l-0.9,1.4c-0.6-0.7-1.8-1.3-3.1-1.3c-1.3,0-2.2,0.5-2.2,1.4c0,0.9,1.1,1.2,2.5,1.5
		c1.8,0.4,4,0.9,4,3.4c0,1.8-1.5,3.3-4.3,3.3c-1.8,0-3.3-0.5-4.4-1.6L815,576z"/>
	<path class="st2" d="M825.7,576.4v-6.5h-1.8v-1.7h1.8v-2.9h2v2.9h2.2v1.7h-2.2v6.1c0,0.7,0.4,1.3,1,1.3c0.5,0,0.9-0.2,1.1-0.4
		l0.5,1.5c-0.4,0.4-1,0.7-2.1,0.7C826.5,579.1,825.7,578.1,825.7,576.4z"/>
	<path class="st2" d="M837.7,564.1h2.2v12.7h6.7v1.9h-8.9V564.1z"/>
	<path class="st2" d="M855.3,577.6c-0.8,0.9-2,1.4-3.5,1.4c-1.8,0-3.7-1.2-3.7-3.5c0-2.4,1.9-3.5,3.7-3.5c1.4,0,2.7,0.5,3.5,1.4
		v-1.8c0-1.3-1.1-2.1-2.6-2.1c-1.2,0-2.2,0.5-3.2,1.4l-0.9-1.4c1.2-1.2,2.6-1.7,4.4-1.7c2.3,0,4.3,1,4.3,3.7v7.2h-2V577.6z
		 M855.3,574.7c-0.6-0.8-1.6-1.2-2.7-1.2c-1.4,0-2.4,0.9-2.4,2.1s1,2.1,2.4,2.1c1.1,0,2.1-0.4,2.7-1.2V574.7z"/>
	<path class="st2" d="M867.6,577.3c-0.8,0.9-2.2,1.7-3.8,1.7c-2.3,0-3.4-1.1-3.4-3.4v-7.5h2v6.8c0,1.8,0.9,2.3,2.2,2.3
		c1.2,0,2.4-0.7,2.9-1.5v-7.6h2v10.6h-2V577.3z"/>
	<path class="st2" d="M879.9,572c0-1.8-0.9-2.3-2.3-2.3c-1.2,0-2.4,0.7-2.9,1.5v7.6h-2v-10.6h2v1.5c0.7-0.9,2.1-1.8,3.8-1.8
		c2.2,0,3.4,1.2,3.4,3.4v7.5h-2V572z"/>
	<path class="st2" d="M889.8,567.9c2,0,3.2,0.8,4,1.9l-1.3,1.2c-0.6-0.9-1.5-1.3-2.6-1.3c-2.1,0-3.4,1.6-3.4,3.8
		c0,2.2,1.3,3.8,3.4,3.8c1.1,0,1.9-0.4,2.6-1.3l1.3,1.2c-0.8,1-2,1.9-4,1.9c-3.2,0-5.4-2.4-5.4-5.6S886.5,567.9,889.8,567.9z"/>
	<path class="st2" d="M903.1,571.9c0-1.8-0.9-2.3-2.3-2.3c-1.2,0-2.4,0.7-2.9,1.5v7.6h-2v-14.7h2v5.5c0.7-0.9,2.1-1.8,3.8-1.8
		c2.3,0,3.4,1.1,3.4,3.4v7.5h-2V571.9z"/>
	<path class="st2" d="M802.2,593.5l-4.8,11.7h-0.9l-4.8-11.7v11.7h-2.2v-14.7h3.1l4.3,10.5l4.3-10.5h3.1v14.7h-2.2V593.5z"/>
	<path class="st2" d="M814.2,604c-0.8,0.9-2,1.4-3.5,1.4c-1.8,0-3.7-1.2-3.7-3.5c0-2.4,1.9-3.5,3.7-3.5c1.4,0,2.7,0.5,3.5,1.4v-1.8
		c0-1.3-1.1-2.1-2.6-2.1c-1.2,0-2.2,0.5-3.2,1.4l-0.9-1.4c1.2-1.2,2.6-1.7,4.4-1.7c2.3,0,4.3,1,4.3,3.7v7.2h-2V604z M814.2,601.1
		c-0.6-0.8-1.6-1.2-2.7-1.2c-1.4,0-2.4,0.9-2.4,2.1s1,2.1,2.4,2.1c1.1,0,2.1-0.4,2.7-1.2V601.1z"/>
	<path class="st2" d="M819.1,591.5c0-0.7,0.6-1.3,1.3-1.3c0.7,0,1.3,0.6,1.3,1.3s-0.6,1.3-1.3,1.3
		C819.6,592.8,819.1,592.2,819.1,591.5z M819.4,594.6h2v10.6h-2V594.6z"/>
	<path class="st2" d="M831.7,598.4c0-1.8-0.9-2.3-2.3-2.3c-1.2,0-2.4,0.7-2.9,1.5v7.6h-2v-10.6h2v1.5c0.7-0.9,2.1-1.8,3.8-1.8
		c2.2,0,3.4,1.2,3.4,3.4v7.5h-2V598.4z"/>
	<path class="st2" d="M837.2,602.8v-6.5h-1.8v-1.7h1.8v-2.9h2v2.9h2.2v1.7h-2.2v6.1c0,0.7,0.4,1.3,1,1.3c0.5,0,0.9-0.2,1.1-0.4
		l0.5,1.5c-0.4,0.4-1,0.7-2.1,0.7C838,605.5,837.2,604.5,837.2,602.8z"/>
	<path class="st2" d="M848.2,594.3c3.2,0,5.2,2.5,5.2,5.7v0.5h-8.4c0.2,1.8,1.5,3.3,3.6,3.3c1.1,0,2.4-0.4,3.1-1.3l0.9,1.3
		c-1.1,1-2.6,1.6-4.3,1.6c-3.2,0-5.5-2.2-5.5-5.6C842.9,596.8,845.1,594.3,848.2,594.3z M844.9,599.1h6.5c0-1.4-1-3.2-3.2-3.2
		C846,595.9,845,597.6,844.9,599.1z"/>
	<path class="st2" d="M863,598.4c0-1.8-0.9-2.3-2.3-2.3c-1.2,0-2.4,0.7-2.9,1.5v7.6h-2v-10.6h2v1.5c0.7-0.9,2.1-1.8,3.8-1.8
		c2.2,0,3.4,1.2,3.4,3.4v7.5h-2V598.4z"/>
	<path class="st2" d="M874.7,604c-0.8,0.9-2,1.4-3.5,1.4c-1.8,0-3.7-1.2-3.7-3.5c0-2.4,1.9-3.5,3.7-3.5c1.4,0,2.7,0.5,3.5,1.4v-1.8
		c0-1.3-1.1-2.1-2.6-2.1c-1.2,0-2.2,0.5-3.2,1.4L868,596c1.2-1.2,2.6-1.7,4.4-1.7c2.3,0,4.3,1,4.3,3.7v7.2h-2V604z M874.7,601.1
		c-0.6-0.8-1.6-1.2-2.7-1.2c-1.4,0-2.4,0.9-2.4,2.1s1,2.1,2.4,2.1c1.1,0,2.1-0.4,2.7-1.2V601.1z"/>
	<path class="st2" d="M887,598.4c0-1.8-0.9-2.3-2.3-2.3c-1.2,0-2.4,0.7-2.9,1.5v7.6h-2v-10.6h2v1.5c0.7-0.9,2.1-1.8,3.8-1.8
		c2.2,0,3.4,1.2,3.4,3.4v7.5h-2V598.4z"/>
	<path class="st2" d="M896.9,594.3c2,0,3.2,0.8,4,1.9l-1.3,1.2c-0.6-0.9-1.5-1.3-2.6-1.3c-2.1,0-3.4,1.6-3.4,3.8
		c0,2.2,1.3,3.8,3.4,3.8c1.1,0,1.9-0.4,2.6-1.3l1.3,1.2c-0.8,1-2,1.9-4,1.9c-3.2,0-5.4-2.4-5.4-5.6S893.7,594.3,896.9,594.3z"/>
	<path class="st2" d="M907.7,594.3c3.2,0,5.2,2.5,5.2,5.7v0.5h-8.4c0.2,1.8,1.5,3.3,3.6,3.3c1.1,0,2.4-0.4,3.1-1.3l0.9,1.3
		c-1.1,1-2.6,1.6-4.3,1.6c-3.2,0-5.5-2.2-5.5-5.6C902.4,596.8,904.6,594.3,907.7,594.3z M904.5,599.1h6.5c0-1.4-1-3.2-3.2-3.2
		C905.6,595.9,904.6,597.6,904.5,599.1z"/>
</g>
<g>
	<path class="st2" d="M1016.5,563.9c4.4,0,7.4,3.2,7.4,7.6s-3,7.6-7.4,7.6s-7.4-3.2-7.4-7.6S1012.1,563.9,1016.5,563.9z
		 M1016.5,565.8c-3.1,0-5.1,2.4-5.1,5.6c0,3.2,2,5.6,5.1,5.6c3.1,0,5.1-2.4,5.1-5.6C1021.6,568.2,1019.6,565.8,1016.5,565.8z"/>
	<path class="st2" d="M1026.5,582.8v-14.7h2v1.5c0.8-1.1,2-1.8,3.5-1.8c2.8,0,4.7,2.1,4.7,5.6c0,3.5-2,5.6-4.7,5.6
		c-1.4,0-2.6-0.6-3.5-1.8v5.6H1026.5z M1031.4,569.7c-1.2,0-2.4,0.7-2.9,1.6v4.5c0.5,0.8,1.7,1.6,2.9,1.6c2,0,3.2-1.6,3.2-3.8
		C1034.6,571.3,1033.4,569.7,1031.4,569.7z"/>
	<path class="st2" d="M1039.6,576.4v-6.5h-1.8v-1.7h1.8v-2.9h2v2.9h2.2v1.7h-2.2v6.1c0,0.7,0.4,1.3,1,1.3c0.5,0,0.9-0.2,1.1-0.4
		l0.5,1.5c-0.4,0.4-1,0.7-2.1,0.7C1040.5,579.1,1039.6,578.1,1039.6,576.4z"/>
	<path class="st2" d="M1045.6,565.1c0-0.7,0.6-1.3,1.3-1.3c0.7,0,1.3,0.6,1.3,1.3s-0.6,1.3-1.3,1.3
		C1046.2,566.4,1045.6,565.8,1045.6,565.1z M1045.9,568.2h2v10.6h-2V568.2z"/>
	<path class="st2" d="M1064,571.7c0-1.2-0.5-2-1.8-2c-1.1,0-2.1,0.7-2.6,1.5v7.6h-2v-7.1c0-1.2-0.5-2-1.9-2c-1,0-2.1,0.8-2.6,1.5
		v7.6h-2v-10.6h2v1.5c0.4-0.7,1.8-1.8,3.4-1.8c1.6,0,2.6,0.8,2.9,2c0.6-1,2-2,3.6-2c2,0,3,1.1,3,3.2v7.7h-2V571.7z"/>
	<path class="st2" d="M1068.8,565.1c0-0.7,0.6-1.3,1.3-1.3c0.7,0,1.3,0.6,1.3,1.3s-0.6,1.3-1.3,1.3
		C1069.4,566.4,1068.8,565.8,1068.8,565.1z M1069.1,568.2h2v10.6h-2V568.2z"/>
	<path class="st2" d="M1073.7,577.3l5.5-7.4h-5.5v-1.7h8.2v1.5l-5.6,7.4h5.7v1.7h-8.2V577.3z"/>
	<path class="st2" d="M1091.2,577.6c-0.8,0.9-2,1.4-3.5,1.4c-1.8,0-3.7-1.2-3.7-3.5c0-2.4,1.9-3.5,3.7-3.5c1.4,0,2.7,0.5,3.5,1.4
		v-1.8c0-1.3-1.1-2.1-2.6-2.1c-1.2,0-2.2,0.5-3.2,1.4l-0.9-1.4c1.2-1.2,2.6-1.7,4.4-1.7c2.3,0,4.3,1,4.3,3.7v7.2h-2V577.6z
		 M1091.2,574.7c-0.6-0.8-1.6-1.2-2.7-1.2c-1.4,0-2.4,0.9-2.4,2.1s1,2.1,2.4,2.1c1.1,0,2.1-0.4,2.7-1.2V574.7z"/>
	<path class="st2" d="M1096.8,576.4v-6.5h-1.8v-1.7h1.8v-2.9h2v2.9h2.2v1.7h-2.2v6.1c0,0.7,0.4,1.3,1,1.3c0.5,0,0.9-0.2,1.1-0.4
		l0.5,1.5c-0.4,0.4-1,0.7-2.1,0.7C1097.6,579.1,1096.8,578.1,1096.8,576.4z"/>
	<path class="st2" d="M1102.8,565.1c0-0.7,0.6-1.3,1.3-1.3c0.7,0,1.3,0.6,1.3,1.3s-0.6,1.3-1.3,1.3
		C1103.4,566.4,1102.8,565.8,1102.8,565.1z M1103.1,568.2h2v10.6h-2V568.2z"/>
	<path class="st2" d="M1107.6,573.5c0-3.1,2.1-5.6,5.4-5.6c3.3,0,5.4,2.5,5.4,5.6c0,3.1-2,5.6-5.4,5.6
		C1109.6,579.1,1107.6,576.5,1107.6,573.5z M1116.2,573.5c0-2-1.2-3.8-3.3-3.8c-2.1,0-3.3,1.8-3.3,3.8c0,2,1.2,3.8,3.3,3.8
		C1115.1,577.3,1116.2,575.5,1116.2,573.5z"/>
	<path class="st2" d="M1128,572c0-1.8-0.9-2.3-2.3-2.3c-1.2,0-2.4,0.7-2.9,1.5v7.6h-2v-10.6h2v1.5c0.7-0.9,2.1-1.8,3.8-1.8
		c2.2,0,3.4,1.2,3.4,3.4v7.5h-2V572z"/>
	<path class="st2" d="M1150.8,578.8h-2.6c-0.4-0.4-0.9-0.9-1.5-1.4c-1.1,1-2.4,1.7-4.2,1.7c-2.6,0-4.6-1.4-4.6-4.1
		c0-2.3,1.5-3.5,3.2-4.3c-0.6-1.1-1.1-2.2-1.1-3.3c0-2,1.7-3.4,3.8-3.4c2,0,3.5,1.1,3.5,2.9c0,2.2-1.8,3.2-3.7,4.1
		c0.5,0.7,1.1,1.4,1.6,2c0.5,0.6,1.1,1.2,1.6,1.8c0.7-1.1,1.3-2.4,1.5-3.2l1.6,0.7c-0.5,1.2-1.1,2.5-2,3.7
		C1148.9,576.9,1149.8,577.8,1150.8,578.8z M1145.6,576.2c-0.8-0.8-1.5-1.6-1.9-2.1c-0.6-0.7-1.2-1.4-1.7-2.2
		c-1.1,0.7-1.9,1.5-1.9,2.9c0,1.7,1.3,2.7,2.8,2.7C1143.9,577.4,1144.8,576.9,1145.6,576.2z M1142.9,569.7c1.5-0.7,2.7-1.5,2.7-2.8
		c0-1-0.7-1.5-1.6-1.5c-1.1,0-1.9,0.8-1.9,2C1142.1,568.1,1142.4,568.9,1142.9,569.7z"/>
	<path class="st2" d="M1009.7,590.5h9.9v1.9h-7.7v4.3h7.5v1.9h-7.5v4.6h7.7v1.9h-9.9V590.5z"/>
	<path class="st2" d="M1029.5,598.4c0-1.8-0.9-2.3-2.3-2.3c-1.2,0-2.4,0.7-2.9,1.5v7.6h-2v-10.6h2v1.5c0.7-0.9,2.1-1.8,3.8-1.8
		c2.2,0,3.4,1.2,3.4,3.4v7.5h-2V598.4z"/>
	<path class="st2" d="M1041.8,598.3c0-1.8-0.9-2.3-2.3-2.3c-1.2,0-2.4,0.7-2.9,1.5v7.6h-2v-14.7h2v5.5c0.7-0.9,2.1-1.8,3.8-1.8
		c2.3,0,3.4,1.1,3.4,3.4v7.5h-2V598.3z"/>
	<path class="st2" d="M1053.5,604c-0.8,0.9-2,1.4-3.5,1.4c-1.8,0-3.7-1.2-3.7-3.5c0-2.4,1.9-3.5,3.7-3.5c1.4,0,2.7,0.5,3.5,1.4v-1.8
		c0-1.3-1.1-2.1-2.6-2.1c-1.2,0-2.2,0.5-3.2,1.4l-0.9-1.4c1.2-1.2,2.6-1.7,4.4-1.7c2.3,0,4.3,1,4.3,3.7v7.2h-2V604z M1053.5,601.1
		c-0.6-0.8-1.6-1.2-2.7-1.2c-1.4,0-2.4,0.9-2.4,2.1s1,2.1,2.4,2.1c1.1,0,2.1-0.4,2.7-1.2V601.1z"/>
	<path class="st2" d="M1065.8,598.4c0-1.8-0.9-2.3-2.3-2.3c-1.2,0-2.4,0.7-2.9,1.5v7.6h-2v-10.6h2v1.5c0.7-0.9,2.1-1.8,3.8-1.8
		c2.2,0,3.4,1.2,3.4,3.4v7.5h-2V598.4z"/>
	<path class="st2" d="M1075.7,594.3c2,0,3.2,0.8,4,1.9l-1.3,1.2c-0.6-0.9-1.5-1.3-2.6-1.3c-2.1,0-3.4,1.6-3.4,3.8
		c0,2.2,1.3,3.8,3.4,3.8c1.1,0,1.9-0.4,2.6-1.3l1.3,1.2c-0.8,1-2,1.9-4,1.9c-3.2,0-5.4-2.4-5.4-5.6S1072.5,594.3,1075.7,594.3z"/>
	<path class="st2" d="M1086.5,594.3c3.2,0,5.2,2.5,5.2,5.7v0.5h-8.4c0.2,1.8,1.5,3.3,3.6,3.3c1.1,0,2.4-0.4,3.1-1.3l0.9,1.3
		c-1.1,1-2.6,1.6-4.3,1.6c-3.2,0-5.5-2.2-5.5-5.6C1081.2,596.8,1083.4,594.3,1086.5,594.3z M1083.2,599.1h6.5c0-1.4-1-3.2-3.2-3.2
		C1084.4,595.9,1083.3,597.6,1083.2,599.1z"/>
	<path class="st2" d="M1107.1,598.1c0-1.2-0.6-2-1.8-2c-1.1,0-2.1,0.7-2.6,1.5v7.6h-2v-7.1c0-1.2-0.5-2-1.9-2c-1,0-2.1,0.8-2.6,1.5
		v7.6h-2v-10.6h2v1.5c0.4-0.7,1.8-1.8,3.4-1.8c1.6,0,2.6,0.8,2.9,2c0.6-1,2-2,3.6-2c2,0,3,1.1,3,3.2v7.7h-2V598.1z"/>
	<path class="st2" d="M1116.8,594.3c3.2,0,5.2,2.5,5.2,5.7v0.5h-8.4c0.2,1.8,1.5,3.3,3.6,3.3c1.1,0,2.4-0.4,3.1-1.3l0.9,1.3
		c-1.1,1-2.6,1.6-4.3,1.6c-3.2,0-5.5-2.2-5.5-5.6C1111.5,596.8,1113.7,594.3,1116.8,594.3z M1113.6,599.1h6.5c0-1.4-1-3.2-3.2-3.2
		C1114.7,595.9,1113.7,597.6,1113.6,599.1z"/>
	<path class="st2" d="M1131.7,598.4c0-1.8-0.9-2.3-2.3-2.3c-1.2,0-2.4,0.7-2.9,1.5v7.6h-2v-10.6h2v1.5c0.7-0.9,2.1-1.8,3.8-1.8
		c2.2,0,3.4,1.2,3.4,3.4v7.5h-2V598.4z"/>
	<path class="st2" d="M1137.2,602.8v-6.5h-1.8v-1.7h1.8v-2.9h2v2.9h2.2v1.7h-2.2v6.1c0,0.7,0.4,1.3,1,1.3c0.5,0,0.9-0.2,1.1-0.4
		l0.5,1.5c-0.4,0.4-1,0.7-2.1,0.7C1138.1,605.5,1137.2,604.5,1137.2,602.8z"/>
	<path class="st2" d="M1143.6,602.4c0.7,0.8,2.1,1.5,3.6,1.5c1.5,0,2.3-0.6,2.3-1.5c0-1.1-1.2-1.4-2.6-1.7c-1.8-0.4-3.9-0.9-3.9-3.2
		c0-1.7,1.5-3.1,4-3.1c1.8,0,3.1,0.7,4,1.5l-0.9,1.4c-0.6-0.7-1.8-1.3-3.1-1.3s-2.2,0.5-2.2,1.4c0,0.9,1.1,1.2,2.5,1.5
		c1.8,0.4,4,0.9,4,3.4c0,1.8-1.5,3.3-4.3,3.3c-1.8,0-3.3-0.5-4.4-1.6L1143.6,602.4z"/>
</g>
<g>
	<path class="st2" d="M1239.8,274.7l1.3,1.4l-1.5,1.3l-1.3-1.5c-1.1,0.6-2.4,1-3.9,1c-4.4,0-7.4-3.2-7.4-7.6s3-7.6,7.4-7.6
		c4.4,0,7.4,3.2,7.4,7.6C1241.8,271.4,1241,273.3,1239.8,274.7z M1236.8,274.3l-2-2.2l1.5-1.3l1.9,2.2c0.7-1,1.2-2.3,1.2-3.7
		c0-3.2-2-5.6-5.1-5.6c-3.1,0-5.1,2.4-5.1,5.6c0,3.2,2,5.6,5.1,5.6C1235.3,274.9,1236.1,274.7,1236.8,274.3z"/>
	<path class="st2" d="M1251.6,275.2c-0.8,0.9-2.2,1.7-3.8,1.7c-2.3,0-3.4-1.1-3.4-3.4V266h2v6.8c0,1.8,0.9,2.3,2.2,2.3
		c1.2,0,2.4-0.7,2.9-1.5V266h2v10.6h-2V275.2z"/>
	<path class="st2" d="M1263.2,275.5c-0.8,0.9-2,1.4-3.5,1.4c-1.8,0-3.7-1.2-3.7-3.5c0-2.4,1.9-3.5,3.7-3.5c1.4,0,2.7,0.5,3.5,1.4
		v-1.8c0-1.3-1.1-2.1-2.6-2.1c-1.2,0-2.2,0.5-3.2,1.4l-0.9-1.4c1.2-1.2,2.6-1.7,4.4-1.7c2.3,0,4.3,1,4.3,3.7v7.2h-2V275.5z
		 M1263.2,272.5c-0.6-0.8-1.6-1.2-2.7-1.2c-1.4,0-2.4,0.9-2.4,2.1s1,2.1,2.4,2.1c1.1,0,2.1-0.4,2.7-1.2V272.5z"/>
	<path class="st2" d="M1268.4,262h2v14.7h-2V262z"/>
	<path class="st2" d="M1273.2,263c0-0.7,0.6-1.3,1.3-1.3c0.7,0,1.3,0.6,1.3,1.3s-0.6,1.3-1.3,1.3
		C1273.8,264.2,1273.2,263.7,1273.2,263z M1273.5,266h2v10.6h-2V266z"/>
	<path class="st2" d="M1279,274.3v-6.5h-1.8V266h1.8v-2.9h2v2.9h2.2v1.7h-2.2v6.1c0,0.7,0.4,1.3,1,1.3c0.5,0,0.9-0.2,1.1-0.4
		l0.5,1.5c-0.4,0.4-1,0.7-2.1,0.7C1279.9,276.9,1279,276,1279,274.3z"/>
	<path class="st2" d="M1286,279.2c0.7,0,1.2-0.2,1.5-1l0.6-1.4l-4.4-10.7h2.1l3.3,8.3l3.3-8.3h2.1l-5.2,12.7
		c-0.7,1.7-1.8,2.3-3.4,2.3c-0.3,0-0.9-0.1-1.2-0.2l0.3-1.8C1285.4,279.1,1285.8,279.2,1286,279.2z"/>
	<path class="st2" d="M1236.9,300h-7.2l-1.2,3h-2.4l5.8-14.7h2.8l5.8,14.7h-2.4L1236.9,300z M1230.3,298h5.9l-3-7.8L1230.3,298z"/>
	<path class="st2" d="M1242.2,300.2c0.7,0.8,2.1,1.5,3.6,1.5c1.5,0,2.3-0.6,2.3-1.5c0-1.1-1.2-1.4-2.6-1.7c-1.8-0.4-3.9-0.9-3.9-3.2
		c0-1.7,1.5-3.1,4-3.1c1.8,0,3.1,0.7,4,1.5l-0.9,1.4c-0.6-0.7-1.8-1.3-3.1-1.3s-2.2,0.5-2.2,1.4c0,0.9,1.1,1.2,2.5,1.5
		c1.8,0.4,4,0.9,4,3.4c0,1.8-1.5,3.3-4.3,3.3c-1.8,0-3.3-0.5-4.4-1.6L1242.2,300.2z"/>
	<path class="st2" d="M1252.5,300.2c0.7,0.8,2.1,1.5,3.6,1.5c1.5,0,2.3-0.6,2.3-1.5c0-1.1-1.2-1.4-2.6-1.7c-1.8-0.4-3.9-0.9-3.9-3.2
		c0-1.7,1.5-3.1,4-3.1c1.8,0,3.1,0.7,4,1.5l-0.9,1.4c-0.6-0.7-1.8-1.3-3.1-1.3c-1.3,0-2.2,0.5-2.2,1.4c0,0.9,1.1,1.2,2.5,1.5
		c1.8,0.4,4,0.9,4,3.4c0,1.8-1.5,3.3-4.3,3.3c-1.8,0-3.3-0.5-4.4-1.6L1252.5,300.2z"/>
	<path class="st2" d="M1270,301.6c-0.8,0.9-2.2,1.7-3.8,1.7c-2.3,0-3.4-1.1-3.4-3.4v-7.5h2v6.8c0,1.8,0.9,2.3,2.2,2.3
		c1.2,0,2.4-0.7,2.9-1.5v-7.6h2V303h-2V301.6z"/>
	<path class="st2" d="M1275.1,292.4h2v1.6c0.8-1.1,2.1-1.9,3.5-1.9v2c-0.2,0-0.4-0.1-0.7-0.1c-1,0-2.3,0.7-2.8,1.5v7.4h-2V292.4z"/>
	<path class="st2" d="M1289.1,301.9c-0.8,0.9-2,1.4-3.5,1.4c-1.8,0-3.7-1.2-3.7-3.5c0-2.4,1.9-3.5,3.7-3.5c1.4,0,2.7,0.5,3.5,1.4
		V296c0-1.3-1.1-2.1-2.6-2.1c-1.2,0-2.2,0.5-3.2,1.4l-0.9-1.4c1.2-1.2,2.6-1.7,4.4-1.7c2.3,0,4.3,1,4.3,3.7v7.2h-2V301.9z
		 M1289.1,298.9c-0.6-0.8-1.6-1.2-2.7-1.2c-1.4,0-2.4,0.9-2.4,2.1s1,2.1,2.4,2.1c1.1,0,2.1-0.4,2.7-1.2V298.9z"/>
	<path class="st2" d="M1301.4,296.2c0-1.8-0.9-2.3-2.3-2.3c-1.2,0-2.4,0.7-2.9,1.5v7.6h-2v-10.6h2v1.5c0.7-0.9,2.1-1.8,3.8-1.8
		c2.2,0,3.4,1.2,3.4,3.4v7.5h-2V296.2z"/>
	<path class="st2" d="M1311.3,292.1c2,0,3.2,0.8,4,1.9l-1.3,1.2c-0.6-0.9-1.5-1.3-2.6-1.3c-2.1,0-3.4,1.6-3.4,3.8
		c0,2.2,1.3,3.8,3.4,3.8c1.1,0,1.9-0.4,2.6-1.3l1.3,1.2c-0.8,1-2,1.9-4,1.9c-3.2,0-5.4-2.4-5.4-5.6S1308.1,292.1,1311.3,292.1z"/>
	<path class="st2" d="M1322.1,292.1c3.2,0,5.2,2.5,5.2,5.7v0.5h-8.4c0.2,1.8,1.5,3.3,3.6,3.3c1.1,0,2.4-0.4,3.1-1.3l0.9,1.3
		c-1.1,1-2.6,1.6-4.3,1.6c-3.2,0-5.5-2.2-5.5-5.6C1316.8,294.6,1319,292.1,1322.1,292.1z M1318.9,296.9h6.5c0-1.4-1-3.2-3.2-3.2
		C1320,293.8,1319,295.5,1318.9,296.9z"/>
</g>
<g>
	<path class="st2" d="M1010.7,262h6.9c2.6,0,4.1,1.6,4.1,3.7c0,1.8-1.2,3.1-2.6,3.4c1.6,0.2,2.8,1.8,2.8,3.6c0,2.3-1.5,4-4.2,4h-7.1
		V262z M1017.1,268.2c1.5,0,2.3-0.9,2.3-2.1c0-1.2-0.8-2.2-2.3-2.2h-4.3v4.3H1017.1z M1017.2,274.7c1.5,0,2.5-0.9,2.5-2.3
		c0-1.2-0.8-2.3-2.5-2.3h-4.4v4.6H1017.2z"/>
	<path class="st2" d="M1031.8,275.2c-0.8,0.9-2.2,1.7-3.8,1.7c-2.3,0-3.4-1.1-3.4-3.4V266h2v6.8c0,1.8,0.9,2.3,2.2,2.3
		c1.2,0,2.4-0.7,2.9-1.5V266h2v10.6h-2V275.2z"/>
	<path class="st2" d="M1036.6,263c0-0.7,0.6-1.3,1.3-1.3c0.7,0,1.3,0.6,1.3,1.3s-0.6,1.3-1.3,1.3
		C1037.2,264.2,1036.6,263.7,1036.6,263z M1036.9,266h2v10.6h-2V266z"/>
	<path class="st2" d="M1042.1,262h2v14.7h-2V262z"/>
	<path class="st2" d="M1054.8,275.1c-0.8,1.1-2.1,1.8-3.5,1.8c-2.8,0-4.8-2.1-4.8-5.6c0-3.4,2-5.6,4.8-5.6c1.4,0,2.6,0.7,3.5,1.8
		V262h2v14.7h-2V275.1z M1054.8,269.1c-0.5-0.9-1.7-1.6-2.9-1.6c-2,0-3.2,1.6-3.2,3.8c0,2.2,1.2,3.8,3.2,3.8c1.2,0,2.4-0.7,2.9-1.5
		V269.1z"/>
	<path class="st2" d="M1077.6,276.6h-2.6c-0.4-0.4-0.9-0.9-1.5-1.4c-1.1,1-2.4,1.7-4.2,1.7c-2.6,0-4.6-1.4-4.6-4.1
		c0-2.3,1.5-3.5,3.2-4.3c-0.6-1.1-1.1-2.2-1.1-3.3c0-2,1.7-3.4,3.8-3.4c2,0,3.5,1.1,3.5,2.9c0,2.2-1.8,3.2-3.7,4.1
		c0.6,0.7,1.1,1.4,1.6,2c0.5,0.6,1.1,1.2,1.6,1.8c0.7-1.1,1.3-2.4,1.5-3.2l1.6,0.7c-0.5,1.2-1.1,2.5-2,3.7
		C1075.7,274.7,1076.6,275.6,1077.6,276.6z M1072.4,274c-0.8-0.8-1.5-1.6-1.9-2.1c-0.6-0.7-1.2-1.4-1.7-2.2
		c-1.1,0.7-1.9,1.5-1.9,2.9c0,1.7,1.3,2.7,2.8,2.7C1070.7,275.3,1071.6,274.8,1072.4,274z M1069.7,267.6c1.5-0.7,2.7-1.5,2.7-2.8
		c0-1-0.7-1.5-1.6-1.5c-1.1,0-1.9,0.8-1.9,2C1068.9,265.9,1069.2,266.8,1069.7,267.6z"/>
	<path class="st2" d="M1015.6,297.4h-2.8v5.7h-2.2v-14.7h6.2c2.8,0,4.7,1.8,4.7,4.5c0,2.6-1.8,4-3.7,4.3l3.8,5.9h-2.6L1015.6,297.4z
		 M1016.6,290.3h-3.7v5.1h3.7c1.6,0,2.7-1,2.7-2.6C1019.3,291.3,1018.1,290.3,1016.6,290.3z"/>
	<path class="st2" d="M1028.2,292.1c3.2,0,5.2,2.5,5.2,5.7v0.5h-8.4c0.2,1.8,1.5,3.3,3.6,3.3c1.1,0,2.4-0.4,3.1-1.3l0.9,1.3
		c-1.1,1-2.6,1.6-4.3,1.6c-3.2,0-5.5-2.2-5.5-5.6C1022.9,294.6,1025.1,292.1,1028.2,292.1z M1025,296.9h6.5c0-1.4-1-3.2-3.2-3.2
		C1026.1,293.8,1025.1,295.5,1025,296.9z"/>
	<path class="st2" d="M1035.9,288.4h2V303h-2V288.4z"/>
	<path class="st2" d="M1045.7,292.1c3.2,0,5.2,2.5,5.2,5.7v0.5h-8.4c0.2,1.8,1.5,3.3,3.6,3.3c1.1,0,2.4-0.4,3.1-1.3l0.9,1.3
		c-1.1,1-2.6,1.6-4.3,1.6c-3.2,0-5.5-2.2-5.5-5.6C1040.3,294.6,1042.6,292.1,1045.7,292.1z M1042.4,296.9h6.5c0-1.4-1-3.2-3.2-3.2
		C1043.5,293.8,1042.5,295.5,1042.4,296.9z"/>
	<path class="st2" d="M1059.9,301.9c-0.8,0.9-2,1.4-3.5,1.4c-1.8,0-3.7-1.2-3.7-3.5c0-2.4,1.9-3.5,3.7-3.5c1.4,0,2.7,0.5,3.5,1.4
		V296c0-1.3-1.1-2.1-2.6-2.1c-1.2,0-2.2,0.5-3.2,1.4l-0.9-1.4c1.2-1.2,2.6-1.7,4.4-1.7c2.3,0,4.3,1,4.3,3.7v7.2h-2V301.9z
		 M1059.9,298.9c-0.6-0.8-1.6-1.2-2.7-1.2c-1.4,0-2.4,0.9-2.4,2.1s1,2.1,2.4,2.1c1.1,0,2.1-0.4,2.7-1.2V298.9z"/>
	<path class="st2" d="M1065,300.2c0.7,0.8,2.1,1.5,3.6,1.5c1.5,0,2.3-0.6,2.3-1.5c0-1.1-1.2-1.4-2.6-1.7c-1.8-0.4-3.9-0.9-3.9-3.2
		c0-1.7,1.5-3.1,4-3.1c1.8,0,3.1,0.7,4,1.5l-0.9,1.4c-0.6-0.7-1.8-1.3-3.1-1.3s-2.2,0.5-2.2,1.4c0,0.9,1.1,1.2,2.5,1.5
		c1.8,0.4,4,0.9,4,3.4c0,1.8-1.5,3.3-4.3,3.3c-1.8,0-3.3-0.5-4.4-1.6L1065,300.2z"/>
	<path class="st2" d="M1080,292.1c3.2,0,5.2,2.5,5.2,5.7v0.5h-8.4c0.2,1.8,1.5,3.3,3.6,3.3c1.1,0,2.4-0.4,3.1-1.3l0.9,1.3
		c-1.1,1-2.6,1.6-4.3,1.6c-3.2,0-5.5-2.2-5.5-5.6C1074.7,294.6,1076.9,292.1,1080,292.1z M1076.7,296.9h6.5c0-1.4-1-3.2-3.2-3.2
		C1077.8,293.8,1076.8,295.5,1076.7,296.9z"/>
</g>
<g>
	<path class="st2" d="M361.6,563.9c2.8,0,4.6,1.3,5.8,2.9l-1.8,1c-0.8-1.1-2.3-2-4-2c-3.1,0-5.3,2.3-5.3,5.6c0,3.3,2.3,5.7,5.3,5.7
		c1.6,0,3-0.8,3.7-1.5V573h-4.7v-1.9h6.9v5.4c-1.4,1.6-3.4,2.6-5.9,2.6c-4.2,0-7.6-3-7.6-7.6C354,566.9,357.4,563.9,361.6,563.9z"/>
	<path class="st2" d="M369.6,573.5c0-3.1,2.1-5.6,5.4-5.6c3.3,0,5.4,2.5,5.4,5.6c0,3.1-2,5.6-5.4,5.6
		C371.7,579.1,369.6,576.5,369.6,573.5z M378.3,573.5c0-2-1.2-3.8-3.3-3.8c-2.1,0-3.3,1.8-3.3,3.8c0,2,1.2,3.8,3.3,3.8
		C377.1,577.3,378.3,575.5,378.3,573.5z"/>
	<path class="st2" d="M388.6,564.1h2.2v12.7h6.7v1.9h-8.9V564.1z"/>
	<path class="st2" d="M399.5,565.1c0-0.7,0.6-1.3,1.3-1.3c0.7,0,1.3,0.6,1.3,1.3s-0.6,1.3-1.3,1.3
		C400.1,566.4,399.5,565.8,399.5,565.1z M399.8,568.2h2v10.6h-2V568.2z"/>
	<path class="st2" d="M403.4,568.2h2.1l3.3,8.3l3.3-8.3h2.1l-4.4,10.6h-2.1L403.4,568.2z"/>
	<path class="st2" d="M420.6,567.9c3.2,0,5.2,2.5,5.2,5.7v0.5h-8.4c0.2,1.8,1.5,3.3,3.6,3.3c1.1,0,2.4-0.4,3.1-1.3l0.9,1.3
		c-1.1,1-2.6,1.6-4.3,1.6c-3.2,0-5.5-2.2-5.5-5.6C415.2,570.4,417.5,567.9,420.6,567.9z M417.3,572.7h6.5c0-1.4-1-3.2-3.2-3.2
		C418.4,569.5,417.4,571.2,417.3,572.7z"/>
	<path class="st2" d="M355,601.4c1,1.1,2.6,2.1,4.6,2.1c2.4,0,3.2-1.2,3.2-2.3c0-1.5-1.7-2-3.5-2.5c-2.4-0.6-5.1-1.3-5.1-4.3
		c0-2.4,2.1-4.2,5.2-4.2c2.3,0,4,0.7,5.3,2l-1.3,1.6c-1.1-1.2-2.7-1.7-4.2-1.7c-1.6,0-2.8,0.8-2.8,2.1c0,1.3,1.6,1.7,3.4,2.2
		c2.4,0.6,5.2,1.4,5.2,4.5c0,2.3-1.6,4.4-5.5,4.4c-2.6,0-4.5-0.9-5.8-2.3L355,601.4z"/>
	<path class="st2" d="M367.6,602.8v-6.5h-1.8v-1.7h1.8v-2.9h2v2.9h2.2v1.7h-2.2v6.1c0,0.7,0.4,1.3,1,1.3c0.5,0,0.9-0.2,1.1-0.4
		l0.5,1.5c-0.4,0.4-1,0.7-2.1,0.7C368.5,605.5,367.6,604.5,367.6,602.8z"/>
	<path class="st2" d="M380.5,604c-0.8,0.9-2,1.4-3.5,1.4c-1.8,0-3.7-1.2-3.7-3.5c0-2.4,1.9-3.5,3.7-3.5c1.4,0,2.7,0.5,3.5,1.4v-1.8
		c0-1.3-1.1-2.1-2.6-2.1c-1.2,0-2.2,0.5-3.2,1.4l-0.9-1.4c1.2-1.2,2.6-1.7,4.4-1.7c2.3,0,4.3,1,4.3,3.7v7.2h-2V604z M380.5,601.1
		c-0.6-0.8-1.6-1.2-2.7-1.2c-1.4,0-2.4,0.9-2.4,2.1s1,2.1,2.4,2.1c1.1,0,2.1-0.4,2.7-1.2V601.1z"/>
	<path class="st2" d="M386.5,606.5c0.9,1,2,1.4,3.4,1.4c1.6,0,3.3-0.8,3.3-3v-1.4c-0.8,1.1-2.1,1.8-3.5,1.8c-2.8,0-4.7-2-4.7-5.5
		c0-3.4,2-5.5,4.7-5.5c1.4,0,2.6,0.7,3.5,1.8v-1.5h2v10.2c0,3.7-2.7,4.7-5.3,4.7c-1.8,0-3.1-0.4-4.4-1.6L386.5,606.5z M393.2,597.6
		c-0.6-0.9-1.8-1.6-2.9-1.6c-2,0-3.2,1.5-3.2,3.7c0,2.2,1.2,3.7,3.2,3.7c1.2,0,2.4-0.7,2.9-1.6V597.6z"/>
	<path class="st2" d="M403,594.3c3.2,0,5.2,2.5,5.2,5.7v0.5h-8.4c0.2,1.8,1.5,3.3,3.6,3.3c1.1,0,2.4-0.4,3.1-1.3l0.9,1.3
		c-1.1,1-2.6,1.6-4.3,1.6c-3.2,0-5.5-2.2-5.5-5.6C397.7,596.8,399.9,594.3,403,594.3z M399.7,599.1h6.5c0-1.4-1-3.2-3.2-3.2
		C400.9,595.9,399.8,597.6,399.7,599.1z"/>
</g>
<g>
	<path class="st2" d="M150,575c1,1.1,2.6,2.1,4.6,2.1c2.4,0,3.2-1.2,3.2-2.3c0-1.5-1.7-2-3.5-2.5c-2.4-0.6-5.1-1.3-5.1-4.3
		c0-2.4,2.1-4.2,5.2-4.2c2.3,0,4,0.7,5.3,2l-1.3,1.6c-1.1-1.2-2.7-1.7-4.2-1.7c-1.6,0-2.8,0.8-2.8,2.1c0,1.3,1.6,1.7,3.4,2.2
		c2.4,0.6,5.2,1.4,5.2,4.5c0,2.3-1.6,4.4-5.5,4.4c-2.6,0-4.5-0.9-5.8-2.3L150,575z"/>
	<path class="st2" d="M169.7,577.3c-0.8,0.9-2.2,1.7-3.8,1.7c-2.3,0-3.4-1.1-3.4-3.4v-7.5h2v6.8c0,1.8,0.9,2.3,2.2,2.3
		c1.2,0,2.4-0.7,2.9-1.5v-7.6h2v10.6h-2V577.3z"/>
	<path class="st2" d="M174.9,564.1h2v5.6c0.8-1.1,2.1-1.8,3.5-1.8c2.8,0,4.7,2.2,4.7,5.6c0,3.5-2,5.6-4.7,5.6
		c-1.4,0-2.7-0.7-3.5-1.8v1.5h-2V564.1z M179.8,577.3c2,0,3.2-1.6,3.2-3.8s-1.2-3.8-3.2-3.8c-1.2,0-2.4,0.7-2.9,1.6v4.5
		C177.4,576.6,178.6,577.3,179.8,577.3z"/>
	<path class="st2" d="M200.5,571.7c0-1.2-0.5-2-1.8-2c-1.1,0-2.1,0.7-2.6,1.5v7.6h-2v-7.1c0-1.2-0.5-2-1.9-2c-1,0-2.1,0.8-2.6,1.5
		v7.6h-2v-10.6h2v1.5c0.4-0.7,1.8-1.8,3.4-1.8c1.6,0,2.6,0.8,2.9,2c0.6-1,2-2,3.6-2c2,0,3,1.1,3,3.2v7.7h-2V571.7z"/>
	<path class="st2" d="M205.3,565.1c0-0.7,0.6-1.3,1.3-1.3c0.7,0,1.3,0.6,1.3,1.3s-0.6,1.3-1.3,1.3
		C205.9,566.4,205.3,565.8,205.3,565.1z M205.6,568.2h2v10.6h-2V568.2z"/>
	<path class="st2" d="M210.8,575.9c0.7,0.8,2.1,1.5,3.6,1.5c1.5,0,2.3-0.6,2.3-1.5c0-1.1-1.2-1.4-2.6-1.7c-1.8-0.4-3.9-0.9-3.9-3.2
		c0-1.7,1.5-3.1,4-3.1c1.8,0,3.1,0.7,4,1.5l-0.9,1.4c-0.6-0.7-1.8-1.3-3.1-1.3s-2.2,0.5-2.2,1.4c0,0.9,1.1,1.2,2.5,1.5
		c1.8,0.4,4,0.9,4,3.4c0,1.8-1.5,3.3-4.3,3.3c-1.8,0-3.3-0.5-4.4-1.6L210.8,575.9z"/>
	<path class="st2" d="M221,575.9c0.7,0.8,2.1,1.5,3.6,1.5c1.5,0,2.3-0.6,2.3-1.5c0-1.1-1.2-1.4-2.6-1.7c-1.8-0.4-3.9-0.9-3.9-3.2
		c0-1.7,1.5-3.1,4-3.1c1.8,0,3.1,0.7,4,1.5l-0.9,1.4c-0.6-0.7-1.8-1.3-3.1-1.3c-1.3,0-2.2,0.5-2.2,1.4c0,0.9,1.1,1.2,2.5,1.5
		c1.8,0.4,4,0.9,4,3.4c0,1.8-1.5,3.3-4.3,3.3c-1.8,0-3.3-0.5-4.4-1.6L221,575.9z"/>
	<path class="st2" d="M231,565.1c0-0.7,0.6-1.3,1.3-1.3c0.7,0,1.3,0.6,1.3,1.3s-0.6,1.3-1.3,1.3C231.6,566.4,231,565.8,231,565.1z
		 M231.3,568.2h2v10.6h-2V568.2z"/>
	<path class="st2" d="M235.8,573.5c0-3.1,2.1-5.6,5.4-5.6c3.3,0,5.4,2.5,5.4,5.6c0,3.1-2,5.6-5.4,5.6
		C237.9,579.1,235.8,576.5,235.8,573.5z M244.5,573.5c0-2-1.2-3.8-3.3-3.8c-2.1,0-3.3,1.8-3.3,3.8c0,2,1.2,3.8,3.3,3.8
		C243.3,577.3,244.5,575.5,244.5,573.5z"/>
	<path class="st2" d="M256.2,572c0-1.8-0.9-2.3-2.3-2.3c-1.2,0-2.4,0.7-2.9,1.5v7.6h-2v-10.6h2v1.5c0.7-0.9,2.1-1.8,3.8-1.8
		c2.2,0,3.4,1.2,3.4,3.4v7.5h-2V572z"/>
	<path class="st2" d="M153.2,592.4h-4.6v-1.9h11.3v1.9h-4.5v12.7h-2.2V592.4z"/>
	<path class="st2" d="M159.1,599.9c0-3.1,2.1-5.6,5.4-5.6c3.3,0,5.4,2.5,5.4,5.6c0,3.1-2,5.6-5.4,5.6
		C161.2,605.5,159.1,602.9,159.1,599.9z M167.8,599.9c0-2-1.2-3.8-3.3-3.8c-2.1,0-3.3,1.8-3.3,3.8c0,2,1.2,3.8,3.3,3.8
		C166.6,603.7,167.8,601.9,167.8,599.9z"/>
	<path class="st2" d="M187.3,602.2h-7.2l-1.2,3h-2.4l5.8-14.7h2.8l5.8,14.7h-2.4L187.3,602.2z M180.8,600.2h5.9l-3-7.8L180.8,600.2z
		"/>
	<path class="st2" d="M192.7,609.2v-14.7h2v1.5c0.8-1.1,2-1.8,3.5-1.8c2.8,0,4.7,2.1,4.7,5.6c0,3.5-2,5.6-4.7,5.6
		c-1.4,0-2.6-0.6-3.5-1.8v5.6H192.7z M197.6,596.1c-1.2,0-2.4,0.7-2.9,1.6v4.5c0.5,0.8,1.7,1.6,2.9,1.6c2,0,3.2-1.6,3.2-3.8
		C200.8,597.7,199.6,596.1,197.6,596.1z"/>
	<path class="st2" d="M205.4,609.2v-14.7h2v1.5c0.8-1.1,2-1.8,3.5-1.8c2.8,0,4.7,2.1,4.7,5.6c0,3.5-2,5.6-4.7,5.6
		c-1.4,0-2.6-0.6-3.5-1.8v5.6H205.4z M210.3,596.1c-1.2,0-2.4,0.7-2.9,1.6v4.5c0.5,0.8,1.7,1.6,2.9,1.6c2,0,3.2-1.6,3.2-3.8
		C213.5,597.7,212.3,596.1,210.3,596.1z"/>
	<path class="st2" d="M224.1,601.4c1,1.1,2.6,2.1,4.6,2.1c2.4,0,3.2-1.2,3.2-2.3c0-1.5-1.7-2-3.5-2.5c-2.4-0.6-5.1-1.3-5.1-4.3
		c0-2.4,2.1-4.2,5.2-4.2c2.3,0,4,0.7,5.3,2l-1.3,1.6c-1.1-1.2-2.7-1.7-4.2-1.7c-1.6,0-2.8,0.8-2.8,2.1c0,1.3,1.6,1.7,3.4,2.2
		c2.4,0.6,5.2,1.4,5.2,4.5c0,2.3-1.6,4.4-5.5,4.4c-2.6,0-4.5-0.9-5.8-2.3L224.1,601.4z"/>
	<path class="st2" d="M236.8,602.8v-6.5H235v-1.7h1.8v-2.9h2v2.9h2.2v1.7h-2.2v6.1c0,0.7,0.4,1.3,1,1.3c0.5,0,0.9-0.2,1.1-0.4
		l0.5,1.5c-0.4,0.4-1,0.7-2.1,0.7C237.6,605.5,236.8,604.5,236.8,602.8z"/>
	<path class="st2" d="M242.4,599.9c0-3.1,2.1-5.6,5.4-5.6c3.3,0,5.4,2.5,5.4,5.6c0,3.1-2,5.6-5.4,5.6
		C244.5,605.5,242.4,602.9,242.4,599.9z M251.1,599.9c0-2-1.2-3.8-3.3-3.8c-2.1,0-3.3,1.8-3.3,3.8c0,2,1.2,3.8,3.3,3.8
		C249.9,603.7,251.1,601.9,251.1,599.9z"/>
	<path class="st2" d="M255.7,594.6h2v1.6c0.8-1.1,2.1-1.9,3.5-1.9v2c-0.2,0-0.4-0.1-0.7-0.1c-1,0-2.3,0.7-2.8,1.5v7.4h-2V594.6z"/>
	<path class="st2" d="M267.8,594.3c3.2,0,5.2,2.5,5.2,5.7v0.5h-8.4c0.2,1.8,1.5,3.3,3.6,3.3c1.1,0,2.4-0.4,3.1-1.3l0.9,1.3
		c-1.1,1-2.6,1.6-4.3,1.6c-3.2,0-5.5-2.2-5.5-5.6C262.5,596.8,264.7,594.3,267.8,594.3z M264.5,599.1h6.5c0-1.4-1-3.2-3.2-3.2
		C265.6,595.9,264.6,597.6,264.5,599.1z"/>
</g>
<g>
	<path class="st3" d="M583.3,488.6c-1.5,0-2.7,1.2-2.7,2.7v2.4H573c-1,0-1.9,0.9-1.9,1.9v44.7c0,1,0.9,1.9,1.9,1.9h49.9
		c1,0,1.9-0.9,1.9-1.9l0-44.7c0-1.1-0.9-1.9-1.9-1.9c0,0,0,0,0,0h-7.6v-2.4c0-1.5-1.2-2.7-2.7-2.7c-1.5,0-2.7,1.2-2.7,2.7v2.4h-23.8
		v-2.4C586.1,489.8,584.8,488.6,583.3,488.6z M581.3,491.3c0-1.1,0.9-2,2-2c1.1,0,2,0.9,2,2v5.5c0,1.1-0.9,2-2,2c-1.1,0-2-0.9-2-2
		V491.3z M624.1,540.3c0,0.7-0.5,1.2-1.2,1.2H573c-0.7,0-1.2-0.5-1.2-1.2v-35.5h52.3V540.3z M610.5,491.3c0-1.1,0.9-2,2-2
		c1.1,0,2,0.9,2,2v5.5c0,1.1-0.9,2-2,2c-1.1,0-2-0.9-2-2V491.3z M609.8,494.4v2.4c0,1.5,1.2,2.7,2.7,2.7c1.5,0,2.7-1.2,2.7-2.7v-2.4
		h7.6c0.7,0,1.2,0.5,1.2,1.2v8.6h-52.3v-8.6c0-0.7,0.5-1.2,1.2-1.2h7.6v2.4c0,1.5,1.2,2.7,2.7,2.7c1.5,0,2.7-1.2,2.7-2.7v-2.4H609.8
		z"/>
	<path class="st3" d="M616.4,512.3c0.2,0,0.3-0.2,0.3-0.3c0-0.2-0.2-0.3-0.3-0.3h-1.8c-0.2,0-0.3,0.2-0.3,0.3c0,0.2,0.2,0.3,0.3,0.3
		H616.4z"/>
	<path class="st3" d="M605.5,512c0,0.2,0.2,0.3,0.3,0.3h1.8c0.1,0,0.2,0,0.2-0.1s0.1-0.2,0.1-0.2c0-0.1,0-0.2-0.1-0.2
		c-0.1-0.1-0.2-0.1-0.2-0.1c0,0,0,0,0,0h-1.8C605.6,511.7,605.5,511.8,605.5,512z"/>
	<path class="st3" d="M598.8,511.7H597c-0.2,0-0.3,0.2-0.3,0.3c0,0.1,0,0.2,0.1,0.2s0.2,0.1,0.2,0.1h1.8c0.2,0,0.3-0.2,0.3-0.3
		C599.2,511.8,599,511.7,598.8,511.7z"/>
	<path class="st3" d="M616.4,519.8c0.2,0,0.3-0.2,0.3-0.3s-0.2-0.3-0.3-0.3h-1.8c-0.2,0-0.3,0.2-0.3,0.3c0,0.2,0.2,0.3,0.3,0.3
		H616.4z"/>
	<path class="st3" d="M605.5,519.5c0,0.1,0,0.2,0.1,0.2c0.1,0.1,0.2,0.1,0.2,0.1c0,0,0,0,0,0h1.8c0.1,0,0.2,0,0.2-0.1
		s0.1-0.2,0.1-0.2c0-0.2-0.2-0.3-0.3-0.3h-1.8C605.6,519.1,605.5,519.3,605.5,519.5z"/>
	<path class="st3" d="M598.8,519.1H597c-0.2,0-0.3,0.2-0.3,0.3c0,0.1,0,0.2,0.1,0.2s0.2,0.1,0.2,0.1h1.8c0.2,0,0.3-0.2,0.3-0.3
		C599.2,519.3,599,519.1,598.8,519.1z"/>
	<path class="st3" d="M587.9,519.5c0,0.1,0,0.2,0.1,0.2c0.1,0.1,0.2,0.1,0.2,0.1c0,0,0,0,0,0h1.8c0.2,0,0.3-0.2,0.3-0.3
		c0-0.2-0.2-0.3-0.3-0.3h-1.8C588,519.1,587.9,519.3,587.9,519.5z"/>
	<path class="st3" d="M581.2,519.1h-1.8c-0.2,0-0.3,0.2-0.3,0.3c0,0.1,0,0.2,0.1,0.2s0.2,0.1,0.2,0.1h1.8c0.2,0,0.3-0.2,0.3-0.3
		C581.6,519.3,581.4,519.1,581.2,519.1z"/>
	<path class="st3" d="M614.6,527.3h1.8c0.2,0,0.3-0.2,0.3-0.3c0-0.1,0-0.2-0.1-0.2s-0.2-0.1-0.2-0.1h-1.8c-0.2,0-0.3,0.2-0.3,0.3
		C614.3,527.1,614.4,527.3,614.6,527.3z"/>
	<path class="st3" d="M608,526.9c0-0.1,0-0.2-0.1-0.2c-0.1-0.1-0.2-0.1-0.2-0.1c0,0,0,0,0,0h-1.8c-0.1,0-0.2,0-0.2,0.1
		s-0.1,0.2-0.1,0.2c0,0.2,0.2,0.3,0.3,0.3h1.8C607.8,527.3,608,527.1,608,526.9z"/>
	<path class="st3" d="M597,527.3h1.8c0.2,0,0.3-0.2,0.3-0.3c0-0.1,0-0.2-0.1-0.2c-0.1-0.1-0.2-0.1-0.2-0.1H597
		c-0.2,0-0.3,0.2-0.3,0.3C596.7,527.1,596.8,527.3,597,527.3z"/>
	<path class="st3" d="M590.4,526.9c0-0.2-0.2-0.3-0.3-0.3c0,0,0,0,0,0h-1.8c-0.2,0-0.3,0.2-0.3,0.3c0,0.2,0.2,0.3,0.3,0.3h1.8
		C590.2,527.3,590.4,527.1,590.4,526.9z"/>
	<path class="st3" d="M581.6,526.9c0-0.2-0.2-0.3-0.3-0.3h-1.8c-0.2,0-0.3,0.2-0.3,0.3s0.2,0.3,0.3,0.3h1.8
		C581.4,527.3,581.6,527.1,581.6,526.9z"/>
	<path class="st3" d="M597,534.7h1.8c0.2,0,0.3-0.2,0.3-0.3c0-0.1,0-0.2-0.1-0.2s-0.2-0.1-0.2-0.1H597c-0.2,0-0.3,0.2-0.3,0.3
		S596.8,534.7,597,534.7z"/>
	<path class="st3" d="M588.2,534.7C588.2,534.7,588.2,534.7,588.2,534.7h1.8c0.2,0,0.3-0.2,0.3-0.3c0-0.2-0.2-0.3-0.3-0.3h-1.8
		c-0.2,0-0.3,0.2-0.3,0.3c0,0.1,0,0.2,0.1,0.2C588,534.7,588.1,534.7,588.2,534.7z"/>
	<path class="st3" d="M579.4,534.7h1.8c0.2,0,0.3-0.2,0.3-0.3c0-0.2-0.2-0.3-0.3-0.3h-1.8c-0.1,0-0.2,0-0.2,0.1s-0.1,0.2-0.1,0.2
		c0,0.1,0,0.2,0.1,0.2C579.2,534.7,579.3,534.8,579.4,534.7z"/>
</g>
<g id="_001-challenges_6_" transform="translate(943 768)">
	
		<rect x="-134.1" y="-242.2" transform="matrix(0.8205 -0.5717 0.5717 0.8205 115.3276 -116.2599)" class="st3" width="13.3" height="0.9"/>
	<path class="st3" d="M-152-225.8h49v-40l-2.2-0.5l-0.1-0.2c-0.3-1-0.7-1.9-1.1-2.8l-0.1-0.2l1.2-1.9l-4.1-4.1l-1.9,1.2l-0.2-0.1
		c-0.9-0.5-1.8-0.9-2.8-1.1l-0.2-0.1l-0.5-2.2h-5.8l-0.5,2.2l-0.2,0.1c-1,0.3-1.9,0.7-2.8,1.1l-0.2,0.1l-1.9-1.2l-4.1,4.1l1.2,1.9
		l-0.1,0.2c-0.5,0.9-0.9,1.8-1.1,2.8l-0.1,0.2l-2.2,0.5v1.6l-0.3,0.1c-0.4,0.1-0.7,0.2-1,0.5l-5.8,4.3c-0.2,0.2-0.5,0.3-0.8,0.3
		h-3.1l0.8-0.7c2.2-2.1,2.2-5.6,0.1-7.8c-1-1.1-2.4-1.7-3.9-1.7c0,0,0,0-0.1,0c-1.5,0-2.8,0.6-3.9,1.6c-1.1,1-1.7,2.4-1.7,3.9
		c0,1.5,0.5,2.9,1.6,3.9c0.2,0.2,0.4,0.4,0.6,0.6l0.6,0.5l-0.7,0.3c-2.8,1.1-4.7,3.8-4.7,6.8v23C-155-227.1-153.7-225.8-152-225.8z
		 M-103.9-226.6h-46l0.4-0.6c0.3-0.5,0.4-1,0.4-1.5v-1.6l4.9-3.4l0.3,0.3c1.2,1.2,3.1,1.2,4.3,0c0.6-0.6,0.9-1.3,0.9-2.1v-1.9
		l17.6-12.2l0.4,1.8h5.8l0.5-2.2l0.2-0.1c1-0.3,1.9-0.7,2.8-1.1l0.2-0.1l1.9,1.2l4.1-4.1l-1.2-1.9l0.1-0.2c0.5-0.9,0.9-1.8,1.1-2.8
		l0.1-0.2l1.3-0.3V-226.6z M-144.7-234.8l0.1,0.3l-4.5,3.1v-9.7h4.3v5.5C-144.8-235.3-144.7-235.1-144.7-234.8z M-142.7-247.1h-2.1
		v-6.8h5.5c1.2,0,2.4-0.4,3.4-1.2l5.3-4.1l0.2,0.6c0.2,0.7,0.6,1.5,0.9,2.1l0.1,0.2l-1.2,1.9l4.1,4.1l1.9-1.2l0.2,0.1
		c0.5,0.3,1.1,0.5,1.6,0.7l0.8,0.3l-16.9,11.7v-4.7C-138.8-245.3-140.5-247.1-142.7-247.1z M-132-265.1l2-0.5l0.1-0.3
		c0.3-1.2,0.8-2.4,1.4-3.4l0.1-0.2l-1.1-1.8l3.1-3.1l1.8,1.1l0.2-0.1c1.1-0.6,2.2-1.1,3.4-1.4l0.3-0.1l0.5-2h4.4l0.5,2l0.3,0.1
		c1.2,0.3,2.4,0.8,3.4,1.4l0.2,0.1l1.8-1.1l3.1,3.1l-1.1,1.8l0.1,0.2c0.6,1.1,1.1,2.2,1.4,3.4l0.1,0.3l2,0.5v4.4l-2,0.5l-0.1,0.3
		c-0.3,1.2-0.8,2.4-1.4,3.4l-0.1,0.2l1.1,1.8l-3.1,3.1l-1.8-1.1l-0.2,0.1c-1.1,0.7-2.2,1.1-3.4,1.4l-0.3,0.1l-0.5,2h-4.4l-0.5-2
		l-0.3-0.1c-1.2-0.3-2.4-0.8-3.4-1.4l-0.2-0.1l-1.8,1.1l-3.1-3.1l1.1-1.8l-0.1-0.2c-0.6-1-1.1-2.1-1.4-3.3l0-0.2l0.1-0.2
		c0.8-1.3,0.4-2.9-0.9-3.7c-0.3-0.2-0.6-0.3-0.9-0.3l-0.4-0.1V-265.1z M-151.6-263.7L-151.6-263.7c0-2.6,2.1-4.7,4.7-4.7
		s4.7,2.1,4.7,4.7c0,2.6-2.1,4.7-4.7,4.7C-149.5-259-151.6-261.1-151.6-263.7z M-154.2-251.8c0-3.5,2.9-6.4,6.4-6.4h7.1
		c0.5,0,0.9-0.2,1.3-0.4l5.8-4.3c0.3-0.2,0.7-0.4,1.1-0.4h0.4c0.5,0,1,0.2,1.3,0.5c0.4,0.4,0.5,0.8,0.5,1.3c0,0.6-0.3,1.1-0.7,1.5
		l-5.4,4.2c-0.8,0.6-1.8,1-2.9,1h-6.3v8.5h3c1.6,0,3,1.3,3,3v7.7c0,1.2-1,2.1-2.1,2.1c-1.2,0-2.1-1-2.1-2.1v-5.1
		c0-0.7-0.6-1.3-1.3-1.3h-6c-1.6,0-3-1.3-3-3V-251.8z M-154.2-242.4l0.7,0.5c0.7,0.5,1.5,0.8,2.3,0.8h1.3v12.4c0,1.2-1,2.1-2.1,2.1
		c-1.2,0-2.1-1-2.1-2.1V-242.4z"/>
	<path class="st3" d="M-127.7-262.8c0,5.4,4.4,9.8,9.8,9.8c5.4,0,9.8-4.4,9.8-9.8c0-5.4-4.4-9.8-9.8-9.8
		C-123.3-272.6-127.7-268.2-127.7-262.8z M-117.9-271.8c4.9,0,9,4,9,9c0,4.9-4,8.9-9,9h0c-4.9,0-9-4-9-9S-122.9-271.8-117.9-271.8z"
		/>
</g>
<g>
	<path class="st3" d="M1008.6,542.2h55.3c0.3,0,0.5-0.2,0.5-0.5c0-0.1,0-0.2-0.1-0.3l-11-15.5v-17.8h3.2c0.3,0,0.5-0.2,0.5-0.5
		c0-0.1,0-0.2-0.1-0.3l-8.3-12c-0.2-0.2-0.5-0.2-0.7-0.1c0,0-0.1,0.1-0.1,0.1l-2.4,3.5h0l-4.1,6l-0.3-0.8c-0.5-1.3-1.4-2.3-2.6-2.8
		c-1.2-0.6-2.6-0.6-3.9-0.1c-1.4,0.5-2.5,1.6-3,3l-0.3,0.8l-4.1-6h0l-2.4-3.5c-0.2-0.2-0.5-0.2-0.7-0.1c0,0-0.1,0.1-0.1,0.1l-8.3,12
		c-0.1,0.2-0.1,0.5,0.1,0.6c0.1,0.1,0.2,0.1,0.3,0.1h2.8h0.5V526l-11,15.5c-0.1,0.2-0.1,0.5,0.1,0.6
		C1008.4,542.2,1008.5,542.2,1008.6,542.2z M1040.7,508.2h2.4v4.2l-0.7-0.6c-0.7-0.5-1.6-0.8-2.5-0.8h-2.2l1.3-0.8
		c0.6-0.4,1.2-1,1.6-1.7L1040.7,508.2z M1040.3,516.4v19.3h-3.7v-11.1h-0.9v11.1h-3.7v-19.3h-0.9v7.4h-1.8v-8.8
		c0-1.8,1.4-3.2,3.2-3.2h7.4c1.8,0,3.2,1.4,3.2,3.2v8.8h-1.8v-7.4H1040.3z M1036.2,501.7c2.3,0,4.1,1.9,4.1,4.1s-1.9,4.1-4.1,4.1
		c-2.3,0-4.1-1.9-4.1-4.1S1033.9,501.7,1036.2,501.7z M1031.8,508.4c0.4,0.7,0.9,1.3,1.6,1.7l1.3,0.8h-2.2c-0.9,0-1.8,0.3-2.5,0.8
		l-0.7,0.6v-4.2h2.4L1031.8,508.4z M1020,526.4c0.1-0.1,0.1-0.2,0.1-0.3v-18.4c0-0.3-0.2-0.5-0.5-0.5h-2.8l7.4-10.7l7.4,10.7h-2.8
		c-0.3,0-0.5,0.2-0.5,0.5v16.6c0,0.3,0.2,0.5,0.5,0.5h2.3v11.5c0,0.3,0.2,0.5,0.5,0.5h9.2c0.3,0,0.5-0.2,0.5-0.5v-11.5h2.3
		c0.3,0,0.5-0.2,0.5-0.5v-9.2c0-0.1,0-0.1,0-0.2l0-0.5h0v-6.7c0-0.3-0.2-0.5-0.5-0.5h-2.8l7.4-10.7l7.4,10.7h-2.8
		c-0.3,0-0.5,0.2-0.5,0.5v18.4c0,0.1,0,0.2,0.1,0.3l10.5,14.9h-14.4l-4.4-14.9l-0.9,0.3l4.3,14.6h-22.7l4.3-14.6l-0.9-0.3l-4.4,14.9
		h-14.4L1020,526.4z"/>
	<path class="st3" d="M1044.9,498.3c0,0,0-0.1-0.1-0.1l-8.3-12c-0.2-0.2-0.5-0.2-0.7-0.1c0,0-0.1,0.1-0.1,0.1l-8.3,12
		c0,0,0,0.1-0.1,0.1l-0.2,0.6h3.9v1.8h0.9v-2.3c0-0.3-0.2-0.5-0.5-0.5h-2.8l7.4-10.7l7.4,10.7h-2.8c-0.3,0-0.5,0.2-0.5,0.5v2.3h0.9
		v-1.8h3.9L1044.9,498.3z"/>
</g>
<g id="_004-swot_6_" transform="translate(1161 196.059)">
	<path class="st3" d="M-575.2,40c6.3-0.4,11.3-5.4,11.7-11.7l0-0.4h4.4l0,0.4c0.5,6.9,6.4,12.2,13.3,11.7
		c6.6-0.4,11.7-5.9,11.7-12.5c0-2.7-0.9-5.3-2.5-7.5c-0.1-0.1-0.2-0.1-0.3-0.2c-0.1,0-0.2,0-0.3,0.1l0,0c-0.2,0.1-0.2,0.4-0.1,0.6
		c1.5,2,2.3,4.5,2.3,7c0,6.5-5.3,11.7-11.7,11.7c0,0,0,0,0,0c-3.1,0-6.1-1.2-8.3-3.4c-2.2-2.2-3.4-5.2-3.4-8.3
		c0-6.5,5.3-11.7,11.7-11.7c0,0,0,0,0,0c2.5,0,5,0.8,7,2.3c0.2,0.1,0.4,0.1,0.6-0.1c0.1-0.2,0.1-0.4-0.1-0.6
		c-1.9-1.5-4.3-2.3-6.7-2.5l-0.4,0v-4.4l0.4,0c3.3-0.2,6.4-1.7,8.6-4.2c2.2-2.5,3.3-5.7,3.1-9.1c-0.4-6.9-6.4-12.2-13.3-11.7
		c-6.3,0.4-11.3,5.4-11.7,11.7l0,0.4h-4.4l0-0.4c-0.1-2.4-1-4.8-2.5-6.7c-0.1-0.2-0.4-0.2-0.6-0.1c-0.2,0.1-0.2,0.4-0.1,0.6
		c1.5,2,2.3,4.5,2.3,7c0,6.5-5.3,11.7-11.7,11.7c-6.5,0-11.7-5.3-11.7-11.7s5.3-11.7,11.7-11.7c0,0,0,0,0,0c2.5,0,5,0.8,7,2.3
		c0.2,0.1,0.4,0.1,0.6-0.1c0.1-0.1,0.1-0.2,0.1-0.3c0-0.1-0.1-0.2-0.2-0.3c-2.1-1.6-4.8-2.5-7.5-2.5c0,0,0,0,0,0
		c-3.3,0-6.5,1.3-8.9,3.7c-2.4,2.4-3.7,5.5-3.7,8.9c0,6.6,5.2,12.1,11.8,12.5l0.4,0V15l-0.4,0c-3.3,0.2-6.4,1.7-8.6,4.2
		c-2.2,2.5-3.3,5.7-3.1,9.1C-588.1,35.2-582.1,40.4-575.2,40z M-546.9-13.7L-546.9-13.7l0.4,0c6.5,0,11.7,5.3,11.7,11.7
		s-5.3,11.7-11.7,11.7c-6.5,0-11.7-5.3-11.7-11.7C-558.2-8.3-553.2-13.4-546.9-13.7z M-575.6,10.6l0.4,0c6.3-0.4,11.3-5.4,11.7-11.7
		l0-0.4h4.4l0,0.4c0.4,6.3,5.4,11.3,11.7,11.7l0.4,0V15l-0.4,0c-6.3,0.4-11.3,5.4-11.7,11.7l0,0.4h-4.4l0-0.4
		c-0.4-6.3-5.4-11.3-11.7-11.7l-0.4,0V10.6z M-576,15.8c6.5,0,11.7,5.3,11.7,11.7c0,6.4-5.3,11.7-11.7,11.7h0
		c-6.5,0-11.7-5.3-11.7-11.7S-582.4,15.8-576,15.8z"/>
	<path class="st3" d="M-568.9,0c0.1-0.2,0-0.4-0.2-0.5l-0.6-0.3c-0.3-0.2-0.5-0.5-0.6-0.8c-0.1-0.3,0-0.7,0.1-1
		c0.1-0.1,0.2-0.2,0.3-0.3v0l0.8-0.5c0.2-0.1,0.2-0.3,0.2-0.5c-0.3-1.2-1-2.3-1.8-3.2c-0.1-0.1-0.3-0.2-0.5-0.1l-0.6,0.4
		c-0.6,0.4-1.4,0.1-1.8-0.5c-0.1-0.2-0.2-0.4-0.2-0.7v-0.7c0-0.2-0.1-0.4-0.3-0.4c-1.2-0.3-2.5-0.3-3.7,0c-0.2,0-0.3,0.2-0.3,0.4V-8
		c0,0.7-0.6,1.3-1.3,1.3c0,0,0,0,0,0c-0.2,0-0.5-0.1-0.7-0.2l-0.6-0.4c-0.2-0.1-0.4-0.1-0.5,0.1c-0.9,0.9-1.5,2-1.8,3.2
		c-0.1,0.2,0,0.4,0.2,0.5l0.6,0.4c0.3,0.2,0.5,0.5,0.6,0.8c0.1,0.3,0,0.7-0.1,1c-0.1,0.2-0.3,0.4-0.5,0.5l-0.6,0.4
		c-0.2,0.1-0.2,0.3-0.2,0.5c0.3,1.2,1,2.3,1.8,3.2c0.1,0.1,0.3,0.2,0.5,0.1l0.6-0.4c0.2-0.1,0.4-0.2,0.7-0.2c0.5,0,0.9,0.2,1.1,0.7
		c0.1,0.2,0.2,0.4,0.2,0.7v0.7c0,0.2,0.1,0.4,0.3,0.4c1.2,0.3,2.5,0.3,3.7,0c0.2,0,0.3-0.2,0.3-0.4V4c0-0.4,0.1-0.7,0.4-0.9
		s0.6-0.4,0.9-0.4c0.2,0,0.5,0.1,0.7,0.2l0.6,0.4c0.2,0.1,0.4,0.1,0.5-0.1C-569.9,2.3-569.2,1.2-568.9,0z M-571.1,2.4l-0.3-0.2
		c-1.1-0.6-2.4-0.3-3,0.8c-0.2,0.3-0.3,0.7-0.3,1.1v0.3l-0.3,0.1c-0.3,0.1-0.7,0.1-1,0.1c-0.3,0-0.7,0-1-0.1l-0.3-0.1V4.1
		c0-0.6-0.2-1.2-0.6-1.6c-0.4-0.4-0.9-0.6-1.5-0.6c0,0,0,0,0,0c-0.4,0-0.7,0.1-1.1,0.3l-0.3,0.2l-0.3-0.2c-0.4-0.5-0.8-1.1-1-1.7
		l-0.1-0.3l0.3-0.2c0.5-0.3,0.9-0.8,1-1.3c0.1-0.6,0.1-1.1-0.2-1.6c-0.2-0.3-0.5-0.6-0.8-0.8l-0.3-0.2l0.1-0.3
		c0.2-0.6,0.6-1.2,1-1.7l0.2-0.3l0.3,0.2c0.5,0.3,1.1,0.4,1.7,0.2c0.6-0.1,1-0.5,1.3-1c0.2-0.3,0.3-0.7,0.3-1.1l0-0.3l0.3-0.1
		c0.7-0.1,1.3-0.1,2,0l0.3,0.1V-8c0,1.2,1,2.2,2.1,2.2c0.4,0,0.7-0.1,1.1-0.3l0.3-0.2l0.3,0.2c0.4,0.5,0.8,1.1,1,1.7l0.1,0.3
		l-0.3,0.2c-0.5,0.3-0.9,0.8-1,1.3c-0.1,0.6-0.1,1.1,0.2,1.6c0.2,0.3,0.4,0.6,0.7,0.7l0.4,0.2l-0.1,0.3l0.1,0.6l-0.3-0.2
		c-0.2,0.5-0.5,0.9-0.8,1.3L-571.1,2.4z"/>
	<path class="st3" d="M-576-4.1c-1.2,0-2.1,1-2.1,2.1c0,1.2,1,2.1,2.1,2.1s2.1-1,2.1-2.1C-573.8-3.1-574.8-4.1-576-4.1z M-576-0.6
		L-576-0.6c-0.7,0-1.3-0.6-1.3-1.3c0-0.7,0.6-1.3,1.3-1.3s1.3,0.6,1.3,1.3C-574.7-1.2-575.2-0.6-576-0.6z"/>
	<path class="st3" d="M-570.4,28.2l0-0.3h2.2c0.1,0,0.2,0,0.3-0.1c0.1-0.1,0.1-0.2,0.1-0.3c0-0.2-0.2-0.4-0.4-0.4l-2.2,0l0-0.3
		c-0.3-2.5-2.3-4.5-4.8-4.8l-0.3,0v-2.2c0-0.2-0.2-0.4-0.4-0.4c-0.2,0-0.4,0.2-0.4,0.4v2.2l-0.3,0c-2.5,0.3-4.5,2.3-4.8,4.8l0,0.3
		h-2.2c-0.1,0-0.2,0-0.3,0.1c-0.1,0.1-0.1,0.2-0.1,0.3c0,0.2,0.2,0.4,0.4,0.4h2.2l0,0.3c0.3,2.5,2.3,4.5,4.8,4.8l0.3,0v2.2
		c0,0.2,0.2,0.4,0.4,0.4c0.2,0,0.4-0.2,0.4-0.4v-2.2l0.3,0C-572.7,32.7-570.8,30.7-570.4,28.2z M-575.1,32.2l-0.5,0.1V31
		c0-0.2-0.2-0.4-0.4-0.4c-0.2,0-0.4,0.2-0.4,0.4v1.3l-0.5-0.1c-1.9-0.4-3.4-1.9-3.8-3.8l-0.1-0.5h1.3c0.1,0,0.2,0,0.3-0.1
		s0.1-0.2,0.1-0.3c0-0.2-0.2-0.4-0.4-0.4h-1.3l0.1-0.5c0.4-1.9,1.9-3.4,3.8-3.8l0.5-0.1V24c0,0.2,0.2,0.4,0.4,0.4
		c0.2,0,0.4-0.2,0.4-0.4v-1.3l0.5,0.1c1.9,0.4,3.4,1.9,3.8,3.8l0.1,0.5h-1.3c-0.2,0-0.4,0.2-0.4,0.4c0,0.2,0.2,0.4,0.4,0.4h1.3
		l-0.1,0.5C-571.6,30.3-573.1,31.8-575.1,32.2z"/>
	<path class="st3" d="M-546.5,34c3.6,0,6.5-2.9,6.5-6.5c0-3.6-2.9-6.5-6.5-6.5c-3.6,0-6.5,2.9-6.5,6.5C-553,31.1-550.1,34-546.5,34z
		 M-546.1,21.8l0.5,0.1c2.4,0.4,4.3,2.3,4.7,4.7l-0.4,0.1v0.4h-4.8V21.8z M-547.4,21.9l0.5-0.1v5.7c0,0.2,0.2,0.4,0.4,0.4h5.7
		l-0.1,0.5c-0.4,2.8-2.8,4.8-5.6,4.8l0,0c0,0,0,0,0,0c-3.1,0-5.6-2.5-5.7-5.6C-552.2,24.7-550.2,22.3-547.4,21.9z"/>
	<path class="st3" d="M-540.9,1.5v-4.3c0-1.2-1-2.1-2.1-2.1h-1.3v-2.2c0-0.7-0.6-1.3-1.3-1.3h-1.7c-0.7,0-1.3,0.6-1.3,1.3V-5h-1.3
		c-1.2,0-2.1,1-2.1,2.1v4.3c0,1.2,1,2.1,2.1,2.1h6.9C-541.9,3.6-540.9,2.7-540.9,1.5z M-547.8-7.6l0.5-0.1h2.1l0.1,0.5V-5h-2.6V-7.6
		z M-541.7,1.5c0,0.7-0.6,1.3-1.3,1.3h-6.9c-0.7,0-1.3-0.6-1.3-1.3v-3.1l0.6,0.2c0.1,0.1,0.3,0.1,0.4,0.2c0.4,0.1,0.9,0.3,1.3,0.3
		l0.3,0.1v0.6c0,0.1,0,0.2,0.1,0.3c0.1,0.1,0.2,0.1,0.3,0.1c0,0,0,0,0,0c0.2,0,0.4-0.2,0.4-0.4v-0.5l0.4,0c0.6,0,1.2,0,1.8,0l0.4,0
		v0.5c0,0.2,0.2,0.4,0.4,0.4c0,0,0,0,0,0c0.2,0,0.4-0.2,0.4-0.4v-0.6l0.3-0.1c0.5-0.1,0.9-0.2,1.3-0.3c0.2,0,0.3-0.1,0.4-0.2
		l0.6-0.2V1.5z M-541.8-2.6c-0.4,0.5-2,1.1-4.7,1.1c-2.7,0-4.4-0.7-4.7-1.1l-0.1-0.1l0-0.1c0-0.7,0.6-1.2,1.3-1.2h6.9
		c0.7,0,1.3,0.5,1.3,1.2l0,0.1L-541.8-2.6z"/>
</g>
<g>
	<g>
		<path class="st3" d="M161.8,236.1C161.8,236.1,161.8,236.1,161.8,236.1h27.5c2.1,0,3.9-1.7,3.9-3.9v-10.9l8.3-8.3
			c0.8-0.8,0.8-2.1,0-3l-2.5-2.5c-0.8-0.8-2.1-0.8-3,0l-2.8,2.8v-21c0-2.1-1.7-3.9-3.9-3.9h-1.5v-1.5c0-1.2-0.9-2.1-2.1-2.1
			c-1.2,0-2.1,0.9-2.1,2.1v1.5h-4.7v-1.5c0-1.2-0.9-2.1-2.1-2.1c0,0,0,0,0,0c-0.6,0-1.1,0.2-1.5,0.6c-0.4,0.4-0.6,0.9-0.6,1.5v1.5
			H170v-1.5c0-1.2-0.9-2.1-2.1-2.1c-0.6,0-1.1,0.2-1.5,0.6c-0.4,0.4-0.6,0.9-0.6,1.5v1.5h-4.7v-1.5c0-1.2-0.9-2.1-2.1-2.1
			c0,0,0,0,0,0c-0.6,0-1.1,0.2-1.5,0.6c-0.4,0.4-0.6,0.9-0.6,1.5v1.5h-1.5c-2.1,0-3.9,1.7-3.9,3.9V201c0,0.2,0.1,0.3,0.3,0.3
			s0.3-0.1,0.3-0.3v-6h40.5v16l-5.4,5.4l-0.4-0.4c-0.1-0.1-0.1-0.1-0.2-0.1h-28.6c-0.2,0-0.3,0.1-0.3,0.3s0.1,0.3,0.3,0.3h29.1
			l-7.5,7.5l0,0l0.5-1.2l0,0l-0.5,1.2l0,0l0,0.1l0,0l0,0.1v4.9l-1.2,1.2c-0.1,0.1-0.1,0.3,0,0.4c0.1,0.1,0.3,0.1,0.4,0l1.2-1.2
			l5.1,0l7.5-7.5v10.3c0,1.8-1.5,3.3-3.3,3.3h-27.5c-0.1,0-0.2,0-0.2,0.1c-0.1,0.1-0.1,0.1-0.1,0.2
			C161.5,235.9,161.7,236.1,161.8,236.1z M196.5,207.9c0.6-0.6,1.5-0.6,2.1,0l2.5,2.5c0.6,0.6,0.6,1.5,0,2.1l-2.3,2.3l-4.6-4.6
			L196.5,207.9z M184.3,183.9c0-0.8,0.7-1.5,1.5-1.5s1.5,0.7,1.5,1.5v3.6c0,0.8-0.7,1.5-1.5,1.5c0,0,0,0,0,0c-0.4,0-0.8-0.2-1-0.4
			c-0.3-0.3-0.4-0.7-0.4-1V183.9z M175.4,183.9c0-0.8,0.7-1.5,1.5-1.5c0,0,0,0,0,0c0.4,0,0.8,0.2,1,0.4c0.3,0.3,0.4,0.7,0.4,1v3.6
			c0,0.8-0.7,1.5-1.5,1.5c0,0,0,0,0,0c-0.4,0-0.8-0.2-1-0.4c-0.3-0.3-0.4-0.7-0.4-1V183.9z M166.4,183.9c0-0.8,0.7-1.5,1.5-1.5
			c0.8,0,1.5,0.7,1.5,1.5v3.6c0,0.8-0.7,1.5-1.5,1.5c0,0,0,0,0,0c-0.4,0-0.8-0.2-1-0.4c-0.3-0.3-0.4-0.7-0.4-1V183.9z M157.5,183.9
			c0-0.8,0.7-1.5,1.5-1.5c0.8,0,1.5,0.7,1.5,1.5v3.6c0,0.8-0.7,1.5-1.5,1.5c0,0,0,0,0,0c-0.4,0-0.8-0.2-1-0.4
			c-0.3-0.3-0.4-0.7-0.4-1V183.9z M152.1,194.3v-5.1c0-1.8,1.5-3.3,3.3-3.3h1.5v1.5c0,1.2,0.9,2.1,2.1,2.1c1.2,0,2.1-0.9,2.1-2.1
			V186h4.7v1.5c0,1.2,0.9,2.1,2.1,2.1c1.2,0,2.1-0.9,2.1-2.1V186h4.7v1.5c0,1.2,0.9,2.1,2.1,2.1c1.2,0,2.1-0.9,2.1-2.1V186h4.7v1.5
			c0,1.2,0.9,2.1,2.1,2.1c1.2,0,2.1-0.9,2.1-2.1V186h1.5c1.8,0,3.3,1.5,3.3,3.3v5.1L152.1,194.3z M193.8,210.7l2.1,2.1l-13.4,13.4
			l-2.1-2.1L193.8,210.7z M180.2,228.8v-4l4,4H180.2z M185,228.7l-2.1-2.1l13.4-13.4l2.1,2.1L185,228.7z"/>
		<polygon class="st3" points="179.4,223.8 179.2,223.7 179.2,223.7 179.3,223.8 		"/>
	</g>
	<path class="st3" d="M158.9,235.8c0-0.2-0.1-0.3-0.3-0.3c0,0,0,0,0,0h-3.2c-1.8,0-3.3-1.5-3.3-3.3v-28c0-0.2-0.1-0.3-0.3-0.3
		c-0.2,0-0.3,0.1-0.3,0.3v28c0,2.1,1.7,3.9,3.9,3.9h3.2C158.8,236.1,158.9,236,158.9,235.8z"/>
	<path class="st3" d="M157.8,200c0,0.1,0,0.2,0.1,0.2c0.1,0.1,0.1,0.1,0.2,0.1c0,0,0,0,0,0h28.6c0.2,0,0.3-0.1,0.3-0.3
		c0-0.1,0-0.2-0.1-0.2c-0.1-0.1-0.1-0.1-0.2-0.1h-28.6c-0.1,0-0.2,0-0.2,0.1C157.8,199.9,157.8,199.9,157.8,200z"/>
	<path class="st3" d="M187,205.4c0-0.2-0.1-0.3-0.3-0.3c0,0,0,0,0,0h-28.6c-0.2,0-0.3,0.1-0.3,0.3c0,0.2,0.1,0.3,0.3,0.3h28.6
		C186.9,205.7,187,205.6,187,205.4z"/>
	<path class="st3" d="M157.8,210.7c0,0.1,0,0.2,0.1,0.2c0.1,0.1,0.1,0.1,0.2,0.1c0,0,0,0,0,0h28.6c0.1,0,0.2,0,0.2-0.1
		c0.1-0.1,0.1-0.1,0.1-0.2c0-0.1,0-0.2-0.1-0.2c-0.1-0.1-0.2,0-0.2-0.1h-28.6c-0.1,0-0.2,0-0.2,0.1
		C157.8,210.6,157.8,210.7,157.8,210.7z"/>
	<path class="st3" d="M158.1,221.2c-0.2,0-0.3,0.1-0.3,0.3c0,0.2,0.1,0.3,0.3,0.3h18.8c0.2,0,0.3-0.1,0.3-0.3c0-0.1,0-0.2-0.1-0.2
		c-0.1-0.1-0.1-0.1-0.2-0.1H158.1z"/>
</g>
<g id="_007-ux_6_" transform="translate(932.875 202.001)">
	<path class="st3" d="M-527.4,31.5v-16c0-0.2-0.2-0.4-0.4-0.4c-0.2,0-0.4,0.2-0.4,0.4v12.2h-23.1V-1.1h23.1v12.4
		c0,0.2,0.2,0.4,0.4,0.4c0.2,0,0.4-0.2,0.4-0.4l0-17.1c0-1.4-1.2-2.6-2.6-2.6h-15.1v-8.1c0-1.1-0.9-1.9-1.9-1.9h-20.8
		c-1.1,0-1.9,0.9-1.9,1.9V5.8h-6c-0.2,0-0.4,0.2-0.4,0.4c0,0.2,0.2,0.4,0.4,0.4h6v2.6h-6c-0.2,0-0.4,0.2-0.4,0.4s0.2,0.4,0.4,0.4h6
		v0.8c0,0.2,0.2,0.4,0.4,0.4s0.4-0.2,0.4-0.4V10h4.9c0.2,0,0.4-0.2,0.4-0.4s-0.2-0.4-0.4-0.4h-4.9V6.6h4.9c0.2,0,0.4-0.2,0.4-0.4
		c0-0.2-0.2-0.4-0.4-0.4h-4.9v-22.4c0-0.6,0.5-1.2,1.2-1.2h20.8c0.6,0,1.2,0.5,1.2,1.2v8.1h-2.9v-5.7c0-0.4-0.4-0.8-0.8-0.8h-15.6
		c-0.4,0-0.8,0.4-0.8,0.8V-3c0,0.4,0.4,0.8,0.8,0.8h9.1c0.2,0,0.4-0.2,0.4-0.4c0-0.2-0.2-0.4-0.4-0.4h-8.4l7.1-5.2l5.4,3.9v22.1
		h-15.8c-0.6,0-1.2-0.5-1.2-1.2v-2c0-0.2-0.2-0.4-0.4-0.4s-0.4,0.2-0.4,0.4v2c0,1.1,0.9,1.9,1.9,1.9h15.8v12.8
		c0,1.4,1.2,2.6,2.6,2.6h19.4C-528.6,34.1-527.4,32.9-527.4,31.5z M-530.1-7.7c1,0,1.9,0.8,1.9,1.9v4h-23.1v-4c0-1,0.8-1.9,1.9-1.9
		H-530.1z M-565.3-3.3v-10.5l7.2,5.3L-565.3-3.3z M-557.4-9l-7.1-5.2h14.2L-557.4-9z M-552-5.9l0,0.8l-4.7-3.4l7.2-5.3v5.3l-0.4,0.1
		C-551.1-8.2-552-7.1-552-5.9z M-530,33.3h-19.4c-1,0-1.9-0.8-1.9-1.9v-3.1h23.1v3.1C-528.2,32.5-529,33.3-530,33.3z"/>
	<circle class="st3" cx="-539.7" cy="30.6" r="1"/>
	<path class="st3" d="M-580.3,0.2c-0.1,0.1-0.1,0.4,0,0.5l1.9,2.2c0.1,0.1,0.1,0.1,0.3,0.1c0.1,0,0.2,0,0.3-0.1
		c0.1-0.1,0.2-0.4,0-0.5l-1.7-1.9l1.7-1.9c0.1-0.1,0.1-0.4-0.1-0.5c-0.1-0.1-0.1-0.1-0.2-0.1c-0.1,0-0.2,0-0.3,0.1L-580.3,0.2z"/>
	<path class="st3" d="M-574.3,2.9l1.9-2.2c0.1-0.1,0.1-0.4,0-0.5l-1.9-2.2c-0.1-0.2-0.4-0.2-0.5-0.1c-0.2,0.1-0.2,0.4-0.1,0.5l1.7,2
		l-1.7,1.9c-0.1,0.2-0.1,0.4,0,0.5C-574.7,3-574.5,3-574.3,2.9z"/>
	<path class="st3" d="M-536.9,19.6c0.2-0.3,0.6-0.5,1-0.5h0c0.4,0,0.8,0.2,1.1,0.5c0.4,0.4,0.9,0.6,1.5,0.6c0.2,0,0.4-0.2,0.4-0.4
		c0-0.2-0.2-0.4-0.4-0.4c-0.4,0-0.8-0.2-1.1-0.5c-0.8-0.8-2.1-0.8-3,0c-0.5,0.6-1.4,0.7-2,0.2c-0.1-0.1-0.1-0.1-0.2-0.2
		c-0.8-0.8-2.1-0.8-3,0c-0.5,0.6-1.4,0.6-2,0.2c-0.1-0.1-0.1-0.1-0.2-0.2c-0.4-0.4-0.9-0.6-1.5-0.6c-0.2,0-0.4,0.2-0.4,0.4
		c0,0.2,0.2,0.4,0.4,0.4c0.4,0,0.8,0.2,1.1,0.5c0.8,0.8,2.1,0.8,3,0c0.2-0.3,0.5-0.4,0.9-0.5c0.4,0,0.7,0.1,1,0.3
		c0.1,0.1,0.1,0.1,0.2,0.2C-539.1,20.5-537.8,20.5-536.9,19.6z"/>
	<path class="st3" d="M-546.1,22.7c0.4,0,0.8,0.2,1.1,0.5c0.8,0.8,2.1,0.8,3,0c0.5-0.6,1.4-0.6,2-0.2c0.1,0.1,0.1,0.1,0.2,0.2
		c0.4,0.4,0.9,0.6,1.5,0.6c0.2,0,0.4-0.2,0.4-0.4c0-0.2-0.2-0.4-0.4-0.4c-0.4,0-0.8-0.2-1.1-0.5c-0.8-0.8-2.2-0.8-3,0
		c-0.2,0.3-0.5,0.4-0.9,0.5c-0.4,0-0.7-0.1-1-0.3c-0.1-0.1-0.1-0.1-0.2-0.2c-0.4-0.4-0.9-0.6-1.5-0.6c-0.2,0-0.4,0.2-0.4,0.4
		C-546.5,22.6-546.3,22.7-546.1,22.7z"/>
	<path class="st3" d="M-556.9,5.8h-4.1c-0.2,0-0.4,0.2-0.4,0.4c0,0.2,0.2,0.4,0.4,0.4h4.1c0.2,0,0.4-0.2,0.4-0.4
		C-556.5,6-556.6,5.8-556.9,5.8z"/>
	<path class="st3" d="M-536.9,14.7c1.6-0.6,2.9-1.8,3.6-3.3c0.7-1.6,0.8-3.3,0.2-4.9c-0.9-2.5-3.4-4.2-6.1-4.2v0
		c-2.4,0-4.6,1.3-5.7,3.5l-0.1,0.2l-3.1,0.3l2.4,2.1l-2.4,2.1l2.8,0.3l0.1,0.3C-543.9,14.2-540.2,16-536.9,14.7z M-539.1,3
		c3.1,0,5.7,2.6,5.7,5.7c0,3.1-2.6,5.7-5.7,5.7h0c-3.1,0-5.7-2.6-5.7-5.7S-542.2,3-539.1,3z"/>
	<path class="st3" d="M-541,7.2c-0.4,0.1-0.7,0.5-0.6,1c0.1,0.4,0.5,0.7,1,0.6c0.4-0.1,0.7-0.5,0.6-1S-540.6,7.1-541,7.2z"/>
</g>
<g id="configuration-tool-gear-laptop-computer_6_" transform="translate(1385.379 193)">
	<path class="st3" d="M-581.8-2h-7.6c-1.2,0-2.2,1-2.2,2.2l0,23.7l-4.5,16.4c-0.3,1.2,0.4,2.4,1.5,2.7c0.2,0.1,0.4,0.1,0.6,0.1
		c0,0,0,0,0,0h44.8c0,0,0,0,0,0c0.6,0,1.1-0.2,1.5-0.6c0.4-0.4,0.6-1,0.6-1.5c0-0.2,0-0.3-0.1-0.5l0-0.1l-4.5-16.5V0.2
		c0-1.2-1-2.2-2.2-2.2h-7.6l-3.3-3.3c-0.2-0.2-0.5-0.2-0.7,0l-2.9,2.4l-0.4-3.7c0-0.2-0.2-0.4-0.5-0.4h-5.1c-0.2,0-0.5,0.2-0.5,0.4
		l-0.4,3.7l-2.9-2.4c-0.2-0.2-0.5-0.1-0.7,0L-581.8-2z M-548.1,40.6c0.1,0.4,0,0.8-0.2,1.1l0,0c-0.2,0.3-0.6,0.5-1,0.5H-594
		c0,0,0,0,0,0c-0.4,0-0.7-0.2-1-0.5c-0.2-0.3-0.3-0.7-0.2-1.1l4.4-16.2h38.3L-548.1,40.6z M-561-1h7.2c0.7,0,1.2,0.5,1.2,1.2v23.3
		h-38V0.2c0-0.7,0.5-1.2,1.2-1.2h7.2l2.4,2.9l-3.7,0.4c-0.2,0-0.4,0.2-0.4,0.5v5.1c0,0.2,0.2,0.5,0.4,0.5l3.7,0.4l-2.4,2.9
		c-0.2,0.2-0.1,0.5,0,0.7l3.6,3.6c0.2,0.2,0.5,0.2,0.7,0l2.9-2.4l0.4,3.7c0,0.2,0.2,0.4,0.5,0.4h5.1c0.2,0,0.5-0.2,0.5-0.4l0.4-3.7
		l2.9,2.4c0.2,0.2,0.5,0.1,0.7,0l3.6-3.6c0.2-0.2,0.2-0.5,0-0.7l-2.4-2.9l3.7-0.4c0.2,0,0.4-0.2,0.4-0.5V2.7c0-0.2-0.2-0.5-0.4-0.5
		l-3.7-0.4L-561-1z M-578.2-4.3l3.2,2.7c0.1,0.1,0.3,0.1,0.5,0.1c0.2-0.1,0.3-0.2,0.3-0.4l0.4-4.2h4.2l0.4,4.2
		c0,0.2,0.1,0.3,0.3,0.4c0.2,0.1,0.4,0,0.5-0.1l3.2-2.7l3,3l-2.7,3.2c-0.1,0.1-0.1,0.3-0.1,0.5c0.1,0.2,0.2,0.3,0.4,0.3l4.2,0.4v4.2
		l-4.2,0.4c-0.2,0-0.3,0.1-0.4,0.3c-0.1,0.2,0,0.4,0.1,0.5l2.7,3.2l-3,3l-3.2-2.7c-0.1-0.1-0.3-0.1-0.5-0.1
		c-0.2,0.1-0.3,0.2-0.3,0.4l-0.4,4.2h-4.2l-0.4-4.2c0-0.2-0.1-0.3-0.3-0.4c-0.2-0.1-0.4,0-0.5,0.1l-3.2,2.7l-3-3l2.7-3.2
		c0.1-0.1,0.1-0.3,0.1-0.5c-0.1-0.2-0.2-0.3-0.4-0.3l-4.2-0.4V3.2l4.2-0.4c0.2,0,0.3-0.1,0.4-0.3c0.1-0.2,0-0.4-0.1-0.5l-2.7-3.2
		L-578.2-4.3z"/>
	<path class="st3" d="M-579.7,39.5c0.1,0.1,0.2,0.2,0.3,0.2c0,0,0.1,0,0.1,0h15.3c0,0,0,0,0,0c0.1,0,0.3-0.1,0.3-0.1
		s0.1-0.2,0.1-0.3c0,0,0-0.1,0-0.1l-0.8-3.4c-0.1-0.2-0.2-0.4-0.5-0.4h-13.6c-0.2,0-0.4,0.2-0.5,0.4l-0.8,3.4
		C-579.7,39.2-579.7,39.3-579.7,39.5z M-578,36.3h12.8l0.6,2.4h-14L-578,36.3z"/>
	<path class="st3" d="M-571.6,0.6c-2.6,0-4.7,2.1-4.7,4.7s2.1,4.7,4.7,4.7c2.6,0,4.7-2.1,4.7-4.7S-569,0.6-571.6,0.6z M-571.6,9
		c-2.1,0-3.8-1.7-3.8-3.8s1.7-3.8,3.8-3.8s3.8,1.7,3.8,3.8S-569.5,9-571.6,9z"/>
</g>
<g id="_009-live-streaming_6_" transform="translate(667.359 457)">
	<path class="st3" d="M-267.6,73.5c0.9,0,1.7-0.8,1.7-1.7V28.7c0-0.9-0.8-1.7-1.7-1.7h-45.1c-0.9,0-1.7,0.8-1.7,1.7v43.2
		c0,0.9,0.8,1.7,1.7,1.7h8.8l0.1,0.4c0.7,3.6,2.7,6.8,5.8,8.9c3.1,2.1,6.8,2.9,10.4,2.2c7.5-1.4,12.5-8.7,11.1-16.2
		c-0.7-3.6-2.7-6.8-5.8-8.9c-3.1-2.1-6.7-2.9-10.4-2.2c-4,0.7-7.5,3.2-9.5,6.7c-0.1,0.2-0.1,0.5,0.2,0.6c0.2,0.1,0.5,0.1,0.6-0.2
		c1.7-3,4.5-5.1,7.8-6c3.3-0.9,6.8-0.4,9.8,1.3c6.2,3.6,8.3,11.5,4.7,17.6c-1.7,3-4.5,5.1-7.8,6c-3.3,0.9-6.8,0.4-9.8-1.3
		c-4.9-2.8-7.4-8.4-6.1-13.9c0-0.2-0.1-0.5-0.4-0.5c-0.2-0.1-0.5,0.1-0.5,0.3c-0.2,1-0.3,2-0.3,3c0,0.3,0,0.5,0,0.8l0,0.5h-8.7
		c-0.4,0-0.7-0.3-0.7-0.7V37.2h32.8c0.3,0,0.5-0.2,0.5-0.5c0-0.3-0.2-0.5-0.5-0.5h-32.8v-7.6c0-0.4,0.3-0.7,0.7-0.7h45.1
		c0.4,0,0.7,0.3,0.7,0.7v7.6h-9.4c-0.3,0-0.5,0.2-0.5,0.5c0,0.3,0.2,0.5,0.5,0.5h9.4v34.6c0,0.4-0.3,0.7-0.7,0.7h-4.5c0,0,0,0,0,0
		c-0.1,0-0.2,0-0.3,0.1c-0.1,0.1-0.1,0.2-0.1,0.3c0,0.3,0.2,0.5,0.5,0.5H-267.6z"/>
	<path class="st3" d="M-308.2,31c-0.7,0-1.2,0.5-1.2,1.2c0,0.7,0.5,1.2,1.2,1.2c0.7,0,1.2-0.5,1.2-1.2
		C-307.1,31.5-307.6,31-308.2,31z"/>
	<circle class="st3" cx="-303.4" cy="32.2" r="1.2"/>
	<circle class="st3" cx="-298.6" cy="32.2" r="1.2"/>
	<path class="st3" d="M-284,70.7c-0.1-0.3-0.4-0.5-0.6-0.6l-7.6-4.4c-0.3-0.1-0.5-0.2-0.8-0.2c-0.1,0-0.3,0-0.4,0.1
		c-0.4,0.1-0.8,0.4-1,0.8c-0.1,0.3-0.2,0.5-0.2,0.8v8.7c0,0.9,0.8,1.7,1.7,1.7c0.3,0,0.6-0.1,0.8-0.2l7.6-4.4
		C-283.8,72.5-283.6,71.5-284,70.7z M-284.8,71.9c-0.1,0.1-0.2,0.2-0.3,0.3l-7.6,4.4c-0.1,0.1-0.2,0.1-0.4,0.1c-0.1,0-0.1,0-0.2,0
		c-0.2-0.1-0.4-0.2-0.5-0.4c-0.1-0.1-0.1-0.2-0.1-0.4l0-8.7c0-0.3,0.1-0.5,0.4-0.7c0.2-0.1,0.5-0.1,0.7,0l7.6,4.4
		c0.2,0.1,0.3,0.3,0.3,0.5C-284.7,71.5-284.7,71.7-284.8,71.9z"/>
	<path class="st3" d="M-306.6,42.5v10.3c0,0.2,0.2,0.4,0.4,0.5c0.1,0,2.5,0,3.7,0c0.1,0,0.2,0,0.3-0.1c0.1-0.1,0.1-0.2,0.1-0.3
		c0-0.3-0.2-0.5-0.5-0.5c0,0,0,0,0,0c-1,0-2,0-2.7,0h-0.4v-9.9c0-0.3-0.2-0.5-0.5-0.5S-306.6,42.3-306.6,42.5z"/>
	<path class="st3" d="M-296.6,42c-0.3,0-0.5,0.2-0.5,0.5v10.3c0,0.3,0.2,0.5,0.5,0.5c0,0,0,0,0,0c0.3,0,0.5-0.2,0.5-0.5V42.5
		c0-0.1,0-0.2-0.1-0.3C-296.3,42.1-296.4,42-296.6,42C-296.6,42-296.6,42-296.6,42z"/>
	<path class="st3" d="M-274.2,42.1h-4.3c-0.3,0-0.5,0.2-0.5,0.5v10.2c0,0.3,0.2,0.5,0.5,0.5h4.3c0.1,0,0.2,0,0.3-0.1
		c0.1-0.1,0.1-0.2,0.1-0.3c0-0.3-0.2-0.5-0.5-0.5h-3.8v-4.2h3.5c0.3,0,0.5-0.2,0.5-0.5c0-0.3-0.2-0.5-0.5-0.5h-3.5v-4.2h3.8
		c0.3,0,0.5-0.2,0.5-0.5C-273.7,42.3-273.9,42.1-274.2,42.1z"/>
	<path class="st3" d="M-286.4,52.9l3.4-10.1c0.1-0.2-0.1-0.5-0.3-0.6c-0.1,0-0.2,0-0.4,0c-0.1,0.1-0.2,0.1-0.2,0.2l0,0l-3.2,9.5
		l-3.3-9.5c-0.1-0.2-0.2-0.3-0.4-0.3c-0.1,0-0.1,0-0.2,0c-0.2,0.1-0.4,0.3-0.3,0.6l3.5,10.2c0.1,0.3,0.4,0.5,0.7,0.5
		C-286.8,53.3-286.5,53.1-286.4,52.9z"/>
</g>
<g id="_003-submit_6_" transform="translate(943 457)">
	<g id="Group_12_6_" transform="translate(0)">
		<path class="st3" d="M-768.9,31.1c0-0.2-0.2-0.4-0.4-0.4h-11.4c-0.2,0-0.4,0.2-0.4,0.4v16.3c0,0.2,0.2,0.4,0.4,0.4h11.4
			c0.2,0,0.4-0.2,0.4-0.4V31.1z M-780.2,47V31.6h10.5l0,15.5H-780.2z"/>
		<path class="st3" d="M-749.9,35.2v-4c0-0.2-0.2-0.4-0.4-0.4H-765c-0.2,0-0.4,0.2-0.4,0.4v4c0,0.2,0.2,0.4,0.4,0.4l0,0.5l0,0v-0.5
			h14.7C-750.1,35.6-749.9,35.4-749.9,35.2z M-750.8,34.7h-13.8v-3.2h13.8V34.7z"/>
		<path class="st3" d="M-749.9,39.4c0-0.2-0.2-0.4-0.4-0.4H-765c0,0,0,0,0,0c-0.2,0-0.4,0.2-0.4,0.4c0,0.2,0.2,0.4,0.4,0.4l0,0.5
			l0,0v-0.5h14.7C-750.1,39.8-749.9,39.7-749.9,39.4z"/>
		<path class="st3" d="M-765.4,43.2c0,0.2,0.2,0.4,0.4,0.4h14.7c0.2,0,0.4-0.2,0.4-0.4c0-0.2-0.2-0.4-0.4-0.4H-765
			C-765.3,42.8-765.4,43-765.4,43.2z"/>
		<path class="st3" d="M-749.9,47.5c0-0.2-0.2-0.4-0.4-0.4H-765c-0.2,0-0.4,0.2-0.4,0.4c0,0.2,0.2,0.4,0.4,0.4l0,0.5v-0.5h14.7
			C-750.1,47.9-749.9,47.7-749.9,47.5z"/>
		<path class="st3" d="M-768.3,70.6c0.7,0,1.4-0.3,1.9-0.8c0.5-0.5,0.8-1.2,0.8-1.9c0-0.8-0.4-1.6-1.1-2.1l-0.4-0.3l0.3-0.4
			c0.4-0.5,0.5-1.1,0.4-1.7s-0.4-1.1-0.9-1.5c-0.4-0.3-0.9-0.4-1.3-0.4h-2.4c-0.2,0-0.4,0.2-0.4,0.4v8.2c0,0.2,0.2,0.4,0.4,0.4
			C-771.1,70.6-768.9,70.6-768.3,70.6C-768.3,70.6-768.3,70.6-768.3,70.6z M-770.7,62.4l1.9,0c0.4,0,0.7,0.1,1,0.4
			c0.3,0.3,0.4,0.6,0.5,1c0,0.4-0.1,0.8-0.4,1c-0.3,0.3-0.6,0.4-1,0.5h0h-2V62.4z M-770.2,69.7l-0.5,0v-3.5h2.4c1,0,1.8,0.8,1.8,1.8
			s-0.8,1.8-1.8,1.8l-0.3,0C-769.1,69.7-769.7,69.7-770.2,69.7z"/>
		<path class="st3" d="M-786.5,70.6C-786.5,70.6-786.5,70.6-786.5,70.6c1.4,0,2.6-0.8,2.9-2.1c0.1-0.4,0.2-1.9-2-2.7l0,0
			c-1-0.4-1.9-0.8-2.3-0.9l-0.1-0.1c-0.3-0.3-0.5-0.7-0.4-1.1c0.1-0.6,0.5-1,1.1-1.1c1-0.2,2,0,2.7,0.6c0.2,0.2,0.5,0.1,0.6,0
			c0.2-0.2,0.1-0.5-0.1-0.6c-1-0.8-2.4-1.1-3.6-0.8c-0.9,0.2-1.5,1-1.6,1.8c-0.1,0.8,0.2,1.6,0.9,2c0.4,0.2,1.4,0.6,2.5,1
			c1.1,0.4,1.6,1,1.4,1.8c-0.3,0.9-1.1,1.5-2,1.4c-0.9,0-1.8-0.4-2.5-1.1c-0.2-0.2-0.4-0.2-0.6,0c-0.2,0.2-0.2,0.4,0,0.6
			C-788.8,70.1-787.7,70.6-786.5,70.6z"/>
		<path class="st3" d="M-779.5,70.1c0.5,0.3,1.1,0.5,1.7,0.5c0,0,0,0,0,0c0.5,0,1.1-0.1,1.5-0.4c1.1-0.5,1.8-1.5,1.8-2.6V62
			c0-0.1,0-0.2-0.1-0.3c-0.1-0.1-0.2-0.1-0.3-0.1c0,0,0,0,0,0c-0.2,0-0.4,0.2-0.4,0.4v5.6c0,0.8-0.4,1.4-1.3,1.9
			c-0.4,0.2-0.8,0.3-1.2,0.3c-0.4,0-0.9-0.1-1.3-0.4c-0.6-0.3-1.1-1-1.1-1.8V62c0-0.2-0.2-0.4-0.4-0.4h0c-0.2,0-0.4,0.2-0.4,0.4v5.6
			C-780.9,68.6-780.4,69.6-779.5,70.1z"/>
		<path class="st3" d="M-747.6,85c0.1,0.2,0.2,0.3,0.4,0.3c0.2,0,0.3-0.1,0.4-0.2l3.9-6.7l2.6-1.5h1.6c0,0,0,0,0,0
			c1.5,0,2.8-1.2,2.8-2.8l0-15.9c0-1.5-1.3-2.8-2.8-2.8h-6.7V26.6c0-0.2-0.2-0.4-0.4-0.4h-39.3c-0.2,0-0.4,0.2-0.4,0.4v8.6
			c0,0.2,0.2,0.4,0.4,0.4c0,0,0,0,0,0c0.2,0,0.4-0.2,0.4-0.4v-8.2h38.4v28.3h-1.5c-0.1,0-0.2,0-0.3,0.1c-0.1,0.1-0.1,0.2-0.1,0.3
			c0,0.2,0.2,0.4,0.4,0.4h9c1.1,0,1.9,0.9,1.9,1.9v15.2l-7.1-2.5l0.4-0.5c0.1-0.1,0.1-0.2,0.1-0.2v-7.7h1.8c0.2,0,0.4-0.2,0.4-0.4
			c0-0.2-0.2-0.4-0.4-0.4h-4.5c-0.2,0-0.4,0.2-0.4,0.4c0,0.2,0.2,0.4,0.4,0.4h1.8v8.3l-5.2-1.8V62c0-0.2-0.2-0.4-0.4-0.4
			c0,0,0,0,0,0c-0.1,0-0.2,0-0.3,0.1c-0.1,0.1-0.1,0.2-0.1,0.3v6.6l-2.6-0.9c-0.1,0-0.2,0-0.3,0l-0.5,0.1l-1.1-5.8
			c-0.1-0.3-0.4-0.5-0.7-0.5c-0.2,0-0.4,0.2-0.5,0.4l-2,7.1l-2.1-7.1c-0.1-0.2-0.2-0.3-0.3-0.4c-0.1-0.1-0.3-0.1-0.5,0
			c-0.2,0.1-0.4,0.3-0.4,0.5l-1.4,7.9c0,0.2,0.1,0.5,0.3,0.5c0.2,0,0.5-0.1,0.5-0.3l1.3-6.9l2,6.9c0.1,0.3,0.3,0.4,0.6,0.4
			c0,0,0,0,0,0c0.3,0,0.5-0.2,0.6-0.4l2-6.9l1.3,6.9c0,0.2,0.3,0.4,0.5,0.3c0.1,0,0.2-0.1,0.2-0.1l0.5-0.5l2.1,6h-31.8c0,0,0,0,0,0
			c-0.1,0-0.2,0-0.3,0.1c-0.1,0.1-0.1,0.2-0.1,0.3c0,0.2,0.2,0.4,0.4,0.4h32.1L-747.6,85z M-752.4,68.8l15,5.3l-6,3.5
			c-0.1,0-0.1,0.1-0.2,0.2l-3.5,6L-752.4,68.8z"/>
		<path class="st3" d="M-751.9,56.2c0.2,0,0.4-0.2,0.4-0.4c0-0.2-0.2-0.4-0.4-0.4h-32.8v-16c0-0.2-0.2-0.4-0.4-0.4
			c-0.2,0-0.4,0.2-0.4,0.4v16h-6.7c-1.5,0-2.8,1.3-2.8,2.8V74c0,1.5,1.3,2.8,2.8,2.8h5.5c0,0,0,0,0,0c0.1,0,0.2,0,0.3-0.1
			c0.1-0.1,0.1-0.2,0.1-0.3c0-0.1,0-0.2-0.1-0.3c-0.1-0.1-0.2-0.1-0.3-0.1l-5.5,0c-1.1,0-1.9-0.9-1.9-1.9V58.2
			c0-1.1,0.9-1.9,1.9-1.9H-751.9C-751.9,56.2-751.9,56.2-751.9,56.2z"/>
	</g>
</g>
<g id="_008-recommended_6_" transform="translate(1162.471 457)">
	<path class="st3" d="M99.1-251.4h-6.3l0.6-0.7c1.2-1.2,1.9-2.8,2.2-4.4c0.1-0.8-0.2-1.6-0.7-2.2c-0.5-0.5-1.1-0.8-1.8-0.8
		c0,0,0,0,0,0c-1.4,0-2.5,1.1-2.5,2.5l0,0.1c-0.3,0.6-0.7,1.2-1.2,1.6c-0.9,0.9-2.1,1.5-3.3,1.9c-0.6,0.2-1.1,0.5-1.5,1
		c-0.4,0.4-0.7,0.7-1.1,1.1l-0.2,0.2l-0.2-0.1c-0.2-0.1-0.4-0.1-0.6-0.1h-5.1c-0.7,0-1.2,0.6-1.2,1.3v13.6c0,0.7,0.6,1.2,1.3,1.3
		h5.1c0.5,0,0.9-0.2,1.1-0.6l0.1-0.2H97c1.2,0,2.1-0.9,2.1-2.1c0-0.4-0.1-0.7-0.3-1.1l-0.2-0.3l0.3-0.2c1-0.6,1.3-1.9,0.7-2.9
		l-0.2-0.3l0.3-0.2c0.5-0.3,0.8-0.8,0.9-1.3c0.1-0.5,0-1.1-0.2-1.6l-0.3-0.4l0.3-0.2c0.7-0.5,1.1-1.2,1.1-2.1
		C101.6-250.3,100.5-251.4,99.1-251.4z M99.3-247.2L99.3-247.2l-0.6,0c-0.2,0-0.4,0.2-0.4,0.4s0.2,0.4,0.4,0.4c0,0,0,0,0,0
		c0.3,0,0.7,0.1,0.9,0.4c0.2,0.2,0.4,0.6,0.4,0.9c0,0.7-0.6,1.3-1.3,1.3h-0.9c-0.2,0-0.4,0.2-0.4,0.4c0,0.2,0.2,0.4,0.4,0.4
		c0.3,0,0.7,0.1,0.9,0.4c0.2,0.2,0.4,0.6,0.4,0.9c0,0.7-0.6,1.3-1.3,1.3H97c-0.2,0-0.4,0.2-0.4,0.4s0.2,0.4,0.4,0.4c0,0,0,0,0,0
		c0.3,0,0.7,0.1,0.9,0.4s0.4,0.6,0.4,0.9c0,0.7-0.6,1.3-1.3,1.3H83.8v-8.1c0-0.2-0.2-0.4-0.4-0.4c-0.2,0-0.4,0.2-0.4,0.4v8.9
		l-0.4,0.1h-5.5l-0.1-0.4v-14l0.4-0.1H83l0.1,0.4v1.7c0,0.2,0.2,0.4,0.4,0.4c0.2,0,0.4-0.2,0.4-0.4l0-1.9l0.2-0.2
		c0.5-0.4,0.9-0.8,1.3-1.2c0.3-0.3,0.7-0.6,1.1-0.7c1.4-0.4,2.7-1.2,3.7-2.2c0.7-0.6,1.2-1.4,1.3-2.3c0-0.4,0.2-0.8,0.5-1.1
		c0.3-0.3,0.7-0.5,1.2-0.5c0.5,0,0.9,0.2,1.2,0.6c0.4,0.4,0.5,1,0.5,1.6c-0.2,1.7-1.5,3.7-3.4,5.2c-0.1,0.1-0.1,0.2-0.1,0.3
		c0,0.1,0,0.2,0.1,0.3c0.1,0.1,0.2,0.2,0.3,0.2h7.3c1,0.1,1.7,0.9,1.6,1.8C100.7-248,100.1-247.3,99.3-247.2z"/>
	<path class="st3" d="M80-239.5c-0.2,0-0.4,0.2-0.4,0.4c0,0.2,0.2,0.4,0.4,0.4c0.2,0,0.4-0.2,0.4-0.4
		C80.4-239.4,80.2-239.5,80-239.5z"/>
	<path class="st3" d="M113.5-242.2l-1.4-3.7l1.4-3.8c0.1-0.1,0-0.3-0.1-0.4l-2.5-3.1l0.2-4c0-0.1-0.1-0.3-0.2-0.4l-3.4-2.2l-1.1-3.9
		c0-0.1-0.1-0.2-0.3-0.3l-3.9-1.1l-2.2-3.4c-0.1-0.1-0.2-0.2-0.4-0.2l-4,0.2l-3.1-2.5c-0.1-0.1-0.3-0.1-0.4-0.1l-3.8,1.4l-3.8-1.4
		c-0.1-0.1-0.3,0-0.4,0.1l-3.1,2.5l-4-0.2c-0.1,0-0.3,0.1-0.4,0.2l-2.2,3.4l-3.9,1.1c-0.1,0-0.2,0.1-0.3,0.3l-1.1,3.9l-3.4,2.2
		c-0.1,0.1-0.2,0.2-0.2,0.4l0.2,4l-2.5,3.1c-0.1,0.1-0.1,0.3-0.1,0.4l1.4,3.8l-1.4,3.8c-0.1,0.1,0,0.3,0.1,0.4l2.5,3.1l-0.2,4
		c0,0.1,0.1,0.3,0.2,0.4l3.4,2.2l1.1,3.9c0,0.1,0.1,0.2,0.3,0.3l3.9,1.1l2.2,3.4c0.1,0.1,0.2,0.2,0.4,0.2l4-0.2l3.1,2.5
		c0.1,0.1,0.3,0.1,0.4,0.1l3.8-1.4l3.8,1.4c0.1,0.1,0.3,0,0.4-0.1l3.1-2.5l4,0.2c0.1,0,0.3-0.1,0.4-0.2l2.2-3.4l3.9-1.1
		c0.1,0,0.2-0.1,0.3-0.3l1.1-3.9l3.4-2.2c0.1-0.1,0.2-0.2,0.2-0.4l-0.2-4l2.5-3.1C113.5-241.9,113.5-242,113.5-242.2z M110.2-239
		c-0.1,0.1-0.1,0.2-0.1,0.3l0.2,3.9l-3.3,2.2c-0.1,0.1-0.1,0.1-0.2,0.2l-1,3.8l-3.8,1c-0.1,0-0.2,0.1-0.2,0.2l-2.2,3.3l-3.9-0.2
		c-0.1,0-0.2,0-0.3,0.1l-3.1,2.5l-3.7-1.4c-0.1,0-0.2,0-0.3,0l-3.7,1.4l-3.1-2.5c-0.1-0.1-0.2-0.1-0.3-0.1l-3.9,0.2l-2.2-3.3
		c-0.1-0.1-0.1-0.1-0.2-0.2l-3.8-1l-1-3.8c0-0.1-0.1-0.2-0.2-0.2l-3.3-2.2l0.2-3.9c0-0.1,0-0.2-0.1-0.3l-2.5-3.1l1.4-3.7
		c0-0.1,0-0.2,0-0.3l-1.4-3.7l2.5-3.1c0.1-0.1,0.1-0.2,0.1-0.3l-0.2-3.9l3.3-2.2c0.1-0.1,0.1-0.1,0.2-0.2l1-3.8l3.8-1
		c0.1,0,0.2-0.1,0.2-0.2l2.2-3.3l3.9,0.2c0.1,0,0.2,0,0.3-0.1l3.1-2.5l3.7,1.4c0.1,0,0.2,0,0.3,0l3.7-1.4l3.1,2.5
		c0.1,0.1,0.2,0.1,0.3,0.1l3.9-0.2l2.2,3.3c0.1,0.1,0.1,0.1,0.2,0.2l3.8,1l1,3.8c0,0.1,0.1,0.2,0.2,0.2l3.3,2.2l-0.2,3.9
		c0,0.1,0,0.2,0.1,0.3l2.5,3.1l-1.4,3.7c0,0.1,0,0.2,0,0.3l1.4,3.7L110.2-239z"/>
	<path class="st3" d="M101.4-260c0.2,0.2,0.4,0.4,0.6,0.6c0.2,0.2,0.4,0.4,0.6,0.6c0.2,0.2,0.4,0.2,0.6,0c0.2-0.2,0.2-0.4,0-0.6h0
		c-0.2-0.2-0.4-0.4-0.6-0.6c-0.2-0.2-0.4-0.4-0.6-0.6c-0.1-0.1-0.2-0.1-0.3-0.1c-0.1,0-0.2,0-0.3,0.1
		C101.2-260.4,101.2-260.2,101.4-260z"/>
	<path class="st3" d="M98.7-262.1c0.2,0.1,0.4,0.1,0.6-0.1c0.1-0.2,0.1-0.4-0.1-0.6c-3.3-2.1-7-3.1-10.7-3.1c-6.6,0-13,3.3-16.8,9.2
		c-4.7,7.4-4.1,16.8,1.6,23.5c0.1,0.2,0.4,0.2,0.6,0c0.2-0.1,0.2-0.4,0-0.6c-3.3-3.9-4.8-8.9-4.4-14c0.4-5.1,2.8-9.7,6.8-13
		C82.6-265.9,91.7-266.5,98.7-262.1z"/>
	<path class="st3" d="M75.5-230.9c0,0.1,0.1,0.2,0.1,0.3c3.6,3,8.1,4.7,12.8,4.7c0.3,0,0.6,0,0.8,0c5.3-0.2,10.2-2.5,13.8-6.4
		c3.6-3.9,5.5-9,5.3-14.3c-0.1-3.4-1.1-6.7-2.9-9.6l-0.2-0.3c-0.1-0.2-0.4-0.2-0.6-0.1c-0.2,0.1-0.2,0.4-0.1,0.6
		c5.7,8.9,3,20.7-5.9,26.4c-7.1,4.5-16.1,3.9-22.5-1.5c-0.1-0.1-0.2-0.1-0.3-0.1c0,0,0,0,0,0c-0.1,0-0.2,0.1-0.3,0.1
		C75.6-231.2,75.5-231.1,75.5-230.9z"/>
</g>
<g id="Online_6_" transform="translate(1391 455)">
	<path class="st3" d="M-352.1-269.9h-24.1c-1.2,0-2.2,1-2.2,2.2v46.6c0,1.2,1,2.2,2.2,2.2h24.1c1.2,0,2.2-1,2.2-2.2v-7.3l0.4,0
		c8.8-0.5,15.6-8,15.1-16.8c-0.4-8.2-6.9-14.7-15.1-15.1l-0.4,0v-7.3C-349.9-268.9-350.9-269.9-352.1-269.9z M-355.3-268.9l-0.4,1.6
		c-0.1,0.6-0.6,0.9-1.2,0.9h-14.6c-0.6,0-1.1-0.4-1.2-1l-0.4-1.6H-355.3z M-350.9-221.1c0,0.7-0.6,1.3-1.3,1.3h-24.1
		c-0.7,0-1.3-0.6-1.3-1.3v-46.6c0-0.7,0.6-1.3,1.3-1.3h2.2l0.4,1.8c0.2,1,1.1,1.7,2.1,1.7h14.6c1,0,1.9-0.7,2.1-1.7l0.4-1.8h2.2
		c0.7,0,1.3,0.6,1.3,1.3v7.3l-0.4,0c-4.3,0.2-8.2,2.1-11,5.3c-2.9,3.2-4.3,7.3-4.1,11.5c0.4,8.2,6.9,14.7,15.1,15.1l0.4,0
		L-350.9-221.1z M-357.8-243.9l0,0.4c0,2.2,0.3,4.5,0.8,6.6l0.1,0.3l-0.3,0.1c-1.3,0.6-2.6,1.4-3.7,2.4l-0.3,0.2l-0.3-0.3
		c-2.4-2.6-3.8-5.9-4-9.4l0-0.4L-357.8-243.9z M-365.4-244.9l0-0.4c0.2-3.5,1.6-6.8,4-9.4l0.3-0.3l0.3,0.2c1.1,1,2.4,1.8,3.7,2.4
		l0.3,0.1l-0.1,0.3c-0.5,2.2-0.8,4.4-0.8,6.6l0,0.4H-365.4z M-360.1-233.5c0.9-0.8,2-1.5,3.1-2l0.7-0.4l-0.1,0.7
		c0.5,1.7,1.3,3.2,2.3,4.6l0.7,0.9l-1.1-0.3c-2.1-0.6-3.9-1.6-5.6-2.9l-0.4-0.3L-360.1-233.5z M-356.1-237.4c-0.4-2-0.7-4.1-0.7-6.1
		l0-0.4h12.8l0,0.4c0,2.1-0.3,4.1-0.7,6.1l-0.1,0.4l-0.4-0.1c-3.3-1.2-7-1.2-10.3,0l-0.4,0.1L-356.1-237.4z M-356.8-244.9l0-0.4
		c0-2.1,0.3-4.1,0.7-6.1l0.1-0.4l0.4,0.1c3.3,1.2,7,1.2,10.4,0l0.4-0.1l0.1,0.4c0.4,2,0.7,4.1,0.7,6.1l0,0.4H-356.8z M-356.5-253.5
		l-0.1,0.4l-0.4-0.2c-1.1-0.5-2.1-1.2-3.1-2l-0.4-0.3l0.4-0.3c1.6-1.4,3.5-2.4,5.6-2.9l1.1-0.3l-0.7,0.9
		C-355.2-256.8-356-255.2-356.5-253.5z M-350.4-229.3c-2,0-4-2.4-5.2-6.3l-0.1-0.4l0.3-0.1c3.2-1.2,6.8-1.2,10,0l0.3,0.1l-0.1,0.4
		C-346.4-231.8-348.4-229.3-350.4-229.3z M-340.7-232.9c-1.6,1.4-3.5,2.4-5.6,2.9l-1.1,0.3l0.7-0.9c1.1-1.4,1.9-3,2.4-4.7l0.1-0.4
		l0.4,0.2c1.1,0.5,2.1,1.2,3.1,2l0.3,0.3L-340.7-232.9z M-335.4-243.5c-0.2,3.5-1.6,6.8-4,9.4l-0.3,0.3l-0.3-0.2
		c-1.1-1-2.3-1.8-3.7-2.4l-0.3-0.1l0.1-0.3c0.5-2.2,0.8-4.4,0.8-6.6l0-0.4h7.7L-335.4-243.5z M-339.7-254.9l0.3,0.3
		c2.4,2.6,3.8,5.9,4,9.4l0,0.4h-7.7l0-0.4c0-2.2-0.3-4.5-0.8-6.6l-0.1-0.3l0.3-0.1c1.3-0.6,2.6-1.4,3.7-2.4L-339.7-254.9z
		 M-345.3-253.4h1l0-0.2c-0.5-1.7-1.3-3.3-2.4-4.7l-0.7-0.9l1.1,0.3c2.1,0.6,3.9,1.6,5.6,2.9l0.4,0.3l-0.3,0.3
		c-0.9,0.8-1.9,1.4-2.9,1.9h0.3l-2.1,0.8c-1.6,0.6-3.3,0.9-5,0.9s-3.4-0.3-5-0.9l-0.3-0.1l0.1-0.4c1.2-3.9,3.2-6.3,5.2-6.3
		C-348.4-259.4-346.5-257.1-345.3-253.4z"/>
	
		<rect x="-346.2" y="-265.7" transform="matrix(0.2591 -0.9659 0.9659 0.2591 0.6816 -529.5391)" class="st3" width="2.7" height="0.9"/>
	
		<rect x="-341" y="-263.5" transform="matrix(0.4999 -0.8661 0.8661 0.4999 57.9812 -425.7001)" class="st3" width="2.7" height="0.9"/>
	
		<rect x="-336.5" y="-260.1" transform="matrix(0.707 -0.7072 0.7072 0.707 85.4137 -313.0832)" class="st3" width="2.7" height="0.9"/>
	
		<rect x="-333.1" y="-255.6" transform="matrix(0.8662 -0.4997 0.4997 0.8662 83.1206 -199.8988)" class="st3" width="2.7" height="0.9"/>
	
		<rect x="-330.9" y="-250.4" transform="matrix(0.9658 -0.2591 0.2591 0.9658 53.5146 -93.9328)" class="st3" width="2.7" height="0.9"/>
	<rect x="-330.2" y="-244.9" class="st3" width="2.7" height="0.9"/>
	
		<rect x="-330" y="-240.1" transform="matrix(0.2589 -0.9659 0.9659 0.2589 -13.5853 -495.3297)" class="st3" width="0.9" height="2.7"/>
	
		<rect x="-332.2" y="-234.9" transform="matrix(0.4997 -0.8662 0.8662 0.4997 36.3796 -404.2311)" class="st3" width="0.9" height="2.7"/>
	
		<rect x="-335.6" y="-230.5" transform="matrix(0.7072 -0.707 0.707 0.7072 63.8695 -304.0749)" class="st3" width="0.9" height="2.7"/>
	<rect x="-340.1" y="-227.1" transform="matrix(0.866 -0.5 0.5 0.866 67.3603 -200.0504)" class="st3" width="0.9" height="2.7"/>
	
		<rect x="-345.3" y="-224.9" transform="matrix(0.9659 -0.259 0.259 0.9659 46.1422 -96.9497)" class="st3" width="0.9" height="2.7"/>
</g>
<path class="st1" d="M1272.9,665.2H173.6c-80.2,0-145.4-65.2-145.4-145.4s65.2-145.4,145.4-145.4h1095.7v-1H173.6
	c-80.7,0-146.4,65.7-146.4,146.4c0,80.7,65.7,146.4,146.4,146.4h1099.4V665.2z"/>
<path class="st1" d="M342.1,81.7H185.8c-16.6,0-30.1-13.5-30.1-30.1V31.7h-1v19.9c0,17.1,14,31.1,31.1,31.1h156.3V81.7z"/>
<path class="st1" d="M1292,81.8H192.5v1H1292c80.2,0,145.4,65.2,145.4,145.4s-65.2,145.4-145.4,145.4H162.5v1H1292
	c80.7,0,146.4-65.7,146.4-146.4C1438.3,147.4,1372.7,81.8,1292,81.8z"/>
<circle class="st1" cx="155.4" cy="29.4" r="6"/>
<circle class="st1" cx="1276.1" cy="666.2" r="6"/>
<line class="st4" x1="312.2" y1="81.8" x2="312.2" y2="373.4"/>
<line class="st4" x1="531" y1="81.8" x2="531" y2="373.4"/>
<line class="st4" x1="749.9" y1="82.8" x2="749.9" y2="373.5"/>
<line class="st4" x1="968.8" y1="82.8" x2="968.8" y2="373.5"/>
<line class="st4" x1="1187.6" y1="82.8" x2="1187.6" y2="373.5"/>
<line class="st4" x1="312.2" y1="374.5" x2="312.2" y2="665.2"/>
<line class="st4" x1="531" y1="374.5" x2="531" y2="665.2"/>
<line class="st4" x1="749.9" y1="374.5" x2="749.9" y2="665.2"/>
<line class="st4" x1="968.8" y1="374.5" x2="968.8" y2="665.2"/>
<g id="_01_37_">
	<g class="st0">
		<path class="st1" d="M1227.5,150.1c0.8,0.9,2,1.7,3.7,1.7c2.5,0,3.2-1.4,3.2-2.4c0-1.7-1.6-2.2-3.3-2.6c-1.9-0.5-3.9-1.1-3.9-3.3
			c0-2,1.8-3.2,3.9-3.2c1.8,0,3.1,0.6,4.1,1.7l-0.7,0.8c-0.9-1-2.1-1.5-3.4-1.5c-1.6,0-2.8,0.9-2.8,2.2c0,1.4,1.5,1.8,3.1,2.3
			c1.9,0.5,4.1,1.2,4.1,3.6c0,1.5-1,3.4-4.3,3.4c-2,0-3.5-0.8-4.4-1.9L1227.5,150.1z"/>
		<path class="st1" d="M1240.9,141.5h-3.9v-0.9h8.9v0.9h-3.9v11.1h-1V141.5z"/>
		<path class="st1" d="M1248,140.6h7.6v0.9h-6.6v4.4h6.5v0.9h-6.5v4.8h6.6v0.9h-7.6V140.6z"/>
		<path class="st1" d="M1258.2,140.6h4.5c2.3,0,3.6,1.6,3.6,3.5c0,1.9-1.3,3.5-3.6,3.5h-3.5v5h-1V140.6z M1262.6,141.5h-3.4v5.1h3.4
			c1.6,0,2.6-1.1,2.6-2.6C1265.2,142.6,1264.2,141.5,1262.6,141.5z"/>
		<path class="st1" d="M1277.1,140.4c3.2,0,4.4,3.3,4.4,6.2c0,2.8-1.2,6.2-4.4,6.2c-3.2,0-4.4-3.4-4.4-6.2
			C1272.7,143.7,1273.9,140.4,1277.1,140.4z M1277.1,141.3c-2.5,0-3.4,2.8-3.4,5.3c0,2.5,0.8,5.3,3.4,5.3c2.5,0,3.3-2.8,3.3-5.3
			C1280.4,144.1,1279.6,141.3,1277.1,141.3z"/>
		<path class="st1" d="M1288.2,140.4c1.6,0,2.5,0.6,3.2,1.5l-0.6,0.8c-0.6-0.8-1.3-1.3-2.6-1.3c-2.6,0-3.5,2.7-3.5,5.3
			c0,0.2,0,0.4,0,0.6c0.5-0.8,1.9-2,3.5-2c2.2,0,3.9,1.2,3.9,3.8c0,2-1.5,3.8-4,3.8c-3.2,0-4.4-3-4.4-6.2
			C1283.6,143.5,1284.9,140.4,1288.2,140.4z M1288,146.1c-1.3,0-2.6,0.8-3.3,2.1c0.1,1.6,1,3.7,3.3,3.7c2.1,0,3-1.6,3-2.9
			C1291,147,1289.7,146.1,1288,146.1z"/>
	</g>
</g>
<g id="_01_35_">
	<g class="st0">
		<path class="st1" d="M149.5,445.6c0.8,0.9,2,1.7,3.7,1.7c2.5,0,3.2-1.4,3.2-2.4c0-1.7-1.6-2.2-3.3-2.6c-1.9-0.5-3.9-1.1-3.9-3.3
			c0-2,1.8-3.2,3.9-3.2c1.8,0,3.1,0.6,4.1,1.7l-0.7,0.8c-0.9-1-2.1-1.5-3.4-1.5c-1.6,0-2.8,0.9-2.8,2.2c0,1.4,1.5,1.8,3.1,2.3
			c1.9,0.5,4.1,1.2,4.1,3.6c0,1.5-1,3.4-4.3,3.4c-2,0-3.5-0.8-4.4-1.9L149.5,445.6z"/>
		<path class="st1" d="M162.9,437H159V436h8.9v0.9H164v11.1h-1V437z"/>
		<path class="st1" d="M170,436h7.6v0.9h-6.6v4.4h6.5v0.9h-6.5v4.8h6.6v0.9H170V436z"/>
		<path class="st1" d="M180.2,436h4.5c2.3,0,3.6,1.6,3.6,3.5c0,1.9-1.3,3.5-3.6,3.5h-3.5v5h-1V436z M184.6,437h-3.4v5.1h3.4
			c1.6,0,2.6-1.1,2.6-2.6C187.2,438,186.2,437,184.6,437z"/>
		<path class="st1" d="M199.1,435.9c3.2,0,4.4,3.3,4.4,6.2c0,2.8-1.2,6.2-4.4,6.2c-3.2,0-4.4-3.4-4.4-6.2
			C194.7,439.2,195.9,435.9,199.1,435.9z M199.1,436.8c-2.5,0-3.4,2.8-3.4,5.3c0,2.5,0.8,5.3,3.4,5.3c2.5,0,3.3-2.8,3.3-5.3
			C202.5,439.6,201.6,436.8,199.1,436.8z"/>
		<path class="st1" d="M211.8,437h-6.6V436h7.9v0.7l-5.1,11.3h-1.1L211.8,437z"/>
	</g>
</g>
<g id="_01_33_">
	<g class="st0">
		<path class="st1" d="M354.5,445.6c0.8,0.9,2,1.7,3.7,1.7c2.5,0,3.2-1.4,3.2-2.4c0-1.7-1.6-2.2-3.3-2.6c-1.9-0.5-3.9-1.1-3.9-3.3
			c0-2,1.8-3.2,3.9-3.2c1.8,0,3.1,0.6,4.1,1.7l-0.7,0.8c-0.9-1-2.1-1.5-3.4-1.5c-1.6,0-2.8,0.9-2.8,2.2c0,1.4,1.5,1.8,3.1,2.3
			c1.9,0.5,4.1,1.2,4.1,3.6c0,1.5-1,3.4-4.3,3.4c-2,0-3.5-0.8-4.4-1.9L354.5,445.6z"/>
		<path class="st1" d="M367.9,437H364V436h8.9v0.9H369v11.1h-1V437z"/>
		<path class="st1" d="M375,436h7.6v0.9h-6.6v4.4h6.5v0.9h-6.5v4.8h6.6v0.9H375V436z"/>
		<path class="st1" d="M385.2,436h4.5c2.3,0,3.6,1.6,3.6,3.5c0,1.9-1.3,3.5-3.6,3.5h-3.5v5h-1V436z M389.6,437h-3.4v5.1h3.4
			c1.6,0,2.6-1.1,2.6-2.6C392.2,438,391.2,437,389.6,437z"/>
		<path class="st1" d="M404.1,435.9c3.2,0,4.4,3.3,4.4,6.2c0,2.8-1.2,6.2-4.4,6.2c-3.2,0-4.4-3.4-4.4-6.2
			C399.7,439.2,400.9,435.9,404.1,435.9z M404.1,436.8c-2.5,0-3.4,2.8-3.4,5.3c0,2.5,0.8,5.3,3.4,5.3c2.5,0,3.3-2.8,3.3-5.3
			C407.5,439.6,406.6,436.8,404.1,436.8z"/>
		<path class="st1" d="M413.6,441.9c-1.4-0.4-2.8-1.3-2.8-2.9c0-2.1,2-3.1,3.9-3.1c1.9,0,3.9,1,3.9,3.1c0,1.6-1.4,2.5-2.8,2.9
			c1.5,0.4,3,1.5,3,3.2c0,1.9-1.8,3.2-4.1,3.2c-2.3,0-4.1-1.3-4.1-3.2C410.6,443.4,412.1,442.3,413.6,441.9z M414.7,442.3
			c-0.7,0.1-3,0.8-3,2.6c0,1.5,1.4,2.4,3,2.4c1.6,0,3-0.9,3-2.4C417.8,443.2,415.4,442.4,414.7,442.3z M414.7,436.8
			c-1.6,0-2.8,0.8-2.8,2.3c0,1.7,2.1,2.2,2.8,2.4c0.7-0.1,2.8-0.7,2.8-2.4C417.6,437.6,416.3,436.8,414.7,436.8z"/>
	</g>
</g>
<g id="_01_31_">
	<g class="st0">
		<path class="st1" d="M572.6,445.6c0.8,0.9,2,1.7,3.7,1.7c2.5,0,3.2-1.4,3.2-2.4c0-1.7-1.6-2.2-3.3-2.6c-1.9-0.5-3.9-1.1-3.9-3.3
			c0-2,1.8-3.2,3.9-3.2c1.8,0,3.1,0.6,4.1,1.7l-0.7,0.8c-0.9-1-2.1-1.5-3.4-1.5c-1.6,0-2.8,0.9-2.8,2.2c0,1.4,1.5,1.8,3.1,2.3
			c1.9,0.5,4.1,1.2,4.1,3.6c0,1.5-1,3.4-4.3,3.4c-2,0-3.5-0.8-4.4-1.9L572.6,445.6z"/>
		<path class="st1" d="M586.1,437h-3.9V436h8.9v0.9h-3.9v11.1h-1V437z"/>
		<path class="st1" d="M593.1,436h7.6v0.9h-6.6v4.4h6.5v0.9h-6.5v4.8h6.6v0.9h-7.6V436z"/>
		<path class="st1" d="M603.3,436h4.5c2.3,0,3.6,1.6,3.6,3.5c0,1.9-1.3,3.5-3.6,3.5h-3.5v5h-1V436z M607.7,437h-3.4v5.1h3.4
			c1.6,0,2.6-1.1,2.6-2.6C610.3,438,609.3,437,607.7,437z"/>
		<path class="st1" d="M622.2,435.9c3.2,0,4.4,3.3,4.4,6.2c0,2.8-1.2,6.2-4.4,6.2c-3.2,0-4.4-3.4-4.4-6.2
			C617.8,439.2,619,435.9,622.2,435.9z M622.2,436.8c-2.5,0-3.4,2.8-3.4,5.3c0,2.5,0.8,5.3,3.4,5.3c2.5,0,3.3-2.8,3.3-5.3
			C625.6,439.6,624.8,436.8,622.2,436.8z"/>
		<path class="st1" d="M629.9,446c0.6,0.8,1.3,1.3,2.6,1.3c2.6,0,3.5-2.8,3.5-5.3v-0.6c-0.5,0.8-1.9,2-3.5,2c-2.2,0-3.9-1.3-3.9-3.8
			c0-2,1.5-3.8,4-3.8c3.2,0,4.4,3,4.4,6.2c0,3.1-1.3,6.2-4.6,6.2c-1.6,0-2.5-0.6-3.2-1.5L629.9,446z M632.8,436.8
			c-2.1,0-3,1.6-3,2.9c0,2,1.3,2.9,3,2.9c1.3,0,2.6-0.8,3.3-2.1C635.9,438.9,635,436.8,632.8,436.8z"/>
	</g>
</g>
<g id="_01_29_">
	<g class="st0">
		<path class="st1" d="M789.5,445.6c0.8,0.9,2,1.7,3.7,1.7c2.5,0,3.2-1.4,3.2-2.4c0-1.7-1.6-2.2-3.3-2.6c-1.9-0.5-3.9-1.1-3.9-3.3
			c0-2,1.8-3.2,3.9-3.2c1.8,0,3.1,0.6,4.1,1.7l-0.7,0.8c-0.9-1-2.1-1.5-3.4-1.5c-1.6,0-2.8,0.9-2.8,2.2c0,1.4,1.5,1.8,3.1,2.3
			c1.9,0.5,4.1,1.2,4.1,3.6c0,1.5-1,3.4-4.3,3.4c-2,0-3.5-0.8-4.4-1.9L789.5,445.6z"/>
		<path class="st1" d="M802.9,437H799V436h8.9v0.9H804v11.1h-1V437z"/>
		<path class="st1" d="M810,436h7.6v0.9h-6.6v4.4h6.5v0.9h-6.5v4.8h6.6v0.9H810V436z"/>
		<path class="st1" d="M820.2,436h4.5c2.3,0,3.6,1.6,3.6,3.5c0,1.9-1.3,3.5-3.6,3.5h-3.5v5h-1V436z M824.6,437h-3.4v5.1h3.4
			c1.6,0,2.6-1.1,2.6-2.6C827.2,438,826.2,437,824.6,437z"/>
		<path class="st1" d="M836.7,437.4l-1.9,2.1l-0.6-0.7l2.7-2.8h0.9v12h-1V437.4z"/>
		<path class="st1" d="M844.7,435.9c3.2,0,4.4,3.3,4.4,6.2c0,2.8-1.2,6.2-4.4,6.2c-3.2,0-4.4-3.4-4.4-6.2
			C840.2,439.2,841.4,435.9,844.7,435.9z M844.7,436.8c-2.5,0-3.4,2.8-3.4,5.3c0,2.5,0.8,5.3,3.4,5.3c2.5,0,3.3-2.8,3.3-5.3
			C848,439.6,847.2,436.8,844.7,436.8z"/>
	</g>
</g>
<g id="_01_9_">
	<g class="st0">
		<path class="st1" d="M1009.6,445.6c0.8,0.9,2,1.7,3.7,1.7c2.5,0,3.2-1.4,3.2-2.4c0-1.7-1.6-2.2-3.3-2.6c-1.9-0.5-3.9-1.1-3.9-3.3
			c0-2,1.8-3.2,3.9-3.2c1.8,0,3.1,0.6,4.1,1.7l-0.7,0.8c-0.9-1-2.1-1.5-3.4-1.5c-1.6,0-2.8,0.9-2.8,2.2c0,1.4,1.5,1.8,3.1,2.3
			c1.9,0.5,4.1,1.2,4.1,3.6c0,1.5-1,3.4-4.3,3.4c-2,0-3.5-0.8-4.4-1.9L1009.6,445.6z"/>
		<path class="st1" d="M1023.1,437h-3.9V436h8.9v0.9h-3.9v11.1h-1V437z"/>
		<path class="st1" d="M1030.2,436h7.6v0.9h-6.6v4.4h6.5v0.9h-6.5v4.8h6.6v0.9h-7.6V436z"/>
		<path class="st1" d="M1040.3,436h4.5c2.3,0,3.6,1.6,3.6,3.5c0,1.9-1.3,3.5-3.6,3.5h-3.5v5h-1V436z M1044.7,437h-3.4v5.1h3.4
			c1.6,0,2.6-1.1,2.6-2.6C1047.3,438,1046.3,437,1044.7,437z"/>
		<path class="st1" d="M1056.8,437.4l-1.9,2.1l-0.6-0.7l2.7-2.8h0.9v12h-1V437.4z"/>
		<path class="st1" d="M1062.3,437.4l-1.9,2.1l-0.6-0.7l2.7-2.8h0.9v12h-1V437.4z"/>
	</g>
</g>
</svg>
