<?xml version="1.0" encoding="utf-8"?>
<!-- Generator: Adobe Illustrator 15.1.0, SVG Export Plug-In . SVG Version: 6.00 Build 0)  -->
<!DOCTYPE svg PUBLIC "-//W3C//DTD SVG 1.1//EN" "http://www.w3.org/Graphics/SVG/1.1/DTD/svg11.dtd" [
	<!ENTITY ns_extend "http://ns.adobe.com/Extensibility/1.0/">
	<!ENTITY ns_ai "http://ns.adobe.com/AdobeIllustrator/10.0/">
	<!ENTITY ns_graphs "http://ns.adobe.com/Graphs/1.0/">
	<!ENTITY ns_vars "http://ns.adobe.com/Variables/1.0/">
	<!ENTITY ns_imrep "http://ns.adobe.com/ImageReplacement/1.0/">
	<!ENTITY ns_sfw "http://ns.adobe.com/SaveForWeb/1.0/">
	<!ENTITY ns_custom "http://ns.adobe.com/GenericCustomNamespace/1.0/">
	<!ENTITY ns_adobe_xpath "http://ns.adobe.com/XPath/1.0/">
]>
<svg version="1.1" id="Layer_1" xmlns:x="&ns_extend;" xmlns:i="&ns_ai;" xmlns:graph="&ns_graphs;"
	 xmlns="http://www.w3.org/2000/svg" xmlns:xlink="http://www.w3.org/1999/xlink" x="0px" y="0px" width="31.922px"
	 height="30.829px" viewBox="0 0 31.922 30.829" enable-background="new 0 0 31.922 30.829" xml:space="preserve">
<metadata>
	<sfw  xmlns="&ns_sfw;">
		<slices></slices>
		<sliceSourceBounds  y="436.065" x="786.525" height="29.015" width="25.639" bottomLeftOrigin="true"></sliceSourceBounds>
	</sfw>
</metadata>
<path id="Path_8" fill="#898989" d="M28.143,24.038l-4.422-3.359c-1.473-1.129-1.618-0.561-3.596,0.969
	c-0.479,0.372-1.425,1.395-2.291,1.037c-1.81-0.763-4.895-4.078-5.843-5.516c-0.451-0.687-2.345-3.926-2.226-4.857
	c0.171-1.428,3.399-1.645,2.813-4.508l-1.392-5.174c-1.286-4.962-8.114,1.57-8.2,5.11c-0.153,8.736,12.648,24.924,21.724,21.689
	C26.734,28.684,29.821,25.452,28.143,24.038z"/>
</svg>
