<?xml version="1.0" encoding="utf-8"?>
<!-- Generator: Adobe Illustrator 25.4.1, SVG Export Plug-In . SVG Version: 6.00 Build 0)  -->
<svg version="1.1" id="Layer_1" xmlns="http://www.w3.org/2000/svg" xmlns:xlink="http://www.w3.org/1999/xlink" x="0px" y="0px"
	 viewBox="0 0 297.44 269.23" style="enable-background:new 0 0 297.44 269.23;" xml:space="preserve">
<style type="text/css">
	.st0{fill:#E01F26;}
</style>
<g>
	<path class="st0" d="M285.65,31.76c0-10.08-8.21-18.29-18.29-18.29H26.23c-10.09,0-18.29,8.2-18.29,18.29v208.26
		c0,10.09,8.21,18.31,18.29,18.31h241.13c10.09,0,18.29-8.21,18.29-18.31V31.76z M281.94,240.01c0,8.04-6.54,14.59-14.58,14.59
		H26.23c-8.04,0-14.58-6.54-14.58-14.59V31.76c0-8.03,6.54-14.57,14.58-14.57h241.13c8.04,0,14.58,6.54,14.58,14.57V240.01z"/>
	<g>
		<path class="st0" d="M208.17,35.13c-2.51,0-4.56,2.04-4.56,4.54c0,2.51,2.04,4.55,4.56,4.55c2.51,0,4.55-2.04,4.55-4.55
			C212.71,37.17,210.67,35.13,208.17,35.13z"/>
		<path class="st0" d="M230.63,35.13c-2.5,0-4.53,2.04-4.53,4.54c0,2.51,2.03,4.55,4.53,4.55c2.51,0,4.55-2.04,4.55-4.55
			C235.18,37.17,233.14,35.13,230.63,35.13z"/>
		<path class="st0" d="M252.67,35.13c-2.51,0-4.56,2.04-4.56,4.54c0,2.51,2.04,4.55,4.56,4.55c2.51,0,4.56-2.04,4.56-4.55
			C257.23,37.17,255.19,35.13,252.67,35.13z"/>
	</g>
</g>
<g>
	<polygon class="st0" points="118.12,121.8 118.12,116.77 71.17,140.96 71.17,145.44 118.12,169.63 118.12,164.6 76.87,143.92 
		76.87,142.48 	"/>
	<polygon class="st0" points="156,99.88 127.43,174.38 132.36,174.38 161.14,99.88 	"/>
	<polygon class="st0" points="170.24,164.61 170.24,169.63 217.2,145.54 217.2,140.75 170.24,116.77 170.24,121.79 211.81,142.47 
		211.81,143.92 	"/>
</g>
</svg>
