<svg xmlns="http://www.w3.org/2000/svg" width="21.554" height="21.613" viewBox="0 0 21.554 21.613">
  <g id="Group_106" data-name="Group 106" transform="translate(-116.084 -837.564)">
    <g id="Group_105" data-name="Group 105">
      <path id="Path_72" data-name="Path 72" d="M137.638,848.374A10.776,10.776,0,0,0,126.98,837.6a.3.3,0,0,0-.293,0,10.773,10.773,0,0,0,0,21.544.32.32,0,0,0,.134.031.443.443,0,0,0,.144-.027,10.78,10.78,0,0,0,10.669-10.776m-3.291,6.754c-.1-.1-.2-.186-.3-.271-.071-.064-.142-.132-.216-.2-.21-.181-.426-.346-.648-.509a.468.468,0,0,0-.054-.044c-.242-.172-.492-.332-.744-.488-.078-.044-.156-.081-.234-.129-.128-.074-.254-.149-.383-.213.023-.06.042-.124.063-.186s.057-.152.085-.23c.044-.126.086-.25.124-.372.025-.075.051-.153.07-.227.041-.138.079-.278.115-.42.016-.06.035-.119.049-.183.051-.2.1-.405.137-.609a.191.191,0,0,0,0-.03c.042-.2.073-.4.1-.592.015-.069.019-.133.029-.2.019-.142.039-.289.053-.431.008-.078.011-.156.018-.237.015-.131.022-.266.03-.4,0-.078.008-.16.012-.254,0-.058.007-.118.007-.189h4.271a10.015,10.015,0,0,1-2.59,6.408m-3.757-.927c-.092.175-.185.345-.283.514-.043.067-.078.136-.117.2-.142.234-.291.465-.447.684-.026.034-.052.075-.078.1-.133.182-.27.361-.412.535-.057.071-.116.138-.176.206-.118.14-.232.271-.356.4-.067.074-.141.141-.209.216-.117.119-.241.23-.36.342l-.231.2c-.123.108-.252.209-.379.3-.078.064-.156.124-.238.19-.03.019-.063.041-.1.064V852.8c.04,0,.082,0,.125.007.068,0,.131,0,.2.009.112.007.219.014.33.028.064.007.131.016.194.02.118.018.231.03.348.051.054.007.113.011.168.023.158.025.317.055.473.092a.094.094,0,0,0,.035.008c.167.033.334.079.5.124.052.017.108.033.159.048.111.037.227.07.337.108.064.021.124.044.184.065a2.525,2.525,0,0,1,.308.121c.063.021.125.048.187.067l.111.055c-.044.1-.093.2-.138.3-.045.089-.089.183-.135.275m-5.629,2.654c-.121-.126-.237-.262-.353-.393-.058-.071-.12-.131-.175-.2-.159-.2-.312-.4-.457-.6a.4.4,0,0,1-.032-.048c-.159-.219-.307-.45-.45-.68-.046-.074-.084-.153-.128-.223-.095-.165-.186-.328-.272-.5-.05-.094-.1-.189-.138-.283s-.1-.194-.139-.3c.036-.014.073-.034.111-.051a1.387,1.387,0,0,0,.192-.082c.106-.037.207-.078.308-.112.062-.026.127-.044.191-.067.111-.037.223-.074.337-.108a1.555,1.555,0,0,1,.158-.048c.167-.048.338-.094.507-.133h.032a4.5,4.5,0,0,1,.481-.1c.054-.007.113-.02.171-.027l.348-.051c.068,0,.134-.013.2-.02.111-.014.221-.021.33-.028.071-.005.138-.005.208-.009.04,0,.082,0,.126-.007v5.4c-.044-.031-.086-.057-.126-.089l-.248-.186c-.127-.1-.249-.2-.372-.3l-.237-.205c-.121-.115-.235-.227-.351-.342-.074-.071-.149-.145-.22-.22m-2.839-5.178c-.016-.056-.035-.12-.051-.187-.043-.174-.083-.35-.118-.529a.331.331,0,0,1-.01-.044c-.04-.2-.071-.393-.1-.586-.007-.064-.011-.119-.02-.179-.022-.142-.04-.278-.053-.42-.009-.078-.014-.149-.017-.224-.012-.122-.023-.253-.03-.379,0-.078-.008-.156-.011-.237,0-.057,0-.115,0-.172h4.811V852.1c-.051,0-.1.007-.15.007-.075,0-.147.01-.224.01-.116.007-.233.02-.354.03l-.208.023c-.129.015-.26.034-.386.052-.057.007-.115.014-.171.026-.182.03-.365.062-.548.1l-.062.018c-.16.04-.319.078-.478.125a1.151,1.151,0,0,0-.181.057c-.118.03-.238.066-.354.108-.069.025-.135.052-.205.071-.11.039-.217.082-.326.126l-.2.085c-.038.014-.082.03-.12.048-.018-.048-.036-.1-.057-.146-.025-.074-.054-.148-.076-.217-.043-.119-.083-.236-.119-.351-.021-.073-.046-.147-.068-.218-.034-.128-.07-.254-.1-.387m-.4-4.031c0-.126.016-.246.025-.365.008-.071.01-.145.019-.214.012-.135.031-.27.047-.4.009-.053.015-.111.02-.171.027-.183.058-.373.094-.557,0-.023.011-.046.014-.071.033-.161.064-.324.106-.487.013-.057.029-.122.047-.19.031-.119.064-.239.1-.361.019-.071.042-.137.06-.208.037-.111.071-.226.109-.342.025-.07.051-.138.075-.209a.792.792,0,0,1,.043-.122c.038.014.082.03.12.048.067.03.14.057.206.085.113.046.225.09.336.128.066.03.137.051.2.077.12.045.239.079.36.119.064.014.124.038.186.052.157.046.313.09.477.127a.4.4,0,0,0,.075.015c.183.044.367.081.554.118a1.639,1.639,0,0,0,.17.023c.131.021.264.044.395.059.071.005.143.012.214.019.121.011.239.021.363.034.077.007.151.007.224.01.05.007.1.007.157.011v3.154H121.7c0-.053,0-.108,0-.165s0-.143.011-.214m1.3-4.963c.087-.176.18-.348.274-.521.046-.078.086-.153.129-.231.146-.239.3-.477.45-.707.02-.023.038-.048.056-.067q.213-.312.447-.594c.059-.076.119-.145.18-.216.118-.138.235-.276.36-.406.073-.078.148-.152.225-.226.116-.119.239-.234.358-.349.078-.079.163-.142.249-.22.123-.108.247-.209.375-.309.085-.063.169-.131.256-.189.045-.041.091-.064.138-.1v5.622c-.047,0-.089,0-.136,0a1.184,1.184,0,0,1-.2-.016c-.112,0-.227-.014-.339-.025-.069-.007-.135-.012-.2-.023-.122-.01-.24-.03-.361-.048-.055-.01-.114-.016-.167-.026-.169-.034-.33-.064-.489-.1-.012,0-.024,0-.036,0-.175-.037-.345-.088-.516-.136a1.5,1.5,0,0,0-.153-.048c-.119-.039-.238-.075-.358-.117-.063-.021-.121-.041-.181-.066l-.323-.12a1.428,1.428,0,0,0-.191-.082c-.041-.021-.081-.041-.124-.058.047-.105.1-.22.142-.318s.092-.2.14-.3m5.756-2.727c.122.131.24.271.356.405.063.075.127.142.183.216.145.178.281.365.416.553.028.039.056.075.081.114.16.23.312.467.454.712.036.06.071.128.107.2.1.181.2.363.295.553.045.089.088.182.133.278.049.112.1.223.146.331-.04.016-.082.038-.12.054-.067.028-.129.055-.193.077-.105.048-.205.086-.312.123-.06.023-.127.044-.187.067-.114.041-.229.078-.348.108a1.1,1.1,0,0,1-.156.052c-.167.048-.336.092-.511.129a.184.184,0,0,1-.043.012c-.156.034-.312.066-.473.093-.055.01-.114.016-.171.026-.118.018-.236.038-.354.055a1.978,1.978,0,0,0-.2.02c-.109.01-.225.017-.332.021a1.226,1.226,0,0,1-.208.016c-.045,0-.085,0-.132,0v-5.585l.109.074c.086.061.167.126.249.19.131.1.261.2.387.316.078.067.157.137.235.216.127.115.248.226.369.352.074.074.146.149.219.224m2.813,5.246c.016.068.031.128.049.19.034.161.07.324.1.487l.016.064c.036.19.065.372.093.562a1.651,1.651,0,0,0,.023.17c.017.129.029.264.043.4.007.075.012.144.019.214.01.119.017.24.025.362,0,.078.007.149.009.214s0,.112,0,.162h-4.76v-3.155c.054,0,.1-.007.151-.007.074,0,.149-.01.225-.01.118-.016.237-.023.359-.034.069-.007.14-.014.209-.019.13-.015.261-.038.4-.059a1.6,1.6,0,0,0,.164-.023c.189-.033.372-.069.556-.111.019-.007.04-.011.059-.018.165-.034.324-.078.484-.119.06-.019.117-.041.177-.057.121-.033.242-.07.366-.115.063-.025.131-.048.194-.071.114-.04.227-.085.341-.132.069-.027.131-.054.194-.079.044-.019.082-.033.122-.049.016.041.03.08.049.124.026.069.049.14.071.211.034.108.071.223.1.335.021.067.044.138.063.209.033.118.062.241.1.359m.368,3.927c-.008.126-.018.254-.029.372-.008.075-.011.153-.022.227-.014.135-.029.271-.049.41-.007.058-.015.118-.022.182-.028.2-.059.39-.1.586a.346.346,0,0,1-.011.052c-.037.175-.071.351-.118.525-.016.06-.029.124-.049.189-.033.122-.067.25-.1.376-.021.074-.045.149-.067.223-.036.112-.074.23-.112.342-.029.074-.055.145-.082.223-.018.048-.04.1-.056.142a.875.875,0,0,0-.122-.044c-.063-.03-.127-.06-.188-.084-.112-.04-.225-.085-.336-.122a1.541,1.541,0,0,0-.2-.071c-.116-.04-.236-.078-.354-.111-.064-.022-.12-.036-.176-.052-.16-.047-.319-.085-.482-.125-.019,0-.038-.011-.053-.013-.182-.041-.365-.074-.543-.108-.058-.011-.116-.018-.171-.025-.125-.019-.257-.037-.379-.053-.074-.007-.141-.01-.208-.018-.12-.014-.237-.023-.352-.03-.074,0-.147-.007-.221-.01-.048,0-.093-.007-.144-.007V848.72h4.76c0,.057,0,.112,0,.172,0,.081-.005.159-.009.237m.711-1.1c0-.053,0-.111,0-.165-.008-.088-.011-.17-.016-.262-.008-.117-.014-.236-.024-.354-.006-.085-.013-.17-.02-.252-.015-.124-.029-.246-.043-.375-.012-.075-.017-.149-.028-.224-.025-.165-.053-.331-.081-.491-.008-.037-.012-.07-.019-.1-.036-.193-.08-.39-.123-.581-.015-.062-.036-.126-.047-.188-.038-.135-.069-.261-.1-.392-.022-.071-.045-.145-.066-.22-.04-.122-.073-.241-.116-.363-.022-.071-.049-.145-.076-.219s-.04-.116-.059-.176c.135-.074.266-.152.4-.227.078-.048.158-.088.236-.136.256-.16.508-.325.753-.5.027-.022.052-.045.081-.066.213-.161.425-.331.627-.507.076-.065.147-.136.221-.207.1-.089.2-.172.3-.268a10.038,10.038,0,0,1,2.483,6.28Zm1.3-6.8c-.1.094-.192.193-.292.287-.064.051-.125.115-.191.177-.209.179-.428.361-.654.528-.023.013-.046.03-.072.044-.2.149-.417.291-.631.429-.082.048-.162.089-.243.133-.1.06-.211.115-.313.172-.054-.119-.114-.237-.166-.354-.038-.078-.073-.16-.111-.234-.127-.259-.263-.512-.408-.766a.955.955,0,0,1-.067-.108c-.127-.214-.258-.416-.4-.613-.054-.081-.107-.156-.163-.234-.116-.165-.234-.321-.354-.48-.063-.071-.122-.146-.178-.216-.148-.178-.3-.346-.45-.509-.041-.044-.074-.085-.116-.129-.192-.2-.392-.392-.6-.574-.055-.048-.114-.1-.171-.153-.107-.085-.21-.181-.313-.264a9.988,9.988,0,0,1,5.888,2.864m-8.693-2.6c-.057.053-.118.1-.171.146-.208.189-.408.379-.6.581-.03.032-.063.072-.094.106-.161.172-.313.345-.466.525-.058.07-.112.145-.171.212-.123.16-.247.323-.36.482-.057.08-.109.149-.159.227-.141.2-.27.413-.4.622-.018.037-.043.067-.06.1-.147.248-.284.5-.412.762-.036.07-.067.148-.1.216-.058.129-.116.241-.172.366-.1-.058-.205-.111-.309-.17-.078-.047-.159-.09-.233-.134-.217-.137-.424-.278-.629-.424-.02-.017-.045-.03-.064-.047-.223-.162-.438-.339-.647-.522-.063-.06-.127-.122-.189-.175-.1-.092-.19-.184-.286-.278a9.976,9.976,0,0,1,5.83-2.855c-.1.081-.2.17-.3.255m-6.01,3.117c.094.092.194.174.29.261.073.069.147.143.221.207.2.172.4.342.616.5l.078.06c.243.182.491.345.748.5l.23.135c.132.078.26.156.391.223-.02.062-.041.115-.063.177-.025.078-.053.153-.078.227-.037.124-.075.239-.111.358-.023.075-.045.149-.066.223-.039.13-.075.268-.106.4a1.387,1.387,0,0,0-.047.182c-.049.2-.091.39-.127.589a.374.374,0,0,0-.013.065c-.033.179-.062.355-.087.53-.009.073-.02.14-.027.208-.015.129-.035.267-.045.4q-.012.117-.021.234c-.012.126-.02.248-.027.379,0,.078-.007.163-.011.245,0,.057-.009.115-.009.172h-4.219a10.036,10.036,0,0,1,2.483-6.277M121,848.72c0,.067.006.126.013.189,0,.091.007.176.01.265,0,.125.015.257.028.386.009.083.015.168.02.246.016.142.035.282.049.42.012.071.022.145.029.208.031.194.066.388.1.574a.235.235,0,0,0,.008.051c.038.209.085.409.137.613.015.064.035.131.052.2.034.134.074.273.113.409.026.078.048.153.074.232.038.123.078.245.119.371a2.342,2.342,0,0,1,.087.234c.021.06.047.12.068.186-.126.06-.248.138-.374.2-.077.052-.156.089-.232.133-.249.152-.5.31-.732.484-.022.014-.034.026-.051.037-.22.16-.435.335-.644.51-.071.059-.138.123-.209.187-.1.085-.2.177-.293.271a10.044,10.044,0,0,1-2.592-6.408Zm-1.139,6.909c.092-.089.181-.175.274-.257.063-.055.123-.115.188-.17.211-.179.421-.349.641-.507.014-.01.029-.021.049-.033.205-.146.415-.286.631-.414.078-.051.156-.088.234-.136.1-.06.2-.108.3-.163.052.119.113.231.169.353.036.067.067.133.1.2.126.253.263.494.407.737.02.033.047.067.069.108.123.2.254.4.39.59.049.074.1.142.152.213.116.159.239.318.362.471.052.064.105.135.161.2.159.188.323.374.493.55a.6.6,0,0,0,.055.057c.191.2.385.386.588.563.057.049.116.1.173.149.092.078.177.157.27.227a9.941,9.941,0,0,1-5.714-2.74m8.5,2.513c.054-.048.114-.1.168-.144.2-.182.4-.372.59-.568l.07-.075c.164-.172.326-.351.481-.535.055-.067.108-.135.166-.2.12-.153.239-.308.359-.468.051-.074.1-.149.156-.213.129-.2.26-.4.387-.6a1.092,1.092,0,0,1,.068-.108c.144-.237.28-.487.407-.735.038-.074.071-.145.1-.22.059-.115.118-.23.172-.345.1.055.21.108.316.168.076.048.154.082.229.133.228.133.451.278.668.431a.1.1,0,0,0,.024.019c.226.163.442.335.655.512.066.053.126.113.189.172.093.089.187.175.276.264a9.932,9.932,0,0,1-5.77,2.752c.1-.074.188-.161.285-.239" fill="#fff"/>
    </g>
  </g>
</svg>
