<svg xmlns="http://www.w3.org/2000/svg" width="36.243" height="31.984" viewBox="0 0 36.243 31.984">
  <g id="Group_6" data-name="Group 6" transform="translate(562.402 245.594)">
    <g id="Group_5" data-name="Group 5" transform="translate(-562.402 -245.594)">
      <g id="Group_4" data-name="Group 4" transform="translate(0 0)">
        <path id="Path_27" data-name="Path 27" d="M-526.159-243.1a2.5,2.5,0,0,0-2.5-2.5H-559.9a2.5,2.5,0,0,0-2.5,2.5v26.983a2.5,2.5,0,0,0,2.5,2.5h31.243a2.5,2.5,0,0,0,2.5-2.5Zm-.74,26.983a1.762,1.762,0,0,1-1.76,1.761H-559.9a1.762,1.762,0,0,1-1.76-1.761V-243.1a1.761,1.761,0,0,1,1.76-1.758h31.243a1.761,1.761,0,0,1,1.76,1.758Z" transform="translate(562.402 245.594)" fill="#8d8d8d"/>
        <path id="Path_28" data-name="Path 28" d="M-368.984-224.267a.72.72,0,0,0-.72.718.721.721,0,0,0,.72.72.72.72,0,0,0,.719-.72A.719.719,0,0,0-368.984-224.267Z" transform="translate(395.057 227.073)" fill="#8d8d8d"/>
        <path id="Path_29" data-name="Path 29" d="M-348.984-224.267a.72.72,0,0,0-.72.718.721.721,0,0,0,.72.72.72.72,0,0,0,.719-.72A.719.719,0,0,0-348.984-224.267Z" transform="translate(377.689 227.073)" fill="#8d8d8d"/>
        <path id="Path_30" data-name="Path 30" d="M-328.984-224.267a.72.72,0,0,0-.72.718.721.721,0,0,0,.72.72.72.72,0,0,0,.719-.72A.719.719,0,0,0-328.984-224.267Z" transform="translate(360.32 227.073)" fill="#8d8d8d"/>
      </g>
    </g>
    <rect id="Rectangle_2" data-name="Rectangle 2" width="34.763" height="0.789" transform="translate(-561.662 -240.165)" fill="#8d8d8d"/>
  </g>
</svg>
