<?xml version="1.0" encoding="utf-8"?>
<!-- Generator: Adobe Illustrator 15.1.0, SVG Export Plug-In . SVG Version: 6.00 Build 0)  -->
<!DOCTYPE svg PUBLIC "-//W3C//DTD SVG 1.1//EN" "http://www.w3.org/Graphics/SVG/1.1/DTD/svg11.dtd" [
	<!ENTITY ns_extend "http://ns.adobe.com/Extensibility/1.0/">
	<!ENTITY ns_ai "http://ns.adobe.com/AdobeIllustrator/10.0/">
	<!ENTITY ns_graphs "http://ns.adobe.com/Graphs/1.0/">
	<!ENTITY ns_vars "http://ns.adobe.com/Variables/1.0/">
	<!ENTITY ns_imrep "http://ns.adobe.com/ImageReplacement/1.0/">
	<!ENTITY ns_sfw "http://ns.adobe.com/SaveForWeb/1.0/">
	<!ENTITY ns_custom "http://ns.adobe.com/GenericCustomNamespace/1.0/">
	<!ENTITY ns_adobe_xpath "http://ns.adobe.com/XPath/1.0/">
]>
<svg version="1.1" id="Layer_1" xmlns:x="&ns_extend;" xmlns:i="&ns_ai;" xmlns:graph="&ns_graphs;"
	 xmlns="http://www.w3.org/2000/svg" xmlns:xlink="http://www.w3.org/1999/xlink" x="0px" y="0px" width="29.992px"
	 height="29.848px" viewBox="0 0 29.992 29.848" enable-background="new 0 0 29.992 29.848" xml:space="preserve">
<metadata>
	<sfw  xmlns="&ns_sfw;">
		<slices></slices>
		<sliceSourceBounds  y="435.56" x="784.499" height="29.881" width="29.977" bottomLeftOrigin="true"></sliceSourceBounds>
	</sfw>
</metadata>
<g id="GuqYfF.tif" transform="translate(563.689 -34.595)">
	<g id="Group_1" transform="translate(-563.689 34.595)">
		<path id="Path_1" fill="#898989" d="M15.926,0.942l-0.784,0.276c0.082,0.264,0.138,0.53,0.549,0.413
			c-0.147,0.291-0.369,0.547-0.123,0.864c0.022,0.028-0.074,0.21-0.148,0.239c-0.13,0.033-0.266,0.046-0.4,0.037l-0.011-0.114
			l0.359-0.085l-0.249-0.461c-0.12,0.192-0.188,0.313-0.268,0.426c-0.04,0.056-0.092,0.102-0.152,0.135
			c-0.417,0.22-0.844,0.04-1.161-0.582c0.455,0.408,0.781,0.171,1.122-0.063l-0.27-0.364l0.512-0.558l-0.05-0.1l-0.767,0.318
			c-0.291-0.171-0.624-0.513-0.973-0.529c-0.407,0.059-0.797,0.205-1.144,0.428c-0.072,0.032-0.1,0.158-0.21,0.337l0.818-0.255
			l-0.107,0.334l0.5,0.071l-0.653,0.14l0.3,0.479l0.653-0.046l-0.032,0.313c-0.1-0.018-0.191-0.038-0.287-0.054
			c-0.125-0.021-0.251-0.043-0.377-0.052c-0.126-0.01-0.253,0-0.471,0l0.387-0.261c-0.389-0.05-0.77-0.155-1.13-0.312
			c-0.536-0.344-0.981-0.042-1.462,0.064C9.805,2.005,9.709,2.013,9.614,2.002C9.18,1.936,8.75,1.844,8.327,1.727
			c2.897-1.576,6.25-2.105,9.491-1.5l-0.053,0.082l0.338,0.412l-0.262,0.118l0.124,0.266l-0.907-0.527l0.166,0.5l-0.078,0.078
			c0.467,0.121,0.935,0.245,1.399,0.36c0.059,0.005,0.116-0.017,0.157-0.058c0.357-0.377,0.826-0.354,1.313-0.428
			c-0.029,0.487,0.24,0.644,0.616,0.736c0.613,0.071,1.073,0.594,1.068,1.211c0,0.141,0.2,0.274,0.313,0.409l-0.262,0.142
			l0.01,0.094l0.525,0.153c-0.006,0.04,0,0.077-0.016,0.083c-0.5,0.258-0.394,0.672-0.252,1.069c0.127,0.359,0.295,0.7,0.455,1.051
			c0.039,0.073,0.099,0.135,0.17,0.177c0.201,0.12,0.4,0.229,0.635,0.361c0.106-0.286,0.231-0.6,0.345-0.923
			c0.069-0.2,0.151-0.357,0.409-0.272c0.057,0.02,0.119,0.016,0.174-0.011c0.292-0.247,0.678-0.353,1.055-0.29
			c0.085-0.082,0.135-0.194,0.141-0.313c-0.039-0.227-0.141-0.442-0.174-0.684c1.26,1.096,2.277,2.44,2.99,3.95
			c0.194,0.459,0.455,0.892,0.641,1.354c0.228,0.493,0.061,1.079-0.394,1.378l0.366,1c-0.1,0.063-0.125,0.09-0.141,0.087
			c-0.543-0.125-0.576-0.101-0.519,0.452c-0.007,0.191,0.02,0.382,0.077,0.564c0.1,0.195,0.266,0.455,0.441,0.487
			c0.263,0.049,0.336-0.235,0.365-0.475c0.018-0.214,0.056-0.426,0.114-0.632c0.036-0.107,0.165-0.186,0.3-0.324
			c0.342,0.668,0.514,1.411,0.5,2.161l-0.113,0.021c-0.021-0.138-0.043-0.275-0.062-0.414c-0.048-0.367-0.252-0.465-0.567-0.289
			c-0.127,0.07-0.301,0.064-0.414,0.147c-0.15,0.11-0.357,0.263-0.377,0.418c-0.11,0.851-0.84,1.43-0.974,2.246
			c-0.118,0.659-0.158,1.33-0.121,2c0.083,0.518,0.368,0.981,0.793,1.29l1.046-0.601c0.025,0.197,0.028,0.396,0.008,0.593
			c-0.469,1.941-1.434,3.728-2.799,5.185c-2.047,2.363-4.796,4.011-7.846,4.7c-0.256,0.053-0.521,0.045-0.773-0.023l0.269-0.239
			l-0.129-0.108c0.272-0.261,0.534-0.533,0.823-0.771c0.101-0.08,0.279-0.051,0.412-0.1c0.23-0.079,0.461-0.174,0.373-0.475
			c0.749-0.249,1.357-0.805,1.676-1.527c0.057-0.103,0.141-0.187,0.242-0.245c0.225-0.136,0.467-0.243,0.693-0.375
			c0.421-0.221,0.727-0.611,0.842-1.072c0.115-0.518,0.385-0.987,0.772-1.348c0.087-0.083,0.162-0.177,0.223-0.28
			c0.155-0.191,0.127-0.472-0.064-0.627c-0.033-0.027-0.069-0.05-0.109-0.066c-0.065-0.052-0.14-0.092-0.218-0.12
			c-0.7-0.178-1.41-0.353-2.119-0.515c-0.087-0.02-0.193,0.043-0.29,0.067c0.215-0.438,0.033-0.968-0.405-1.183
			c-0.066-0.032-0.136-0.057-0.207-0.071c-0.673-0.112-1.29-0.438-1.761-0.932c-0.13-0.073-0.281-0.104-0.43-0.085
			c-0.445,0-0.923,0.17-1.224-0.342l-0.399,0.305l0.036-0.315c-0.541,0.096-1.016,0.421-1.3,0.891
			c-0.206-0.236-0.539-0.317-0.83-0.2c-0.292,0.073-0.588-0.104-0.66-0.396c-0.018-0.071-0.021-0.145-0.01-0.216
			c0.007-0.048,0.018-0.094,0.03-0.141c0.165-0.725,0.095-0.813-0.645-0.808c-0.163,0-0.326,0-0.529,0l0.5-1.334
			c-0.607-0.116-0.751-0.054-1.031,0.411c-0.269,0.341-0.764,0.398-1.104,0.13c-0.02-0.016-0.039-0.032-0.057-0.05
			c-0.158-0.234-0.261-0.502-0.3-0.782c-0.012-0.263,0.011-0.526,0.068-0.783c-0.003-0.614,0.493-1.115,1.107-1.118
			c0.159-0.001,0.316,0.032,0.46,0.098c0.112,0.033,0.227,0.062,0.342,0.093c0.047-0.375,0.393-0.536,0.791-0.379
			c0.022,0.009,0.04,0.031,0.062,0.035c0.469,0.069,0.816,0.471,0.816,0.944c0.045,0.154,0.112,0.3,0.2,0.435h0.114
			c0.067-0.15,0.113-0.309,0.139-0.471c-0.009-0.178-0.043-0.354-0.1-0.523c-0.153-0.601-0.1-0.741,0.408-1.079
			c0.229-0.152,0.46-0.3,0.673-0.478c0.117-0.08,0.203-0.199,0.243-0.336c0.042-0.5,0.433-0.812,0.636-1.223
			c0.074-0.104,0.18-0.184,0.301-0.226c0.193-0.088,0.399-0.149,0.6-0.22c-0.063-0.542,0.22-0.771,1.064-0.899l-0.047,0.334
			c0.112-0.01,0.223-0.03,0.332-0.063c0.276-0.11,0.551-0.229,0.817-0.365c0.065-0.033,0.092-0.143,0.101-0.24
			c-0.606,0.264-0.869,0.085-0.865-0.558c-0.027-0.121-0.113-0.222-0.23-0.267c-0.161-0.012-0.322,0.003-0.479,0.043
			c0.268-0.282,0.661-0.408,1.043-0.334c0.348,0.152,0.749,0.1,1.045-0.137c0.045-0.043,0.156-0.017,0.3-0.026l-0.67,0.971
			l1.159,0.434c0.181-0.34,0.009-0.638-0.531-0.93c0.033-0.192,0.078-0.383,0.137-0.568c0.155-0.405-0.089-0.643-0.352-0.855
			c-0.305-0.19-0.498-0.517-0.519-0.876c-0.063-0.34-0.175-0.67-0.329-0.979c-0.085,0.124-0.184,0.238-0.293,0.34
			c-0.117,0.084-0.32,0.2-0.394,0.158c-0.132-0.08-0.3-0.3-0.269-0.413c0.141-0.5-0.244-0.655-0.525-0.855
			c-0.217-0.122-0.446-0.221-0.684-0.294l-0.426,1.183l-0.1-0.02c0.027,0.064,0.057,0.127,0.084,0.191
			c0.193,0.447,0.126,0.676-0.332,0.847c-0.24,0.047-0.396,0.279-0.351,0.52c0.002,0.011,0.005,0.021,0.007,0.031
			c0.029,0.24,0.057,0.517-0.273,0.631c-0.249-0.183-0.355-0.503-0.268-0.8c0.067-0.265-0.031-0.374-0.262-0.483
			c-0.301-0.143-0.564-0.354-0.852-0.522c-0.172-0.1-0.359-0.176-0.534-0.26l-0.251-0.7c0.343-0.935,1.379-1.093,2.232-1.577
			c-0.02,0.234-0.312,0.441,0,0.543h0.871l-0.637-0.793c0.303-0.023,0.598-0.1,0.874-0.225c0.153-0.106,0.151-0.438,0.228-0.7
			c0.3,0.021,0.675-0.081,0.845,0.362c0.008,0.021,0.033,0.035,0.046,0.054c0.114,0.169,0.537,0.2,0.346,0.477
			c-0.192,0.277-0.41,0.617-0.871,0.479c-0.1-0.03-0.232,0.053-0.351,0.085v0.119c0.139,0.007,0.276,0.025,0.412,0.054
			c0.155,0.022,0.302,0.088,0.423,0.189c0.251,0.387,0.631,0.672,1.072,0.805l-0.271-0.527l0.479,0.276
			c0.164-0.164,0.165-0.43,0.001-0.594c-0.004-0.005-0.009-0.009-0.014-0.014c-0.066-0.121-0.113-0.252-0.142-0.388l0.101-0.041
			l0.418,0.46l0.506-0.377l-0.894-0.742c0.3-0.199,0.235-0.375-0.006-0.574c-0.323-0.268-0.737-0.445-0.856-0.927
			c-0.026-0.107-0.282-0.159-0.5-0.272l0.101,0.375l-0.104,0.041L18.129,1.6c-0.234-0.101-0.482-0.163-0.736-0.186
			c-0.256,0.019-0.496,0.124-0.684,0.3c-0.26,0.268-0.129,0.465,0.444,0.671L16.4,3.058V2.445L16.1,2.525
			c0.022-0.31-0.047-0.649,0.088-0.855c0.136-0.206,0.478-0.291,0.724-0.425c-0.3-0.301-0.591-0.226-0.962,0.229
			c-0.008-0.165-0.018-0.353-0.027-0.541l0.663-0.048l-0.013-0.131l-0.725-0.075L15.926,0.942z M28.19,10.303h0.461l-0.801-1.8
			l-0.111,0.04l0.13,0.57c-0.259,0.048-0.3,0.5-0.078,0.817l0.284-0.148L28.19,10.303z M15.952,17.085l0.032-0.117
			c-0.536-0.373-1.147-0.627-1.791-0.744c-0.186-0.006-0.378,0.156-0.567,0.24l0.028,0.111c0.6-0.178,1.248,0.01,1.659,0.48
			l-0.026,0.095L15.952,17.085z M13.645,0.477c0.511,0.463,1.257,0.556,1.866,0.231c-0.2-0.043-0.344-0.118-0.456-0.087
			c-0.331,0.091-0.439,0.042-0.5-0.307L13.645,0.477z M16.092,17.54l1.243-0.079l0.022-0.172l-0.988-0.314l0.023,0.134L16.092,17.54
			z M25.705,5.892l-0.051,0.072c0.022,0.1,0.016,0.222,0.074,0.291c0.145,0.173,0.308,0.329,0.486,0.467
			c0.087,0.027,0.182,0.007,0.25-0.053c0.037-0.08,0.029-0.175-0.021-0.247C26.207,6.234,25.952,6.068,25.705,5.892L25.705,5.892z"
			/>
		<path id="Path_2" fill="#898989" d="M8.002,16.174c-0.164-0.789-0.581-1.495-0.746-2.277l0.106-0.039
			c0.056,0.087,0.115,0.171,0.167,0.262c0.38,0.663,0.774,1.318,1.129,2c0.083,0.238,0.145,0.484,0.182,0.734
			c0.037,0.126,0.089,0.294,0.188,0.351c0.528,0.3,1.073,0.571,1.613,0.852c0.031,0.017,0.077,0.038,0.1,0.027
			c0.468-0.216,0.736,0.127,1.065,0.349c0.216,0.098,0.437,0.185,0.662,0.26c0.2,0.108,0.468,0.228,0.555,0.412
			c0.264,0.507,0.77,0.842,1.339,0.888l0.291-0.309c0.463,0.363,0.544,1.032,0.182,1.495c-0.061,0.078-0.132,0.146-0.212,0.205
			c-0.353,0.308-0.438,0.674-0.218,0.936c-0.4,0.432-0.385,0.447,0.032,0.883c0.196,0.208,0.36,0.443,0.487,0.699
			c0.241,0.529,0.674,0.945,1.212,1.164c0.345,0.111,0.551,0.464,0.478,0.818c-0.051,0.584-0.047,1.174-0.106,1.757
			c-0.037,0.361-0.157,0.712-0.221,1.071c-0.013,0.067,0.073,0.151,0.112,0.229l0.106-0.032l-0.228,0.424l0.451,0.372
			c-0.18,0.033-0.311,0.07-0.443,0.083c-3.873,0.4-7.744-0.768-10.75-3.241c-3.091-2.432-5.051-6.023-5.423-9.938
			c-0.551-4.313,0.896-8.641,3.93-11.755c0.274-0.28,0.569-0.54,0.882-0.775c0.101-0.049,0.21-0.077,0.321-0.084l0.052,0.092
			L4.743,4.538c-0.379,0.312-0.8,0.591-0.659,1.2c0.021,0.089-0.146,0.227-0.233,0.336c-0.087,0.108-0.173,0.199-0.26,0.3
			l0.066,0.073c0.325-0.309,0.663-0.601,0.969-0.93c0.132-0.141,0.2-0.306,0.452-0.265c0.1,0.017,0.237-0.092,0.345-0.162
			c0.108-0.07,0.214-0.243,0.292-0.227c0.198,0.033,0.381,0.123,0.529,0.259C6.438,5.266,6.512,5.52,6.426,5.744
			C6.289,6.019,6.378,6.353,6.634,6.522C6.66,6.54,6.677,6.568,6.682,6.599c0.017,0.416,0.042,0.832,0.037,1.248
			c0,0.083-0.121,0.164-0.215,0.282c0.517,0.61,0.216,1.265-0.073,1.9c-0.378,0.874-0.425,1.856-0.132,2.763
			c0.02,0.094,0.067,0.179,0.136,0.245c0.458,0.433,0.728,1.027,0.754,1.656C7.289,15.332,7.748,15.672,8.002,16.174z"/>
	</g>
</g>
</svg>
