<svg xmlns="http://www.w3.org/2000/svg" width="80.19" height="62.827" viewBox="0 0 80.19 62.827">
  <g id="Group_80" data-name="Group 80" transform="translate(-112.554 -5462.738)">
    <g id="Group_79" data-name="Group 79">
      <path id="Path_50" data-name="Path 50" d="M187,5505.051q0-11.124,0-22.249a11.344,11.344,0,0,0-.047-1.18,3.422,3.422,0,0,0-3.33-3.106c-.164-.007-.327-.021-.51-.038l-.437-.037v-8.524H164.31v8.532l-.394.036c-.146.015-.273.028-.4.033a3.365,3.365,0,0,0-3.465,3.558c-.006,1.066-.005,2.132,0,3.2v3.6h1.209l0-1.954c0-1.578,0-3.121,0-4.664.006-1.709.8-2.507,2.487-2.51,6.476-.007,13.041-.007,19.515,0a2.236,2.236,0,0,1,2.534,2.5c.01,8.72.009,16.5,0,23.79a2.232,2.232,0,0,1-2.517,2.514q-9.758,0-19.514,0a2.182,2.182,0,0,1-2.5-2.49c-.006-1.694,0-3.388,0-5.081l0-3.059h-1.2l-.01.152c-.012.18-.024.344-.024.508l0,1.33c0,2.153.008,4.305.023,6.458a3.4,3.4,0,0,0,3.281,3.4c.181.009.362.023.563.041l.469.037v8.516h18.367V5509.9l.127-.02C186.228,5509.372,187,5508.469,187,5505.051Zm-5.583-26.6h-15.8v-7.348h15.8Zm.018,38.729H165.6v-7.346h15.836Z" fill="#de0022"/>
      <path id="Path_51" data-name="Path 51" d="M148.93,5465.64a4.344,4.344,0,0,0-4.432-2.9h-.02c-9.073.018-18.146,0-27.219.019a5.562,5.562,0,0,0-1.8.246,4.534,4.534,0,0,0-2.91,4.534c.023,11.263.023,22.716.024,33.792q0,9.719,0,19.438a5.907,5.907,0,0,0,.246,1.881,4.477,4.477,0,0,0,4.412,2.917h.027c5.624-.026,11.341-.026,16.871-.023q5.172,0,10.348,0a5.315,5.315,0,0,0,1.791-.244,4.5,4.5,0,0,0,2.929-4.6c-.036-4.948-.024-9.98-.014-14.846q.006-3.145.01-6.294c0-.143-.013-.288-.027-.443,0-.035-.006-.071-.009-.108H148l0,6.335q.009,7.682.009,15.363c0,2.429-1.235,3.666-3.667,3.679q-2.351.007-4.7,0l-7.294,0q-7.443,0-14.884,0h-.016a3.225,3.225,0,0,1-3.228-1.6,5.1,5.1,0,0,1-.463-2.2c-.014-4.315-.008-8.7,0-12.943q.006-3.8.008-7.6,0-7.521-.011-15.041-.009-8.742-.01-17.481c0-2.351,1.235-3.6,3.572-3.6,10.908-.016,19.279-.01,27.134.015a4.557,4.557,0,0,1,2.021.5,3.236,3.236,0,0,1,1.545,3.19q-.007,6.909,0,13.82v5.965h1.121l.012-.092a2.96,2.96,0,0,0,.034-.375v-1.922c0-5.793,0-11.784-.01-17.677A4.727,4.727,0,0,0,148.93,5465.64Z" fill="#de0022"/>
      <path id="Path_52" data-name="Path 52" d="M175.452,5493.247l-5.807-5.819-.934.923,4.446,4.181H131.915l-.267-.371,4.188-4-.8-.813-5.889,5.919,5.815,5.678.91-.741-4.348-4.329h41.691l-4.408,4.34.795.767Z" fill="#de0022"/>
      <path id="Path_53" data-name="Path 53" d="M190.61,5498.32c1.4-.073,2.028-.646,2.083-1.913.079-1.809.067-3.781-.038-6.2a1.657,1.657,0,0,0-1.556-1.613,7.776,7.776,0,0,0-1.147-.075c-.142,0-.288-.005-.438-.01v1.216h.576c1.283.012,1.461.191,1.464,1.467q0,.687,0,1.375c0,.821-.006,1.643.007,2.464.03,1.943-.085,2.1-1.538,2.142l-.483.016s-.006.011-.018.019v1.119l.283,0C190.085,5498.331,190.351,5498.333,190.61,5498.32Z" fill="#de0022"/>
      <rect id="Rectangle_55" data-name="Rectangle 55" width="5.21" height="1.099" transform="translate(128.268 5518.826)" fill="#de0022"/>
    </g>
  </g>
</svg>
